<svg width="272" height="256" viewBox="0 0 272 256" fill="none" xmlns="http://www.w3.org/2000/svg">
<path fill-rule="evenodd" clip-rule="evenodd" d="M204.121 141.2C207.183 103.388 179.012 70.2522 141.2 67.1901C103.387 64.1279 70.252 92.2985 67.1899 130.111C65.8509 146.645 70.4836 162.285 79.2829 174.907L70.2135 186.051C75.9131 187.45 85.2395 190.908 93.2164 193.865C98.6261 195.87 103.415 197.645 106.031 198.392C107.676 198.862 109.321 199.322 110.941 199.764C116.643 201.959 122.731 203.423 129.101 204.032C129.126 204.035 129.15 204.039 129.175 204.043L129.168 204.038C129.481 204.068 129.796 204.095 130.111 204.121C167.923 207.183 201.058 179.012 204.121 141.2Z" fill="#FFE4BB"/>
<path d="M118.247 113.845C117.51 113.996 116.796 113.981 116.104 113.798C115.422 113.625 114.812 113.319 114.274 112.882C113.735 112.444 113.294 111.905 112.951 111.266C112.617 110.636 112.427 109.944 112.378 109.192C112.356 108.853 112.377 108.516 112.441 108.181C112.504 107.847 112.596 107.519 112.718 107.2C112.894 106.716 113.12 106.258 113.394 105.824C113.688 105.39 113.996 104.968 114.319 104.56C114.8 103.953 115.33 103.39 115.911 102.871C116.51 102.35 117.147 101.889 117.82 101.486C118.375 101.158 118.946 100.932 119.534 100.809C120.131 100.695 120.715 100.667 121.286 100.725C121.866 100.791 122.41 100.941 122.916 101.173C123.422 101.405 123.858 101.717 124.223 102.109C124.607 102.5 124.901 102.953 125.104 103.469C125.307 103.985 125.392 104.566 125.358 105.21C125.331 105.826 125.167 106.427 124.865 107.013C124.571 107.59 124.197 108.086 123.742 108.503C123.642 108.575 123.534 108.648 123.416 108.722C123.316 108.795 123.205 108.83 123.082 108.829C122.94 108.809 122.795 108.762 122.648 108.687C122.502 108.611 122.363 108.516 122.233 108.401C122.112 108.277 121.999 108.143 121.895 107.998C121.81 107.852 121.749 107.71 121.712 107.571C121.685 107.44 121.681 107.303 121.7 107.16C121.738 107.016 121.786 106.881 121.844 106.754C121.976 106.462 122.133 106.192 122.316 105.944C122.517 105.695 122.655 105.417 122.73 105.11C122.813 104.793 122.79 104.506 122.66 104.25C122.549 103.993 122.37 103.782 122.124 103.619C121.896 103.454 121.619 103.344 121.295 103.289C120.989 103.233 120.678 103.244 120.361 103.321C120.083 103.396 119.807 103.508 119.533 103.658C119.268 103.798 119.009 103.961 118.757 104.147C118.125 104.603 117.545 105.141 117.018 105.761C116.5 106.371 116.075 107.036 115.744 107.756C115.626 107.991 115.524 108.229 115.435 108.47C115.366 108.711 115.339 108.963 115.356 109.227C115.371 109.452 115.437 109.67 115.554 109.88C115.682 110.099 115.835 110.278 116.014 110.417C116.183 110.548 116.379 110.658 116.602 110.748C116.825 110.837 117.051 110.894 117.279 110.917C117.517 110.949 117.748 110.939 117.972 110.886C118.205 110.843 118.402 110.75 118.563 110.607C118.643 110.536 118.699 110.443 118.729 110.328C118.778 110.211 118.78 110.097 118.736 109.987C118.679 109.849 118.582 109.737 118.445 109.651C118.317 109.575 118.185 109.503 118.048 109.436C117.864 109.363 117.688 109.27 117.52 109.158C117.361 109.036 117.234 108.889 117.137 108.715C117.074 108.606 117.038 108.485 117.029 108.354C117.029 108.212 117.054 108.083 117.103 107.966C117.177 107.782 117.301 107.59 117.477 107.39C117.653 107.189 117.84 107.088 118.039 107.084C118.228 107.091 118.407 107.15 118.574 107.262C118.751 107.364 118.918 107.467 119.076 107.57C119.423 107.822 119.757 108.098 120.079 108.398C120.4 108.699 120.663 109.036 120.867 109.411C120.997 109.667 121.089 109.935 121.145 110.215C121.211 110.503 121.224 110.781 121.185 111.048C121.148 111.353 121.048 111.647 120.887 111.932C120.745 112.215 120.567 112.467 120.355 112.689C120.071 112.972 119.742 113.215 119.367 113.418C119.012 113.621 118.638 113.763 118.247 113.845ZM123.026 120.203C122.526 120.065 122.091 119.833 121.72 119.508C121.36 119.191 121.067 118.818 120.841 118.388C120.623 117.949 120.484 117.48 120.424 116.984C120.373 116.477 120.416 115.973 120.554 115.473C120.771 114.599 121.158 113.786 121.715 113.032C122.279 112.268 122.943 111.644 123.706 111.161C124.105 110.908 124.536 110.701 124.998 110.539C125.46 110.377 125.932 110.304 126.415 110.32C126.85 110.33 127.281 110.416 127.707 110.577C128.142 110.729 128.52 110.955 128.842 111.255C129.153 111.547 129.403 111.899 129.59 112.312C129.786 112.715 129.912 113.128 129.967 113.549C130.01 113.924 129.992 114.299 129.912 114.672C129.851 115.045 129.761 115.41 129.642 115.767C129.41 116.415 129.085 117.017 128.667 117.573C128.26 118.137 127.786 118.636 127.247 119.067C127.003 119.243 126.75 119.411 126.486 119.57C126.241 119.727 125.975 119.857 125.689 119.961C125.275 120.129 124.833 120.238 124.364 120.287C123.905 120.345 123.459 120.317 123.026 120.203ZM123.024 117.298C123.112 117.5 123.24 117.648 123.406 117.741C123.582 117.824 123.774 117.869 123.982 117.874C124.19 117.88 124.401 117.852 124.614 117.791C124.836 117.72 125.048 117.631 125.249 117.523C125.704 117.249 126.106 116.892 126.455 116.454C126.683 116.175 126.886 115.883 127.065 115.578C127.253 115.264 127.402 114.933 127.511 114.586C127.583 114.383 127.631 114.167 127.654 113.939C127.677 113.711 127.668 113.49 127.625 113.275C127.593 113.069 127.525 112.885 127.42 112.721C127.315 112.558 127.161 112.44 126.958 112.368C126.774 112.295 126.579 112.275 126.373 112.307C126.176 112.329 125.99 112.379 125.816 112.456C125.41 112.614 125.033 112.842 124.683 113.138C124.353 113.434 124.062 113.755 123.81 114.102C123.575 114.41 123.379 114.743 123.222 115.103C123.066 115.463 122.958 115.838 122.898 116.229C122.881 116.41 122.879 116.594 122.891 116.782C122.903 116.971 122.947 117.142 123.024 117.298ZM128.306 124.978C128.033 124.844 127.798 124.647 127.602 124.385C127.487 124.213 127.385 124.026 127.297 123.824C127.227 123.621 127.176 123.416 127.144 123.21C127.093 122.864 127.08 122.506 127.103 122.136C127.126 121.766 127.207 121.411 127.346 121.071C127.508 120.645 127.728 120.244 128.006 119.867C128.294 119.499 128.607 119.153 128.945 118.829C129.408 118.383 129.926 117.996 130.5 117.666C131.074 117.336 131.673 117.108 132.298 116.983C132.643 116.914 132.986 116.887 133.328 116.903C133.677 116.909 134.012 116.972 134.332 117.093C134.641 117.206 134.93 117.362 135.198 117.562C135.466 117.762 135.711 117.978 135.934 118.209C136.168 118.468 136.334 118.764 136.431 119.098C136.798 118.64 137.196 118.217 137.625 117.831C138.062 117.434 138.521 117.074 139 116.75C139.262 116.554 139.533 116.437 139.814 116.4C140.04 116.386 140.265 116.433 140.489 116.541C140.713 116.649 140.915 116.773 141.094 116.913C141.262 117.025 141.413 117.167 141.547 117.337C141.68 117.508 141.795 117.68 141.892 117.854C141.988 118.027 142.034 118.227 142.029 118.454C142.044 118.68 142.01 118.881 141.926 119.056C141.774 119.33 141.573 119.58 141.323 119.804C141.081 120.017 140.829 120.213 140.567 120.391C140.032 120.737 139.496 121.074 138.96 121.401C138.433 121.737 137.918 122.101 137.414 122.493C137.387 122.504 137.354 122.511 137.316 122.513C137.298 122.514 137.284 122.529 137.277 122.558L137.264 122.573C137.255 122.583 137.255 122.592 137.265 122.601C136.88 122.919 136.504 123.246 136.138 123.581C135.791 123.915 135.465 124.276 135.159 124.664C134.906 124.992 134.658 125.325 134.416 125.661C134.183 126.007 133.945 126.348 133.702 126.685C133.615 126.804 133.501 126.944 133.361 127.104C133.23 127.273 133.084 127.429 132.923 127.571C132.762 127.714 132.595 127.834 132.422 127.93C132.267 128.025 132.114 128.068 131.962 128.058C131.858 128.056 131.752 128.025 131.645 127.966C131.546 127.896 131.45 127.813 131.359 127.715C131.268 127.617 131.181 127.514 131.098 127.405C131.016 127.297 130.958 127.202 130.924 127.119C130.825 126.908 130.792 126.684 130.824 126.445C130.855 126.188 130.919 125.943 131.018 125.71C131.135 125.476 131.253 125.251 131.371 125.035C131.159 125.115 130.942 125.191 130.719 125.262C130.497 125.333 130.273 125.366 130.046 125.362C129.432 125.373 128.852 125.245 128.306 124.978ZM130.293 123.263C130.397 123.549 130.593 123.73 130.881 123.806C131.179 123.891 131.471 123.881 131.758 123.778C132.173 123.628 132.541 123.401 132.862 123.097C133.201 122.792 133.512 122.479 133.793 122.159C133.952 121.978 134.1 121.789 134.239 121.592C134.387 121.402 134.511 121.201 134.611 120.987C134.693 120.792 134.745 120.581 134.768 120.353C134.801 120.133 134.774 119.932 134.687 119.749C134.622 119.621 134.531 119.523 134.413 119.455C134.295 119.387 134.165 119.343 134.022 119.324C133.879 119.305 133.728 119.305 133.568 119.325C133.409 119.344 133.26 119.373 133.12 119.41C132.917 119.48 132.72 119.573 132.529 119.689C132.347 119.795 132.165 119.911 131.985 120.036C131.533 120.367 131.161 120.741 130.866 121.157C130.728 121.355 130.599 121.561 130.481 121.777C130.381 121.991 130.311 122.222 130.271 122.47C130.25 122.595 130.235 122.723 130.225 122.856C130.224 122.998 130.247 123.133 130.293 123.263ZM142.02 136.847C141.439 136.62 140.882 136.334 140.35 135.991C139.827 135.656 139.349 135.262 138.913 134.808C138.802 134.692 138.694 134.562 138.59 134.418C138.497 134.282 138.44 134.134 138.42 133.975C138.41 133.824 138.43 133.682 138.478 133.546C138.536 133.42 138.603 133.292 138.68 133.165C138.862 132.917 139.046 132.688 139.231 132.477C139.424 132.257 139.612 132.023 139.795 131.775C140.564 130.8 141.343 129.852 142.134 128.932C142.934 128.002 143.749 127.075 144.577 126.153C144.957 125.741 145.318 125.331 145.66 124.921C146.021 124.511 146.407 124.122 146.818 123.756C146.979 123.613 147.155 123.483 147.346 123.367C147.537 123.251 147.741 123.191 147.958 123.186C148.195 123.199 148.416 123.27 148.623 123.398C148.83 123.527 149.032 123.66 149.23 123.799C149.518 124.016 149.797 124.244 150.067 124.482C150.347 124.709 150.626 124.946 150.907 125.193C151.168 125.441 151.421 125.698 151.665 125.966C151.909 126.234 152.126 126.522 152.316 126.831C152.442 127.031 152.545 127.237 152.625 127.449C152.724 127.66 152.78 127.878 152.795 128.104C152.828 128.47 152.767 128.843 152.612 129.221C152.521 129.426 152.401 129.622 152.253 129.811C152.123 129.999 151.973 130.169 151.804 130.322C151.449 130.685 151.013 130.959 150.496 131.143C149.998 131.326 149.496 131.453 148.99 131.523C149.263 131.799 149.454 132.126 149.564 132.507C149.683 132.896 149.746 133.279 149.751 133.657C149.758 133.911 149.713 134.165 149.616 134.417C149.537 134.667 149.43 134.901 149.292 135.118C149.095 135.423 148.853 135.708 148.568 135.972C148.291 136.226 147.989 136.439 147.66 136.611C147.322 136.794 146.958 136.935 146.567 137.036C146.187 137.146 145.804 137.217 145.419 137.252C144.847 137.317 144.271 137.316 143.69 137.25C143.12 137.192 142.563 137.058 142.02 136.847ZM148.444 126.117C148.036 126.54 147.643 126.967 147.265 127.397C146.886 127.828 146.503 128.254 146.114 128.676C146.399 128.837 146.683 128.998 146.967 129.159C147.262 129.329 147.567 129.456 147.885 129.54C148.095 129.583 148.31 129.621 148.53 129.654C148.758 129.677 148.974 129.654 149.177 129.584C149.334 129.527 149.481 129.461 149.618 129.386C149.763 129.301 149.879 129.189 149.965 129.052C150.165 128.784 150.236 128.491 150.178 128.173C150.148 128.005 150.086 127.853 149.992 127.718C149.917 127.581 149.829 127.449 149.726 127.324C149.55 127.08 149.351 126.861 149.131 126.668C148.911 126.474 148.682 126.29 148.444 126.117ZM142.259 133.728C142.271 133.774 142.308 133.824 142.368 133.877C142.438 133.938 142.508 134 142.578 134.062C142.657 134.113 142.731 134.161 142.8 134.203C142.887 134.245 142.956 134.278 143.004 134.304C143.395 134.505 143.82 134.648 144.279 134.732C144.747 134.806 145.195 134.8 145.624 134.716C145.867 134.663 146.106 134.572 146.344 134.443C146.59 134.304 146.802 134.144 146.979 133.963C147.156 133.781 147.294 133.574 147.392 133.341C147.491 133.108 147.523 132.87 147.488 132.626C147.452 132.364 147.37 132.114 147.241 131.877C147.113 131.639 146.957 131.423 146.774 131.227C146.53 130.959 146.26 130.712 145.962 130.485C145.672 130.249 145.362 130.056 145.032 129.908C144.627 130.368 144.227 130.833 143.832 131.303C143.446 131.762 143.06 132.231 142.675 132.709C142.649 132.739 142.615 132.798 142.573 132.886C142.54 132.964 142.503 133.046 142.462 133.134C142.42 133.222 142.383 133.304 142.35 133.382C142.317 133.46 142.293 133.518 142.276 133.557C142.26 133.596 142.254 133.653 142.259 133.728ZM147.114 141.857C146.986 141.78 146.866 141.684 146.755 141.568C146.635 141.463 146.57 141.335 146.56 141.184C146.554 141.09 146.58 140.97 146.636 140.825C146.712 140.678 146.797 140.531 146.891 140.383C146.986 140.235 147.076 140.093 147.161 139.955C147.266 139.816 147.349 139.711 147.41 139.641C147.961 138.954 148.527 138.28 149.108 137.619L149.122 137.604C149.795 136.757 150.493 135.943 151.218 135.159C151.942 134.375 152.686 133.61 153.45 132.861C153.592 132.72 153.77 132.538 153.982 132.317C154.214 132.094 154.455 131.88 154.706 131.675C154.958 131.47 155.201 131.294 155.437 131.146C155.692 130.998 155.92 130.931 156.119 130.946C156.337 130.961 156.536 131.038 156.715 131.177C156.904 131.326 157.07 131.48 157.212 131.641C157.335 131.785 157.426 131.954 157.486 132.148C157.554 132.333 157.557 132.512 157.492 132.686C157.435 132.832 157.301 133.015 157.088 133.237C156.885 133.448 156.648 133.666 156.379 133.892C156.129 134.115 155.879 134.33 155.627 134.535C155.385 134.73 155.21 134.878 155.103 134.98C154.648 135.396 154.208 135.826 153.783 136.269C153.358 136.712 152.934 137.165 152.51 137.627C152.13 138.038 151.76 138.45 151.399 138.86C151.048 139.28 150.708 139.717 150.378 140.173C150.205 140.411 150.031 140.649 149.857 140.887C149.692 141.115 149.518 141.343 149.334 141.572C149.231 141.73 149.099 141.88 148.938 142.023C148.777 142.166 148.594 142.253 148.388 142.285C148.164 142.318 147.944 142.285 147.73 142.186C147.507 142.096 147.302 141.987 147.114 141.857ZM154.998 147.403C154.375 147.264 153.784 147.028 153.224 146.696C152.664 146.363 152.166 145.961 151.729 145.488C151.546 145.292 151.39 145.066 151.26 144.81C151.139 144.543 151.075 144.274 151.066 144C151.059 143.585 151.127 143.174 151.271 142.768C151.424 142.371 151.603 141.996 151.807 141.643C152.095 141.114 152.422 140.62 152.789 140.162C153.165 139.694 153.566 139.248 153.993 138.824C154.028 138.783 154.099 138.713 154.206 138.611C154.321 138.5 154.437 138.389 154.553 138.277C154.687 138.165 154.808 138.058 154.915 137.956C155.04 137.854 155.126 137.787 155.171 137.756C155.371 137.629 155.592 137.54 155.834 137.486C156.085 137.423 156.333 137.393 156.579 137.396C156.796 137.391 157.015 137.415 157.236 137.467C157.466 137.528 157.689 137.608 157.903 137.707C158.34 137.897 158.764 138.101 159.175 138.32C159.596 138.548 159.986 138.811 160.346 139.109C160.596 139.329 160.806 139.585 160.976 139.876C161.156 140.176 161.256 140.486 161.277 140.806C161.317 141.286 161.262 141.743 161.11 142.178C160.969 142.621 160.752 142.999 160.46 143.311C160.178 143.631 159.839 143.865 159.443 144.014C159.046 144.162 158.613 144.19 158.144 144.097C157.665 143.996 157.219 143.807 156.804 143.532C156.399 143.265 156.013 142.978 155.643 142.671C155.554 142.611 155.465 142.541 155.375 142.462C155.295 142.391 155.197 142.35 155.083 142.339C154.997 142.316 154.908 142.326 154.816 142.37C154.734 142.423 154.649 142.489 154.56 142.571C154.471 142.652 154.391 142.742 154.322 142.841C154.262 142.93 154.21 143.009 154.167 143.078C154.107 143.167 154.047 143.265 153.988 143.373C153.947 143.479 153.935 143.584 153.951 143.687C153.969 143.809 154.034 143.937 154.146 144.071C154.259 144.206 154.385 144.335 154.525 144.458C154.676 144.59 154.83 144.707 154.987 144.811C155.154 144.904 155.296 144.975 155.412 145.024C155.626 145.124 155.844 145.2 156.064 145.252C156.304 145.302 156.544 145.362 156.785 145.432C156.871 145.455 156.953 145.483 157.031 145.515C157.127 145.547 157.216 145.598 157.296 145.668C157.525 145.852 157.635 146.091 157.625 146.384C157.635 146.676 157.517 146.911 157.274 147.087C157.112 147.211 156.924 147.303 156.711 147.364C156.506 147.415 156.3 147.447 156.093 147.46C155.727 147.493 155.362 147.474 154.998 147.403ZM156.312 140.063C156.262 140.18 156.242 140.304 156.25 140.435C156.269 140.576 156.306 140.706 156.361 140.825C156.426 140.953 156.504 141.076 156.597 141.193C156.689 141.309 156.79 141.407 156.899 141.485C157.068 141.616 157.259 141.712 157.47 141.774C157.692 141.845 157.897 141.874 158.085 141.862C158.284 141.859 158.445 141.806 158.571 141.703C158.716 141.599 158.795 141.438 158.809 141.22C158.83 140.954 158.748 140.705 158.563 140.471C158.378 140.237 158.167 140.052 157.932 139.916C157.903 139.909 157.874 139.892 157.843 139.865C157.813 139.839 157.784 139.822 157.755 139.814C157.502 139.698 157.225 139.65 156.924 139.669C156.642 139.688 156.438 139.819 156.312 140.063ZM159.973 152.655C159.549 152.531 159.145 152.345 158.761 152.095C158.376 151.846 158.027 151.566 157.715 151.256C157.563 151.105 157.42 150.944 157.287 150.773C157.144 150.612 157.028 150.431 156.94 150.228C156.885 150.109 156.839 149.98 156.802 149.841C156.783 149.7 156.784 149.568 156.804 149.444C156.829 149.234 156.906 149.036 157.035 148.848C157.175 148.669 157.33 148.512 157.501 148.378C157.618 148.286 157.74 148.207 157.868 148.142C158.015 148.076 158.164 148.038 158.315 148.028C158.419 148.031 158.52 148.058 158.617 148.108C158.734 148.157 158.837 148.212 158.926 148.273C159.225 148.518 159.484 148.799 159.702 149.115C159.93 149.422 160.202 149.688 160.519 149.913C160.618 149.982 160.726 150.042 160.842 150.091C160.969 150.149 161.097 150.164 161.228 150.137C161.387 150.117 161.515 150.052 161.612 149.942C161.709 149.832 161.766 149.696 161.784 149.534C161.792 149.364 161.772 149.204 161.725 149.056C161.687 148.898 161.639 148.74 161.581 148.583C161.455 148.242 161.293 147.912 161.093 147.595C160.911 147.276 160.772 146.94 160.673 146.587C160.544 146.189 160.524 145.808 160.614 145.443C160.723 145.077 160.9 144.754 161.147 144.473C161.402 144.183 161.713 143.95 162.08 143.776C162.446 143.601 162.841 143.495 163.264 143.459C163.452 143.446 163.636 143.439 163.815 143.437C164.003 143.425 164.189 143.446 164.372 143.501C164.738 143.609 165.078 143.757 165.393 143.945C165.726 144.131 166.033 144.348 166.313 144.594C166.513 144.77 166.691 144.962 166.846 145.169C167.02 145.376 167.162 145.598 167.272 145.837C167.417 146.196 167.435 146.549 167.326 146.896C167.25 147.184 167.092 147.454 166.853 147.706C166.623 147.947 166.363 148.092 166.073 148.139C165.878 148.179 165.681 148.14 165.485 148.021C165.327 147.917 165.186 147.785 165.062 147.623C164.957 147.459 164.852 147.296 164.747 147.133C164.642 146.969 164.529 146.816 164.406 146.673C164.292 146.52 164.148 146.401 163.972 146.318C163.816 146.234 163.66 146.23 163.504 146.306C163.357 146.372 163.246 146.488 163.172 146.653C163.121 146.751 163.095 146.852 163.092 146.956C163.099 147.069 163.111 147.177 163.127 147.279C163.21 147.69 163.34 148.088 163.516 148.473C163.692 148.859 163.802 149.258 163.848 149.671C163.887 149.989 163.861 150.312 163.769 150.639C163.676 150.966 163.534 151.259 163.343 151.517C163.152 151.775 162.921 152.007 162.651 152.213C162.381 152.42 162.088 152.571 161.773 152.667C161.487 152.77 161.183 152.813 160.861 152.796C160.557 152.778 160.261 152.731 159.973 152.655ZM165.694 157.684C165.27 157.56 164.866 157.374 164.482 157.124C164.097 156.875 163.748 156.595 163.435 156.285C163.284 156.134 163.141 155.973 163.008 155.802C162.865 155.641 162.749 155.46 162.661 155.258C162.606 155.138 162.56 155.009 162.522 154.87C162.504 154.729 162.505 154.597 162.525 154.473C162.55 154.263 162.627 154.065 162.756 153.877C162.896 153.698 163.051 153.541 163.222 153.408C163.339 153.315 163.461 153.236 163.589 153.171C163.736 153.105 163.885 153.067 164.036 153.058C164.14 153.06 164.241 153.087 164.338 153.137C164.455 153.187 164.558 153.241 164.646 153.302C164.946 153.547 165.205 153.828 165.423 154.145C165.651 154.451 165.923 154.717 166.24 154.942C166.339 155.011 166.447 155.071 166.563 155.12C166.69 155.178 166.818 155.193 166.949 155.166C167.108 155.146 167.236 155.081 167.333 154.971C167.43 154.861 167.487 154.725 167.505 154.563C167.513 154.393 167.493 154.233 167.446 154.085C167.408 153.927 167.36 153.77 167.302 153.613C167.176 153.271 167.014 152.942 166.814 152.624C166.632 152.305 166.493 151.969 166.394 151.616C166.265 151.218 166.245 150.837 166.335 150.472C166.444 150.106 166.621 149.783 166.868 149.503C167.123 149.212 167.434 148.98 167.801 148.805C168.167 148.63 168.562 148.524 168.985 148.488C169.173 148.476 169.357 148.468 169.536 148.466C169.724 148.454 169.91 148.475 170.093 148.53C170.459 148.638 170.799 148.787 171.114 148.974C171.447 149.161 171.754 149.377 172.034 149.624C172.234 149.8 172.412 149.991 172.567 150.199C172.741 150.405 172.883 150.627 172.993 150.866C173.138 151.225 173.156 151.578 173.047 151.925C172.971 152.213 172.813 152.483 172.574 152.735C172.344 152.976 172.084 153.121 171.794 153.168C171.599 153.209 171.402 153.169 171.206 153.05C171.048 152.946 170.907 152.814 170.783 152.652C170.678 152.488 170.573 152.325 170.468 152.162C170.363 151.998 170.25 151.845 170.127 151.702C170.013 151.549 169.869 151.43 169.693 151.347C169.537 151.263 169.38 151.259 169.225 151.335C169.078 151.401 168.967 151.517 168.893 151.682C168.842 151.78 168.816 151.881 168.813 151.985C168.82 152.098 168.832 152.206 168.848 152.309C168.931 152.719 169.061 153.117 169.237 153.502C169.413 153.888 169.523 154.287 169.569 154.7C169.608 155.018 169.582 155.341 169.49 155.668C169.397 155.996 169.255 156.288 169.064 156.546C168.873 156.804 168.642 157.036 168.372 157.243C168.102 157.449 167.809 157.6 167.494 157.696C167.208 157.799 166.904 157.842 166.581 157.825C166.278 157.807 165.982 157.76 165.694 157.684ZM119.218 143.564C119.087 143.591 118.94 143.577 118.776 143.522C118.622 143.475 118.471 143.404 118.323 143.31C118.175 143.215 118.04 143.106 117.919 142.982C117.789 142.867 117.687 142.751 117.613 142.633C117.457 142.407 117.394 142.165 117.425 141.908C117.425 141.766 117.454 141.632 117.512 141.506C117.589 141.378 117.666 141.25 117.743 141.122C117.863 140.944 117.99 140.78 118.122 140.63C118.273 140.479 118.424 140.327 118.575 140.176C118.919 139.804 119.264 139.442 119.61 139.089C119.975 138.735 120.349 138.39 120.734 138.053C120.751 138.033 120.796 137.992 120.868 137.931C120.939 137.87 121.015 137.803 121.096 137.732C121.176 137.661 121.252 137.594 121.324 137.533C121.395 137.472 121.44 137.431 121.458 137.411C121.485 137.4 121.493 137.371 121.48 137.325C121.468 137.278 121.461 137.236 121.458 137.199C121.42 136.899 121.41 136.597 121.428 136.294C121.457 135.999 121.485 135.704 121.513 135.409C121.579 134.971 121.66 134.536 121.755 134.104C121.85 133.673 121.96 133.246 122.083 132.822C122.145 132.61 122.228 132.345 122.33 132.027C122.441 131.698 122.572 131.378 122.722 131.066C122.872 130.754 123.033 130.47 123.205 130.213C123.388 129.965 123.58 129.806 123.784 129.736C123.894 129.692 124.021 129.679 124.164 129.698C124.326 129.716 124.479 129.753 124.625 129.81C124.78 129.876 124.922 129.947 125.049 130.024C125.187 130.109 125.297 130.197 125.378 130.286C125.491 130.42 125.566 130.567 125.605 130.725C125.641 130.845 125.644 130.963 125.613 131.078C125.593 131.203 125.573 131.327 125.552 131.451C125.497 131.615 125.441 131.779 125.386 131.943C125.33 132.108 125.274 132.272 125.219 132.436C125.045 132.957 124.885 133.482 124.739 134.011C124.613 134.539 124.529 135.069 124.487 135.601C124.48 135.63 124.473 135.677 124.468 135.744C124.473 135.819 124.473 135.899 124.469 135.984C124.465 136.07 124.456 136.151 124.442 136.227C124.437 136.294 124.435 136.336 124.437 136.355C125.093 136.133 125.743 135.879 126.386 135.592C127.028 135.305 127.671 135.018 128.314 134.731C128.425 134.686 128.535 134.641 128.646 134.596C128.775 134.55 128.9 134.509 129.02 134.473C129.141 134.437 129.258 134.415 129.37 134.408C129.502 134.399 129.621 134.415 129.728 134.456C129.988 134.543 130.19 134.738 130.332 135.04C130.485 135.352 130.527 135.637 130.458 135.897C130.421 136.06 130.341 136.202 130.216 136.323C130.092 136.445 129.962 136.552 129.826 136.646C129.111 137.136 128.348 137.539 127.537 137.856C126.736 138.182 125.919 138.466 125.084 138.708C125.038 138.721 124.935 138.746 124.777 138.785C124.638 138.822 124.48 138.861 124.303 138.9C124.145 138.939 123.991 138.982 123.843 139.029C123.695 139.076 123.598 139.106 123.552 139.119C123.514 139.121 123.43 139.145 123.301 139.192C123.182 139.246 123.103 139.275 123.066 139.278C122.563 139.83 122.084 140.394 121.63 140.971C121.195 141.547 120.746 142.129 120.283 142.716C120.143 142.895 119.989 143.07 119.821 143.242C119.652 143.413 119.451 143.521 119.218 143.564ZM126.009 149.454C125.509 149.316 125.074 149.085 124.703 148.759C124.343 148.442 124.049 148.069 123.823 147.639C123.606 147.2 123.467 146.732 123.407 146.235C123.355 145.728 123.399 145.224 123.536 144.724C123.754 143.85 124.141 143.037 124.697 142.283C125.262 141.519 125.926 140.895 126.688 140.412C127.088 140.159 127.519 139.952 127.98 139.79C128.442 139.628 128.915 139.555 129.398 139.571C129.833 139.581 130.264 139.667 130.69 139.828C131.125 139.98 131.503 140.206 131.824 140.506C132.136 140.798 132.386 141.15 132.573 141.563C132.769 141.967 132.894 142.379 132.95 142.8C132.993 143.176 132.975 143.55 132.895 143.924C132.834 144.296 132.744 144.661 132.625 145.018C132.393 145.666 132.068 146.268 131.65 146.824C131.242 147.388 130.769 147.887 130.23 148.318C129.986 148.494 129.732 148.662 129.469 148.821C129.224 148.978 128.958 149.108 128.672 149.212C128.258 149.38 127.816 149.489 127.347 149.538C126.887 149.596 126.442 149.568 126.009 149.454ZM126.006 146.549C126.095 146.751 126.223 146.899 126.389 146.992C126.565 147.075 126.756 147.12 126.965 147.125C127.173 147.131 127.384 147.103 127.597 147.042C127.819 146.971 128.031 146.882 128.232 146.774C128.686 146.5 129.088 146.143 129.438 145.705C129.666 145.426 129.869 145.134 130.048 144.829C130.235 144.515 130.384 144.184 130.494 143.837C130.566 143.634 130.614 143.418 130.637 143.19C130.66 142.962 130.65 142.741 130.608 142.526C130.576 142.32 130.507 142.136 130.403 141.972C130.298 141.809 130.144 141.691 129.94 141.619C129.756 141.546 129.561 141.526 129.355 141.558C129.159 141.58 128.973 141.63 128.798 141.707C128.393 141.866 128.015 142.093 127.666 142.389C127.335 142.685 127.044 143.006 126.793 143.353C126.557 143.661 126.362 143.994 126.205 144.354C126.049 144.714 125.941 145.089 125.881 145.48C125.864 145.661 125.862 145.845 125.874 146.033C125.886 146.222 125.93 146.394 126.006 146.549ZM132.341 154.728C131.95 154.668 131.569 154.537 131.196 154.334C130.824 154.131 130.533 153.857 130.322 153.512C130.077 153.083 129.956 152.604 129.96 152.075C129.974 151.555 130.07 151.062 130.247 150.597C130.435 150.141 130.677 149.714 130.973 149.317C131.287 148.919 131.622 148.539 131.976 148.176C132.003 148.146 132.051 148.091 132.122 148.011C132.202 147.939 132.291 147.858 132.389 147.767C132.487 147.675 132.572 147.59 132.642 147.509C132.723 147.438 132.776 147.387 132.802 147.357C132.953 147.206 133.166 146.994 133.442 146.721C133.717 146.448 134.007 146.179 134.311 145.914C134.634 145.648 134.95 145.419 135.259 145.229C135.568 145.04 135.835 144.937 136.061 144.923C136.287 144.908 136.507 144.951 136.721 145.05C136.945 145.159 137.134 145.298 137.286 145.467C137.458 145.636 137.584 145.836 137.665 146.067C137.755 146.288 137.779 146.513 137.737 146.742C137.695 146.972 137.59 147.181 137.423 147.372C137.275 147.561 137.106 147.723 136.916 147.858C136.457 148.218 135.988 148.56 135.508 148.884C135.028 149.208 134.57 149.568 134.132 149.964C133.971 150.107 133.798 150.283 133.614 150.494C133.438 150.694 133.276 150.907 133.13 151.134C133.003 151.36 132.909 151.588 132.849 151.818C132.797 152.039 132.81 152.246 132.889 152.439C132.966 152.614 133.106 152.737 133.309 152.809C133.512 152.881 133.711 152.887 133.905 152.827C134.184 152.753 134.447 152.646 134.693 152.507C134.948 152.359 135.197 152.196 135.441 152.02C136.02 151.624 136.549 151.183 137.028 150.699C137.526 150.214 138.054 149.764 138.613 149.35C138.839 149.194 139.076 149.046 139.322 148.908C139.578 148.778 139.838 148.704 140.101 148.687C140.365 148.67 140.596 148.741 140.795 148.898C141.004 149.064 141.136 149.277 141.19 149.538C141.225 149.782 141.185 150.04 141.07 150.311C140.971 150.526 140.842 150.732 140.685 150.931C140.536 151.12 140.378 151.301 140.21 151.472C139.918 151.784 139.631 152.09 139.348 152.392C139.065 152.694 138.797 153.018 138.546 153.365C138.075 153.981 137.69 154.681 137.391 155.466C137.278 155.756 137.169 156.052 137.066 156.351C136.981 156.649 136.857 156.931 136.695 157.197C136.636 157.305 136.552 157.4 136.444 157.482C136.336 157.565 136.217 157.62 136.086 157.647C135.909 157.687 135.721 157.689 135.52 157.655C135.328 157.611 135.135 157.538 134.939 157.437C134.762 157.335 134.594 157.214 134.434 157.073C134.274 156.932 134.155 156.784 134.079 156.628C133.995 156.501 133.949 156.363 133.939 156.212C133.939 156.07 133.954 155.933 133.983 155.798C134.076 155.471 134.222 155.174 134.422 154.906C134.632 154.647 134.838 154.392 135.039 154.143C134.616 154.322 134.173 154.482 133.709 154.626C133.255 154.759 132.799 154.793 132.341 154.728Z" fill="#01432B"/>
</svg>
