<svg width="237" height="238" viewBox="0 0 237 238" fill="none" xmlns="http://www.w3.org/2000/svg">
<path fill-rule="evenodd" clip-rule="evenodd" d="M108.715 227.819C168.596 233.135 221.474 188.613 226.822 128.375C232.17 68.1373 187.963 14.9952 128.082 9.67886C101.899 7.35421 77.0539 14.5588 56.9363 28.4397L39.3911 13.852C37.0993 22.921 31.4985 37.7475 26.7082 50.4286C23.4596 59.0286 20.5836 66.6419 19.3652 70.8036C18.5952 73.4338 17.8411 76.0654 17.1152 78.6562C13.579 87.6859 11.1885 97.3348 10.1379 107.439C10.1277 107.503 10.1177 107.566 10.108 107.629L10.1201 107.611C10.0686 108.114 10.0205 108.618 9.97563 109.123C4.62756 169.361 48.8348 222.503 108.715 227.819Z" fill="#FFE4BB"/>
<path d="M101.041 88.4782C100.34 88.0797 99.8103 87.5196 99.4518 86.798C99.3317 86.5473 99.2558 86.279 99.224 85.9929C99.2064 85.6909 99.2665 85.4298 99.4044 85.2096C99.5139 85.0214 99.7092 84.7524 99.9902 84.4026C100.287 84.0671 100.619 83.6916 100.987 83.2762C101.37 82.875 101.775 82.4498 102.201 82.0007C102.642 81.5658 103.055 81.1477 103.438 80.7466C103.838 80.3596 104.194 80.0054 104.506 79.6841C104.835 79.3771 105.07 79.1436 105.211 78.9839C105.068 78.8558 104.924 78.7127 104.78 78.5544C104.635 78.3962 104.527 78.2282 104.456 78.0505C104.37 77.8585 104.351 77.6551 104.398 77.4402C104.446 77.2252 104.524 77.0085 104.632 76.7901C104.754 76.5557 104.891 76.3355 105.045 76.1295C105.215 75.9378 105.371 75.7772 105.514 75.6476C105.671 75.502 105.845 75.3858 106.036 75.2989C106.241 75.196 106.443 75.1616 106.64 75.1955C106.868 75.2277 107.064 75.3451 107.226 75.5478C107.403 75.7345 107.564 75.922 107.711 76.1105C107.838 75.9667 108.05 75.727 108.347 75.3915C108.658 75.04 109.011 74.6405 109.407 74.1932C109.803 73.7458 110.22 73.2744 110.658 72.7791C111.096 72.2838 111.513 71.8125 111.909 71.3651C112.305 70.9177 112.651 70.5263 112.948 70.1907C113.259 69.8392 113.478 69.5916 113.606 69.4478C113.777 69.2862 113.972 69.146 114.191 69.0272C114.426 68.9226 114.659 68.9014 114.888 68.9638C115.072 69.0137 115.304 69.1214 115.585 69.2869C115.882 69.4666 116.172 69.6694 116.457 69.8952C116.755 70.1051 117.032 70.3239 117.286 70.5515C117.54 70.7791 117.718 70.9809 117.819 71.1569C117.971 71.436 118.018 71.7363 117.962 72.0578C117.903 72.3491 117.698 72.7096 117.347 73.1392C117.025 73.5671 116.643 73.9985 116.202 74.4334C115.79 74.8666 115.369 75.2775 114.94 75.6662C114.525 76.039 114.21 76.3301 113.996 76.5395C113.912 76.6354 113.741 76.812 113.485 77.0694C113.229 77.3268 112.943 77.6011 112.629 77.8922C112.344 78.1815 112.074 78.4549 111.818 78.7123C111.562 78.9697 111.391 79.1463 111.306 79.2422C111.418 79.3418 111.641 79.5561 111.977 79.885C112.326 80.198 112.693 80.5403 113.076 80.912C113.489 81.2819 113.864 81.6313 114.2 81.9602C114.549 82.2732 114.78 82.4795 114.891 82.5791C115.032 82.4193 115.267 82.1708 115.593 81.8335C115.934 81.4802 116.311 81.087 116.722 80.6539C117.148 80.2048 117.603 79.7388 118.087 79.2559C118.572 78.7731 119.027 78.3222 119.455 77.9033C119.897 77.4684 120.281 77.0823 120.608 76.745C120.951 76.422 121.209 76.1948 121.382 76.0635C121.569 75.9162 121.779 75.7751 122.013 75.6403C122.262 75.5197 122.514 75.4595 122.771 75.4597C123.027 75.4599 123.279 75.5285 123.528 75.6655C123.777 75.8025 124.006 75.9786 124.215 76.1938C124.439 76.4232 124.626 76.6623 124.776 76.9111C124.942 77.1742 125.062 77.4248 125.137 77.663C125.232 78.0059 125.241 78.2858 125.163 78.5024C125.099 78.7031 124.911 78.9642 124.598 79.2855C124.301 79.621 123.96 79.9591 123.573 80.2999C123.216 80.639 122.865 80.9549 122.52 81.2478C122.176 81.5406 121.925 81.7598 121.768 81.9054C121.139 82.4876 120.518 83.0769 119.905 83.6733C119.307 84.284 118.726 84.9089 118.161 85.548C118.318 85.66 118.476 85.7872 118.635 85.9295C118.794 86.0717 118.886 86.2406 118.913 86.436C118.934 86.5409 118.912 86.6786 118.847 86.8491C118.811 87.0178 118.746 87.1883 118.65 87.3606C118.555 87.5328 118.452 87.698 118.34 87.856C118.243 87.998 118.159 88.109 118.088 88.1889C118.018 88.2688 117.919 88.3806 117.792 88.5244C117.694 88.6665 117.574 88.8023 117.431 88.9319C117.318 89.0597 117.197 89.1804 117.068 89.294C116.939 89.4076 116.83 89.467 116.739 89.4723C116.499 89.4863 116.213 89.359 115.881 89.0904C115.549 88.8219 115.295 88.6094 115.121 88.4529C114.629 89.0725 114.122 89.6779 113.599 90.2691C113.106 90.8585 112.607 91.471 112.102 92.1066C111.861 92.3782 111.622 92.665 111.383 92.9668C111.161 93.2829 110.929 93.5767 110.689 93.8483C110.533 94.0241 110.385 94.1918 110.244 94.3516C110.102 94.5114 109.937 94.6498 109.748 94.7669C109.573 94.868 109.38 94.9096 109.168 94.8917C108.986 94.872 108.794 94.815 108.593 94.7206C108.391 94.6263 108.203 94.5009 108.028 94.3444C107.839 94.2039 107.672 94.0545 107.527 93.8963C107.333 93.6651 107.153 93.418 106.987 93.1549C106.821 92.8919 106.722 92.6173 106.69 92.3312C106.662 92.1056 106.722 91.8444 106.871 91.5479C107.019 91.2513 107.198 90.953 107.406 90.6529C107.645 90.3511 107.876 90.0572 108.101 89.7714C108.341 89.4998 108.532 89.2841 108.673 89.1243C108.772 89.0124 108.984 88.7728 109.309 88.4053C109.664 88.0361 110.033 87.6357 110.414 87.2043C110.796 86.7729 111.15 86.3735 111.475 86.006C111.816 85.6527 112.043 85.4122 112.156 85.2844C111.568 84.758 110.987 84.2236 110.412 83.6813C109.854 83.1531 109.287 82.6028 108.712 82.0302C108.086 82.6728 107.453 83.3083 106.811 83.9367C106.186 84.5793 105.576 85.2362 104.982 85.9072C104.67 86.2285 104.381 86.5712 104.116 86.9352C103.851 87.2991 103.554 87.6347 103.225 87.9418C103.054 88.1033 102.866 88.2506 102.663 88.3837C102.476 88.531 102.263 88.6267 102.025 88.6709C101.714 88.7648 101.386 88.7006 101.041 88.4782ZM121.053 105.957C120.816 105.774 120.578 105.576 120.34 105.362C120.087 105.165 119.937 104.916 119.889 104.616C119.851 104.466 119.876 104.26 119.966 103.998C120.072 103.749 120.193 103.499 120.33 103.249C120.48 102.983 120.631 102.731 120.783 102.495C120.951 102.273 121.083 102.091 121.18 101.949C120.749 102.05 120.309 102.129 119.861 102.185C119.428 102.256 118.999 102.258 118.573 102.192C118.239 102.151 117.911 102.087 117.59 101.999C117.268 101.912 116.974 101.778 116.707 101.596C116.361 101.344 116.057 101.028 115.793 100.649C115.53 100.271 115.326 99.8736 115.181 99.4577C114.966 98.8641 114.884 98.2325 114.935 97.5627C114.987 96.893 115.092 96.2428 115.251 95.6122C115.387 95.1042 115.546 94.6025 115.728 94.1069C115.926 93.6256 116.171 93.1719 116.463 92.7458C117.062 91.9077 117.764 91.1621 118.57 90.509C119.375 89.8559 120.25 89.3503 121.193 88.9922C121.916 88.7227 122.682 88.5493 123.491 88.4718C124.3 88.3943 125.092 88.4163 125.868 88.5378C126.294 88.6039 126.721 88.7002 127.15 88.8267C127.596 88.9674 127.991 89.1641 128.338 89.4166C128.825 89.7671 129.213 90.2142 129.501 90.7581C129.818 91.3002 130.054 91.8548 130.208 92.4216C130.21 92.4518 130.271 92.4634 130.391 92.4564C130.511 92.4494 130.601 92.4442 130.661 92.4407C130.965 92.4836 131.251 92.6108 131.519 92.8225C131.804 93.0484 132.029 93.2928 132.195 93.5559C132.328 93.7604 132.417 93.9976 132.463 94.2677C132.539 94.536 132.538 94.7936 132.462 95.0405C132.39 95.3478 132.256 95.6284 132.06 95.8823C131.879 96.1504 131.683 96.4043 131.471 96.644C130.96 97.189 130.418 97.7055 129.844 98.1936C129.3 98.68 128.764 99.1885 128.238 99.7193C127.584 100.394 126.953 101.075 126.345 101.762C125.753 102.463 125.202 103.215 124.691 104.018C124.594 104.16 124.463 104.372 124.299 104.654C124.165 104.935 124.007 105.209 123.827 105.477C123.663 105.76 123.482 106.013 123.284 106.236C123.086 106.46 122.898 106.592 122.719 106.633C122.511 106.675 122.22 106.601 121.847 106.411C121.491 106.235 121.226 106.083 121.053 105.957ZM119.406 98.6431C119.542 98.908 119.74 99.0858 120.002 99.1766C120.263 99.2675 120.529 99.305 120.799 99.2892C121.1 99.2717 121.405 99.216 121.716 99.1221C122.041 99.0123 122.336 98.9041 122.601 98.7978C123.234 98.5336 123.808 98.1743 124.324 97.7199C124.856 97.2798 125.364 96.8183 125.848 96.3354C126.12 96.0923 126.376 95.8349 126.617 95.5632C126.871 95.2756 127.103 94.9818 127.311 94.6817C127.421 94.4935 127.515 94.3061 127.595 94.1197C127.69 93.9474 127.747 93.7547 127.764 93.5415C127.773 93.1773 127.65 92.8663 127.394 92.6085C127.137 92.3506 126.835 92.194 126.485 92.1387C126.089 92.0708 125.691 92.0865 125.29 92.1856C124.903 92.2688 124.525 92.3893 124.158 92.5471C123.584 92.7776 123.043 93.0667 122.536 93.4145C122.045 93.7765 121.578 94.175 121.137 94.6099C120.895 94.8513 120.625 95.1398 120.328 95.4753C120.062 95.8091 119.826 96.1562 119.621 96.5167C119.432 96.8914 119.302 97.2626 119.234 97.6303C119.18 98.0122 119.238 98.3499 119.406 98.6431ZM125.207 113.196C124.967 113.21 124.723 113.164 124.476 113.057C124.23 112.981 124.012 112.857 123.821 112.686C123.63 112.516 123.476 112.32 123.358 112.1C123.239 111.879 123.165 111.641 123.135 111.385C123.103 111.099 123.14 110.817 123.244 110.538C123.348 110.259 123.475 109.986 123.626 109.72C123.914 109.233 124.234 108.775 124.585 108.346C124.937 107.916 125.304 107.501 125.688 107.099C126.653 106.073 127.609 105.04 128.558 104C129.521 102.944 130.452 101.859 131.352 100.746C131.772 100.206 132.179 99.6821 132.571 99.1743C132.977 98.6505 133.399 98.1259 133.835 97.6004C134.09 97.3128 134.352 97.0323 134.623 96.7589C134.923 96.4838 135.257 96.2673 135.624 96.1095C136.328 95.7655 137.048 95.7234 137.787 95.9835C138.048 96.0743 138.304 96.2033 138.555 96.3705C138.806 96.5377 138.976 96.7475 139.066 96.9999C139.119 97.1332 139.143 97.2833 139.138 97.4503C139.133 97.6173 139.119 97.7772 139.098 97.93C139.003 98.3599 138.83 98.7639 138.581 99.1421C138.332 99.5203 138.075 99.8914 137.81 100.255C138.149 100.13 138.522 100.062 138.928 100.054C139.35 100.06 139.76 100.111 140.158 100.209C140.555 100.307 140.918 100.461 141.247 100.669C141.575 100.877 141.839 101.142 142.039 101.464C142.275 101.904 142.41 102.397 142.441 102.94C142.487 103.468 142.456 103.97 142.348 104.446C142.203 105.06 141.959 105.643 141.614 106.193C141.285 106.758 140.917 107.287 140.509 107.781C139.749 108.704 138.855 109.521 137.827 110.233C136.798 110.945 135.696 111.418 134.519 111.653C134.102 111.738 133.667 111.764 133.213 111.729C132.773 111.679 132.388 111.535 132.057 111.297C131.633 111.003 131.265 110.631 130.953 110.179C130.67 109.726 130.44 109.262 130.261 108.788C129.774 109.468 129.247 110.127 128.681 110.766C128.132 111.42 127.525 111.993 126.861 112.486C126.615 112.667 126.353 112.819 126.074 112.941C125.81 113.078 125.521 113.163 125.207 113.196ZM132.75 106.892C132.831 107.251 133.04 107.481 133.378 107.583C133.729 107.669 134.091 107.678 134.464 107.611C134.955 107.506 135.411 107.313 135.832 107.031C136.282 106.747 136.685 106.42 137.04 106.051C137.182 105.891 137.328 105.693 137.48 105.457C137.662 105.219 137.806 104.976 137.912 104.727C138.032 104.463 138.108 104.201 138.138 103.941C138.184 103.696 138.163 103.478 138.077 103.286C137.925 103.007 137.674 102.839 137.324 102.784C136.975 102.729 136.658 102.732 136.376 102.794C135.78 102.92 135.215 103.172 134.68 103.552C134.16 103.946 133.727 104.403 133.381 104.923C133.172 105.223 132.995 105.537 132.848 105.864C132.717 106.205 132.685 106.547 132.75 106.892ZM135.43 122.345C135.19 122.359 134.946 122.313 134.698 122.206C134.453 122.129 134.235 122.006 134.044 121.835C133.853 121.664 133.699 121.469 133.58 121.248C133.462 121.028 133.388 120.79 133.358 120.534C133.326 120.248 133.362 119.965 133.467 119.686C133.571 119.408 133.698 119.135 133.848 118.869C134.136 118.382 134.456 117.924 134.808 117.494C135.16 117.065 135.527 116.649 135.911 116.248C136.875 115.222 137.832 114.189 138.781 113.148C139.744 112.092 140.675 111.007 141.575 109.894C141.995 109.355 142.402 108.831 142.794 108.323C143.2 107.799 143.622 107.275 144.058 106.749C144.313 106.461 144.575 106.181 144.845 105.908C145.146 105.632 145.48 105.416 145.847 105.258C146.55 104.914 147.271 104.872 148.01 105.132C148.271 105.223 148.527 105.352 148.778 105.519C149.029 105.686 149.199 105.896 149.289 106.149C149.342 106.282 149.366 106.432 149.361 106.599C149.355 106.766 149.342 106.926 149.321 107.079C149.225 107.509 149.053 107.913 148.804 108.291C148.555 108.669 148.298 109.04 148.033 109.404C148.372 109.278 148.745 109.211 149.151 109.202C149.573 109.208 149.983 109.26 150.38 109.358C150.778 109.456 151.141 109.609 151.469 109.817C151.798 110.026 152.062 110.29 152.262 110.612C152.498 111.053 152.632 111.545 152.664 112.089C152.71 112.617 152.679 113.119 152.571 113.595C152.426 114.209 152.181 114.792 151.837 115.342C151.508 115.907 151.14 116.436 150.732 116.93C149.972 117.853 149.078 118.67 148.049 119.382C147.021 120.093 145.919 120.567 144.742 120.802C144.325 120.887 143.89 120.912 143.436 120.878C142.996 120.828 142.611 120.684 142.28 120.445C141.856 120.152 141.488 119.779 141.175 119.328C140.893 118.875 140.662 118.411 140.484 117.936C139.996 118.616 139.47 119.276 138.904 119.915C138.355 120.568 137.748 121.142 137.084 121.635C136.838 121.816 136.576 121.968 136.296 122.09C136.033 122.227 135.744 122.312 135.43 122.345ZM142.973 116.041C143.054 116.4 143.263 116.63 143.601 116.732C143.952 116.817 144.314 116.826 144.687 116.759C145.178 116.655 145.634 116.461 146.055 116.179C146.505 115.895 146.908 115.569 147.263 115.2C147.404 115.04 147.551 114.842 147.703 114.606C147.885 114.368 148.029 114.125 148.135 113.876C148.255 113.611 148.33 113.349 148.361 113.09C148.406 112.845 148.386 112.626 148.3 112.434C148.148 112.155 147.897 111.988 147.547 111.933C147.197 111.877 146.881 111.881 146.599 111.943C146.003 112.068 145.438 112.321 144.902 112.701C144.383 113.095 143.95 113.552 143.604 114.072C143.395 114.372 143.218 114.685 143.071 115.012C142.94 115.353 142.907 115.696 142.973 116.041ZM147.507 136.545C146.871 136.234 146.268 135.837 145.697 135.355C145.142 134.888 144.638 134.379 144.184 133.83C143.942 133.556 143.714 133.266 143.501 132.96C143.303 132.669 143.134 132.36 142.995 132.035C142.906 131.813 142.847 131.574 142.817 131.318C142.773 131.078 142.767 130.844 142.799 130.615C142.893 130.154 143.124 129.732 143.493 129.347C143.879 128.976 144.306 128.814 144.776 128.863C144.974 128.897 145.158 128.962 145.33 129.058C145.503 129.184 145.662 129.326 145.807 129.484C145.886 129.556 146.008 129.708 146.172 129.94C146.352 130.188 146.541 130.442 146.737 130.703C146.934 130.995 147.115 131.257 147.28 131.49C147.446 131.753 147.561 131.928 147.627 132.015C147.855 132.305 148.105 132.586 148.377 132.858C148.664 133.144 148.984 133.33 149.336 133.416C149.671 133.487 150.01 133.475 150.351 133.379C150.693 133.314 151.003 133.205 151.281 133.052C151.691 132.846 152.06 132.59 152.389 132.283C152.747 131.974 153.091 131.666 153.42 131.359C153.803 130.958 154.178 130.534 154.543 130.089C154.925 129.657 155.292 129.227 155.643 128.797C155.059 129.104 154.448 129.359 153.812 129.563C153.206 129.765 152.579 129.862 151.931 129.855C151.478 129.851 151.031 129.794 150.587 129.683C150.158 129.557 149.755 129.368 149.379 129.117C148.879 128.813 148.494 128.411 148.224 127.912C147.902 127.309 147.735 126.629 147.721 125.872C147.723 125.13 147.848 124.441 148.097 123.805C148.11 123.759 148.149 123.665 148.217 123.525C148.298 123.369 148.345 123.267 148.357 123.221C148.597 122.434 148.954 121.694 149.425 121C149.911 120.289 150.438 119.63 151.005 119.021C151.26 118.733 151.601 118.38 152.028 117.961C152.47 117.526 152.936 117.113 153.425 116.72C153.944 116.326 154.445 116.002 154.928 115.746C155.424 115.475 155.869 115.358 156.263 115.396C156.703 115.446 157.108 115.665 157.477 116.052C157.846 116.44 158.059 116.859 158.115 117.311C158.142 117.506 158.108 117.705 158.014 117.908C157.937 118.124 157.842 118.312 157.731 118.47C157.367 118.945 156.962 119.371 156.517 119.745C156.072 120.12 155.611 120.495 155.136 120.871C154.864 121.114 154.52 121.422 154.105 121.795C153.706 122.182 153.315 122.591 152.934 123.023C152.552 123.454 152.231 123.897 151.971 124.352C151.726 124.79 151.613 125.191 151.635 125.553C151.668 126.127 151.961 126.504 152.514 126.684C152.76 126.761 152.995 126.785 153.219 126.757C153.473 126.727 153.711 126.667 153.932 126.579C154.45 126.412 154.925 126.165 155.358 125.836C155.807 125.522 156.246 125.186 156.678 124.827C157.324 124.29 157.962 123.73 158.591 123.147C159.22 122.565 159.89 122.034 160.6 121.553C161.033 121.224 161.49 121.046 161.97 121.018C162.24 121.003 162.507 121.055 162.77 121.176C163.064 121.295 163.307 121.456 163.499 121.657C163.722 121.856 163.886 122.089 163.992 122.355C164.114 122.636 164.168 122.913 164.153 123.187C164.136 123.658 164.003 124.097 163.756 124.506C163.522 124.898 163.265 125.269 162.984 125.619C162.871 125.747 162.666 125.978 162.369 126.314C162.087 126.633 161.762 127.001 161.394 127.416C161.026 127.832 160.631 128.279 160.207 128.758C159.797 129.222 159.408 129.661 159.04 130.077C158.673 130.492 158.341 130.868 158.044 131.203C157.761 131.523 157.563 131.746 157.45 131.874C156.798 132.579 156.145 133.269 155.491 133.943C154.868 134.616 154.164 135.218 153.382 135.748C152.903 136.064 152.399 136.343 151.871 136.586C151.359 136.844 150.818 137.004 150.249 137.067C149.304 137.138 148.39 136.964 147.507 136.545ZM63.0351 109.625C62.1095 109.255 61.2236 108.791 60.3775 108.234C59.5473 107.692 58.7868 107.054 58.0962 106.322C57.9196 106.135 57.7492 105.925 57.5849 105.692C57.4366 105.474 57.3474 105.236 57.3174 104.98C57.3033 104.739 57.3351 104.51 57.4129 104.293C57.5066 104.09 57.6153 103.887 57.739 103.683C58.0323 103.287 58.3274 102.921 58.6242 102.586C58.9352 102.234 59.2374 101.861 59.5307 101.465C60.7659 99.9075 62.0187 98.3949 63.2891 96.9267C64.5738 95.4425 65.8813 93.9645 67.2118 92.4928C67.8215 91.836 68.401 91.1809 68.9506 90.5276C69.5301 89.8725 70.1494 89.253 70.8085 88.669C71.0665 88.4418 71.3483 88.236 71.6539 88.0515C71.9596 87.8669 72.2856 87.7722 72.6318 87.7671C73.0099 87.7906 73.3632 87.9063 73.6917 88.1145C74.0203 88.3226 74.3418 88.5388 74.6562 88.7629C75.1137 89.115 75.557 89.4832 75.9862 89.8673C76.4296 90.2354 76.8738 90.6187 77.319 91.017C77.734 91.4171 78.135 91.8332 78.5218 92.2653C78.9086 92.6973 79.2521 93.1622 79.5524 93.6599C79.7519 93.9816 79.9144 94.3131 80.0398 94.6543C80.1952 94.9938 80.2834 95.3448 80.3046 95.7072C80.3539 96.2953 80.2531 96.8922 80.0022 97.4978C79.8555 97.8246 79.6629 98.1389 79.4243 98.4407C79.2158 98.7408 78.9755 99.0124 78.7034 99.2556C78.1344 99.8343 77.4365 100.269 76.6097 100.56C75.8129 100.849 75.0108 101.047 74.2034 101.155C74.6362 101.599 74.9382 102.127 75.1094 102.738C75.2966 103.364 75.3928 103.98 75.3979 104.585C75.4067 104.994 75.3324 105.4 75.1751 105.803C75.0479 106.204 74.8738 106.578 74.6529 106.925C74.3348 107.413 73.947 107.867 73.4893 108.288C73.0458 108.693 72.5608 109.032 72.0343 109.305C71.4937 109.594 70.9115 109.817 70.2879 109.975C69.6802 110.147 69.0689 110.258 68.4541 110.309C67.5407 110.408 66.6212 110.401 65.6955 110.288C64.7857 110.19 63.8989 109.969 63.0351 109.625ZM73.3809 92.4741C72.7271 93.1487 72.0963 93.8295 71.4885 94.5165C70.8806 95.2036 70.2648 95.8835 69.6411 96.5563C70.0933 96.8178 70.5455 97.0794 70.9977 97.3409C71.4658 97.6167 71.9525 97.8232 72.4577 97.9605C72.7934 98.0318 73.1361 98.0952 73.4859 98.1505C73.8498 98.1899 74.1943 98.1547 74.5194 98.0448C74.7702 97.9544 75.0052 97.8498 75.2243 97.731C75.4575 97.5961 75.643 97.4186 75.7809 97.1984C76.1025 96.7705 76.2183 96.3016 76.1283 95.7916C76.0824 95.5215 75.9853 95.2772 75.8369 95.0585C75.7186 94.8381 75.5782 94.6266 75.4157 94.4239C75.1366 94.031 74.8222 93.6781 74.4725 93.3651C74.1228 93.0521 73.7589 92.7551 73.3809 92.4741ZM63.4441 104.623C63.4635 104.698 63.5209 104.778 63.6163 104.863C63.7276 104.963 63.8389 105.062 63.9501 105.162C64.0756 105.246 64.193 105.322 64.3025 105.391C64.4421 105.459 64.5507 105.513 64.6285 105.554C65.2502 105.882 65.9268 106.115 66.6582 106.254C67.4037 106.377 68.1191 106.374 68.8046 106.243C69.1915 106.16 69.5749 106.016 69.9548 105.812C70.3488 105.592 70.688 105.337 70.9725 105.048C71.257 104.759 71.4787 104.427 71.6378 104.055C71.7969 103.682 71.8499 103.3 71.797 102.909C71.7423 102.488 71.6134 102.086 71.4103 101.704C71.2072 101.322 70.9608 100.972 70.6712 100.656C70.2844 100.224 69.8543 99.8246 69.3809 99.4582C68.9216 99.0758 68.4288 98.7636 67.9024 98.5216C67.2521 99.2565 66.6098 99.9986 65.9755 100.748C65.3553 101.481 64.7359 102.229 64.1175 102.993C64.0751 103.041 64.0203 103.135 63.9531 103.275C63.9001 103.399 63.84 103.532 63.7729 103.672C63.7057 103.812 63.6456 103.945 63.5926 104.069C63.5396 104.193 63.4998 104.287 63.4733 104.349C63.4468 104.411 63.4371 104.502 63.4441 104.623ZM82.4835 106.074C82.0614 105.811 81.8088 105.484 81.7258 105.095C81.6429 104.706 81.68 104.31 81.8373 103.907C81.9946 103.504 82.2438 103.125 82.5848 102.772C82.94 102.403 83.3534 102.129 83.8251 101.95C84.0601 101.845 84.3119 101.77 84.5804 101.724C84.8489 101.678 85.1051 101.678 85.3489 101.724C85.6068 101.755 85.8294 101.825 86.0166 101.936C86.2339 102.044 86.3946 102.217 86.4988 102.453C86.6719 102.837 86.7495 103.264 86.7318 103.735C86.7282 104.19 86.6089 104.598 86.3738 104.961C86.0982 105.401 85.6962 105.743 85.1679 105.986C84.6556 106.243 84.1432 106.371 83.6309 106.371C83.4189 106.353 83.214 106.327 83.0161 106.293C82.8324 106.243 82.6549 106.17 82.4835 106.074ZM72.5864 118.516C72.2314 118.37 71.9099 118.154 71.622 117.868C71.3341 117.582 71.1045 117.262 70.9332 116.908C70.8307 116.702 70.7654 116.486 70.7372 116.26C70.7231 116.018 70.7399 115.79 70.7877 115.575C70.8425 115.224 70.9432 114.884 71.0899 114.557C71.2366 114.231 71.3992 113.918 71.5777 113.62C71.6342 113.556 71.7032 113.446 71.7844 113.29C71.8958 113.132 71.9885 113.043 72.0627 113.023C72.091 112.991 72.1113 112.952 72.1237 112.906C72.1361 112.86 72.1485 112.814 72.1608 112.768C72.6786 112.086 73.2202 111.425 73.7856 110.786C74.3669 110.161 74.9562 109.544 75.5534 108.933C75.9245 108.578 76.2885 108.231 76.6454 107.892C77.0023 107.553 77.4069 107.256 77.8592 107.003C78.1366 106.85 78.4158 106.728 78.6967 106.636C78.9935 106.558 79.2859 106.533 79.5738 106.562C79.7399 106.567 79.898 106.566 80.0482 106.557C80.2142 106.562 80.3741 106.591 80.5278 106.643C80.7274 106.707 80.9288 106.801 81.1319 106.926C81.335 107.05 81.517 107.199 81.6777 107.371C81.8543 107.558 81.9939 107.754 82.0963 107.96C82.2288 108.165 82.2932 108.366 82.2896 108.563C82.3143 108.986 82.1941 109.379 81.929 109.743C81.7894 109.933 81.5076 110.268 81.0835 110.747C80.6753 111.241 80.223 111.752 79.7265 112.281C79.23 112.81 78.7546 113.315 78.3005 113.796C77.8765 114.275 77.5937 114.595 77.4524 114.755C76.9311 115.376 76.4019 115.99 75.8647 116.598C75.3417 117.189 74.7622 117.715 74.1261 118.176C73.9088 118.325 73.6597 118.446 73.3788 118.538C73.112 118.614 72.8479 118.607 72.5864 118.516ZM80.0547 123.31C79.7243 123.587 79.3489 123.738 78.9284 123.762C78.538 123.785 78.1573 123.716 77.7864 123.556C77.4154 123.396 77.0922 123.15 76.8166 122.817C76.557 122.499 76.3998 122.129 76.3451 121.708C76.294 121.348 76.3903 120.933 76.6342 120.464C76.894 120.009 77.2059 119.544 77.5699 119.068C77.9339 118.592 78.3147 118.146 78.7122 117.729C79.1098 117.312 79.4287 116.967 79.6691 116.696C81.2116 114.984 82.7145 113.237 84.1775 111.455C84.4444 111.121 84.6732 110.782 84.8641 110.437C85.0549 110.093 85.2917 109.761 85.5744 109.441C85.7299 109.265 85.9084 109.096 86.1098 108.933C86.3271 108.784 86.5559 108.702 86.7962 108.688C87.1548 108.637 87.5187 108.676 87.8879 108.806C88.2571 108.936 88.5627 109.138 88.8047 109.412C89.1085 109.713 89.2595 110.105 89.2576 110.59C89.2452 110.894 89.1727 111.201 89.0401 111.512C88.9076 111.823 88.7583 112.104 88.5922 112.357C88.29 112.859 87.948 113.326 87.5664 113.757C87.2006 114.203 86.8428 114.656 86.4929 115.116C87.1537 114.82 87.8171 114.569 88.4831 114.363C89.1651 114.172 89.8568 114.018 90.5581 113.901C91.1111 113.824 91.6738 113.783 92.2462 113.78C92.8344 113.791 93.3706 113.942 93.8546 114.232C94.1354 114.397 94.3615 114.657 94.5328 115.011C94.7394 115.453 94.7976 115.935 94.7075 116.455C94.6314 116.96 94.4573 117.462 94.1851 117.963C93.943 118.462 93.6311 118.927 93.2495 119.359C92.8678 119.79 92.4826 120.161 92.0939 120.472C91.8783 120.651 91.6389 120.809 91.3757 120.945C91.1266 121.066 90.8677 121.149 90.5992 121.195C90.1964 121.264 89.8157 121.196 89.4571 120.989C89.1144 120.797 88.9016 120.506 88.8186 120.117C88.7939 119.952 88.7993 119.785 88.8346 119.616C88.9 119.446 88.9734 119.282 89.0547 119.126C89.1236 119.016 89.2066 118.89 89.3038 118.748C89.4152 118.59 89.5115 118.433 89.5928 118.276C89.6882 118.104 89.7615 117.941 89.8128 117.786C89.8641 117.632 89.8711 117.495 89.8341 117.376C89.7299 117.139 89.5029 116.994 89.1531 116.938C88.8192 116.897 88.5322 116.883 88.2919 116.897C87.4828 116.975 86.7063 117.225 85.9625 117.647C85.2328 118.053 84.5596 118.524 83.943 119.06C83.5701 119.385 83.2212 119.731 82.8961 120.099C82.601 120.465 82.2988 120.838 81.9896 121.22C81.6945 121.586 81.3844 121.952 81.0592 122.32C80.7642 122.686 80.4293 123.016 80.0547 123.31ZM90.7869 134.289C90.5307 134.289 90.2781 134.22 90.029 134.083C89.7941 133.93 89.5742 133.776 89.3693 133.621C89.1326 133.438 88.91 133.239 88.7016 133.024C88.479 132.825 88.2998 132.593 88.1638 132.328C87.9483 131.992 87.906 131.653 88.0368 131.312C88.1252 131.019 88.2754 130.753 88.4874 130.513C88.6994 130.274 88.9124 130.049 89.1262 129.84C90.0202 128.893 90.9073 127.955 91.7872 127.025C92.6972 126.093 93.5983 125.139 94.4906 124.163C94.7027 123.923 94.9147 123.683 95.1268 123.444C95.3529 123.188 95.5641 122.933 95.7602 122.679C95.5412 122.54 95.3222 122.402 95.1031 122.263C94.9141 122.122 94.7172 121.975 94.5123 121.82C94.4169 121.735 94.3215 121.649 94.2261 121.564C94.1449 121.463 94.0857 121.352 94.0486 121.233C93.9621 121.041 93.9427 120.838 93.9905 120.623C94.0258 120.454 94.0974 120.261 94.2052 120.042C94.343 119.822 94.4809 119.602 94.6187 119.382C94.7866 119.16 94.9562 118.968 95.1276 118.807C95.3131 118.629 95.4872 118.513 95.6497 118.458C95.8405 118.371 96.0587 118.366 96.3042 118.442C96.5639 118.503 96.8112 118.61 97.0462 118.763C97.2811 118.916 97.5098 119.092 97.7324 119.291C97.955 119.49 98.1466 119.676 98.3073 119.849C98.3921 119.753 98.5476 119.577 98.7738 119.321C99 119.066 99.2474 118.786 99.5159 118.482C99.7845 118.179 100.032 117.899 100.258 117.644C100.5 117.402 100.664 117.234 100.748 117.138C100.877 117.024 101.021 116.91 101.18 116.794C101.355 116.693 101.525 116.63 101.689 116.605C101.869 116.595 102.067 116.629 102.283 116.707C102.512 116.77 102.737 116.87 102.956 117.009C103.175 117.148 103.38 117.302 103.571 117.473C103.761 117.644 103.913 117.794 104.026 117.924C104.176 118.173 104.257 118.388 104.267 118.569C104.301 118.885 104.208 119.232 103.989 119.608C103.77 119.985 103.498 120.357 103.172 120.724C102.863 121.106 102.53 121.466 102.173 121.805C101.83 122.128 101.545 122.403 101.317 122.628C101.616 122.838 101.915 123.063 102.215 123.303C102.53 123.527 102.794 123.792 103.008 124.098C103.106 124.244 103.191 124.405 103.262 124.583C103.347 124.745 103.379 124.917 103.36 125.1C103.324 125.527 103.119 125.887 102.745 126.182C102.4 126.474 102.018 126.633 101.597 126.658C101.357 126.672 101.136 126.631 100.935 126.537C100.733 126.443 100.546 126.333 100.373 126.206C100.325 126.164 100.223 126.086 100.066 125.974C99.9386 125.86 99.7885 125.74 99.6154 125.614C99.4723 125.486 99.3292 125.358 99.1861 125.23C99.059 125.116 98.9715 125.038 98.9238 124.995C97.8866 126.071 96.8971 127.189 95.9553 128.35C95.0135 129.512 94.1185 130.7 93.2703 131.917C93.0476 132.233 92.825 132.549 92.6023 132.865C92.3797 133.181 92.1252 133.468 91.839 133.727C91.6959 133.857 91.5298 133.98 91.3407 134.097C91.1817 134.213 90.9971 134.277 90.7869 134.289ZM98.6862 140.156C98.3929 140.294 98.0873 140.35 97.7693 140.323C97.4513 140.296 97.1528 140.215 96.8737 140.08C96.6246 139.943 96.3959 139.767 96.1875 139.551C95.9932 139.32 95.8722 139.055 95.8246 138.754C95.7575 138.379 95.8229 137.951 96.0209 137.47C96.233 136.973 96.4981 136.48 96.8161 135.992C97.1501 135.518 97.5079 135.065 97.8896 134.633C98.2713 134.202 98.5973 133.85 98.8676 133.576C99.9508 132.513 101.043 131.472 102.144 130.453C103.274 129.432 104.278 128.298 105.154 127.05C105.584 126.403 105.981 125.729 106.347 125.025C106.713 124.322 107.182 123.711 107.755 123.193C108.039 122.904 108.373 122.687 108.757 122.544C109.156 122.414 109.552 122.353 109.944 122.361C110.35 122.352 110.746 122.42 111.131 122.564C111.516 122.709 111.86 122.931 112.164 123.231C112.357 123.432 112.513 123.658 112.633 123.909C112.769 124.174 112.837 124.435 112.837 124.692C112.842 125.041 112.772 125.378 112.625 125.705C112.494 126.046 112.324 126.366 112.116 126.667C111.423 127.707 110.62 128.663 109.707 129.535C108.823 130.404 107.892 131.232 106.913 132.016C107.424 131.986 107.929 131.995 108.429 132.041C108.945 132.102 109.449 132.224 109.942 132.408C110.389 132.579 110.817 132.819 111.227 133.128C111.651 133.422 111.973 133.782 112.194 134.208C112.413 134.605 112.529 135.038 112.541 135.507C112.569 135.99 112.528 136.454 112.419 136.9C112.177 137.915 111.757 138.856 111.16 139.724C110.562 140.592 109.908 141.396 109.198 142.134C108.772 142.583 108.338 143.01 107.894 143.415C107.467 143.834 106.999 144.217 106.492 144.565C106.217 144.748 105.925 144.916 105.618 145.071C105.34 145.223 105.038 145.339 104.711 145.419C104.519 145.476 104.309 145.503 104.083 145.501C103.857 145.499 103.636 145.459 103.421 145.381C103.221 145.316 103.012 145.215 102.793 145.076C102.59 144.952 102.393 144.804 102.202 144.633C102.025 144.447 101.871 144.251 101.738 144.047C101.622 143.856 101.557 143.656 101.545 143.444C101.526 143.112 101.613 142.804 101.807 142.52C102.032 142.234 102.249 141.956 102.459 141.686C102.993 141.019 103.575 140.409 104.206 139.857C104.867 139.303 105.496 138.721 106.093 138.11C106.333 137.838 106.557 137.538 106.764 137.207C106.985 136.861 107.062 136.5 106.994 136.125C106.926 135.72 106.692 135.454 106.292 135.325C105.893 135.197 105.486 135.191 105.071 135.306C104.596 135.424 104.147 135.61 103.725 135.862C103.316 136.097 102.933 136.37 102.574 136.679C102.018 137.211 101.499 137.749 101.019 138.292C100.662 138.631 100.29 138.971 99.9027 139.312C99.5317 139.667 99.1262 139.948 98.6862 140.156ZM110.238 152.168C109.803 151.951 109.431 151.632 109.12 151.211C108.938 150.933 108.777 150.632 108.638 150.307C108.528 149.98 108.449 149.651 108.399 149.321C108.322 148.765 108.303 148.19 108.344 147.596C108.385 147.003 108.517 146.435 108.742 145.891C109.003 145.209 109.358 144.567 109.805 143.965C110.268 143.378 110.77 142.826 111.313 142.309C112.055 141.599 112.885 140.982 113.804 140.459C114.723 139.936 115.681 139.577 116.68 139.382C117.231 139.274 117.778 139.235 118.323 139.264C118.881 139.277 119.414 139.382 119.923 139.579C120.416 139.763 120.875 140.016 121.301 140.34C121.727 140.664 122.116 141.012 122.469 141.386C122.84 141.804 123.102 142.281 123.253 142.818C123.844 142.086 124.482 141.412 125.17 140.796C125.871 140.165 126.606 139.591 127.375 139.077C127.793 138.764 128.227 138.58 128.676 138.524C129.036 138.503 129.395 138.58 129.752 138.756C130.109 138.932 130.429 139.134 130.714 139.359C130.98 139.541 131.22 139.769 131.432 140.045C131.644 140.32 131.825 140.598 131.977 140.877C132.129 141.156 132.201 141.478 132.192 141.842C132.213 142.204 132.156 142.526 132.022 142.806C131.776 143.245 131.453 143.643 131.052 143.999C130.665 144.34 130.261 144.652 129.841 144.934C128.984 145.484 128.126 146.019 127.267 146.539C126.425 147.073 125.599 147.651 124.792 148.274C124.748 148.292 124.696 148.302 124.636 148.306C124.606 148.308 124.584 148.332 124.572 148.378L124.551 148.402C124.537 148.418 124.538 148.433 124.554 148.447C123.935 148.953 123.333 149.473 122.746 150.007C122.189 150.54 121.665 151.116 121.174 151.735C120.768 152.259 120.369 152.79 119.979 153.328C119.604 153.88 119.222 154.425 118.831 154.963C118.692 155.153 118.509 155.376 118.282 155.632C118.072 155.902 117.838 156.15 117.58 156.377C117.322 156.605 117.054 156.794 116.777 156.947C116.53 157.098 116.285 157.165 116.043 157.149C115.877 157.143 115.708 157.093 115.537 156.997C115.38 156.884 115.229 156.749 115.084 156.591C114.939 156.433 114.801 156.267 114.671 156.092C114.54 155.918 114.448 155.764 114.395 155.631C114.24 155.292 114.188 154.931 114.242 154.549C114.293 154.137 114.398 153.744 114.557 153.371C114.746 152.997 114.936 152.637 115.127 152.293C114.788 152.418 114.441 152.537 114.086 152.649C113.73 152.76 113.372 152.812 113.01 152.802C112.031 152.814 111.107 152.603 110.238 152.168ZM113.424 149.437C113.586 149.897 113.897 150.19 114.356 150.314C114.831 150.453 115.298 150.441 115.755 150.278C116.42 150.043 117.009 149.682 117.523 149.198C118.067 148.712 118.566 148.213 119.018 147.701C119.272 147.414 119.511 147.112 119.734 146.796C119.972 146.494 120.172 146.172 120.333 145.829C120.465 145.518 120.551 145.18 120.59 144.814C120.645 144.462 120.603 144.139 120.465 143.844C120.363 143.638 120.218 143.479 120.031 143.369C119.844 143.259 119.636 143.188 119.408 143.155C119.18 143.123 118.939 143.122 118.685 143.152C118.43 143.182 118.192 143.226 117.969 143.285C117.644 143.395 117.329 143.542 117.023 143.726C116.732 143.895 116.441 144.078 116.151 144.277C115.429 144.804 114.831 145.4 114.357 146.064C114.134 146.38 113.928 146.71 113.737 147.055C113.576 147.397 113.462 147.768 113.395 148.166C113.361 148.365 113.335 148.571 113.318 148.784C113.316 149.011 113.351 149.229 113.424 149.437ZM127.419 168.017C127.182 167.833 126.945 167.635 126.706 167.422C126.454 167.224 126.304 166.975 126.256 166.675C126.217 166.526 126.243 166.32 126.333 166.057C126.439 165.808 126.56 165.559 126.696 165.308C126.846 165.042 126.997 164.791 127.149 164.555C127.317 164.333 127.45 164.151 127.547 164.009C127.116 164.109 126.676 164.188 126.227 164.245C125.794 164.315 125.365 164.318 124.939 164.252C124.605 164.21 124.278 164.146 123.956 164.059C123.635 163.971 123.341 163.837 123.074 163.656C122.728 163.403 122.423 163.087 122.16 162.709C121.897 162.33 121.693 161.933 121.548 161.517C121.332 160.923 121.25 160.292 121.302 159.622C121.353 158.952 121.458 158.302 121.617 157.672C121.754 157.164 121.913 156.662 122.095 156.166C122.293 155.685 122.537 155.231 122.829 154.805C123.428 153.967 124.13 153.221 124.936 152.568C125.742 151.915 126.616 151.41 127.56 151.052C128.282 150.782 129.048 150.609 129.857 150.531C130.667 150.454 131.459 150.476 132.234 150.597C132.66 150.663 133.088 150.76 133.517 150.886C133.962 151.027 134.358 151.223 134.704 151.476C135.191 151.826 135.579 152.274 135.867 152.817C136.185 153.36 136.421 153.914 136.574 154.481C136.576 154.511 136.637 154.523 136.757 154.516C136.877 154.509 136.967 154.504 137.027 154.5C137.331 154.543 137.617 154.67 137.886 154.882C138.17 155.108 138.396 155.352 138.562 155.615C138.694 155.82 138.783 156.057 138.829 156.327C138.905 156.595 138.905 156.853 138.829 157.1C138.756 157.407 138.622 157.688 138.426 157.942C138.246 158.21 138.05 158.464 137.838 158.703C137.327 159.248 136.784 159.765 136.21 160.253C135.666 160.739 135.131 161.248 134.604 161.779C133.95 162.453 133.319 163.134 132.712 163.821C132.12 164.522 131.568 165.274 131.058 166.077C130.96 166.219 130.83 166.431 130.665 166.713C130.531 166.994 130.374 167.268 130.194 167.537C130.029 167.819 129.848 168.072 129.65 168.296C129.452 168.519 129.264 168.652 129.086 168.692C128.877 168.735 128.587 168.661 128.214 168.47C127.857 168.294 127.592 168.143 127.419 168.017ZM125.772 160.703C125.908 160.967 126.107 161.145 126.368 161.236C126.63 161.327 126.895 161.364 127.166 161.349C127.466 161.331 127.772 161.275 128.083 161.182C128.408 161.072 128.703 160.964 128.968 160.857C129.6 160.593 130.175 160.234 130.69 159.779C131.222 159.339 131.73 158.878 132.214 158.395C132.487 158.152 132.743 157.894 132.983 157.623C133.237 157.335 133.469 157.041 133.677 156.741C133.787 156.553 133.882 156.366 133.961 156.179C134.057 156.007 134.113 155.814 134.131 155.601C134.14 155.237 134.016 154.926 133.76 154.668C133.504 154.41 133.201 154.253 132.851 154.198C132.455 154.13 132.057 154.146 131.656 154.245C131.269 154.328 130.892 154.449 130.524 154.606C129.95 154.837 129.41 155.126 128.903 155.474C128.411 155.836 127.945 156.234 127.503 156.669C127.261 156.911 126.992 157.199 126.695 157.535C126.428 157.868 126.192 158.216 125.987 158.576C125.798 158.951 125.669 159.322 125.6 159.69C125.547 160.072 125.604 160.409 125.772 160.703ZM133.427 180.307C132.792 179.996 132.188 179.599 131.618 179.117C131.063 178.65 130.559 178.141 130.105 177.592C129.863 177.318 129.635 177.028 129.421 176.722C129.224 176.431 129.055 176.122 128.915 175.797C128.827 175.575 128.768 175.336 128.738 175.08C128.694 174.84 128.688 174.606 128.72 174.377C128.813 173.917 129.045 173.494 129.414 173.109C129.799 172.738 130.227 172.576 130.697 172.625C130.895 172.659 131.079 172.724 131.251 172.82C131.424 172.946 131.583 173.088 131.727 173.247C131.807 173.318 131.929 173.47 132.093 173.703C132.273 173.95 132.461 174.204 132.657 174.465C132.855 174.757 133.036 175.019 133.2 175.252C133.367 175.515 133.482 175.69 133.548 175.777C133.775 176.067 134.025 176.348 134.297 176.62C134.585 176.906 134.905 177.092 135.256 177.178C135.592 177.249 135.93 177.237 136.271 177.141C136.614 177.076 136.924 176.967 137.202 176.814C137.612 176.608 137.981 176.352 138.309 176.045C138.668 175.736 139.012 175.428 139.34 175.121C139.724 174.72 140.098 174.297 140.464 173.851C140.846 173.419 141.213 172.989 141.564 172.559C140.979 172.866 140.369 173.122 139.733 173.325C139.127 173.527 138.5 173.624 137.851 173.617C137.399 173.613 136.951 173.556 136.508 173.445C136.079 173.319 135.676 173.13 135.3 172.879C134.8 172.575 134.415 172.173 134.145 171.674C133.823 171.071 133.655 170.391 133.641 169.634C133.643 168.892 133.769 168.203 134.018 167.567C134.03 167.521 134.07 167.427 134.137 167.287C134.219 167.131 134.265 167.03 134.278 166.983C134.518 166.197 134.874 165.456 135.346 164.762C135.832 164.051 136.359 163.392 136.926 162.783C137.18 162.495 137.521 162.142 137.949 161.723C138.391 161.288 138.856 160.875 139.346 160.483C139.865 160.089 140.366 159.764 140.848 159.508C141.345 159.237 141.79 159.12 142.184 159.158C142.624 159.208 143.028 159.427 143.398 159.814C143.767 160.202 143.98 160.621 144.036 161.073C144.062 161.268 144.029 161.467 143.935 161.67C143.857 161.886 143.763 162.074 143.652 162.232C143.288 162.708 142.883 163.133 142.438 163.507C141.992 163.882 141.532 164.257 141.057 164.633C140.785 164.876 140.441 165.184 140.026 165.557C139.626 165.944 139.236 166.353 138.854 166.785C138.473 167.216 138.152 167.659 137.892 168.114C137.647 168.552 137.534 168.953 137.555 169.315C137.589 169.889 137.882 170.266 138.435 170.446C138.681 170.523 138.915 170.547 139.14 170.519C139.394 170.489 139.632 170.429 139.853 170.341C140.37 170.174 140.846 169.927 141.279 169.598C141.727 169.284 142.167 168.948 142.598 168.589C143.245 168.052 143.883 167.492 144.512 166.909C145.141 166.327 145.811 165.796 146.521 165.315C146.954 164.987 147.41 164.808 147.891 164.78C148.161 164.765 148.428 164.817 148.691 164.938C148.984 165.058 149.227 165.218 149.42 165.419C149.642 165.618 149.807 165.851 149.913 166.117C150.034 166.398 150.088 166.675 150.074 166.949C150.056 167.42 149.924 167.859 149.676 168.268C149.443 168.66 149.186 169.031 148.905 169.381C148.792 169.509 148.587 169.74 148.29 170.076C148.007 170.396 147.682 170.763 147.315 171.178C146.947 171.594 146.551 172.041 146.127 172.521C145.717 172.984 145.329 173.423 144.961 173.839C144.594 174.254 144.261 174.63 143.965 174.965C143.682 175.285 143.484 175.508 143.371 175.636C142.719 176.341 142.066 177.031 141.412 177.705C140.788 178.378 140.085 178.98 139.303 179.51C138.824 179.826 138.32 180.106 137.792 180.348C137.28 180.606 136.739 180.766 136.17 180.829C135.225 180.9 134.311 180.726 133.427 180.307Z" fill="#01432B"/>
</svg>
