<svg width="168" height="168" viewBox="0 0 168 168" fill="none" xmlns="http://www.w3.org/2000/svg">
<path fill-rule="evenodd" clip-rule="evenodd" d="M56.097 128.124C80.6711 143.329 112.919 135.733 128.124 111.159C143.329 86.5853 135.734 54.3379 111.159 39.1328C100.414 32.4841 88.2012 30.1948 76.5877 31.7785L72.1808 21.7604C69.2532 25.139 63.671 30.2621 58.8965 34.6439C55.6586 37.6155 52.7921 40.2461 51.3771 41.7605C50.4885 42.7116 49.6063 43.6666 48.7446 44.6106C45.2749 47.7153 42.1674 51.3365 39.5422 55.4459C39.5316 55.4607 39.521 55.4754 39.5105 55.4901L39.5158 55.4872C39.387 55.6893 39.2593 55.8925 39.1328 56.0969C23.9278 80.6711 31.5229 112.918 56.097 128.124Z" fill="#FFE4BB"/>
<path d="M71.0008 72.7988C70.5546 72.5628 70.2131 72.2232 69.9762 71.7799C69.8967 71.6259 69.8446 71.46 69.8198 71.2824C69.8036 71.0945 69.8368 70.9308 69.9194 70.7912C69.9849 70.672 70.1026 70.501 70.2727 70.2781C70.453 70.0639 70.6547 69.8241 70.8779 69.5589C71.1113 69.3022 71.3576 69.0302 71.6167 68.7429C71.8861 68.4643 72.1375 68.1966 72.3709 67.9399C72.6145 67.6918 72.8315 67.4649 73.022 67.2593C73.2226 67.0622 73.3659 66.9126 73.4517 66.8106C73.3599 66.7334 73.2673 66.6467 73.1739 66.5507C73.0804 66.4546 73.0101 66.3518 72.9628 66.2424C72.9053 66.1243 72.8897 65.9979 72.9159 65.8631C72.9422 65.7284 72.9872 65.592 73.051 65.4541C73.1234 65.3059 73.2061 65.1663 73.2989 65.0353C73.4019 64.9128 73.4971 64.81 73.5846 64.7268C73.6806 64.6333 73.7877 64.5579 73.9057 64.5004C74.0324 64.4327 74.158 64.4077 74.2825 64.4254C74.4259 64.4414 74.5502 64.5111 74.6554 64.6346C74.7693 64.7478 74.8737 64.8618 74.9688 64.9766C75.046 64.8848 75.1748 64.7318 75.3551 64.5175C75.5439 64.2931 75.7585 64.038 75.9989 63.7524C76.2393 63.4667 76.4925 63.1657 76.7586 62.8495C77.0247 62.5332 77.278 62.2322 77.5183 61.9466C77.7587 61.6609 77.969 61.411 78.1493 61.1967C78.3381 60.9723 78.4712 60.8141 78.5485 60.7223C78.6531 60.6187 78.773 60.5279 78.9083 60.45C79.0537 60.3807 79.1989 60.3635 79.3438 60.3983C79.4598 60.4262 79.6072 60.4892 79.786 60.5873C79.9749 60.6941 80.1604 60.8153 80.3425 60.9511C80.5331 61.0766 80.71 61.208 80.8732 61.3454C81.0365 61.4827 81.1511 61.6053 81.2172 61.7132C81.3171 61.8844 81.3521 62.0707 81.3221 62.272C81.2905 62.4545 81.1682 62.6827 80.9552 62.9565C80.761 63.2287 80.5292 63.5042 80.2599 63.7829C80.0093 64.06 79.7528 64.3233 79.4904 64.5731C79.2366 64.8126 79.0445 64.9994 78.9142 65.1337C78.8626 65.1949 78.7588 65.3079 78.6027 65.4728C78.4466 65.6376 78.2724 65.8135 78.0803 66.0004C77.907 66.1856 77.7423 66.3607 77.5862 66.5255C77.43 66.6904 77.3262 66.8034 77.2747 66.8646C77.3461 66.9247 77.4898 67.0543 77.7056 67.2534C77.9301 67.4422 78.1655 67.6491 78.412 67.8739C78.6773 68.0971 78.9178 68.3082 79.1337 68.5073C79.3582 68.6961 79.5061 68.8206 79.5775 68.8807C79.6633 68.7787 79.8058 68.6197 80.0049 68.4038C80.2125 68.1778 80.4416 67.9262 80.6922 67.6491C80.9513 67.3618 81.2284 67.0636 81.5236 66.7543C81.8187 66.445 82.0966 66.1561 82.3574 65.8876C82.6267 65.6089 82.8609 65.3616 83.06 65.1457C83.2692 64.9384 83.427 64.7924 83.5332 64.7075C83.6481 64.6125 83.7774 64.5209 83.9212 64.4328C84.0753 64.3533 84.2325 64.3114 84.393 64.307C84.5535 64.3026 84.7129 64.341 84.8713 64.422C85.0297 64.5029 85.176 64.6086 85.3103 64.739C85.4547 64.878 85.5761 65.0237 85.6744 65.1761C85.7829 65.3371 85.8624 65.4911 85.9129 65.6382C85.9785 65.8502 85.9887 66.0243 85.9437 66.1607C85.9072 66.2869 85.7938 66.4528 85.6033 66.6584C85.423 66.8727 85.2146 67.0893 84.978 67.3084C84.7601 67.5259 84.5457 67.7289 84.3349 67.9174C84.124 68.1059 83.9705 68.2469 83.8745 68.3403C83.4903 68.7141 83.1112 69.0921 82.7372 69.4744C82.3734 69.8654 82.0199 70.2649 81.6765 70.673C81.7769 70.74 81.8781 70.8165 81.9801 70.9023C82.0821 70.9882 82.1431 71.0917 82.163 71.213C82.1781 71.278 82.1666 71.3641 82.1285 71.4715C82.1092 71.5773 82.0712 71.6846 82.0143 71.7936C81.9574 71.9026 81.8955 72.0073 81.8284 72.1077C81.77 72.1979 81.7193 72.2685 81.6763 72.3195C81.6334 72.3705 81.5733 72.442 81.4961 72.5338C81.4376 72.624 81.3646 72.7107 81.2772 72.7939C81.2085 72.8756 81.1347 72.9529 81.0558 73.0259C80.977 73.0989 80.9093 73.1379 80.853 73.1427C80.7027 73.1557 80.5212 73.0814 80.3086 72.9199C80.096 72.7584 79.9335 72.6305 79.8213 72.5361C79.5241 72.9307 79.2167 73.3168 78.899 73.6943C78.6002 74.0701 78.2979 74.4605 77.9921 74.8653C77.8462 75.0388 77.701 75.2216 77.5567 75.4138C77.4226 75.6146 77.2826 75.8018 77.1366 75.9752C77.0422 76.0874 76.9521 76.1945 76.8662 76.2966C76.7804 76.3986 76.6792 76.4877 76.5628 76.564C76.4549 76.6301 76.3344 76.6594 76.2013 76.6519C76.087 76.6428 75.9659 76.6107 75.8381 76.5554C75.7104 76.5002 75.5904 76.4254 75.4781 76.3309C75.3573 76.2467 75.2502 76.1566 75.1568 76.0605C75.0311 75.9199 74.914 75.7692 74.8055 75.6082C74.697 75.4472 74.6304 75.2778 74.6056 75.1002C74.5841 74.9601 74.6173 74.7964 74.7053 74.609C74.7932 74.4216 74.9 74.2326 75.0255 74.042C75.1698 73.8498 75.3099 73.6627 75.4456 73.4807C75.5915 73.3072 75.7074 73.1695 75.7933 73.0675C75.8534 72.996 75.9821 72.843 76.1796 72.6084C76.3958 72.3721 76.6198 72.1162 76.8516 71.8408C77.0833 71.5653 77.298 71.3102 77.4954 71.0756C77.703 70.8495 77.8412 70.6957 77.9099 70.6141C77.5324 70.2964 77.1592 69.9737 76.7903 69.6459C76.4316 69.3267 76.067 68.9937 75.6965 68.6471C75.3155 69.0584 74.9295 69.4655 74.5383 69.8682C74.1574 70.2795 73.7866 70.6995 73.4261 71.1279C73.2356 71.3336 73.0604 71.5521 72.9006 71.7836C72.7407 72.015 72.5604 72.2292 72.3598 72.4263C72.2551 72.5299 72.1403 72.625 72.0153 72.7115C71.9004 72.8065 71.7687 72.8699 71.62 72.9016C71.4268 72.9656 71.2204 72.9313 71.0008 72.7988ZM83.836 83.3373C83.6846 83.2273 83.5324 83.108 83.3793 82.9792C83.2177 82.8606 83.1194 82.7082 83.0845 82.522C83.0576 82.4297 83.0701 82.3008 83.1221 82.1355C83.1843 81.9787 83.2559 81.8211 83.3369 81.6628C83.4265 81.4942 83.5169 81.335 83.6081 81.1852C83.7095 81.044 83.7894 80.9283 83.8479 80.8381C83.5795 80.9085 83.3053 80.9652 83.0251 81.0083C82.7551 81.0599 82.4862 81.0689 82.2183 81.0352C82.0084 81.0154 81.802 80.9811 81.5991 80.9324C81.3962 80.8836 81.2096 80.805 81.0394 80.6967C80.8182 80.5454 80.6219 80.3541 80.4506 80.1228C80.2793 79.8915 80.1447 79.6476 80.0469 79.3911C79.9018 79.0251 79.8397 78.633 79.8604 78.2148C79.8812 77.7966 79.9361 77.3897 80.025 76.9941C80.1016 76.6752 80.1928 76.3598 80.2984 76.0479C80.4142 75.7446 80.5598 75.4576 80.7353 75.187C81.0963 74.6544 81.5237 74.1776 82.0173 73.7565C82.511 73.3355 83.0503 73.0052 83.6353 72.7655C84.0835 72.585 84.5603 72.4635 85.066 72.401C85.5716 72.3385 86.0684 72.3383 86.5563 72.4004C86.8242 72.4341 87.0937 72.4866 87.3648 72.5579C87.6461 72.6378 87.8973 72.7533 88.1186 72.9046C88.43 73.1144 88.6805 73.3862 88.8701 73.72C89.0785 74.0522 89.2357 74.3935 89.3415 74.744C89.3432 74.7627 89.3815 74.7689 89.4567 74.7624C89.5318 74.756 89.5882 74.7511 89.6258 74.7479C89.8169 74.7693 89.9983 74.8435 90.1702 74.9707C90.3522 75.1064 90.4974 75.2548 90.6059 75.4158C90.6924 75.5408 90.7523 75.6871 90.7857 75.8545C90.8378 76.0204 90.8421 76.1809 90.7987 76.336C90.7585 76.5287 90.6792 76.7059 90.5606 76.8675C90.4523 77.0377 90.3337 77.1993 90.2049 77.3524C89.8943 77.7009 89.5632 78.0322 89.2117 78.3463C88.8791 78.6589 88.5523 78.9851 88.2314 79.325C87.8333 79.7567 87.4497 80.192 87.0806 80.6307C86.7216 81.0779 86.389 81.5561 86.0827 82.0651C86.0242 82.1553 85.9459 82.2898 85.8478 82.4685C85.7684 82.6457 85.6745 82.8194 85.5662 82.9896C85.468 83.1684 85.3588 83.3292 85.2387 83.472C85.1185 83.6149 85.0028 83.7005 84.8917 83.729C84.7618 83.7591 84.5785 83.7181 84.3418 83.606C84.1152 83.5025 83.9466 83.413 83.836 83.3373ZM82.6796 78.8095C82.7693 78.9721 82.8968 79.0794 83.0622 79.1314C83.2275 79.1834 83.3947 79.2021 83.5638 79.1876C83.7517 79.1714 83.9422 79.1313 84.1354 79.0674C84.3372 78.9932 84.5202 78.9207 84.6845 78.8498C85.0762 78.6741 85.4299 78.4402 85.7454 78.148C86.0711 77.8645 86.3815 77.5681 86.6766 77.2588C86.843 77.1025 86.9991 76.9376 87.145 76.7642C87.2996 76.5806 87.4396 76.3934 87.5651 76.2028C87.6306 76.0836 87.6866 75.9653 87.7333 75.8477C87.7901 75.7387 87.8223 75.6176 87.8297 75.4845C87.8291 75.2575 87.7464 75.0659 87.5815 74.9097C87.4167 74.7536 87.2242 74.6613 87.0041 74.633C86.755 74.5976 86.5057 74.6144 86.2561 74.6832C86.0151 74.7418 85.7808 74.8235 85.5533 74.9282C85.1975 75.0819 84.8637 75.2715 84.5519 75.4971C84.2503 75.7312 83.9648 75.9877 83.6955 76.2664C83.5479 76.421 83.384 76.6055 83.2038 76.8197C83.0423 77.0323 82.9004 77.2528 82.7781 77.4809C82.666 77.7177 82.5915 77.9512 82.5545 78.1815C82.5278 78.4204 82.5695 78.6297 82.6796 78.8095ZM90.6623 88.2447C90.3483 88.2244 90.0286 88.1384 89.7032 87.9866C89.3967 87.8332 89.1518 87.6272 88.9687 87.3686C88.7415 87.038 88.587 86.6728 88.5053 86.2729C88.4321 85.8628 88.3973 85.4589 88.4009 85.0612C88.4227 84.4347 88.5255 83.8155 88.7094 83.2035C88.9018 82.5813 89.1343 81.9841 89.4067 81.4117C89.4239 81.3913 89.4301 81.353 89.4252 81.2966C89.4391 81.2386 89.4496 81.1951 89.4566 81.1661C89.5879 80.8236 89.7346 80.494 89.8966 80.1772C90.0672 79.8503 90.2428 79.5276 90.4236 79.2092C90.5631 78.9606 90.7076 78.7163 90.8573 78.4763C91.0172 78.2449 91.1821 78.0178 91.3522 77.795C91.4724 77.6521 91.5883 77.5144 91.6999 77.3818C91.8217 77.2577 91.9596 77.1559 92.1136 77.0764C92.2676 76.9969 92.4206 76.9601 92.5725 76.9659C92.7244 76.9718 92.8643 77.0023 92.992 77.0576C93.1284 77.1026 93.2656 77.157 93.4035 77.2209C93.5893 77.29 93.7587 77.389 93.9117 77.5178C94.0835 77.6449 94.2057 77.8 94.2783 77.983C94.361 78.1746 94.3925 78.3753 94.3727 78.5852C94.3717 78.7935 94.3417 78.9948 94.2828 79.1891C94.1927 79.4619 94.0677 79.7139 93.9079 79.9453C93.7582 80.1853 93.6077 80.416 93.4564 80.6372C93.2193 80.9604 92.9728 81.2844 92.7169 81.6093C92.4797 81.9325 92.2426 82.2558 92.0055 82.579C91.8199 82.841 91.6393 83.1073 91.4639 83.378C91.2971 83.6384 91.1558 83.9202 91.0399 84.2236C90.9777 84.3803 90.93 84.5406 90.8968 84.7043C90.8636 84.868 90.8688 85.0379 90.9123 85.214C90.9542 85.3712 91.0254 85.4834 91.1258 85.5504C91.2348 85.6073 91.3602 85.6343 91.5019 85.6316C91.6436 85.6289 91.788 85.6022 91.935 85.5517C92.1009 85.4996 92.2506 85.4252 92.3842 85.3285C92.7507 85.0793 93.0909 84.7992 93.4048 84.4883C93.7375 84.1758 94.0557 83.8598 94.3594 83.5402C94.6717 83.2105 94.9796 82.8859 95.2833 82.5664C95.6058 82.2453 95.9495 81.9507 96.3144 81.6827C96.5113 81.5522 96.7185 81.4303 96.9358 81.317C97.1634 81.2122 97.3872 81.174 97.6073 81.2024C97.8666 81.2463 98.0999 81.3729 98.3072 81.5821C98.5144 81.7914 98.6243 82.0232 98.6367 82.2776C98.6374 82.5047 98.5749 82.7135 98.4494 82.9041C98.3341 83.1033 98.2085 83.2939 98.0728 83.476C97.9269 83.6494 97.7801 83.8134 97.6326 83.9681C97.485 84.1228 97.3281 84.2782 97.1617 84.4345C96.6525 84.8947 96.1272 85.3327 95.5857 85.7483C95.0545 86.1726 94.4969 86.566 93.9131 86.9286C93.3668 87.2879 92.8121 87.6054 92.2492 87.881C91.9942 87.9975 91.7326 88.091 91.4642 88.1615C91.2061 88.2405 90.9388 88.2682 90.6623 88.2447ZM98.6277 94.4765C98.0017 94.3506 97.4053 94.1275 96.8383 93.8073C96.2713 93.4871 95.7645 93.0954 95.3177 92.6323C95.1308 92.4403 94.9697 92.2176 94.8343 91.9642C94.7075 91.7007 94.6371 91.4324 94.623 91.1592C94.6062 90.7442 94.6654 90.3322 94.8005 89.9232C94.9458 89.5227 95.1166 89.1436 95.3129 88.7861C95.5886 88.2513 95.9051 87.7509 96.2624 87.2848C96.6283 86.8086 97.0197 86.3538 97.4366 85.9204C97.471 85.8796 97.5405 85.8074 97.6451 85.7037C97.7583 85.5899 97.8715 85.4761 97.9847 85.3622C98.1167 85.2467 98.235 85.1372 98.3397 85.0336C98.4631 84.9283 98.5471 84.8596 98.5916 84.8273C98.7886 84.6968 99.0075 84.6023 99.2485 84.5437C99.4981 84.4748 99.7458 84.4393 99.9916 84.4371C100.209 84.4279 100.428 84.4468 100.649 84.494C100.881 84.5497 101.106 84.625 101.322 84.72C101.763 84.8996 102.192 85.0946 102.607 85.3048C103.033 85.5236 103.429 85.7782 103.794 86.0684C104.049 86.2831 104.265 86.5342 104.441 86.8218C104.628 87.1181 104.734 87.4259 104.762 87.7452C104.813 88.2235 104.767 88.6816 104.625 89.1197C104.493 89.5664 104.285 89.9486 104 90.2665C103.725 90.593 103.391 90.8347 102.998 90.9916C102.604 91.1485 102.172 91.1857 101.701 91.1032C101.22 91.0121 100.77 90.8333 100.349 90.5667C99.939 90.3087 99.5459 90.0302 99.1701 89.7314C99.0799 89.6729 98.9889 89.6051 98.897 89.5278C98.8154 89.4591 98.7174 89.4202 98.6031 89.4112C98.5161 89.3903 98.4273 89.4026 98.3366 89.4483C98.2561 89.5026 98.1721 89.5713 98.0847 89.6545C97.9972 89.7378 97.9199 89.8296 97.8529 89.93C97.7944 90.0202 97.7445 90.1002 97.7032 90.17C97.6448 90.2602 97.5871 90.3598 97.5302 90.4688C97.4922 90.5761 97.4823 90.6811 97.5006 90.7836C97.5205 90.9049 97.5882 91.0316 97.7036 91.1636C97.8191 91.2956 97.9482 91.4217 98.0911 91.5418C98.2441 91.6706 98.4006 91.7849 98.5606 91.8847C98.7292 91.9742 98.8723 92.0423 98.9898 92.089C99.2062 92.1839 99.4252 92.255 99.6469 92.3021C99.8874 92.3476 100.129 92.4026 100.371 92.4669C100.458 92.4878 100.541 92.5138 100.619 92.5449C100.716 92.5744 100.805 92.6234 100.887 92.6921C101.12 92.8708 101.235 93.1069 101.232 93.4005C101.248 93.6925 101.136 93.9293 100.896 94.1108C100.736 94.2381 100.551 94.3345 100.339 94.4001C100.135 94.4555 99.9302 94.4921 99.7235 94.5099C99.358 94.5508 98.9927 94.5397 98.6277 94.4765ZM99.7818 87.1095C99.7351 87.2271 99.7174 87.3516 99.7288 87.4831C99.7503 87.6232 99.7898 87.7523 99.8473 87.8704C99.915 87.997 99.9963 88.1178 100.091 88.2326C100.186 88.3474 100.289 88.4427 100.4 88.5183C100.572 88.6455 100.764 88.7377 100.977 88.7951C101.201 88.861 101.406 88.8859 101.594 88.8697C101.792 88.8621 101.953 88.8057 102.076 88.7004C102.219 88.5935 102.294 88.4309 102.304 88.2124C102.319 87.9462 102.231 87.6982 102.041 87.4685C101.851 87.2389 101.637 87.0586 101.398 86.9277C101.369 86.9207 101.34 86.9044 101.309 86.8786C101.278 86.8529 101.249 86.8365 101.22 86.8295C100.964 86.7191 100.686 86.6768 100.385 86.7027C100.104 86.7269 99.9024 86.8626 99.7818 87.1095ZM61.8354 90.9113C61.706 90.8372 61.5707 90.7495 61.4295 90.6481C61.2899 90.5655 61.1675 90.4625 61.0622 90.3391C60.9484 90.2259 60.8619 90.1008 60.8028 89.964C60.7437 89.8271 60.7367 89.6905 60.7817 89.5542C60.8407 89.3598 60.9922 89.0865 61.2363 88.7343C61.4992 88.3805 61.7851 88.0199 62.0942 87.6526C62.4118 87.2752 62.7174 86.9224 63.0108 86.5943C63.3129 86.256 63.5283 86.0103 63.6571 85.8573C64.3626 85.0395 65.069 84.2311 65.7761 83.4321C66.4833 82.6331 67.2211 81.8598 67.9894 81.1123C68.2518 80.8626 68.515 80.6223 68.779 80.3914C69.043 80.1604 69.3274 79.9467 69.6322 79.7501C69.8034 79.6502 69.9848 79.5589 70.1764 79.4761C70.3782 79.402 70.5798 79.3799 70.7811 79.4099C70.9056 79.4275 71.0173 79.4605 71.1161 79.5088C71.2251 79.5656 71.3298 79.6276 71.4302 79.6946C71.4812 79.7376 71.5738 79.8242 71.7081 79.9546C71.8611 80.0834 72.0149 80.2215 72.1696 80.3691C72.3344 80.5252 72.484 80.6685 72.6182 80.7989C72.7627 80.9378 72.8604 81.0288 72.9114 81.0717C73.2411 81.384 73.57 81.6868 73.8981 81.9803C74.2348 82.2636 74.5594 82.5716 74.8719 82.9043C74.9772 83.0277 75.0782 83.1562 75.1748 83.2898C75.2817 83.432 75.3698 83.5759 75.4391 83.7213C75.5116 83.9043 75.5278 84.0922 75.4876 84.2849C75.4598 84.4009 75.4123 84.509 75.3452 84.6094C75.2868 84.6996 75.2232 84.7856 75.1545 84.8672C75.007 85.0218 74.8355 85.1738 74.6402 85.3231C74.4535 85.4622 74.2543 85.5125 74.0428 85.4739C73.9387 85.4734 73.8372 85.449 73.7384 85.4008C73.6584 85.3509 73.5776 85.2916 73.496 85.2229C73.3634 85.1113 73.1679 84.9294 72.9096 84.6772C72.6701 84.4234 72.411 84.1619 72.1323 83.8925C71.8622 83.613 71.5902 83.3667 71.3164 83.1537C71.0511 82.9305 70.8367 82.8023 70.6729 82.7691C70.5382 82.7428 70.4032 82.7687 70.268 82.8465C70.1413 82.9142 70.0248 82.9905 69.9186 83.0753C69.8467 83.1194 69.7447 83.1991 69.6127 83.3146C69.4995 83.4284 69.3777 83.5525 69.2473 83.6867C69.1255 83.8108 69.0131 83.934 68.9101 84.0564C68.8071 84.1789 68.74 84.2793 68.7089 84.3577C68.6709 84.465 68.7173 84.5651 68.8484 84.6579C68.9794 84.7507 69.0951 84.8307 69.1955 84.8977C69.3673 85.0249 69.5995 85.1941 69.8922 85.4055C70.1934 85.6067 70.4817 85.8232 70.7572 86.0549C71.0514 86.2851 71.3038 86.5236 71.5143 86.7704C71.7436 87.0157 71.8629 87.2467 71.8721 87.4635C71.8781 87.6428 71.8269 87.8176 71.7185 87.9878C71.6187 88.1478 71.5036 88.2949 71.3733 88.4291C71.2343 88.5736 71.0902 88.7138 70.9411 88.8496C70.7919 88.9855 70.6207 89.0854 70.4275 89.1493C70.2053 89.2063 70.004 89.1764 69.8236 89.0594C69.7248 89.0111 69.6252 88.9535 69.5248 88.8864C69.433 88.8092 69.3462 88.7362 69.2646 88.6675C69.1932 88.6074 69.0649 88.4907 68.8796 88.3174C68.7131 88.1425 68.5271 87.9598 68.3214 87.7693C68.1157 87.5788 67.916 87.4021 67.7221 87.2389C67.5471 87.0742 67.4196 86.9669 67.3396 86.917C67.28 86.8843 67.2161 86.8567 67.1479 86.8342C67.0883 86.8015 67.026 86.7926 66.9611 86.8077C66.8312 86.8378 66.6823 86.9216 66.5143 87.0591C66.3549 87.1864 66.1929 87.3375 66.0282 87.5126C65.872 87.6774 65.721 87.8466 65.5751 88.02C65.4479 88.1918 65.3465 88.333 65.2709 88.4437C65.221 88.5237 65.1102 88.6657 64.9385 88.8697C64.777 89.0824 64.6019 89.3009 64.413 89.5253C64.2343 89.7584 64.0592 89.9769 63.8875 90.181C63.726 90.3936 63.6152 90.5356 63.5551 90.607C63.4505 90.7107 63.3408 90.81 63.2259 90.9051C63.1111 91.0001 62.9844 91.0678 62.846 91.1081C62.6785 91.1415 62.5078 91.1372 62.3339 91.0954C62.1599 91.0536 61.9938 90.9923 61.8354 90.9113ZM71.2401 98.1711C70.8477 98.1198 70.4633 97.9967 70.087 97.802C69.7106 97.6073 69.4131 97.3396 69.1945 96.9988C68.9404 96.5759 68.8095 96.0999 68.8018 95.5706C68.8043 95.0499 68.8894 94.5553 69.0573 94.0866C69.2353 93.6265 69.4678 93.1948 69.7548 92.7916C70.0606 92.3867 70.3868 91.9991 70.7335 91.6285C70.7592 91.5979 70.8064 91.5418 70.8751 91.4602C70.954 91.3872 71.0414 91.3039 71.1375 91.2105C71.2335 91.1171 71.3159 91.0295 71.3846 90.9479C71.4634 90.8749 71.5158 90.8231 71.5415 90.7925C71.6891 90.6378 71.8975 90.4211 72.1669 90.1424C72.4362 89.8637 72.7201 89.5885 73.0184 89.3168C73.3355 89.0434 73.6465 88.8085 73.9513 88.6119C74.2561 88.4153 74.5213 88.3073 74.7467 88.2879C74.9721 88.2685 75.193 88.3062 75.4094 88.4012C75.636 88.5047 75.8274 88.6396 75.9836 88.8059C76.1587 88.9707 76.2892 89.1676 76.3752 89.3968C76.4698 89.6157 76.4986 89.8404 76.4616 90.0707C76.4247 90.301 76.3246 90.513 76.1615 90.7069C76.0172 90.8991 75.8517 91.0648 75.665 91.2039C75.2142 91.5739 74.7524 91.9259 74.2797 92.26C73.8069 92.5941 73.3562 92.9641 72.9274 93.3701C72.7697 93.5161 72.6007 93.6963 72.4204 93.9105C72.2487 94.1146 72.0923 94.3315 71.9512 94.5613C71.8289 94.7895 71.7399 95.0195 71.6842 95.2514C71.637 95.4731 71.6548 95.6798 71.7376 95.8714C71.8187 96.0442 71.9615 96.1644 72.1661 96.2319C72.3706 96.2995 72.5695 96.3013 72.7627 96.2373C73.0397 96.1567 73.2997 96.0444 73.5428 95.9005C73.7945 95.7463 74.0403 95.5785 74.2801 95.3969C74.8506 94.9882 75.37 94.5366 75.8384 94.042C76.3256 93.5458 76.8442 93.0848 77.3942 92.6589C77.6169 92.4978 77.8498 92.3453 78.0929 92.2013C78.3462 92.0659 78.6044 91.9869 78.8674 91.9643C79.1304 91.9416 79.3631 92.0067 79.5656 92.1597C79.7782 92.3211 79.9146 92.5318 79.9749 92.7915C80.0147 93.0342 79.9802 93.2926 79.8713 93.567C79.7764 93.7833 79.6525 93.9927 79.4996 94.1951C79.3552 94.3874 79.2007 94.571 79.036 94.7461C78.7511 95.064 78.4705 95.3767 78.1942 95.6844C77.9178 95.9921 77.6576 96.3221 77.4135 96.6743C76.9565 97.3004 76.5869 98.0088 76.3049 98.7996C76.1976 99.0927 76.0955 99.3901 75.9985 99.6918C75.9202 99.9919 75.8028 100.276 75.6461 100.545C75.5893 100.654 75.5077 100.751 75.4015 100.836C75.2952 100.921 75.1772 100.979 75.0473 101.009C74.8712 101.052 74.6825 101.059 74.4812 101.029C74.2885 100.989 74.0934 100.92 73.8958 100.824C73.717 100.726 73.546 100.608 73.3828 100.471C73.2195 100.333 73.0982 100.188 73.0187 100.034C72.9322 99.9086 72.8825 99.7709 72.8695 99.6206C72.8668 99.4789 72.8786 99.3407 72.9048 99.2059C72.99 98.8769 73.1297 98.5762 73.3239 98.304C73.5283 98.0403 73.7285 97.7818 73.9243 97.5284C73.5051 97.7159 73.0656 97.8862 72.6056 98.0394C72.1542 98.1823 71.6991 98.2263 71.2401 98.1711ZM77.4932 103.799C77.2205 103.709 76.9652 103.546 76.7273 103.311C76.4894 103.076 76.3345 102.815 76.2624 102.528C76.2307 102.379 76.2314 102.223 76.2646 102.059C76.2979 101.895 76.3464 101.745 76.4102 101.607C76.5223 101.37 76.6548 101.15 76.8077 100.948C76.9606 100.745 77.1229 100.542 77.2946 100.338C77.3632 100.256 77.4791 100.119 77.6422 99.9249C77.8241 99.7294 78.0224 99.5042 78.237 99.2491C78.4704 98.9924 78.7073 98.7213 78.9476 98.4356C79.1982 98.1585 79.4308 97.8924 79.6454 97.6374C79.8788 97.3807 80.077 97.1555 80.2401 96.9616C80.422 96.7662 80.5473 96.6276 80.616 96.546C80.7018 96.444 80.8067 96.2883 80.9306 96.0789C81.0647 95.8781 81.2083 95.6764 81.3612 95.474C81.5226 95.2614 81.6815 95.0726 81.8376 94.9078C82.0039 94.7515 82.1571 94.6626 82.2972 94.6411C82.4185 94.6212 82.5474 94.6338 82.6837 94.6788C82.8287 94.7136 82.9658 94.7681 83.0952 94.8421C83.2348 94.9247 83.3607 95.0132 83.473 95.1076C83.5954 95.2106 83.6845 95.3118 83.7404 95.4111C83.8199 95.5651 83.8584 95.7369 83.8558 95.9263C83.8531 96.1158 83.8258 96.2932 83.7738 96.4586C83.658 96.7619 83.4971 97.036 83.2911 97.2809C83.0952 97.5343 82.8986 97.7783 82.7012 98.013C82.9679 97.9238 83.2304 97.8397 83.4885 97.7607C83.7655 97.68 84.0491 97.6225 84.3395 97.588C84.6111 97.5552 84.8902 97.5548 85.1769 97.5869C85.4737 97.6276 85.7457 97.7082 85.9926 97.8289C86.1714 97.9271 86.3381 98.0499 86.4928 98.1975C86.6662 98.3434 86.8029 98.502 86.9028 98.6732C87.0484 98.9351 87.1298 99.2214 87.1471 99.5322C87.1746 99.8516 87.1586 100.16 87.0992 100.459C86.9877 100.923 86.8073 101.355 86.5578 101.755C86.3186 102.163 86.0691 102.563 85.8095 102.955C85.4141 103.528 85.0238 104.106 84.6386 104.688C84.2621 105.26 83.8361 105.807 83.3607 106.331C83.2046 106.496 83.039 106.661 82.8641 106.828C82.6892 106.994 82.4914 107.116 82.2708 107.191C82.134 107.25 81.9802 107.278 81.8095 107.274C81.6474 107.259 81.5016 107.215 81.3722 107.141C81.1253 107.02 80.9059 106.836 80.7142 106.587C80.5225 106.339 80.4282 106.068 80.4313 105.774C80.4306 105.547 80.488 105.334 80.6033 105.135C80.7374 104.934 80.8775 104.747 81.0234 104.573C81.2981 104.247 81.5779 103.925 81.8628 103.607C82.1579 103.298 82.4428 102.98 82.7175 102.653C83.0024 102.335 83.2626 102.005 83.4981 101.663C83.7524 101.32 83.9624 100.956 84.1281 100.573C84.2005 100.425 84.2585 100.273 84.3019 100.118C84.3555 99.9713 84.3844 99.8127 84.3886 99.642C84.3908 99.5566 84.3784 99.4678 84.3515 99.3755C84.3434 99.2816 84.2994 99.2096 84.2194 99.1598C84.1377 99.0911 84.0355 99.0573 83.9126 99.0584C83.7998 99.0681 83.6742 99.0931 83.5358 99.1335C83.4161 99.1722 83.2929 99.2253 83.1663 99.293C83.0482 99.3505 82.9438 99.4021 82.8531 99.4477C82.1426 99.878 81.5161 100.405 80.9737 101.029C80.4312 101.653 79.8837 102.273 79.3311 102.888C79.1749 103.053 79.0094 103.219 78.8345 103.385C78.6783 103.55 78.5002 103.679 78.3 103.772C78.0365 103.898 77.7676 103.907 77.4932 103.799Z" fill="#01432B"/>
</svg>
