<svg width="159" height="159" viewBox="0 0 159 159" fill="none" xmlns="http://www.w3.org/2000/svg">
<path fill-rule="evenodd" clip-rule="evenodd" d="M24.5645 56.7114C12.0735 86.9565 26.4661 121.601 56.7112 134.092C86.9564 146.583 121.601 132.191 134.092 101.945C139.554 88.72 139.876 74.6535 135.979 61.9659L146.369 55.2058C142.057 52.553 135.31 47.2532 129.539 42.7203C125.625 39.6461 122.161 36.9247 120.209 35.6208C118.979 34.7987 117.745 33.9846 116.528 33.1917C112.434 29.8932 107.831 27.0915 102.774 24.9143C102.747 24.9009 102.721 24.8876 102.694 24.8745L102.7 24.8824C102.45 24.775 102.198 24.669 101.945 24.5646C71.7001 12.0736 37.0555 26.4662 24.5645 56.7114Z" fill="#FFE4BB"/>
<path d="M74.7953 57.691C74.5459 57.3577 74.3273 57.0128 74.1396 56.6563C73.952 56.2998 73.7532 55.9413 73.5432 55.5807C73.2597 55.0571 72.9564 54.5472 72.6333 54.0508C72.2971 53.5636 71.9674 53.0718 71.6443 52.5754C71.5444 52.4306 71.4687 52.2787 71.4174 52.1197C71.3528 51.9699 71.3237 51.815 71.33 51.6551C71.3354 51.4376 71.4167 51.2454 71.5738 51.0787C71.7399 50.9251 71.8996 50.7761 72.0526 50.6316C72.6656 50.1114 73.3038 49.6418 73.9673 49.2229C74.6307 48.804 75.2896 48.3784 75.944 47.9463C76.6024 47.4919 77.2588 47.0487 77.9132 46.6166C78.5675 46.1845 79.2265 45.7589 79.8899 45.34C80.5665 44.912 81.2411 44.4951 81.9136 44.0893C82.5862 43.6835 83.2885 43.335 84.0205 43.0436C84.2058 42.9741 84.3911 42.9045 84.5764 42.835C84.7617 42.7655 84.9495 42.7136 85.1398 42.6795C85.3301 42.6454 85.5183 42.6224 85.7045 42.6105C85.8998 42.6118 86.0824 42.6511 86.2523 42.7282C86.4849 42.8399 86.6805 42.9966 86.839 43.1982C86.9976 43.3998 87.1385 43.6039 87.2616 43.8105C87.3666 43.9908 87.5558 44.3073 87.8294 44.7601C88.1252 45.2169 88.4214 45.7026 88.7182 46.2171C89.0372 46.7357 89.3268 47.2259 89.5872 47.6877C89.8698 48.1536 90.0459 48.4792 90.1155 48.6645C90.2214 48.9025 90.2737 49.1191 90.2723 49.3144C90.2606 49.6919 90.075 50.0144 89.7153 50.282C89.3779 50.5537 89.028 50.7368 88.6656 50.8314C88.4753 50.8655 88.2841 50.8419 88.092 50.7607C87.913 50.6704 87.7604 50.5619 87.6341 50.4352C87.4805 50.269 87.2963 49.9879 87.0813 49.5919C86.8664 49.1959 86.6312 48.7847 86.3758 48.3583C86.1296 47.9451 85.8837 47.5607 85.6384 47.2051C85.393 46.8495 85.1677 46.6357 84.9624 46.5635C84.8774 46.5249 84.7818 46.5132 84.6755 46.5282C84.5824 46.5341 84.4873 46.5512 84.3901 46.5794C84.1471 46.6498 83.8915 46.7582 83.6231 46.9045C83.4205 47.0054 83.2159 47.1174 83.0093 47.2406C82.8159 47.3546 82.6315 47.4819 82.4562 47.6223C82.4036 47.6586 82.3509 47.695 82.2982 47.7313C82.2546 47.7808 82.2333 47.8344 82.2342 47.8921C82.2179 47.9811 82.2461 48.0783 82.3188 48.1837C82.4964 48.4693 82.7525 48.7981 83.0869 49.1699C83.4303 49.555 83.754 49.9537 84.058 50.366C84.3751 50.7692 84.6189 51.1648 84.7894 51.5526C84.9689 51.9536 84.9901 52.3083 84.853 52.6167C84.7373 52.8716 84.5609 53.0808 84.3238 53.2443C84.0868 53.4079 83.8427 53.5472 83.5916 53.6622C83.4285 53.7358 83.2675 53.7983 83.1086 53.8496C82.9628 53.8919 82.8054 53.9033 82.6365 53.8838C82.5343 53.8766 82.4407 53.8537 82.3558 53.8151C82.284 53.7674 82.2122 53.7198 82.1404 53.6721C81.9474 53.5332 81.7827 53.3649 81.6464 53.1674C81.5101 52.9699 81.3783 52.7789 81.2511 52.5946C81.0684 52.2735 80.8903 51.959 80.7167 51.6511C80.5431 51.3433 80.3584 51.0333 80.1625 50.7214C80.0989 50.6292 80.0015 50.502 79.8702 50.3399C79.7611 50.1819 79.6444 50.0972 79.5199 50.0859C79.4177 50.0787 79.2588 50.13 79.0431 50.24C78.8274 50.35 78.6755 50.4256 78.5874 50.467C78.235 50.6324 77.8851 50.8155 77.5377 51.0164C77.1994 51.2304 76.8813 51.4596 76.5834 51.7041C76.4081 51.8445 76.2374 51.9914 76.0712 52.145C75.9141 52.3117 75.8217 52.5018 75.7941 52.7153C75.7655 52.8711 75.8309 53.0786 75.9904 53.3379C76.159 53.6104 76.2887 53.8125 76.3796 53.9442C76.5927 54.2248 76.8078 54.4943 77.025 54.7527C77.2422 55.011 77.4639 55.276 77.6902 55.5475C77.7579 55.6175 77.8437 55.7137 77.9478 55.8363C78.0518 55.9589 78.1493 56.0861 78.2401 56.2178C78.3533 56.3535 78.4441 56.4852 78.5128 56.6128C78.5814 56.7404 78.6121 56.8553 78.6048 56.9575C78.6067 57.0729 78.5554 57.1958 78.451 57.3262C78.3465 57.4565 78.2199 57.5828 78.0709 57.705C77.9442 57.8313 77.8019 57.949 77.6439 58.0581C77.5081 58.1712 77.3941 58.2596 77.3019 58.3232C77.1094 58.4949 76.9205 58.6156 76.7352 58.6851C76.4173 58.7878 76.1041 58.7707 75.7957 58.6336C75.5854 58.526 75.3989 58.3825 75.2363 58.2032C75.0695 58.0461 74.9225 57.8753 74.7953 57.691ZM79.2828 62.9686C78.9958 62.7779 78.7518 62.5089 78.5509 62.1615C78.3501 61.8141 78.2535 61.4628 78.2611 61.1076C78.2715 60.9255 78.3219 60.7449 78.4122 60.5659C78.5025 60.387 78.6065 60.2277 78.7241 60.0883C78.9289 59.8498 79.1518 59.6376 79.3929 59.4518C79.634 59.266 79.8863 59.0822 80.1497 58.9004C80.255 58.8277 80.4328 58.705 80.683 58.5324C80.9555 58.3638 81.2563 58.1659 81.5855 57.9387C81.937 57.7156 82.2971 57.4769 82.6658 57.2224C83.0437 56.9811 83.3972 56.7469 83.7264 56.5197C84.0779 56.2966 84.3787 56.0987 84.6289 55.9261C84.9014 55.7575 85.0903 55.6368 85.1957 55.5641C85.3273 55.4733 85.4981 55.3263 85.7079 55.1232C85.9267 54.9333 86.1567 54.7454 86.3978 54.5596C86.6521 54.3647 86.8958 54.1966 87.1287 54.0553C87.3708 53.9271 87.5763 53.8728 87.7452 53.8923C87.8919 53.9077 88.0371 53.963 88.1806 54.0584C88.3373 54.1446 88.4788 54.2511 88.6051 54.3778C88.7405 54.5176 88.8582 54.66 88.9582 54.8048C89.0672 54.9629 89.1383 55.1082 89.1715 55.2408C89.2147 55.4443 89.2048 55.6552 89.1417 55.8737C89.0786 56.0922 88.9908 56.2889 88.8782 56.4638C88.648 56.7781 88.3749 57.0444 88.0589 57.2625C87.7519 57.4937 87.447 57.7139 87.1441 57.9229C87.4811 57.9042 87.8115 57.89 88.1353 57.8804C88.4814 57.8748 88.828 57.8981 89.175 57.9502C89.4998 57.9983 89.8229 58.0863 90.1445 58.2143C90.4752 58.3555 90.7644 58.535 91.0119 58.753C91.1878 58.9232 91.3418 59.1183 91.474 59.3381C91.6285 59.5619 91.7364 59.7888 91.7978 60.0186C91.8833 60.3678 91.8868 60.725 91.8083 61.0902C91.7389 61.4686 91.6225 61.821 91.4591 62.1477C91.1831 62.6491 90.8374 63.0919 90.4219 63.4758C90.0155 63.8728 89.6001 64.2567 89.1755 64.6275C88.5361 65.1659 87.9013 65.7108 87.2711 66.2624C86.654 66.8049 85.9874 67.3037 85.2713 67.759C85.0383 67.9003 84.7942 68.0396 84.539 68.1769C84.2838 68.3141 84.0165 68.3916 83.7372 68.4094C83.5601 68.4344 83.3734 68.4174 83.1772 68.3585C82.9941 68.2904 82.8394 68.193 82.7131 68.0663C82.4656 67.8484 82.2702 67.5652 82.127 67.2169C81.9838 66.8686 81.9606 66.525 82.0572 66.1862C82.1285 65.9232 82.2624 65.6947 82.459 65.5007C82.6779 65.3108 82.8992 65.1386 83.1231 64.9841C83.5445 64.6933 83.9705 64.4091 84.4009 64.1315C84.8405 63.867 85.271 63.5894 85.6924 63.2986C86.1229 63.0209 86.5286 62.7215 86.9096 62.4003C87.3128 62.0832 87.6711 61.729 87.9844 61.3379C88.1151 61.1893 88.2302 61.0322 88.3297 60.8664C88.4382 60.7137 88.5219 60.5393 88.5809 60.3431C88.6104 60.2449 88.6242 60.1382 88.6224 60.0228C88.6428 59.9116 88.6146 59.8144 88.5378 59.7313C88.4651 59.6259 88.3575 59.5544 88.2148 59.5168C88.0813 59.4923 87.928 59.4814 87.755 59.4842C87.6042 59.4911 87.4448 59.5136 87.2767 59.5518C87.1218 59.5809 86.9847 59.6075 86.8652 59.6316C85.9065 59.9044 85.0144 60.3159 84.1888 60.8661C83.3633 61.4164 82.5332 61.9601 81.6985 62.4971C81.4656 62.6385 81.2215 62.7777 80.9663 62.915C80.7333 63.0563 80.4863 63.149 80.2251 63.1931C79.88 63.2564 79.5659 63.1815 79.2828 62.9686ZM96.7249 66.1022C96.5115 66.0746 96.3062 66.0024 96.109 65.8858C95.9209 65.7823 95.7501 65.6474 95.5966 65.4812C95.443 65.315 95.3224 65.1261 95.2347 64.9145C95.1469 64.7029 95.1058 64.4883 95.1112 64.2707C95.1125 64.0754 95.1694 63.8903 95.282 63.7154C95.3946 63.5405 95.5299 63.3986 95.6879 63.2895C96.0081 63.0492 96.4034 62.9319 96.8739 62.9377C97.3536 62.9566 97.7637 63.0721 98.1044 63.2841C98.3288 63.4403 98.4945 63.6662 98.6013 63.9618C98.7081 64.2575 98.737 64.5388 98.688 64.8059C98.6513 65.0062 98.5655 65.1918 98.4307 65.3626C98.2958 65.5334 98.1317 65.6758 97.9382 65.7899C97.7579 65.8948 97.5595 65.9735 97.3428 66.0258C97.1353 66.0912 96.9293 66.1167 96.7249 66.1022ZM81.7885 73.3184C81.3456 73.0992 81.0056 72.7895 80.7684 72.3894C80.5403 72.0025 80.4671 71.5865 80.5487 71.1414C80.6212 70.6831 80.8196 70.3227 81.1438 70.06C81.4549 69.8065 81.8168 69.6831 82.2297 69.6898C82.4958 69.6811 82.7604 69.7124 83.0234 69.7836C83.2864 69.8548 83.5473 69.9372 83.8063 70.0307C84.0652 70.1242 84.315 70.2045 84.5557 70.2716C84.8187 70.3429 85.0853 70.363 85.3556 70.3321C86.303 70.1837 87.1717 69.8369 87.9619 69.2917C88.524 68.9232 89.0549 68.5374 89.5544 68.1344C90.067 67.7224 90.5772 67.2926 91.0848 66.845C90.9181 66.6879 90.7838 66.4793 90.682 66.2191C90.6025 65.9629 90.6145 65.7408 90.718 65.5528C90.8255 65.3424 91.0074 65.1975 91.2635 65.1179C91.5328 65.0293 91.7808 64.9943 92.0075 65.0128C92.3272 65.0255 92.6347 65.1048 92.93 65.251C93.2343 65.4103 93.5037 65.6035 93.7381 65.8306C93.9817 66.0708 94.1947 66.3514 94.3774 66.6724C94.5601 66.9935 94.6385 67.3184 94.6127 67.6473C94.5738 67.9852 94.4387 68.2825 94.2076 68.5392C93.9988 68.8 93.7717 69.0344 93.5265 69.2425C93.1628 69.5323 92.7834 69.8136 92.3883 70.0862C92.0065 70.3497 91.62 70.6067 91.229 70.8571C90.3994 71.4296 89.5429 71.9914 88.6597 72.5426C87.7987 73.0978 86.8798 73.4987 85.9029 73.7451C85.2176 73.907 84.5127 73.956 83.7883 73.8922C83.0597 73.8506 82.3932 73.6593 81.7885 73.3184ZM91.6386 80.747C91.0967 80.4406 90.6576 80.0438 90.3214 79.5565C89.9942 79.0824 89.7618 78.5625 89.624 77.9966C89.4994 77.4216 89.4745 76.8362 89.5493 76.2403C89.6372 75.6353 89.8344 75.0618 90.1408 74.5199C90.6492 73.5664 91.3371 72.7321 92.2044 72.0169C93.0849 71.2927 94.0394 70.7604 95.068 70.4199C95.6067 70.2426 96.1685 70.1271 96.7534 70.0734C97.3384 70.0196 97.9096 70.0726 98.4669 70.2323C98.9706 70.3707 99.4469 70.5961 99.8957 70.9084C100.358 71.2117 100.732 71.5851 101.019 72.0288C101.296 72.4593 101.484 72.9423 101.581 73.4777C101.692 74.0041 101.718 74.5207 101.659 75.0276C101.6 75.4768 101.469 75.9072 101.267 76.3188C101.088 76.7344 100.876 77.1328 100.634 77.5139C100.175 78.2003 99.6206 78.8061 98.9722 79.3313C98.3329 79.8697 97.6365 80.3114 96.8831 80.6563C96.5479 80.7904 96.2037 80.9113 95.8504 81.019C95.5193 81.1309 95.1721 81.2052 94.8088 81.2421C94.2774 81.3172 93.7315 81.3149 93.171 81.2351C92.6196 81.1685 92.1088 81.0058 91.6386 80.747ZM92.4832 77.3649C92.5273 77.6261 92.6327 77.8352 92.7994 77.9923C92.9793 78.1403 93.1897 78.2479 93.4304 78.315C93.6711 78.3822 93.9246 78.4114 94.1907 78.4027C94.4701 78.3849 94.7423 78.3428 95.0076 78.2764C95.617 78.0892 96.1892 77.7915 96.7241 77.3835C97.0706 77.125 97.3923 76.8446 97.6893 76.5425C97.9994 76.2313 98.2691 75.8897 98.4983 75.5177C98.6414 75.3023 98.7596 75.0652 98.8531 74.8063C98.9466 74.5474 99.0001 74.2869 99.0137 74.0248C99.0363 73.7759 99.0103 73.5411 98.9358 73.3204C98.8612 73.0997 98.7163 72.9178 98.501 72.7748C98.3079 72.6359 98.0869 72.5551 97.838 72.5325C97.6023 72.5007 97.3716 72.5044 97.1459 72.5436C96.6276 72.6096 96.122 72.7641 95.6288 73.0073C95.1579 73.2545 94.7253 73.5432 94.3312 73.8735C93.9675 74.1634 93.6421 74.4948 93.3552 74.8678C93.0682 75.2408 92.8329 75.6462 92.649 76.0841C92.5769 76.2894 92.5204 76.5033 92.4796 76.7259C92.4388 76.9484 92.44 77.1615 92.4832 77.3649ZM94.3838 92.2046C93.9745 91.865 93.6043 91.4692 93.273 91.0174C92.9509 90.5788 92.6728 90.1194 92.4388 89.6394C92.3106 89.3974 92.1956 89.1462 92.0938 88.886C92.0011 88.639 91.9327 88.3849 91.8885 88.1237C91.8635 87.9466 91.8628 87.7624 91.8863 87.5712C91.8967 87.3891 91.9339 87.2176 91.9979 87.0568C92.1482 86.7393 92.3925 86.4735 92.7308 86.2595C93.0782 86.0587 93.4192 86.0177 93.754 86.1366C93.8926 86.1965 94.0159 86.2766 94.124 86.377C94.2281 86.4996 94.3189 86.6313 94.3966 86.7721C94.4421 86.8379 94.5041 86.9701 94.5827 87.1685C94.6705 87.3801 94.7627 87.5983 94.8595 87.8231C94.9522 88.0702 95.0379 88.2929 95.1165 88.4914C95.1911 88.7121 95.2445 88.8599 95.2768 88.9349C95.3918 89.186 95.5244 89.4346 95.6748 89.6808C95.8343 89.9401 96.0349 90.1321 96.2766 90.257C96.5092 90.3686 96.7585 90.4201 97.0247 90.4114C97.2867 90.425 97.5327 90.401 97.7625 90.3397C98.0985 90.2633 98.4139 90.1428 98.7087 89.9783C99.0256 89.8179 99.3315 89.6554 99.6262 89.491C99.9777 89.2678 100.327 89.027 100.673 88.7685C101.029 88.5231 101.373 88.2757 101.706 88.0263C101.225 88.145 100.733 88.2216 100.232 88.2563C99.7535 88.295 99.278 88.2538 98.8056 88.1327C98.4758 88.0492 98.1588 87.9278 97.8544 87.7685C97.5632 87.6001 97.3025 87.3912 97.0721 87.1419C96.7609 86.8318 96.551 86.4712 96.4423 86.0602C96.3146 85.5652 96.3128 85.0415 96.4371 84.4892C96.5705 83.95 96.7847 83.4717 97.0798 83.0542C97.0971 83.0229 97.1427 82.9623 97.2167 82.8723C97.3039 82.7733 97.3561 82.7081 97.3734 82.6767C97.6889 82.148 98.0807 81.6735 98.5489 81.2532C99.0302 80.8239 99.5322 80.4386 100.055 80.0973C100.292 79.9338 100.604 79.7379 100.991 79.5098C101.391 79.2726 101.805 79.0552 102.232 78.8575C102.681 78.6639 103.105 78.5173 103.503 78.4177C103.914 78.3091 104.26 78.3035 104.541 78.4011C104.854 78.5159 105.11 78.747 105.311 79.0944C105.512 79.4418 105.593 79.7845 105.554 80.1224C105.539 80.2691 105.479 80.4076 105.374 80.538C105.279 80.6816 105.177 80.8008 105.067 80.8958C104.717 81.1766 104.345 81.4133 103.954 81.606C103.562 81.7987 103.159 81.9893 102.744 82.1779C102.502 82.3061 102.197 82.4685 101.827 82.6653C101.466 82.8752 101.108 83.1029 100.753 83.3482C100.397 83.5936 100.084 83.8582 99.8134 84.1422C99.556 84.417 99.4028 84.688 99.3538 84.9551C99.2763 85.3779 99.4235 85.704 99.7955 85.9333C99.9614 86.0327 100.129 86.0921 100.298 86.1116C100.489 86.1352 100.673 86.1344 100.85 86.1094C101.258 86.0807 101.649 85.9857 102.024 85.8243C102.408 85.6761 102.789 85.5103 103.168 85.3267C103.736 85.0513 104.301 84.7582 104.865 84.4473C105.428 84.1365 106.011 83.8698 106.616 83.647C106.991 83.4857 107.356 83.4377 107.712 83.503C107.912 83.5397 108.098 83.6255 108.269 83.7603C108.462 83.8993 108.611 84.0589 108.716 84.2392C108.843 84.4235 108.922 84.622 108.952 84.8345C108.991 85.0603 108.981 85.2712 108.922 85.4675C108.825 85.8063 108.65 86.102 108.397 86.3546C108.157 86.5981 107.903 86.8219 107.635 87.0259C107.53 87.0986 107.339 87.2304 107.062 87.4212C106.799 87.6029 106.496 87.812 106.154 88.0482C105.811 88.2845 105.443 88.5389 105.048 88.8116C104.666 89.0751 104.304 89.325 103.961 89.5613C103.619 89.7976 103.309 90.0111 103.033 90.2019C102.769 90.3837 102.585 90.5109 102.48 90.5836C101.878 90.9794 101.278 91.364 100.681 91.7375C100.105 92.1151 99.4846 92.4269 98.8184 92.6728C98.4124 92.8168 97.9948 92.9301 97.5656 93.0124C97.1455 93.1079 96.722 93.128 96.2951 93.0727C95.592 92.9552 94.9549 92.6659 94.3838 92.2046ZM44.8199 55.2835C44.6601 55.2771 44.4927 55.2177 44.3178 55.1051C44.152 55.0057 43.9968 54.8795 43.8524 54.7264C43.7079 54.5734 43.5832 54.4068 43.4782 54.2265C43.3601 54.0553 43.2753 53.8902 43.2239 53.7313C43.108 53.4224 43.1055 53.1229 43.2162 52.8327C43.2579 52.6678 43.331 52.5201 43.4355 52.3898C43.5621 52.2635 43.6888 52.1372 43.8155 52.0109C44.008 51.8391 44.2031 51.6851 44.4006 51.5488C44.6204 51.4166 44.8402 51.2843 45.06 51.1521C45.5695 50.82 46.0769 50.4989 46.5824 50.189C47.11 49.8832 47.6468 49.5906 48.1927 49.3111C48.219 49.2929 48.2828 49.2586 48.3841 49.2082C48.4853 49.1577 48.5932 49.1027 48.7076 49.0432C48.8221 48.9837 48.9299 48.9287 49.0312 48.8782C49.1325 48.8278 49.1963 48.7935 49.2226 48.7753C49.258 48.7703 49.2753 48.739 49.2744 48.6813C49.2734 48.6236 49.277 48.5725 49.2852 48.528C49.3283 48.1678 49.4047 47.8138 49.5145 47.4658C49.6334 47.1311 49.7523 46.7963 49.8712 46.4615C50.0764 45.97 50.2972 45.4872 50.5337 45.0129C50.7702 44.5387 51.0224 44.0731 51.2902 43.6161C51.4241 43.3876 51.5971 43.103 51.8091 42.7623C52.0343 42.4125 52.2797 42.0779 52.5453 41.7586C52.8109 41.4392 53.0815 41.1553 53.3571 40.9068C53.6418 40.6714 53.9127 40.5428 54.1698 40.5209C54.3115 40.5009 54.4627 40.5229 54.6235 40.5869C54.8066 40.655 54.9745 40.7433 55.1271 40.8518C55.2888 40.9734 55.4328 41.0976 55.5591 41.2243C55.6945 41.3642 55.7965 41.4979 55.8651 41.6255C55.9569 41.8149 56.0022 42.0072 56.0009 42.2025C56.0077 42.3533 55.9766 42.4914 55.9076 42.6167C55.8477 42.7553 55.7878 42.8938 55.7279 43.0324C55.6153 43.2073 55.5027 43.3822 55.3901 43.557C55.2775 43.7319 55.165 43.9068 55.0524 44.0817C54.6973 44.6378 54.358 45.2024 54.0343 45.7757C53.7329 46.353 53.4805 46.9451 53.2772 47.552C53.26 47.5833 53.2387 47.6369 53.2132 47.7128C53.1969 47.8018 53.174 47.8954 53.1445 47.9935C53.115 48.0916 53.081 48.1831 53.0424 48.2681C53.017 48.3439 53.0022 48.393 52.9982 48.4152C53.827 48.3487 54.6575 48.2422 55.4895 48.0957C56.3215 47.9492 57.1536 47.8027 57.9856 47.6563C58.1273 47.6362 58.269 47.6162 58.4107 47.5962C58.5746 47.5803 58.732 47.5689 58.8828 47.562C59.0336 47.5551 59.1758 47.564 59.3093 47.5885C59.4651 47.617 59.5991 47.6704 59.7113 47.7484C59.9893 47.9259 60.167 48.2116 60.2443 48.6053C60.3307 49.0123 60.2963 49.3568 60.141 49.6389C60.0507 49.8178 59.9154 49.9598 59.7351 50.0648C59.5548 50.1698 59.372 50.257 59.1867 50.3265C58.2117 50.6884 57.206 50.9353 56.1696 51.0673C55.1422 51.2124 54.1074 51.3045 53.0651 51.3434C53.0074 51.3443 52.8809 51.3441 52.6856 51.3428C52.5125 51.3456 52.3172 51.3442 52.0997 51.3389C51.9044 51.3376 51.7136 51.3428 51.5274 51.3547C51.3412 51.3665 51.2192 51.3729 51.1616 51.3739C51.1171 51.3657 51.0128 51.3696 50.8489 51.3855C50.694 51.4146 50.5943 51.4251 50.5498 51.417C49.8032 51.9127 49.0815 52.4302 48.3844 52.9695C47.7097 53.5129 47.0172 54.0588 46.307 54.6072C46.0922 54.7749 45.8617 54.9339 45.6156 55.0843C45.3695 55.2347 45.1043 55.3011 44.8199 55.2835ZM51.0061 64.1212C50.4641 63.8148 50.025 63.4179 49.6888 62.9307C49.3617 62.4566 49.1292 61.9366 48.9914 61.3708C48.8668 60.7958 48.8419 60.2104 48.9167 59.6144C49.0046 59.0094 49.2018 58.436 49.5082 57.894C50.0167 56.9406 50.7045 56.1063 51.5718 55.3911C52.4523 54.6669 53.4068 54.1346 54.4355 53.7941C54.9741 53.6168 55.5359 53.5013 56.1209 53.4475C56.7058 53.3938 57.277 53.4468 57.8343 53.6065C58.338 53.7449 58.8143 53.9702 59.2631 54.2826C59.7251 54.5859 60.0995 54.9593 60.3862 55.403C60.6638 55.8335 60.8513 56.3165 60.9487 56.8519C61.0592 57.3783 61.0852 57.8949 61.0268 58.4018C60.9674 58.851 60.8367 59.2814 60.6347 59.6929C60.455 60.1086 60.2439 60.5069 60.0015 60.8881C59.542 61.5745 58.9881 62.1803 58.3396 62.7055C57.7003 63.2439 57.0039 63.6856 56.2505 64.0305C55.9154 64.1646 55.5711 64.2855 55.2178 64.3932C54.8867 64.5051 54.5395 64.5794 54.1762 64.6163C53.6448 64.6914 53.0989 64.689 52.5384 64.6093C51.987 64.5426 51.4762 64.38 51.0061 64.1212ZM51.8506 60.7391C51.8947 61.0002 52.0001 61.2094 52.1669 61.3665C52.3468 61.5145 52.5571 61.6221 52.7978 61.6892C53.0386 61.7564 53.292 61.7856 53.5582 61.7769C53.8375 61.7591 54.1097 61.717 54.375 61.6506C54.9844 61.4633 55.5566 61.1657 56.0916 60.7577C56.438 60.4991 56.7597 60.2188 57.0567 59.9167C57.3668 59.6055 57.6365 59.2639 57.8658 58.8918C58.0088 58.6765 58.127 58.4394 58.2205 58.1805C58.314 57.9216 58.3675 57.6611 58.3811 57.399C58.4037 57.1501 58.3778 56.9153 58.3032 56.6946C58.2287 56.4739 58.0837 56.292 57.8684 56.149C57.6753 56.0101 57.4544 55.9293 57.2055 55.9067C56.9697 55.8749 56.739 55.8786 56.5133 55.9177C55.9951 55.9838 55.4894 56.1383 54.9962 56.3814C54.5253 56.6287 54.0927 56.9174 53.6986 57.2477C53.3349 57.5376 53.0095 57.869 52.7226 58.242C52.4357 58.6149 52.2003 59.0204 52.0165 59.4582C51.9443 59.6636 51.8878 59.8775 51.847 60.1001C51.8062 60.3226 51.8074 60.5356 51.8506 60.7391ZM56.8379 72.1075C56.4 71.9236 55.9941 71.6594 55.6202 71.3148C55.2463 70.9702 54.9868 70.566 54.8418 70.1023C54.6818 69.5324 54.6812 68.9399 54.84 68.3249C55.0079 67.723 55.2632 67.1775 55.606 66.6882C55.9578 66.2121 56.3637 65.7862 56.8237 65.4105C57.306 65.0388 57.8064 64.6935 58.325 64.3745C58.3645 64.3473 58.4369 64.2973 58.5423 64.2246C58.6567 64.1651 58.7843 64.0964 58.9251 64.0187C59.0659 63.941 59.1889 63.8658 59.2943 63.7931C59.4087 63.7336 59.4857 63.6902 59.5252 63.6629C59.745 63.5307 60.0549 63.346 60.455 63.1088C60.8551 62.8716 61.2708 62.643 61.7022 62.4231C62.1559 62.2072 62.5903 62.0338 63.0054 61.9029C63.4205 61.772 63.7615 61.731 64.0286 61.78C64.2957 61.829 64.5394 61.9427 64.7597 62.1211C64.9891 62.3127 65.1679 62.5295 65.2961 62.7716C65.4465 63.0177 65.5351 63.287 65.562 63.5795C65.602 63.8629 65.5642 64.132 65.4484 64.3869C65.3327 64.6417 65.1497 64.8554 64.8995 65.0281C64.6716 65.2048 64.4275 65.3441 64.1673 65.4459C63.5283 65.7313 62.8823 65.9924 62.2292 66.2293C61.5762 66.4661 60.9372 66.7515 60.3123 67.0855C60.0835 67.2045 59.8308 67.3595 59.5542 67.5503C59.2908 67.7321 59.0411 67.9336 58.805 68.1548C58.5911 68.3802 58.4152 68.6182 58.2772 68.8689C58.1523 69.1106 58.1075 69.3554 58.1425 69.6034C58.1816 69.8291 58.3088 70.0135 58.5242 70.1565C58.7395 70.2995 58.9691 70.3646 59.213 70.3518C59.5591 70.3463 59.8956 70.2987 60.2226 70.2092C60.5628 70.1105 60.9004 69.9941 61.2356 69.8601C62.0253 69.5678 62.7696 69.2097 63.4685 68.7857C64.1896 68.3659 64.936 67.9966 65.7076 67.678C66.0164 67.5621 66.3343 67.4594 66.6613 67.3698C66.9973 67.2934 67.3212 67.2838 67.6328 67.341C67.9444 67.3981 68.1931 67.5472 68.3789 67.7884C68.5738 68.0426 68.665 68.3297 68.6523 68.6494C68.6215 68.9428 68.4997 69.231 68.2867 69.5141C68.1083 69.7344 67.8985 69.9375 67.6574 70.1233C67.4294 70.3 67.1924 70.4636 66.9463 70.614C66.5158 70.8916 66.0919 71.1647 65.6745 71.4333C65.2572 71.7018 64.8515 72.0012 64.4574 72.3315C63.7299 72.9113 63.0777 73.6141 62.5006 74.44C62.2836 74.7452 62.0711 75.0571 61.8632 75.3755C61.6775 75.6981 61.4514 75.9902 61.1849 76.2518C61.0845 76.36 60.9594 76.4463 60.8096 76.5108C60.6597 76.5754 60.5048 76.6045 60.345 76.5982C60.1274 76.5928 59.9069 76.5408 59.6834 76.4423C59.4731 76.3348 59.2689 76.1938 59.0708 76.0194C58.895 75.8492 58.7344 75.6587 58.589 75.448C58.4436 75.2373 58.3493 75.0302 58.3061 74.8267C58.2456 74.6546 58.2317 74.4795 58.2644 74.3015C58.3061 74.1366 58.3635 73.9803 58.4366 73.8327C58.6395 73.4788 58.8965 73.1751 59.2076 72.9216C59.5277 72.6813 59.8413 72.4455 60.1482 72.2142C59.6037 72.2984 59.041 72.3562 58.4601 72.3877C57.8923 72.4101 57.3516 72.3167 56.8379 72.1075ZM63.5923 80.7547C63.3017 80.8969 63.0005 80.9394 62.689 80.8823C62.3996 80.8292 62.1337 80.7115 61.8911 80.5289C61.6485 80.3464 61.4561 80.1099 61.3138 79.8192C61.1807 79.5417 61.1316 79.2452 61.1664 78.9295C61.1932 78.6583 61.3373 78.3742 61.5988 78.0771C61.8694 77.7932 62.18 77.5108 62.5306 77.23C62.8811 76.9492 63.2387 76.6927 63.6034 76.4605C63.968 76.2284 64.2623 76.035 64.4861 75.8805C65.9175 74.9123 67.3261 73.9111 68.712 72.877C68.9663 72.682 69.1937 72.4765 69.3944 72.2602C69.5951 72.044 69.8272 71.845 70.0905 71.6632C70.2354 71.5633 70.3959 71.4719 70.5721 71.3892C70.7574 71.3197 70.9391 71.3012 71.1171 71.3339C71.3883 71.3606 71.6472 71.4541 71.8939 71.6143C72.1405 71.7746 72.3279 71.9758 72.4561 72.2178C72.6247 72.4903 72.6652 72.8025 72.5776 73.1545C72.5146 73.373 72.407 73.5833 72.2549 73.7855C72.1028 73.9876 71.9436 74.1655 71.7774 74.3191C71.4673 74.6303 71.1345 74.9085 70.7789 75.1539C70.4324 75.4124 70.0905 75.6775 69.7531 75.9492C70.2886 75.8519 70.8179 75.7879 71.3411 75.7574C71.8734 75.74 72.4062 75.7514 72.9394 75.7917C73.3573 75.8338 73.7756 75.9047 74.1944 76.0046C74.6223 76.1175 74.9873 76.3225 75.2894 76.6194C75.4652 76.7897 75.5843 77.0186 75.6466 77.3061C75.7189 77.6644 75.6759 78.0246 75.5174 78.3866C75.3722 78.7396 75.1556 79.0737 74.8678 79.389C74.6022 79.7083 74.2916 79.9907 73.936 80.2361C73.5805 80.4814 73.2331 80.6823 72.8938 80.8386C72.7045 80.9304 72.5015 81.0024 72.2848 81.0547C72.0814 81.0979 71.8774 81.1123 71.6731 81.0978C71.3665 81.0761 71.1005 80.9583 70.8752 80.7445C70.6589 80.5438 70.5551 80.2947 70.5636 79.9972C70.5749 79.8727 70.6085 79.7524 70.6644 79.6361C70.7424 79.5239 70.8251 79.4182 70.9122 79.3192C70.9822 79.2515 71.0653 79.1747 71.1615 79.0889C71.271 78.9939 71.3693 78.8969 71.4564 78.7979C71.5568 78.6898 71.6394 78.5841 71.7043 78.481C71.7693 78.3779 71.7988 78.2798 71.7928 78.1867C71.7587 77.9964 71.6188 77.8499 71.373 77.7474C71.1364 77.658 70.929 77.5969 70.751 77.5643C70.146 77.4763 69.5342 77.5194 68.9156 77.6935C68.3103 77.8586 67.7346 78.0808 67.1888 78.3603C66.8586 78.5298 66.5421 78.7191 66.2392 78.9281C65.9586 79.1412 65.6714 79.3588 65.3776 79.581C65.097 79.7941 64.8052 80.0051 64.5023 80.2142C64.2217 80.4272 63.9184 80.6074 63.5923 80.7547ZM74.144 96.9329C73.7933 96.6501 73.4578 96.347 73.1375 96.0237C72.8263 95.7136 72.5389 95.3676 72.2754 94.9857C72.2209 94.9066 72.1255 94.7684 71.9891 94.5708C71.8528 94.3733 71.712 94.1692 71.5666 93.9585C71.4344 93.7387 71.3067 93.5255 71.1835 93.3189C71.0695 93.1254 70.9984 92.9801 70.9702 92.8829C70.9329 92.7726 70.931 92.6572 70.9646 92.5368C70.9982 92.4165 71.0474 92.3047 71.1124 92.2016C71.1296 92.1702 71.1337 92.148 71.1246 92.1348C71.1155 92.1217 71.1196 92.0994 71.1369 92.0681C71.1804 92.0185 71.2524 91.9397 71.3528 91.8316C71.4754 91.7275 71.6 91.6124 71.7267 91.4861C71.8756 91.3639 72.0003 91.2487 72.1006 91.1406C72.2232 91.0365 72.3108 90.9663 72.3635 90.93C73.0292 90.3734 73.7151 89.8321 74.4212 89.3059C75.1364 88.7929 75.8471 88.2734 76.5532 87.7472C76.7507 87.6109 77.0404 87.411 77.4223 87.1475C77.8042 86.8839 78.2256 86.5931 78.6865 86.2751C79.1565 85.9702 79.6529 85.6471 80.1756 85.3059C80.7073 84.9778 81.2127 84.6679 81.6918 84.3762C82.18 84.0976 82.6266 83.8575 83.0317 83.6557C83.4368 83.4539 83.7542 83.3224 83.984 83.261C84.1743 83.2269 84.3717 83.217 84.576 83.2315C84.7936 83.2369 84.9853 83.2893 85.1511 83.3887C85.2946 83.4841 85.4593 83.6523 85.6452 83.8934C85.8441 84.1255 86.0325 84.3843 86.2101 84.6699C86.4101 84.9596 86.5832 85.2387 86.7295 85.5071C86.8981 85.7795 87.0126 86.0018 87.0731 86.174C87.448 87.1399 87.6838 88.1436 87.7804 89.185C87.8751 90.1111 87.7609 91.0161 87.4378 91.9C87.2975 92.2884 87.1305 92.6661 86.9367 93.0331C86.7519 93.4133 86.5358 93.7763 86.2884 94.122C85.9629 94.5799 85.6035 95.0028 85.2103 95.3908C84.8262 95.792 84.4173 96.1713 83.9836 96.5289C83.2998 97.0591 82.5523 97.4972 81.7412 97.843C80.9524 98.193 80.1304 98.4103 79.2752 98.495C78.3795 98.5493 77.4725 98.4462 76.554 98.1858C75.6356 97.9254 74.8323 97.5077 74.144 96.9329ZM75.4134 92.6453C75.4779 92.7951 75.5491 92.9405 75.6268 93.0812C75.7045 93.222 75.7953 93.3537 75.8994 93.4763C76.2388 93.8836 76.6304 94.2257 77.0742 94.5027C77.5312 94.7705 78.0156 94.9514 78.5275 95.0452C79.0262 95.1482 79.5095 95.116 79.9773 94.9488C80.2597 94.851 80.524 94.727 80.7702 94.5766C81.0254 94.4393 81.2826 94.291 81.5419 94.1315C82.1527 93.7489 82.6999 93.2741 83.1834 92.7071C83.6761 92.1534 84.0301 91.5397 84.2457 90.866C84.4063 90.3664 84.4557 89.8463 84.3938 89.3059C84.345 88.7563 84.2082 88.2481 83.9832 87.7813C83.9469 87.7286 83.8651 87.6101 83.7379 87.4257C83.6238 87.2323 83.5486 87.1092 83.5123 87.0565C82.5663 87.5732 81.6411 88.1339 80.7365 88.7387C79.8542 89.3475 78.981 89.9696 78.1168 90.6048C78.0247 90.6684 77.8514 90.7976 77.5971 90.9926C77.3428 91.1875 77.0622 91.4006 76.7552 91.6318C76.4614 91.854 76.1874 92.0626 75.9331 92.2575C75.6788 92.4524 75.5056 92.5817 75.4134 92.6453ZM82.4017 110.294C82.2613 110.119 82.1229 109.932 81.9866 109.735C81.8371 109.546 81.7717 109.339 81.7902 109.112C81.7884 108.997 81.8438 108.852 81.9563 108.677C82.078 108.515 82.2108 108.355 82.3548 108.198C82.5119 108.031 82.6669 107.875 82.8199 107.731C82.982 107.599 83.1112 107.491 83.2075 107.405C82.8746 107.401 82.5392 107.38 82.2012 107.341C81.8724 107.315 81.5583 107.241 81.259 107.117C81.0223 107.027 80.7943 106.922 80.5749 106.801C80.3555 106.681 80.1644 106.531 80.0018 106.351C79.7937 106.106 79.6272 105.822 79.5022 105.5C79.3772 105.179 79.2987 104.854 79.2669 104.526C79.2149 104.056 79.2673 103.583 79.4238 103.105C79.5804 102.628 79.7728 102.174 80.0012 101.744C80.1909 101.4 80.3964 101.064 80.6175 100.736C80.8476 100.422 81.1071 100.136 81.3959 99.878C81.9826 99.376 82.6283 98.9596 83.3331 98.6287C84.0379 98.2979 84.7669 98.0865 85.5199 97.9945C86.0958 97.9276 86.6862 97.9381 87.2912 98.026C87.8962 98.114 88.4712 98.2712 89.0163 98.4977C89.3157 98.6216 89.6109 98.7678 89.9021 98.9362C90.2024 99.1178 90.4566 99.3312 90.6646 99.5764C90.9586 99.9178 91.1624 100.312 91.2761 100.758C91.412 101.209 91.4857 101.654 91.4972 102.093C91.4931 102.115 91.5356 102.134 91.6246 102.151C91.7136 102.167 91.7804 102.179 91.8249 102.187C92.0393 102.273 92.2258 102.416 92.3844 102.618C92.552 102.833 92.6731 103.05 92.7477 103.271C92.8081 103.443 92.8311 103.631 92.8166 103.836C92.8244 104.044 92.7786 104.231 92.6792 104.397C92.5716 104.608 92.4236 104.787 92.2351 104.937C92.0558 105.1 91.8673 105.249 91.6698 105.385C91.1998 105.69 90.7116 105.969 90.2053 106.221C89.7212 106.477 89.2396 106.751 88.7605 107.043C88.1629 107.417 87.581 107.799 87.0147 108.189C86.4575 108.593 85.921 109.041 85.4052 109.533C85.309 109.619 85.1757 109.75 85.0054 109.926C84.8574 110.106 84.6937 110.277 84.5144 110.44C84.3441 110.616 84.1668 110.767 83.9824 110.894C83.798 111.022 83.637 111.084 83.4994 111.082C83.3396 111.075 83.1404 110.97 82.9019 110.765C82.6724 110.574 82.5057 110.416 82.4017 110.294ZM82.4982 104.687C82.5505 104.904 82.6641 105.068 82.839 105.181C83.0139 105.293 83.2015 105.368 83.4018 105.405C83.6244 105.446 83.8576 105.46 84.1015 105.447C84.3585 105.425 84.5933 105.399 84.8059 105.369C85.315 105.29 85.7985 105.131 86.2562 104.893C86.723 104.668 87.1763 104.423 87.6158 104.159C87.8579 104.031 88.0908 103.889 88.3147 103.735C88.5518 103.571 88.7731 103.399 88.9788 103.218C89.0923 103.101 89.1947 102.982 89.286 102.861C89.3863 102.752 89.4619 102.622 89.5127 102.471C89.584 102.208 89.5489 101.96 89.4076 101.727C89.2663 101.494 89.0728 101.326 88.827 101.224C88.5499 101.104 88.2561 101.044 87.9454 101.045C87.6479 101.036 87.3509 101.056 87.0543 101.105C86.5938 101.171 86.1473 101.284 85.715 101.447C85.2917 101.622 84.8801 101.828 84.48 102.065C84.2602 102.198 84.012 102.359 83.7355 102.55C83.4812 102.745 83.2471 102.955 83.0333 103.18C82.8285 103.419 82.6682 103.666 82.5525 103.92C82.4458 104.188 82.4277 104.444 82.4982 104.687ZM84.6076 120.294C84.1983 119.954 83.828 119.558 83.4968 119.107C83.1746 118.668 82.8965 118.209 82.6625 117.729C82.5343 117.487 82.4194 117.235 82.3176 116.975C82.2248 116.728 82.1564 116.474 82.1123 116.213C82.0873 116.036 82.0865 115.852 82.1101 115.66C82.1205 115.478 82.1577 115.307 82.2217 115.146C82.3719 114.829 82.6162 114.563 82.9545 114.349C83.3019 114.148 83.643 114.107 83.9778 114.226C84.1163 114.286 84.2396 114.366 84.3478 114.466C84.4518 114.589 84.5427 114.72 84.6204 114.861C84.6658 114.927 84.7278 115.059 84.8065 115.258C84.8942 115.469 84.9865 115.688 85.0833 115.912C85.176 116.159 85.2617 116.382 85.3403 116.581C85.4148 116.801 85.4682 116.949 85.5005 117.024C85.6155 117.275 85.7482 117.524 85.8986 117.77C86.0581 118.029 86.2587 118.221 86.5003 118.346C86.7329 118.458 86.9823 118.509 87.2484 118.501C87.5105 118.514 87.7564 118.49 87.9862 118.429C88.3223 118.352 88.6377 118.232 88.9324 118.068C89.2494 117.907 89.5552 117.745 89.85 117.58C90.2014 117.357 90.5504 117.116 90.8969 116.858C91.2524 116.612 91.5969 116.365 91.9302 116.116C91.4483 116.234 90.9569 116.311 90.4559 116.346C89.9772 116.384 89.5017 116.343 89.0293 116.222C88.6996 116.138 88.3825 116.017 88.0781 115.858C87.787 115.689 87.5262 115.48 87.2959 115.231C86.9847 114.921 86.7747 114.56 86.6661 114.149C86.5383 113.654 86.5366 113.131 86.6609 112.578C86.7942 112.039 87.0085 111.561 87.3036 111.143C87.3208 111.112 87.3665 111.051 87.4405 110.962C87.5276 110.862 87.5799 110.797 87.5971 110.766C87.9126 110.237 88.3045 109.763 88.7726 109.342C89.2539 108.913 89.7559 108.528 90.2786 108.187C90.5156 108.023 90.8276 107.827 91.2145 107.599C91.6146 107.362 92.0283 107.144 92.4556 106.947C92.9052 106.753 93.3289 106.606 93.7268 106.507C94.1378 106.398 94.4839 106.393 94.765 106.49C95.0775 106.605 95.3342 106.836 95.5351 107.184C95.7359 107.531 95.8169 107.874 95.7779 108.212C95.7625 108.358 95.7026 108.497 95.5981 108.627C95.5028 108.771 95.4004 108.89 95.291 108.985C94.9404 109.266 94.5692 109.502 94.1773 109.695C93.7854 109.888 93.3823 110.079 92.9682 110.267C92.7261 110.395 92.4203 110.558 92.0506 110.754C91.6901 110.964 91.332 111.192 90.9764 111.437C90.6209 111.683 90.3078 111.947 90.0372 112.231C89.7797 112.506 89.6265 112.777 89.5775 113.044C89.5 113.467 89.6472 113.793 90.0193 114.022C90.1851 114.122 90.3525 114.181 90.5214 114.201C90.7127 114.224 90.8968 114.224 91.074 114.199C91.4818 114.17 91.8731 114.075 92.2477 113.914C92.6315 113.765 93.0127 113.599 93.3914 113.416C93.9596 113.14 94.5252 112.847 95.0883 112.537C95.6514 112.226 96.2352 111.959 96.8396 111.736C97.2143 111.575 97.5797 111.527 97.9358 111.592C98.1361 111.629 98.3216 111.715 98.4924 111.85C98.6855 111.988 98.8345 112.148 98.9395 112.328C99.0667 112.513 99.1453 112.711 99.1754 112.924C99.2145 113.149 99.2046 113.36 99.1456 113.557C99.0489 113.896 98.8739 114.191 98.6206 114.444C98.3804 114.687 98.1265 114.911 97.8591 115.115C97.7537 115.188 97.5628 115.32 97.2862 115.51C97.0228 115.692 96.72 115.901 96.3776 116.137C96.0352 116.374 95.6665 116.628 95.2714 116.901C94.8895 117.164 94.5273 117.414 94.185 117.65C93.8426 117.887 93.5331 118.1 93.2566 118.291C92.9932 118.473 92.8088 118.6 92.7035 118.673C92.1018 119.069 91.5021 119.453 90.9045 119.827C90.3292 120.204 89.7084 120.516 89.0422 120.762C88.6362 120.906 88.2186 121.019 87.7894 121.102C87.3693 121.197 86.9458 121.217 86.5188 121.162C85.8157 121.044 85.1786 120.755 84.6076 120.294Z" fill="#01432B"/>
</svg>
