<svg width="109" height="109" viewBox="0 0 109 109" fill="none" xmlns="http://www.w3.org/2000/svg">
<path fill-rule="evenodd" clip-rule="evenodd" d="M76.6665 29.8384C63.0839 17.5576 42.1175 18.6129 29.8366 32.1954C17.5558 45.778 18.6111 66.7445 32.1937 79.0253C38.1326 84.3951 45.4832 87.2151 52.9022 87.5532L54.5061 94.2999C56.7163 92.528 60.7802 89.9716 64.256 87.7851C66.6133 86.3023 68.7 84.9896 69.7548 84.2071C70.4145 83.7176 71.0707 83.225 71.713 82.7368C74.2392 81.1929 76.5974 79.2832 78.7088 77.0116C78.7117 77.0088 78.7147 77.0059 78.7176 77.0031L78.7163 77.0035C78.8193 76.8926 78.9217 76.7809 79.0235 76.6683C91.3044 63.0857 90.2491 42.1192 76.6665 29.8384Z" fill="#FFE4BB"/>
<path d="M44.3575 61.5109C43.9078 61.8418 43.3894 62.1012 42.8023 62.2892C42.2293 62.4648 41.6568 62.5336 41.0848 62.4954C40.4329 62.452 39.7961 62.2826 39.1743 61.9872C38.5535 61.6786 38.0253 61.2826 37.5898 60.7992C37.3167 60.487 37.0923 60.1446 36.9167 59.7721C36.7544 59.4005 36.6262 59.0178 36.5322 58.624C36.3841 58.0395 36.2967 57.4457 36.2701 56.8426C36.2568 56.2404 36.2768 55.6404 36.33 55.0426C36.3992 54.4058 36.5011 53.7779 36.636 53.1588C36.7717 52.5264 36.9526 51.9171 37.1788 51.3309C37.4031 50.7712 37.7118 50.2506 38.1047 49.769C38.5109 49.2883 38.9712 48.898 39.4856 48.5983C39.9451 48.3215 40.4528 48.1215 41.0089 47.9983C41.5659 47.8617 42.1158 47.8315 42.6586 47.9078C43.0817 47.9761 43.4936 48.1105 43.8945 48.3109C44.3087 48.5122 44.6657 48.7699 44.9655 49.0839C45.3894 49.5397 45.7074 50.0821 45.9194 50.7109C46.1455 51.3273 46.2511 51.9491 46.236 52.5761C46.2307 52.6559 46.2169 52.7619 46.1947 52.8941C46.1859 53.0271 46.1633 53.1659 46.1269 53.3105C46.1047 53.4426 46.0697 53.5672 46.0218 53.6843C45.9872 53.8023 45.9349 53.8856 45.8648 53.9344C45.7522 54.0205 45.608 54.0777 45.4324 54.106C45.2701 54.1353 45.1025 54.1442 44.9296 54.1326C44.7566 54.1211 44.585 54.0896 44.4147 54.0382C44.2577 53.9876 44.122 53.9185 44.0076 53.8307C43.8426 53.6994 43.7216 53.5109 43.6444 53.2652C43.5672 53.0196 43.5238 52.7695 43.514 52.5149C43.5176 52.2612 43.4945 52.0058 43.4448 51.7486C43.4147 51.5996 43.377 51.4635 43.3318 51.3402C43.2874 51.2036 43.2289 51.0794 43.1562 50.9677C43.0089 50.7708 42.7983 50.6231 42.5242 50.5247C42.2635 50.4271 42.0116 50.3969 41.7686 50.4342C41.4989 50.4697 41.2324 50.5588 40.969 50.7016C40.7189 50.8453 40.5065 51.0249 40.3318 51.2404C40.0692 51.5703 39.8644 51.9375 39.7171 52.342C39.5832 52.7473 39.4754 53.161 39.3938 53.5832C39.2759 54.1499 39.204 54.7264 39.1783 55.3127C39.1535 55.8856 39.1823 56.4555 39.2648 57.0222C39.3331 57.6014 39.4781 58.1322 39.6998 58.6147C39.8408 58.9047 40.0333 59.1247 40.2772 59.2746C40.5353 59.412 40.8107 59.4905 41.1034 59.51C41.3961 59.5296 41.6927 59.4892 41.9934 59.389C42.2941 59.2888 42.565 59.1331 42.8063 58.922C43.004 58.7615 43.1766 58.5792 43.3238 58.3752C43.471 58.1712 43.6426 58.0023 43.8386 57.8684C44.0072 57.746 44.1792 57.6706 44.3548 57.6422C44.5446 57.6014 44.7247 57.6067 44.895 57.6582C45.0794 57.6972 45.2413 57.7748 45.3805 57.891C45.5331 58.008 45.6435 58.1557 45.7118 58.334C45.8369 58.663 45.8533 59.0182 45.761 59.3996C45.6821 59.7819 45.5522 60.1273 45.3712 60.436C45.2497 60.6551 45.0963 60.852 44.9109 61.0267C44.7389 61.2023 44.5544 61.3637 44.3575 61.5109ZM51.5064 62.7091C51.1596 62.8998 50.7769 63.028 50.3583 63.0936C49.9397 63.1592 49.5415 63.1193 49.1636 62.9739C48.7086 62.7832 48.3215 62.4768 48.0022 62.0546C47.6962 61.6333 47.4723 61.1841 47.3304 60.7069C47.2018 60.2306 47.1339 59.745 47.1268 59.2501C47.1339 58.7428 47.1676 58.2373 47.2279 57.7335C47.2306 57.6936 47.2355 57.6204 47.2426 57.514C47.263 57.4085 47.2842 57.2896 47.3064 57.1575C47.3286 57.0253 47.3432 56.906 47.3503 56.7996C47.3707 56.694 47.3823 56.6213 47.3849 56.5814C47.4124 56.3694 47.4523 56.0714 47.5046 55.6874C47.557 55.3033 47.6231 54.9135 47.7029 54.518C47.7969 54.11 47.9086 53.7366 48.0381 53.3978C48.1676 53.059 48.3175 52.8151 48.4878 52.6661C48.6581 52.5171 48.8585 52.4169 49.0891 52.3654C49.333 52.3149 49.5672 52.3104 49.7916 52.3521C50.0302 52.3814 50.2519 52.463 50.4568 52.5969C50.6625 52.7175 50.8186 52.8816 50.9251 53.0892C51.0315 53.2967 51.0763 53.5268 51.0594 53.7796C51.0568 54.02 51.0213 54.2515 50.953 54.4741C50.8084 55.039 50.6443 55.596 50.4608 56.145C50.2772 56.694 50.1326 57.259 50.027 57.8399C49.9862 58.051 49.9565 58.2963 49.9379 58.5756C49.9202 58.8417 49.9224 59.1091 49.9446 59.3779C49.9809 59.6342 50.0452 59.8723 50.1375 60.0923C50.2306 60.2989 50.3672 60.455 50.5472 60.5606C50.7149 60.6519 50.9011 60.6643 51.106 60.5978C51.3109 60.5313 51.4723 60.4151 51.5902 60.2493C51.7659 60.0204 51.9091 59.7761 52.02 59.5162C52.1317 59.243 52.2306 58.9623 52.3166 58.6741C52.5348 58.0071 52.6865 57.3357 52.7716 56.6599C52.871 55.9716 53.0164 55.2932 53.208 54.6244C53.2922 54.3628 53.3898 54.102 53.5007 53.8421C53.6248 53.5832 53.7863 53.3668 53.9849 53.1929C54.1836 53.0191 54.4098 52.9339 54.6634 52.9375C54.9304 52.9419 55.165 53.0311 55.3672 53.2049C55.5428 53.377 55.6679 53.6058 55.7424 53.8914C55.7938 54.122 55.8178 54.3641 55.8142 54.6178C55.8115 54.8581 55.7956 55.0976 55.7663 55.3362C55.7246 55.761 55.6834 56.1792 55.6426 56.5907C55.6018 57.0022 55.5872 57.4222 55.5987 57.8506C55.6005 58.6258 55.7215 59.4156 55.9619 60.22C56.0488 60.5198 56.1424 60.82 56.2426 61.1207C56.357 61.4089 56.4306 61.7078 56.4634 62.0173C56.4821 62.1388 56.4736 62.2652 56.4381 62.3965C56.4027 62.5278 56.3415 62.6439 56.2546 62.7451C56.1384 62.8843 55.9903 63.0014 55.8102 63.0963C55.6311 63.1779 55.4333 63.2382 55.2169 63.2772C55.0146 63.3038 54.8071 63.31 54.5942 63.2958C54.3814 63.2816 54.1973 63.236 54.0421 63.1588C53.8985 63.1091 53.7769 63.0275 53.6776 62.914C53.5916 62.8014 53.5193 62.683 53.4608 62.5588C53.3348 62.2431 53.2696 61.918 53.2652 61.5836C53.2741 61.2502 53.2825 60.9233 53.2905 60.6031C53.0634 61.0023 52.8098 61.3996 52.5295 61.7952C52.2501 62.1774 51.9091 62.4821 51.5064 62.7091ZM61.3481 63.4655C61.2212 63.5639 61.07 63.6273 60.8944 63.6557C60.7197 63.6708 60.5521 63.6797 60.3915 63.6823C60.2044 63.6832 60.0181 63.6708 59.8328 63.6451C59.6465 63.6327 59.4691 63.5874 59.3006 63.5094C59.0656 63.4269 58.9153 63.2766 58.8496 63.0584C58.7813 62.8801 58.7538 62.6912 58.7671 62.4916C58.7804 62.2921 58.8 62.0996 58.8257 61.9142C58.9064 61.1045 58.9866 60.3014 59.0665 59.5049C59.1605 58.6961 59.2416 57.8796 59.3099 57.0557C59.3232 56.8561 59.3365 56.6566 59.3498 56.457C59.364 56.2442 59.3711 56.0375 59.3711 55.8371C59.2097 55.853 59.0483 55.869 58.8869 55.885C58.7396 55.8885 58.5858 55.8916 58.4252 55.8943C58.3454 55.889 58.2656 55.8836 58.1858 55.8783C58.1068 55.8597 58.0354 55.8282 57.9716 55.7839C57.8554 55.7227 57.768 55.63 57.7095 55.5058C57.6625 55.4091 57.6239 55.2863 57.5937 55.1373C57.5778 54.9759 57.5618 54.8144 57.5458 54.653C57.5441 54.4792 57.5547 54.3195 57.5778 54.1741C57.6017 54.0153 57.6434 53.8912 57.7028 53.8016C57.764 53.6854 57.87 53.5989 58.0208 53.5422C58.1725 53.4721 58.3357 53.4295 58.5104 53.4144C58.6851 53.3994 58.8656 53.398 59.0518 53.4105C59.2381 53.4229 59.4039 53.4406 59.5494 53.4637C59.5547 53.3838 59.5645 53.2375 59.5787 53.0246C59.5929 52.8118 59.6084 52.579 59.6252 52.3262C59.6421 52.0734 59.6576 51.8406 59.6718 51.6277C59.6993 51.4158 59.7157 51.2699 59.721 51.19C59.7414 51.0845 59.7689 50.9728 59.8035 50.8548C59.8514 50.7377 59.9113 50.6415 59.9831 50.5661C60.0682 50.4916 60.1791 50.4322 60.3157 50.3878C60.4532 50.3302 60.6026 50.2934 60.764 50.2774C60.9255 50.2614 61.086 50.2588 61.2456 50.2694C61.4053 50.2801 61.5379 50.2956 61.6434 50.316C61.8128 50.3807 61.9348 50.4557 62.0093 50.5408C62.1467 50.6836 62.2332 50.8898 62.2687 51.1594C62.3042 51.4291 62.3117 51.7169 62.2913 52.0229C62.2842 52.3297 62.2572 52.6353 62.2102 52.9395C62.164 53.2304 62.1277 53.4752 62.1011 53.6739C62.329 53.6623 62.5632 53.6579 62.8035 53.6606C63.0448 53.6499 63.2767 53.6787 63.4993 53.747C63.604 53.7807 63.7077 53.8277 63.8106 53.8881C63.9144 53.9351 63.9964 54.0074 64.0567 54.1049C64.2022 54.3284 64.2385 54.5847 64.1658 54.8739C64.1073 55.1506 63.9787 55.3759 63.78 55.5497C63.6665 55.649 63.5419 55.7142 63.4062 55.7453C63.2705 55.7763 63.1357 55.7941 63.0017 55.7985C62.9618 55.7958 62.8816 55.7972 62.7609 55.8025C62.6545 55.7954 62.5343 55.7941 62.4004 55.7985C62.2807 55.7905 62.1609 55.7825 62.0412 55.7745C61.9348 55.7674 61.8616 55.7626 61.8217 55.7599C61.7197 56.6885 61.6576 57.6198 61.6354 58.5537C61.6133 59.4876 61.6248 60.4171 61.67 61.3422C61.6807 61.5834 61.6913 61.8247 61.702 62.0659C61.7126 62.3071 61.6966 62.5466 61.6541 62.7843C61.6328 62.9032 61.5977 63.0278 61.549 63.1581C61.5144 63.2761 61.4474 63.3785 61.3481 63.4655ZM70.8917 63.5405C70.3126 63.8092 69.6997 63.9822 69.0531 64.0593C68.4066 64.1365 67.7662 64.1205 67.1321 64.0114C66.8678 63.9671 66.6061 63.8828 66.3471 63.7587C66.089 63.6212 65.8735 63.4465 65.7006 63.2345C65.4416 62.9099 65.2456 62.5427 65.1126 62.1329C64.9928 61.7241 64.9063 61.3174 64.8531 60.913C64.7591 60.3187 64.7183 59.728 64.7307 59.1409C64.744 58.5405 64.7906 57.9422 64.8704 57.3462C64.874 57.293 64.8873 57.1937 64.9103 57.0482C64.9343 56.8895 64.9582 56.7307 64.9822 56.5719C65.0203 56.4008 65.0509 56.2424 65.074 56.097C65.1112 55.9391 65.1383 55.834 65.1551 55.7817C65.2367 55.56 65.3573 55.3542 65.517 55.1644C65.6775 54.9613 65.8562 54.7861 66.0531 54.6389C66.2225 54.5032 66.4106 54.3888 66.6172 54.2957C66.8372 54.2034 67.0624 54.1316 67.293 54.0801C67.7551 53.9639 68.2159 53.8677 68.6753 53.7914C69.148 53.7161 69.6177 53.6872 70.0842 53.705C70.4168 53.7271 70.7392 53.8021 71.0514 53.9298C71.3769 54.0584 71.6452 54.2433 71.8562 54.4846C72.18 54.8402 72.4141 55.2367 72.5587 55.6739C72.7166 56.1121 72.7747 56.5436 72.733 56.9684C72.7046 57.3941 72.5782 57.7866 72.3538 58.1458C72.1294 58.505 71.803 58.7906 71.3747 59.0025C70.933 59.2136 70.4638 59.336 69.9671 59.3697C69.4837 59.4043 69.0021 59.4123 68.5223 59.3937C68.415 59.3999 68.3015 59.399 68.1817 59.391C68.0753 59.3839 67.9733 59.4105 67.8758 59.4708C67.7933 59.5054 67.729 59.568 67.6828 59.6584C67.65 59.7498 67.623 59.8549 67.6017 59.9737C67.5804 60.0926 67.5724 60.2123 67.5777 60.3329C67.584 60.4402 67.591 60.5343 67.599 60.615C67.6052 60.7223 67.6177 60.8367 67.6363 60.9582C67.6691 61.0673 67.7232 61.1578 67.7986 61.2296C67.8864 61.3156 68.0159 61.3777 68.1871 61.4159C68.3582 61.454 68.5369 61.4793 68.7232 61.4917C68.9228 61.505 69.1166 61.5045 69.3046 61.4904C69.4935 61.4629 69.6491 61.4331 69.7715 61.4012C70.0021 61.3498 70.2208 61.2775 70.4274 61.1844C70.6483 61.0788 70.8753 60.9804 71.1086 60.889C71.1911 60.8544 71.2731 60.8265 71.3547 60.8052C71.4505 60.7715 71.5516 60.7582 71.658 60.7653C71.9516 60.7715 72.184 60.8939 72.3551 61.1325C72.5405 61.3586 72.5902 61.6159 72.5041 61.9041C72.4509 62.101 72.3582 62.2886 72.2261 62.4669C72.0948 62.6318 71.9511 62.7826 71.7951 62.9192C71.5245 63.1684 71.2234 63.3755 70.8917 63.5405ZM67.4647 56.9178C67.4966 57.0402 67.556 57.1511 67.6429 57.2504C67.7432 57.3507 67.8514 57.4314 67.9675 57.4926C68.097 57.5546 68.2341 57.6039 68.3786 57.6402C68.5232 57.6766 68.6624 57.6926 68.7964 57.6881C69.0101 57.689 69.2199 57.6495 69.4256 57.5697C69.6447 57.4908 69.8252 57.3892 69.9671 57.2651C70.1223 57.1418 70.2186 57.0012 70.2558 56.8433C70.3072 56.673 70.2722 56.497 70.1507 56.3152C70.0052 56.0917 69.788 55.9436 69.4988 55.8708C69.2097 55.7981 68.9303 55.7795 68.6607 55.815C68.6332 55.8265 68.5995 55.8309 68.5596 55.8283C68.5197 55.8256 68.486 55.83 68.4585 55.8416C68.1871 55.9036 67.9378 56.034 67.7108 56.2327C67.4979 56.4189 67.4159 56.6473 67.4647 56.9178Z" fill="#01432B"/>
</svg>
