<svg width="388" height="143" viewBox="0 0 388 143" fill="none" xmlns="http://www.w3.org/2000/svg">
<path d="M61.6726 98.8202L59.2765 100.896C58.5376 100.33 57.765 99.9394 56.9587 99.7247C56.1588 99.5044 55.3542 99.4347 54.5448 99.5158C53.7363 99.5848 52.9512 99.7915 52.1894 100.136C51.4277 100.48 50.7183 100.937 50.0613 101.506C48.8633 102.544 48.0403 103.787 47.5923 105.236C47.1508 106.678 47.1541 108.237 47.6022 109.913C48.0568 111.583 49.0263 113.274 50.5109 114.988C51.9955 116.701 53.5319 117.901 55.1201 118.589C56.7147 119.271 58.2574 119.496 59.7482 119.264C61.2454 119.027 62.5931 118.389 63.7911 117.351C64.4481 116.782 65.0012 116.145 65.4504 115.44C65.8995 114.735 66.2186 113.99 66.4076 113.206C66.5975 112.41 66.6403 111.601 66.536 110.778C66.4326 109.942 66.156 109.122 65.7061 108.317L68.1021 106.24C68.798 107.408 69.2537 108.597 69.4691 109.809C69.6846 111.021 69.6808 112.214 69.4578 113.388C69.2293 114.556 68.7994 115.667 68.1681 116.722C67.5433 117.771 66.7317 118.728 65.7334 119.593C64.0458 121.055 62.1878 121.943 60.1595 122.257C58.1311 122.571 56.0815 122.295 54.0108 121.428C51.94 120.561 50.0005 119.084 48.1922 116.997C46.3839 114.91 45.1979 112.78 44.6344 110.607C44.0708 108.434 44.0888 106.366 44.6884 104.403C45.288 102.44 46.4315 100.727 48.1191 99.2647C49.1175 98.3996 50.1802 97.7324 51.3073 97.2632C52.4409 96.7885 53.6047 96.5243 54.7988 96.4707C55.9873 96.4107 57.1659 96.5736 58.3346 96.9593C59.4978 97.3385 60.6104 97.9588 61.6726 98.8202Z" fill="#FFE4BB"/>
<path d="M88.2799 102.88C86.6882 103.902 85.0894 104.434 83.4836 104.473C81.8802 104.5 80.3589 104.08 78.9196 103.212C77.4828 102.332 76.2207 101.046 75.1332 99.3536C74.0458 97.6615 73.3957 95.9721 73.1829 94.2853C72.9727 92.5867 73.1905 91.0182 73.8365 89.5798C74.485 88.1297 75.5549 86.9254 77.0462 85.967C77.9066 85.4141 78.8483 85.0115 79.8715 84.7592C80.8947 84.5069 81.9578 84.4822 83.0608 84.6851C84.1591 84.8809 85.2513 85.3744 86.3374 86.1657C87.4234 86.9571 88.4617 88.1235 89.4524 89.665L90.1435 90.7404L77.41 98.9238L76.0001 96.7298L86.1525 90.2053C85.5534 89.2732 84.8325 88.5613 83.9897 88.0696C83.1541 87.5733 82.2598 87.3325 81.3068 87.3472C80.361 87.3573 79.4292 87.6572 78.5115 88.247C77.5005 88.8967 76.7871 89.7098 76.3711 90.6863C75.9577 91.651 75.8096 92.658 75.9267 93.7072C76.0439 94.7565 76.395 95.7364 76.9802 96.647L77.9202 98.1096C78.7219 99.3572 79.6166 100.276 80.6044 100.868C81.5947 101.447 82.6221 101.714 83.6867 101.668C84.7467 101.614 85.7894 101.258 86.8147 100.6C87.4815 100.171 88.0238 99.6908 88.4417 99.1588C88.8622 98.615 89.1476 98.0264 89.2977 97.393C89.4432 96.7524 89.4392 96.0762 89.2857 95.3644L92.1801 94.4769C92.4565 95.4744 92.4927 96.4845 92.2887 97.5071C92.0802 98.5225 91.6407 99.4939 90.9702 100.421C90.2952 101.341 89.3984 102.161 88.2799 102.88Z" fill="#FFE4BB"/>
<path d="M102.877 64.8521L113.754 88.6679L111.009 89.9213L100.133 66.1054L102.877 64.8521Z" fill="#FFE4BB"/>
<path d="M139.428 79.6808C137.613 80.2139 135.929 80.273 134.377 79.8582C132.831 79.4328 131.49 78.6008 130.353 77.3623C129.223 76.1132 128.374 74.5237 127.807 72.5938C127.241 70.664 127.093 68.8598 127.364 67.1813C127.641 65.4923 128.292 64.0488 129.317 62.8506C130.347 61.642 131.713 60.7879 133.414 60.2885C134.395 60.0003 135.412 59.8794 136.465 59.9255C137.518 59.9717 138.545 60.2475 139.546 60.753C140.545 61.2503 141.454 62.0315 142.273 63.0967C143.092 64.162 143.76 65.5737 144.276 67.3318L144.636 68.5585L130.113 72.8229L129.378 70.3206L140.957 66.9206C140.645 65.8575 140.154 64.9713 139.484 64.2621C138.822 63.5504 138.032 63.0674 137.113 62.8131C136.203 62.5563 135.224 62.5816 134.178 62.8889C133.025 63.2275 132.111 63.8066 131.437 64.6264C130.768 65.4355 130.343 66.36 130.159 67.3998C129.976 68.4395 130.037 69.4787 130.342 70.5172L130.832 72.1854C131.25 73.6083 131.849 74.7425 132.63 75.5879C133.417 76.4227 134.328 76.968 135.362 77.2239C136.394 77.4716 137.495 77.4238 138.664 77.0804C139.425 76.8571 140.081 76.5491 140.632 76.1564C141.188 75.7531 141.628 75.2687 141.95 74.7033C142.27 74.1296 142.457 73.4797 142.51 72.7534L145.537 72.7173C145.522 73.7523 145.272 74.7317 144.788 75.6554C144.302 76.571 143.606 77.3791 142.702 78.08C141.795 78.7726 140.704 79.3063 139.428 79.6808Z" fill="#FFE4BB"/>
<path d="M159.553 74.4204L155.827 48.5051L158.814 48.0757L160.189 57.6421L160.442 57.6057C160.613 57.2368 160.855 56.7629 161.168 56.184C161.488 55.5956 161.985 55.0419 162.66 54.523C163.341 53.9945 164.315 53.6392 165.58 53.4573C167.217 53.222 168.718 53.4237 170.084 54.0625C171.45 54.7013 172.592 55.7211 173.508 57.1221C174.424 58.523 175.029 60.2442 175.322 62.2857C175.618 64.3441 175.525 66.1786 175.041 67.7894C174.557 69.3916 173.754 70.6953 172.633 71.7003C171.511 72.6969 170.14 73.3116 168.52 73.5445C167.271 73.724 166.242 73.6611 165.432 73.3557C164.62 73.0418 163.974 72.6483 163.493 72.175C163.01 71.6933 162.634 71.2911 162.363 70.9683L162.009 71.0193L162.438 74.0056L159.553 74.4204ZM161.092 64.2801C161.303 65.7479 161.704 67.0119 162.296 68.0721C162.886 69.1237 163.64 69.9065 164.558 70.4203C165.474 70.9257 166.531 71.0923 167.729 70.9201C168.978 70.7406 169.972 70.2618 170.713 69.4837C171.461 68.696 171.965 67.7108 172.225 66.5281C172.493 65.3359 172.527 64.048 172.329 62.6645C172.132 61.2979 171.744 60.0965 171.165 59.0605C170.592 58.0148 169.838 57.232 168.903 56.7122C167.974 56.1827 166.877 56.0089 165.612 56.1909C164.397 56.3655 163.42 56.8202 162.682 57.5549C161.943 58.2812 161.441 59.2229 161.177 60.3803C160.912 61.5291 160.883 62.8291 161.092 64.2801Z" fill="#FFE4BB"/>
<path d="M191.102 71.3516L191.102 51.7152H194.017V54.6811H194.221C194.579 53.7095 195.227 52.9212 196.165 52.316C197.102 51.7109 198.159 51.4084 199.335 51.4084C199.557 51.4084 199.834 51.4126 200.166 51.4212C200.498 51.4297 200.75 51.4425 200.92 51.4595V54.5277C200.818 54.5021 200.584 54.4638 200.217 54.4126C199.859 54.353 199.48 54.3232 199.079 54.3232C198.125 54.3232 197.273 54.5234 196.523 54.924C195.781 55.3161 195.193 55.8615 194.758 56.5604C194.332 57.2507 194.119 58.0391 194.119 58.9254L194.119 71.3516H191.102Z" fill="#FFE4BB"/>
<path d="M222.108 73.8241C220.876 73.647 219.792 73.2543 218.854 72.646C217.918 72.0293 217.219 71.2355 216.756 70.2649C216.294 69.2857 216.154 68.1635 216.336 66.8981C216.496 65.7845 216.845 64.9134 217.383 64.2847C217.922 63.6476 218.588 63.1836 219.378 62.8926C220.169 62.6017 221.022 62.4228 221.935 62.3562C222.859 62.2823 223.78 62.2512 224.7 62.2628C225.903 62.2808 226.877 62.3046 227.621 62.3342C228.376 62.3566 228.936 62.295 229.301 62.1495C229.675 62.0052 229.896 61.6926 229.965 61.2118L229.98 61.1105C230.16 59.862 229.957 58.8427 229.374 58.0527C228.798 57.264 227.823 56.7707 226.448 56.573C225.022 56.368 223.859 56.5194 222.96 57.0273C222.06 57.5351 221.395 58.1197 220.964 58.781L218.275 57.3611C218.951 56.2529 219.758 55.4304 220.696 54.8937C221.644 54.3497 222.639 54.0192 223.68 53.902C224.732 53.7776 225.746 53.7857 226.725 53.9264C227.349 54.0162 228.055 54.1952 228.843 54.4635C229.641 54.7246 230.387 55.1374 231.081 55.7021C231.783 56.2681 232.321 57.0472 232.695 58.0395C233.069 59.0318 233.145 60.2998 232.923 61.8436L231.082 74.6494L228.095 74.22L228.474 71.588L228.322 71.5662C228.059 71.9589 227.656 72.3617 227.115 72.7746C226.573 73.1875 225.886 73.5063 225.053 73.7309C224.22 73.9556 223.238 73.9866 222.108 73.8241ZM222.949 71.207C224.13 71.3768 225.159 71.2879 226.035 70.9404C226.92 70.594 227.622 70.0836 228.141 69.4091C228.668 68.7358 228.99 67.9943 229.107 67.1844L229.5 64.4512C229.351 64.5848 229.053 64.684 228.605 64.7487C228.166 64.8061 227.661 64.8412 227.091 64.854C226.531 64.8595 225.984 64.8584 225.451 64.8507C224.928 64.8357 224.503 64.8263 224.177 64.8224C223.386 64.8121 222.637 64.8722 221.929 65.003C221.231 65.1265 220.644 65.3821 220.166 65.7698C219.698 66.1502 219.409 66.7201 219.3 67.4793C219.151 68.5169 219.422 69.3567 220.113 69.9985C220.814 70.6331 221.759 71.0359 222.949 71.207Z" fill="#FFE4BB"/>
<path d="M261.395 62.2496L260.674 64.7028L250.91 61.8359L251.631 59.3826L261.395 62.2496ZM255.802 55.7042L258.697 56.5542L253.424 74.512C253.184 75.3298 253.122 75.9779 253.239 76.4564C253.367 76.9291 253.598 77.2902 253.934 77.5397C254.28 77.7834 254.665 77.9677 255.09 78.0925C255.409 78.1862 255.676 78.2467 255.89 78.274C256.106 78.2931 256.28 78.3084 256.409 78.3199L256.235 81.0932C256.017 81.1092 255.721 81.1024 255.348 81.0727C254.972 81.0513 254.515 80.9613 253.975 80.8028C253.157 80.5627 252.407 80.1516 251.726 79.5694C251.052 78.9897 250.563 78.2644 250.259 77.3935C249.964 76.525 249.977 75.5429 250.298 74.4471L255.802 55.7042Z" fill="#FFE4BB"/>
<path d="M275.286 88.6684L283.443 70.8065L286.187 72.0598L278.03 89.9217L275.286 88.6684ZM286.198 68.4668C285.663 68.2225 285.285 67.8297 285.064 67.2883C284.85 66.7504 284.86 66.2257 285.094 65.714C285.328 65.2023 285.718 64.8511 286.264 64.6602C286.818 64.4728 287.363 64.5013 287.897 64.7456C288.432 64.9899 288.807 65.3809 289.02 65.9188C289.241 66.4602 289.235 66.9867 289.001 67.4984C288.768 68.0101 288.374 68.3596 287.82 68.5469C287.274 68.7378 286.733 68.7111 286.198 68.4668Z" fill="#FFE4BB"/>
<path d="M303.81 90.3107L297.424 100.248L294.886 98.6168L305.502 82.0977L307.954 83.6735L306.295 86.2546L306.51 86.3929C307.437 85.8028 308.458 85.5067 309.573 85.5045C310.694 85.4951 311.878 85.8913 313.125 86.6931C314.244 87.4119 315.075 88.2702 315.619 89.2682C316.168 90.259 316.378 91.3666 316.249 92.591C316.126 93.8083 315.612 95.1195 314.709 96.5248L307.963 107.021L305.425 105.39L312.06 95.0657C312.894 93.768 313.207 92.5405 312.999 91.3832C312.795 90.2188 312.105 89.2587 310.929 88.5031C310.119 87.9824 309.282 87.6927 308.418 87.6339C307.561 87.5797 306.733 87.7721 305.935 88.2111C305.136 88.6501 304.428 89.3499 303.81 90.3107Z" fill="#FFE4BB"/>
<path d="M319.541 126.139C318.439 125.185 317.615 124.223 317.069 123.253C316.516 122.289 316.174 121.35 316.042 120.435C315.911 119.532 315.915 118.689 316.052 117.906L318.973 118.205C318.945 118.654 318.938 119.189 318.952 119.81C318.961 120.438 319.127 121.118 319.452 121.85C319.777 122.594 320.387 123.354 321.282 124.13C322.48 125.168 323.72 125.735 325.002 125.83C326.283 125.926 327.46 125.355 328.532 124.119L331.144 121.104L330.95 120.937C330.549 121.062 330.02 121.191 329.365 121.322C328.722 121.453 327.979 121.424 327.138 121.237C326.309 121.048 325.412 120.536 324.445 119.698C323.247 118.66 322.417 117.445 321.955 116.052C321.499 114.665 321.463 113.19 321.847 111.628C322.237 110.071 323.102 108.52 324.442 106.974C325.759 105.454 327.173 104.362 328.684 103.698C330.201 103.028 331.704 102.797 333.193 103.004C334.688 103.206 336.06 103.848 337.31 104.93C338.276 105.767 338.903 106.593 339.19 107.406C339.49 108.218 339.616 108.958 339.567 109.627C339.53 110.294 339.484 110.829 339.428 111.232L339.66 111.432L341.702 109.075L343.905 110.984L330.678 126.249C329.573 127.524 328.384 128.31 327.113 128.607C325.842 128.915 324.558 128.835 323.262 128.365C321.966 127.908 320.726 127.166 319.541 126.139ZM326.529 117.918C327.444 118.711 328.398 119.171 329.392 119.299C330.386 119.427 331.388 119.241 332.397 118.74C333.407 118.239 334.386 117.441 335.335 116.346C336.261 115.276 336.918 114.193 337.305 113.096C337.691 111.999 337.77 110.945 337.541 109.935C337.311 108.924 336.733 108.017 335.805 107.213C334.839 106.376 333.822 105.923 332.754 105.854C331.692 105.791 330.643 106.032 329.606 106.578C328.576 107.129 327.626 107.907 326.755 108.912C325.862 109.942 325.234 110.993 324.869 112.064C324.517 113.135 324.464 114.172 324.711 115.175C324.97 116.178 325.576 117.092 326.529 117.918Z" fill="#FFE4BB"/>
</svg>
