<svg width="621" height="403" viewBox="0 0 621 403" fill="none" xmlns="http://www.w3.org/2000/svg">
<rect x="30.0979" y="87.2891" width="559.804" height="227.421" rx="19.0842" fill="#FFE4BB"/>
<path d="M203.305 161.277H188.179V136.275H202.985L202.558 141.309L195.241 141.096V145.917H201.001V150.909L195.241 150.483V156.157L203.305 155.944V161.277ZM209.615 161.277L203.343 143.144H211.002L212.367 149.693L213.348 155.347L214.436 149.693L216.015 143.144H221.775L216.335 161.277H209.615ZM232.555 150.248C232.555 148.442 232.463 147.162 232.278 146.408C232.093 145.654 231.752 145.277 231.254 145.277C230.827 145.277 230.479 145.356 230.208 145.512C229.938 145.654 229.739 145.889 229.611 146.216C229.483 146.529 229.398 146.856 229.355 147.197C229.327 147.524 229.312 147.944 229.312 148.456V150.248H232.555ZM230.848 161.725C229.256 161.725 227.869 161.484 226.688 161C225.522 160.516 224.598 159.841 223.915 158.973C223.247 158.106 222.756 157.132 222.443 156.051C222.13 154.956 221.974 153.74 221.974 152.403C221.974 149.217 222.784 146.806 224.406 145.171C226.027 143.535 228.296 142.717 231.211 142.717C234.013 142.717 236.018 143.379 237.227 144.701C238.436 146.01 239.04 148.122 239.04 151.037V153.405H229.291V153.811C229.291 154.65 229.376 155.34 229.547 155.88C229.732 156.42 229.995 156.819 230.336 157.075C230.678 157.331 231.026 157.501 231.382 157.587C231.737 157.672 232.171 157.715 232.683 157.715C233.181 157.715 233.714 157.651 234.283 157.523C234.866 157.395 235.449 157.196 236.032 156.925C236.63 156.655 237.128 156.335 237.526 155.965L238.784 158.12C238.258 158.973 237.483 159.692 236.459 160.275C235.449 160.844 234.475 161.228 233.536 161.427C232.598 161.626 231.702 161.725 230.848 161.725ZM248.242 161.277H241.351V147.475L240.071 146.685V144.403L244.658 143.144H248.285V145.896L248.541 145.576C248.711 145.348 248.96 145.078 249.287 144.765C249.629 144.452 250.006 144.147 250.418 143.848C250.831 143.535 251.321 143.272 251.89 143.059C252.473 142.831 253.042 142.717 253.597 142.717C255.545 142.717 256.918 143.251 257.714 144.317C258.525 145.384 258.93 147.169 258.93 149.672C258.93 149.757 258.93 149.885 258.93 150.056C258.916 150.227 258.909 150.362 258.909 150.461V161.277H251.869V149.843C251.911 148.506 251.343 147.837 250.162 147.837C250.077 147.837 249.991 147.844 249.906 147.859C249.835 147.873 249.764 147.887 249.693 147.901C249.636 147.916 249.565 147.944 249.479 147.987C249.408 148.015 249.344 148.044 249.287 148.072C249.231 148.086 249.167 148.122 249.095 148.179C249.024 148.221 248.967 148.257 248.925 148.285C248.882 148.314 248.818 148.364 248.733 148.435C248.662 148.492 248.605 148.534 248.562 148.563C248.534 148.591 248.477 148.641 248.391 148.712C248.32 148.769 248.271 148.812 248.242 148.84V161.277ZM266.593 161.725C264.673 161.725 263.329 161.149 262.561 159.997C261.808 158.845 261.431 156.897 261.431 154.152V146.899H259.959V143.933L262.476 143.144L264.652 138.173H268.407V143.144H271.905V146.899H268.343V154.835C268.343 155.972 268.506 156.726 268.833 157.096C269.161 157.466 269.665 157.651 270.348 157.651C270.647 157.651 270.917 157.615 271.159 157.544C271.401 157.473 271.6 157.373 271.756 157.245V160.147C271.543 160.36 271.265 160.573 270.924 160.787C270.583 160.986 270.014 161.192 269.217 161.405C268.435 161.619 267.561 161.725 266.593 161.725ZM287.962 161.725C286.625 161.725 285.274 161.505 283.909 161.064C282.543 160.609 281.669 160.168 281.285 159.741L281.839 156.307C282.323 156.776 283.127 157.181 284.25 157.523C285.388 157.864 286.547 158.035 287.727 158.035C288.581 158.035 289.164 157.928 289.477 157.715C289.804 157.501 289.967 157.203 289.967 156.819C289.967 156.449 289.683 156.122 289.114 155.837C288.545 155.539 287.621 155.197 286.341 154.813C283.027 153.818 281.37 151.756 281.37 148.627C281.37 147.347 281.74 146.252 282.479 145.341C283.219 144.417 284.165 143.748 285.317 143.336C286.469 142.924 287.756 142.717 289.178 142.717C291.61 142.717 293.402 143.165 294.554 144.061C294.81 144.303 294.938 144.424 294.938 144.424L293.999 147.475C293.061 146.55 291.767 146.088 290.117 146.088C288.766 146.088 288.09 146.486 288.09 147.283C288.09 147.51 288.14 147.702 288.239 147.859C288.339 148.001 288.503 148.129 288.73 148.243C288.972 148.342 289.207 148.428 289.434 148.499C289.662 148.556 289.982 148.641 290.394 148.755C290.807 148.854 291.162 148.947 291.461 149.032C293.125 149.587 294.334 150.369 295.087 151.379C295.841 152.388 296.218 153.647 296.218 155.155C296.218 159.535 293.466 161.725 287.962 161.725ZM303.031 161.725C301.111 161.725 299.767 161.149 298.999 159.997C298.245 158.845 297.868 156.897 297.868 154.152V146.899H296.396V143.933L298.914 143.144L301.09 138.173H304.844V143.144H308.343V146.899H304.78V154.835C304.78 155.972 304.944 156.726 305.271 157.096C305.598 157.466 306.103 157.651 306.786 157.651C307.084 157.651 307.354 157.615 307.596 157.544C307.838 157.473 308.037 157.373 308.194 157.245V160.147C307.98 160.36 307.703 160.573 307.362 160.787C307.02 160.986 306.451 161.192 305.655 161.405C304.873 161.619 303.998 161.725 303.031 161.725ZM319.442 159.379L319.229 159.613C319.087 159.784 318.866 159.983 318.568 160.211C318.283 160.438 317.949 160.666 317.565 160.893C317.195 161.121 316.74 161.313 316.2 161.469C315.659 161.64 315.105 161.725 314.536 161.725C310.696 161.725 308.776 159.827 308.776 156.029C308.776 155.29 308.911 154.614 309.181 154.003C309.451 153.377 309.8 152.851 310.226 152.424C310.653 151.997 311.165 151.62 311.762 151.293C312.36 150.952 312.957 150.689 313.554 150.504C314.166 150.305 314.806 150.141 315.474 150.013C316.143 149.885 316.74 149.8 317.266 149.757C317.793 149.715 318.298 149.693 318.781 149.693V149.309C318.781 148.442 318.546 147.83 318.077 147.475C317.622 147.119 316.882 146.941 315.858 146.941C314.977 146.941 314.059 147.048 313.106 147.261C312.154 147.46 311.407 147.702 310.866 147.987L309.501 145.085C310.468 144.46 311.727 143.912 313.277 143.443C314.827 142.959 316.406 142.717 318.013 142.717C319.435 142.717 320.609 142.86 321.533 143.144C322.458 143.414 323.204 143.884 323.773 144.552C324.356 145.206 324.769 146.045 325.01 147.069C325.252 148.079 325.373 149.366 325.373 150.931V159.613L325.97 161.277H320.125L319.442 159.379ZM317.757 157.971C317.942 157.971 318.113 157.935 318.269 157.864C318.44 157.779 318.568 157.7 318.653 157.629C318.738 157.544 318.781 157.501 318.781 157.501V152.381C317.914 152.381 317.224 152.623 316.712 153.107C316.2 153.576 315.944 154.308 315.944 155.304C315.944 157.082 316.548 157.971 317.757 157.971ZM334.992 161.277H328.101V147.475L326.821 146.685V144.275L331.408 143.144H333.136L333.755 148.221C334.338 144.737 336.208 142.995 339.365 142.995C339.721 142.995 340.091 143.059 340.475 143.187L339.749 150.781C339.451 150.511 338.797 150.376 337.787 150.376C336.336 150.376 335.405 150.76 334.992 151.528V161.277ZM347.156 161.725C345.236 161.725 343.892 161.149 343.124 159.997C342.37 158.845 341.993 156.897 341.993 154.152V146.899H340.521V143.933L343.039 143.144L345.215 138.173H348.969V143.144H352.468V146.899H348.905V154.835C348.905 155.972 349.069 156.726 349.396 157.096C349.723 157.466 350.228 157.651 350.911 157.651C351.209 157.651 351.479 157.615 351.721 157.544C351.963 157.473 352.162 157.373 352.319 157.245V160.147C352.105 160.36 351.828 160.573 351.487 160.787C351.145 160.986 350.576 161.192 349.78 161.405C348.998 161.619 348.123 161.725 347.156 161.725ZM359.962 161.725C358.625 161.725 357.274 161.505 355.909 161.064C354.543 160.609 353.669 160.168 353.285 159.741L353.839 156.307C354.323 156.776 355.127 157.181 356.25 157.523C357.388 157.864 358.547 158.035 359.727 158.035C360.581 158.035 361.164 157.928 361.477 157.715C361.804 157.501 361.967 157.203 361.967 156.819C361.967 156.449 361.683 156.122 361.114 155.837C360.545 155.539 359.621 155.197 358.341 154.813C355.027 153.818 353.37 151.756 353.37 148.627C353.37 147.347 353.74 146.252 354.479 145.341C355.219 144.417 356.165 143.748 357.317 143.336C358.469 142.924 359.756 142.717 361.178 142.717C363.61 142.717 365.402 143.165 366.554 144.061C366.81 144.303 366.938 144.424 366.938 144.424L365.999 147.475C365.061 146.55 363.767 146.088 362.117 146.088C360.766 146.088 360.09 146.486 360.09 147.283C360.09 147.51 360.14 147.702 360.239 147.859C360.339 148.001 360.503 148.129 360.73 148.243C360.972 148.342 361.207 148.428 361.434 148.499C361.662 148.556 361.982 148.641 362.394 148.755C362.807 148.854 363.162 148.947 363.461 149.032C365.125 149.587 366.334 150.369 367.087 151.379C367.841 152.388 368.218 153.647 368.218 155.155C368.218 159.535 365.466 161.725 359.962 161.725ZM378.601 161.277V147.475L377.321 146.685V144.403L381.908 143.144H385.471V161.277H378.601ZM381.695 141.181L378.196 137.661V136.915L381.695 133.416H382.505L386.153 136.915V137.661L382.505 141.181H381.695ZM395.305 161.277H388.414V147.475L387.134 146.685V144.403L391.721 143.144H395.347V145.896L395.603 145.576C395.774 145.348 396.023 145.078 396.35 144.765C396.691 144.452 397.068 144.147 397.481 143.848C397.893 143.535 398.384 143.272 398.953 143.059C399.536 142.831 400.105 142.717 400.659 142.717C402.608 142.717 403.98 143.251 404.777 144.317C405.587 145.384 405.993 147.169 405.993 149.672C405.993 149.757 405.993 149.885 405.993 150.056C405.978 150.227 405.971 150.362 405.971 150.461V161.277H398.931V149.843C398.974 148.506 398.405 147.837 397.225 147.837C397.139 147.837 397.054 147.844 396.969 147.859C396.897 147.873 396.826 147.887 396.755 147.901C396.698 147.916 396.627 147.944 396.542 147.987C396.471 148.015 396.407 148.044 396.35 148.072C396.293 148.086 396.229 148.122 396.158 148.179C396.087 148.221 396.03 148.257 395.987 148.285C395.945 148.314 395.881 148.364 395.795 148.435C395.724 148.492 395.667 148.534 395.625 148.563C395.596 148.591 395.539 148.641 395.454 148.712C395.383 148.769 395.333 148.812 395.305 148.84V161.277ZM410.84 161.683L407.341 158.163V157.416L410.84 153.917H411.651L415.299 157.416V158.163L411.651 161.683H410.84ZM419.59 161.683L416.091 158.163V157.416L419.59 153.917H420.401L424.049 157.416V158.163L420.401 161.683H419.59ZM428.34 161.683L424.841 158.163V157.416L428.34 153.917H429.151L432.799 157.416V158.163L429.151 161.683H428.34Z" fill="#01432B"/>
<path d="M102.618 243.121C101.786 243.281 100.938 243.345 100.074 243.313C99.2104 243.249 98.3784 243.089 97.5784 242.833C96.7784 242.577 96.0264 242.209 95.3224 241.729C94.6184 241.249 93.9784 240.705 93.4024 240.097C92.8904 239.585 92.4264 239.025 92.0104 238.417C91.6264 237.809 91.2584 237.185 90.9064 236.545C90.2664 235.265 89.8024 233.921 89.5144 232.513C89.2264 231.073 89.0664 229.633 89.0344 228.193C89.0024 227.553 88.9544 226.913 88.8904 226.273C88.8584 225.633 88.8584 224.993 88.8904 224.353C88.9864 222.625 89.2584 220.913 89.7064 219.217C90.1864 217.489 90.8904 215.889 91.8184 214.417C92.3624 213.617 92.9704 212.865 93.6424 212.161C94.3464 211.457 95.1144 210.881 95.9464 210.433C96.5864 210.081 97.2584 209.809 97.9624 209.617C98.6664 209.425 99.3864 209.345 100.122 209.377C100.922 209.377 101.722 209.425 102.522 209.521C103.354 209.617 104.154 209.809 104.922 210.097C105.946 210.481 106.89 211.073 107.754 211.873C108.65 212.641 109.37 213.505 109.914 214.465C110.458 215.489 110.89 216.561 111.21 217.681C111.562 218.769 111.818 219.889 111.978 221.041C112.202 222.961 112.266 224.897 112.17 226.849C112.106 228.769 111.866 230.673 111.45 232.561C111.13 234.001 110.65 235.425 110.01 236.833C109.37 238.209 108.538 239.409 107.514 240.433C106.842 241.105 106.09 241.681 105.258 242.161C104.426 242.641 103.546 242.961 102.618 243.121ZM96.5224 233.617C96.8104 234.129 97.1624 234.609 97.5784 235.057C98.0264 235.473 98.5064 235.809 99.0184 236.065C99.5304 236.321 100.058 236.465 100.602 236.497C101.146 236.529 101.69 236.417 102.234 236.161C102.714 235.937 103.114 235.601 103.434 235.153C103.754 234.705 104.026 234.241 104.25 233.761C104.57 233.025 104.81 232.289 104.97 231.553C105.162 230.785 105.338 230.033 105.498 229.297C105.946 226.865 106.074 224.497 105.882 222.193C105.818 221.329 105.674 220.465 105.45 219.601C105.258 218.705 104.954 217.873 104.538 217.105C104.314 216.721 104.058 216.369 103.77 216.049C103.482 215.697 103.162 215.409 102.81 215.185C102.426 214.961 102.01 214.785 101.562 214.657C101.146 214.529 100.714 214.497 100.266 214.561C100.042 214.625 99.6904 214.785 99.2104 215.041C98.7624 215.297 98.4584 215.489 98.2984 215.617C98.0744 215.777 97.8184 216.081 97.5304 216.529C97.2744 216.945 97.0184 217.409 96.7624 217.921C96.5384 218.401 96.3144 218.881 96.0904 219.361C95.8984 219.841 95.7704 220.209 95.7064 220.465C95.3544 221.681 95.1304 222.945 95.0344 224.257C94.9704 225.537 94.9864 226.817 95.0824 228.097C95.1464 229.057 95.2904 230.017 95.5144 230.977C95.7384 231.905 96.0744 232.785 96.5224 233.617ZM130.275 243.121C129.443 243.281 128.595 243.345 127.731 243.313C126.867 243.249 126.035 243.089 125.235 242.833C124.435 242.577 123.683 242.209 122.979 241.729C122.275 241.249 121.635 240.705 121.059 240.097C120.547 239.585 120.083 239.025 119.667 238.417C119.283 237.809 118.915 237.185 118.563 236.545C117.923 235.265 117.459 233.921 117.171 232.513C116.883 231.073 116.723 229.633 116.691 228.193C116.659 227.553 116.611 226.913 116.547 226.273C116.515 225.633 116.515 224.993 116.547 224.353C116.643 222.625 116.915 220.913 117.363 219.217C117.843 217.489 118.547 215.889 119.475 214.417C120.019 213.617 120.627 212.865 121.299 212.161C122.003 211.457 122.771 210.881 123.603 210.433C124.243 210.081 124.915 209.809 125.619 209.617C126.323 209.425 127.043 209.345 127.779 209.377C128.579 209.377 129.379 209.425 130.179 209.521C131.011 209.617 131.811 209.809 132.579 210.097C133.603 210.481 134.547 211.073 135.411 211.873C136.307 212.641 137.027 213.505 137.571 214.465C138.115 215.489 138.547 216.561 138.867 217.681C139.219 218.769 139.475 219.889 139.635 221.041C139.859 222.961 139.923 224.897 139.827 226.849C139.763 228.769 139.523 230.673 139.107 232.561C138.787 234.001 138.307 235.425 137.667 236.833C137.027 238.209 136.195 239.409 135.171 240.433C134.499 241.105 133.747 241.681 132.915 242.161C132.083 242.641 131.203 242.961 130.275 243.121ZM124.179 233.617C124.467 234.129 124.819 234.609 125.235 235.057C125.683 235.473 126.163 235.809 126.675 236.065C127.187 236.321 127.715 236.465 128.259 236.497C128.803 236.529 129.347 236.417 129.891 236.161C130.371 235.937 130.771 235.601 131.091 235.153C131.411 234.705 131.683 234.241 131.907 233.761C132.227 233.025 132.467 232.289 132.627 231.553C132.819 230.785 132.995 230.033 133.155 229.297C133.603 226.865 133.731 224.497 133.539 222.193C133.475 221.329 133.331 220.465 133.107 219.601C132.915 218.705 132.611 217.873 132.195 217.105C131.971 216.721 131.715 216.369 131.427 216.049C131.139 215.697 130.819 215.409 130.467 215.185C130.083 214.961 129.667 214.785 129.219 214.657C128.803 214.529 128.371 214.497 127.923 214.561C127.699 214.625 127.347 214.785 126.867 215.041C126.419 215.297 126.115 215.489 125.955 215.617C125.731 215.777 125.475 216.081 125.187 216.529C124.931 216.945 124.675 217.409 124.419 217.921C124.195 218.401 123.971 218.881 123.747 219.361C123.555 219.841 123.427 220.209 123.363 220.465C123.011 221.681 122.787 222.945 122.691 224.257C122.627 225.537 122.643 226.817 122.739 228.097C122.803 229.057 122.947 230.017 123.171 230.977C123.395 231.905 123.731 232.785 124.179 233.617Z" fill="#01432B"/>
<path d="M99.9422 275.243C99.5822 275.349 99.2155 275.436 98.8422 275.503C98.4822 275.569 98.1088 275.603 97.7222 275.603C97.6422 275.603 97.5022 275.603 97.3022 275.603C97.1022 275.603 96.8955 275.603 96.6822 275.603C96.4688 275.589 96.2622 275.576 96.0622 275.563C95.8755 275.549 95.7422 275.529 95.6622 275.503C95.5688 275.476 95.4888 275.423 95.4222 275.343C95.3555 275.263 95.3022 275.176 95.2622 275.083C95.2488 275.056 95.2355 275.043 95.2222 275.043C95.2088 275.043 95.1955 275.029 95.1822 275.003C95.1688 274.949 95.1488 274.863 95.1222 274.743C95.1088 274.609 95.0888 274.469 95.0622 274.323C95.0488 274.163 95.0288 274.023 95.0022 273.903C94.9888 273.769 94.9822 273.676 94.9822 273.623C94.9155 272.903 94.8688 272.176 94.8422 271.443C94.8288 270.709 94.8088 269.976 94.7822 269.243C94.7822 269.043 94.7822 268.749 94.7822 268.363C94.7822 267.976 94.7822 267.549 94.7822 267.083C94.7955 266.616 94.8088 266.123 94.8222 265.603C94.8488 265.083 94.8755 264.589 94.9022 264.123C94.9422 263.656 94.9888 263.236 95.0422 262.863C95.0955 262.489 95.1555 262.209 95.2222 262.023C95.2888 261.876 95.3755 261.736 95.4822 261.603C95.5888 261.456 95.7155 261.349 95.8622 261.283C95.9955 261.229 96.1888 261.196 96.4422 261.183C96.6955 261.156 96.9622 261.149 97.2422 261.163C97.5355 261.163 97.8088 261.176 98.0622 261.203C98.3288 261.216 98.5355 261.243 98.6822 261.283C99.5222 261.483 100.322 261.796 101.082 262.223C101.762 262.596 102.329 263.103 102.782 263.743C102.982 264.023 103.162 264.316 103.322 264.623C103.495 264.929 103.642 265.249 103.762 265.583C103.922 266.023 104.042 266.469 104.122 266.923C104.215 267.376 104.282 267.836 104.322 268.303C104.362 269.023 104.309 269.743 104.162 270.463C104.029 271.169 103.789 271.836 103.442 272.463C103.055 273.103 102.555 273.676 101.942 274.183C101.329 274.689 100.662 275.043 99.9422 275.243ZM97.6022 272.343C97.7355 272.369 97.8688 272.389 98.0022 272.403C98.1355 272.416 98.2688 272.416 98.4022 272.403C98.8422 272.363 99.2622 272.256 99.6622 272.083C100.062 271.896 100.415 271.649 100.722 271.343C101.029 271.049 101.235 270.703 101.342 270.303C101.409 270.063 101.449 269.823 101.462 269.583C101.489 269.343 101.509 269.096 101.522 268.843C101.549 268.243 101.482 267.643 101.322 267.043C101.175 266.443 100.922 265.909 100.562 265.443C100.295 265.096 99.9622 264.816 99.5622 264.603C99.1622 264.376 98.7488 264.229 98.3222 264.163C98.2688 264.163 98.1488 264.163 97.9622 264.163C97.7755 264.149 97.6555 264.143 97.6022 264.143C97.5088 265.036 97.4555 265.936 97.4422 266.843C97.4422 267.736 97.4555 268.629 97.4822 269.523C97.4822 269.616 97.4888 269.796 97.5022 270.063C97.5155 270.329 97.5288 270.623 97.5422 270.943C97.5555 271.249 97.5688 271.536 97.5822 271.803C97.5955 272.069 97.6022 272.249 97.6022 272.343ZM107.635 275.903C107.528 275.969 107.395 276.009 107.235 276.023C107.088 276.049 106.935 276.049 106.775 276.023C106.615 276.009 106.455 275.969 106.295 275.903C106.148 275.849 106.028 275.783 105.935 275.703C105.895 275.663 105.841 275.596 105.775 275.503C105.721 275.409 105.695 275.329 105.695 275.263C105.668 274.849 105.695 274.436 105.775 274.023C105.855 273.609 105.928 273.196 105.995 272.783C106.048 272.516 106.095 272.256 106.135 272.003C106.175 271.749 106.215 271.489 106.255 271.223C106.215 271.223 106.115 271.223 105.955 271.223C105.808 271.223 105.715 271.216 105.675 271.203C105.581 271.176 105.508 271.123 105.455 271.043C105.415 270.949 105.381 270.849 105.355 270.743C105.328 270.636 105.315 270.529 105.315 270.423C105.315 270.303 105.315 270.196 105.315 270.103C105.328 269.916 105.361 269.723 105.415 269.523C105.468 269.309 105.568 269.136 105.715 269.003C105.861 268.869 106.035 268.796 106.235 268.783C106.448 268.769 106.648 268.756 106.835 268.743C106.848 268.543 106.908 268.203 107.015 267.723C107.135 267.229 107.261 266.716 107.395 266.183C107.541 265.649 107.681 265.143 107.815 264.663C107.948 264.183 108.048 263.849 108.115 263.663C108.221 263.356 108.341 263.056 108.475 262.763C108.608 262.469 108.775 262.196 108.975 261.943C109.121 261.783 109.281 261.643 109.455 261.523C109.641 261.403 109.835 261.316 110.035 261.263C110.288 261.196 110.548 261.183 110.815 261.223C111.081 261.249 111.328 261.323 111.555 261.443C111.768 261.563 111.955 261.723 112.115 261.923C112.288 262.109 112.435 262.316 112.555 262.543C112.688 262.796 112.801 263.056 112.895 263.323C113.001 263.589 113.095 263.856 113.175 264.123C113.401 264.936 113.581 265.756 113.715 266.583C113.848 267.409 113.968 268.243 114.075 269.083C114.235 269.069 114.395 269.063 114.555 269.063C114.715 269.049 114.868 269.076 115.015 269.143C115.201 269.209 115.315 269.336 115.355 269.523C115.381 269.629 115.395 269.756 115.395 269.903C115.408 270.049 115.401 270.196 115.375 270.343C115.361 270.489 115.328 270.629 115.275 270.763C115.235 270.896 115.181 271.003 115.115 271.083C115.008 271.176 114.888 271.243 114.755 271.283C114.621 271.309 114.488 271.323 114.355 271.323C114.368 271.429 114.395 271.616 114.435 271.883C114.475 272.149 114.508 272.443 114.535 272.763C114.575 273.069 114.608 273.363 114.635 273.643C114.661 273.909 114.675 274.089 114.675 274.183C114.688 274.409 114.688 274.643 114.675 274.883C114.661 275.109 114.581 275.309 114.435 275.483C114.301 275.643 114.128 275.749 113.915 275.803C113.715 275.856 113.515 275.883 113.315 275.883C113.181 275.883 113.048 275.869 112.915 275.843C112.781 275.816 112.661 275.756 112.555 275.663C112.475 275.583 112.408 275.443 112.355 275.243C112.301 275.043 112.261 274.829 112.235 274.603C112.208 274.376 112.188 274.156 112.175 273.943C112.161 273.729 112.148 273.563 112.135 273.443C112.108 273.056 112.068 272.669 112.015 272.283C111.961 271.883 111.915 271.489 111.875 271.103C111.328 271.076 110.788 271.063 110.255 271.063C109.721 271.049 109.195 271.083 108.675 271.163C108.581 271.589 108.508 272.016 108.455 272.443C108.401 272.869 108.355 273.296 108.315 273.723C108.288 273.989 108.261 274.256 108.235 274.523C108.208 274.789 108.155 275.049 108.075 275.303C107.981 275.569 107.835 275.769 107.635 275.903ZM109.035 268.823C109.435 268.849 109.835 268.863 110.235 268.863C110.648 268.849 111.061 268.836 111.475 268.823C111.448 268.716 111.408 268.516 111.355 268.223C111.315 267.916 111.268 267.596 111.215 267.263C111.161 266.916 111.115 266.589 111.075 266.283C111.035 265.976 111.008 265.769 110.995 265.663C110.981 265.583 110.961 265.476 110.935 265.343C110.921 265.209 110.901 265.076 110.875 264.943C110.848 264.796 110.808 264.663 110.755 264.543C110.715 264.423 110.668 264.343 110.615 264.303C110.561 264.249 110.501 264.249 110.435 264.303C110.381 264.343 110.328 264.389 110.275 264.443C110.181 264.549 110.108 264.663 110.055 264.783C109.921 265.023 109.808 265.269 109.715 265.523C109.635 265.776 109.561 266.036 109.495 266.303C109.388 266.729 109.295 267.149 109.215 267.563C109.148 267.976 109.088 268.396 109.035 268.823ZM120.875 275.643C120.795 275.749 120.675 275.836 120.515 275.903C120.369 275.969 120.209 276.016 120.035 276.043C119.862 276.069 119.689 276.076 119.515 276.063C119.342 276.063 119.189 276.043 119.055 276.003C118.789 275.936 118.582 275.796 118.435 275.583C118.342 275.476 118.275 275.356 118.235 275.223C118.209 275.076 118.182 274.929 118.155 274.783C118.129 274.569 118.115 274.363 118.115 274.163C118.129 273.949 118.142 273.736 118.155 273.523C118.169 273.016 118.189 272.516 118.215 272.023C118.255 271.516 118.309 271.009 118.375 270.503C118.375 270.476 118.382 270.416 118.395 270.323C118.409 270.229 118.422 270.129 118.435 270.023C118.449 269.916 118.462 269.816 118.475 269.723C118.489 269.629 118.495 269.569 118.495 269.543C118.509 269.516 118.495 269.489 118.455 269.463C118.415 269.436 118.382 269.409 118.355 269.383C118.129 269.183 117.922 268.963 117.735 268.723C117.562 268.483 117.389 268.243 117.215 268.003C116.975 267.629 116.749 267.249 116.535 266.863C116.322 266.476 116.122 266.083 115.935 265.683C115.842 265.483 115.729 265.229 115.595 264.923C115.462 264.603 115.349 264.276 115.255 263.943C115.162 263.609 115.095 263.289 115.055 262.983C115.029 262.676 115.069 262.429 115.175 262.243C115.229 262.136 115.315 262.043 115.435 261.963C115.569 261.869 115.709 261.796 115.855 261.743C116.015 261.689 116.169 261.649 116.315 261.623C116.475 261.596 116.615 261.589 116.735 261.603C116.909 261.629 117.062 261.689 117.195 261.783C117.302 261.849 117.382 261.936 117.435 262.043C117.502 262.149 117.569 262.256 117.635 262.363C117.702 262.523 117.769 262.683 117.835 262.843C117.902 263.003 117.969 263.163 118.035 263.323C118.249 263.829 118.475 264.329 118.715 264.823C118.969 265.303 119.255 265.756 119.575 266.183C119.589 266.209 119.615 266.249 119.655 266.303C119.709 266.356 119.762 266.416 119.815 266.483C119.869 266.549 119.915 266.616 119.955 266.683C119.995 266.736 120.022 266.769 120.035 266.783C120.382 266.183 120.702 265.563 120.995 264.923C121.289 264.283 121.582 263.643 121.875 263.003C121.929 262.896 121.982 262.789 122.035 262.683C122.102 262.563 122.169 262.449 122.235 262.343C122.302 262.236 122.375 262.143 122.455 262.063C122.549 261.969 122.649 261.903 122.755 261.863C123.009 261.756 123.289 261.769 123.595 261.903C123.915 262.036 124.135 262.223 124.255 262.463C124.335 262.609 124.369 262.769 124.355 262.943C124.342 263.116 124.315 263.283 124.275 263.443C124.062 264.283 123.755 265.089 123.355 265.863C122.969 266.636 122.542 267.389 122.075 268.123C122.049 268.163 121.989 268.249 121.895 268.383C121.815 268.503 121.722 268.636 121.615 268.783C121.522 268.916 121.435 269.049 121.355 269.183C121.275 269.316 121.222 269.403 121.195 269.443C121.169 269.469 121.122 269.543 121.055 269.663C121.002 269.783 120.962 269.856 120.935 269.883C120.922 270.629 120.935 271.369 120.975 272.103C121.029 272.823 121.075 273.556 121.115 274.303C121.129 274.529 121.129 274.763 121.115 275.003C121.102 275.243 121.022 275.456 120.875 275.643ZM131.863 275.703C131.223 275.903 130.563 275.989 129.883 275.963C129.216 275.949 128.57 275.809 127.943 275.543C127.436 275.329 126.963 275.029 126.523 274.643C126.096 274.243 125.763 273.789 125.523 273.283C125.416 273.056 125.33 272.816 125.263 272.563C125.196 272.309 125.196 272.056 125.263 271.803C125.356 271.469 125.55 271.216 125.843 271.043C125.923 270.989 126.03 270.936 126.163 270.883C126.31 270.816 126.456 270.763 126.603 270.723C126.763 270.683 126.91 270.656 127.043 270.643C127.19 270.616 127.31 270.616 127.403 270.643C127.55 270.683 127.663 270.776 127.743 270.923C127.836 271.069 127.91 271.216 127.963 271.363C128.056 271.603 128.15 271.843 128.243 272.083C128.35 272.323 128.483 272.543 128.643 272.743C128.843 272.983 129.07 273.169 129.323 273.303C129.59 273.423 129.856 273.489 130.123 273.503C130.403 273.516 130.663 273.463 130.903 273.343C131.143 273.223 131.336 273.029 131.483 272.763C131.603 272.549 131.67 272.329 131.683 272.103C131.696 271.863 131.663 271.636 131.583 271.423C131.503 271.196 131.383 270.989 131.223 270.803C131.063 270.616 130.876 270.463 130.663 270.343C130.196 270.089 129.73 269.829 129.263 269.563C128.81 269.296 128.37 269.009 127.943 268.703C127.623 268.476 127.316 268.236 127.023 267.983C126.73 267.729 126.463 267.449 126.223 267.143C125.81 266.636 125.543 266.063 125.423 265.423C125.316 264.783 125.37 264.156 125.583 263.543C125.77 262.996 126.07 262.523 126.483 262.123C126.856 261.763 127.303 261.483 127.823 261.283C128.356 261.083 128.896 260.963 129.443 260.923C130.003 260.883 130.55 260.929 131.083 261.063C131.63 261.196 132.11 261.423 132.523 261.743C132.91 262.049 133.223 262.423 133.463 262.863C133.596 263.116 133.696 263.383 133.763 263.663C133.83 263.943 133.87 264.223 133.883 264.503C133.896 264.689 133.91 264.869 133.923 265.043C133.936 265.203 133.93 265.369 133.903 265.543C133.89 265.649 133.863 265.763 133.823 265.883C133.783 265.989 133.723 266.083 133.643 266.163C133.563 266.243 133.45 266.309 133.303 266.363C133.156 266.416 132.996 266.456 132.823 266.483C132.663 266.509 132.503 266.523 132.343 266.523C132.183 266.523 132.05 266.509 131.943 266.483C131.823 266.456 131.703 266.409 131.583 266.343C131.463 266.263 131.376 266.169 131.323 266.063C131.23 265.836 131.176 265.596 131.163 265.343C131.15 265.089 131.11 264.836 131.043 264.583C130.99 264.316 130.87 264.056 130.683 263.803C130.496 263.536 130.27 263.363 130.003 263.283C129.656 263.176 129.336 263.236 129.043 263.463C128.763 263.689 128.596 263.983 128.543 264.343C128.516 264.529 128.523 264.723 128.563 264.923C128.616 265.123 128.683 265.309 128.763 265.483C128.91 265.789 129.09 266.069 129.303 266.323C129.53 266.576 129.776 266.803 130.043 267.003C130.35 267.243 130.67 267.463 131.003 267.663C131.336 267.863 131.663 268.063 131.983 268.263C132.276 268.449 132.55 268.656 132.803 268.883C133.056 269.096 133.283 269.336 133.483 269.603C133.763 269.989 133.97 270.423 134.103 270.903C134.25 271.369 134.323 271.849 134.323 272.343C134.323 272.823 134.236 273.289 134.063 273.743C133.903 274.183 133.656 274.563 133.323 274.883C133.123 275.069 132.896 275.229 132.643 275.363C132.39 275.496 132.13 275.609 131.863 275.703Z" fill="#01432B"/>
<path d="M233.027 243.121C232.195 243.281 231.347 243.345 230.483 243.313C229.619 243.249 228.787 243.089 227.987 242.833C227.187 242.577 226.435 242.209 225.731 241.729C225.027 241.249 224.387 240.705 223.811 240.097C223.299 239.585 222.835 239.025 222.419 238.417C222.035 237.809 221.667 237.185 221.315 236.545C220.675 235.265 220.211 233.921 219.923 232.513C219.635 231.073 219.475 229.633 219.443 228.193C219.411 227.553 219.363 226.913 219.299 226.273C219.267 225.633 219.267 224.993 219.299 224.353C219.395 222.625 219.667 220.913 220.115 219.217C220.595 217.489 221.299 215.889 222.227 214.417C222.771 213.617 223.379 212.865 224.051 212.161C224.755 211.457 225.523 210.881 226.355 210.433C226.995 210.081 227.667 209.809 228.371 209.617C229.075 209.425 229.795 209.345 230.531 209.377C231.331 209.377 232.131 209.425 232.931 209.521C233.763 209.617 234.563 209.809 235.331 210.097C236.355 210.481 237.299 211.073 238.163 211.873C239.059 212.641 239.779 213.505 240.323 214.465C240.867 215.489 241.299 216.561 241.619 217.681C241.971 218.769 242.227 219.889 242.387 221.041C242.611 222.961 242.675 224.897 242.579 226.849C242.515 228.769 242.275 230.673 241.859 232.561C241.539 234.001 241.059 235.425 240.419 236.833C239.779 238.209 238.947 239.409 237.923 240.433C237.251 241.105 236.499 241.681 235.667 242.161C234.835 242.641 233.955 242.961 233.027 243.121ZM226.931 233.617C227.219 234.129 227.571 234.609 227.987 235.057C228.435 235.473 228.915 235.809 229.427 236.065C229.939 236.321 230.467 236.465 231.011 236.497C231.555 236.529 232.099 236.417 232.643 236.161C233.123 235.937 233.523 235.601 233.843 235.153C234.163 234.705 234.435 234.241 234.659 233.761C234.979 233.025 235.219 232.289 235.379 231.553C235.571 230.785 235.747 230.033 235.907 229.297C236.355 226.865 236.483 224.497 236.291 222.193C236.227 221.329 236.083 220.465 235.859 219.601C235.667 218.705 235.363 217.873 234.947 217.105C234.723 216.721 234.467 216.369 234.179 216.049C233.891 215.697 233.571 215.409 233.219 215.185C232.835 214.961 232.419 214.785 231.971 214.657C231.555 214.529 231.123 214.497 230.675 214.561C230.451 214.625 230.099 214.785 229.619 215.041C229.171 215.297 228.867 215.489 228.707 215.617C228.483 215.777 228.227 216.081 227.939 216.529C227.683 216.945 227.427 217.409 227.171 217.921C226.947 218.401 226.723 218.881 226.499 219.361C226.307 219.841 226.179 220.209 226.115 220.465C225.763 221.681 225.539 222.945 225.443 224.257C225.379 225.537 225.395 226.817 225.491 228.097C225.555 229.057 225.699 230.017 225.923 230.977C226.147 231.905 226.483 232.785 226.931 233.617ZM260.684 243.121C259.852 243.281 259.004 243.345 258.14 243.313C257.276 243.249 256.444 243.089 255.644 242.833C254.844 242.577 254.092 242.209 253.388 241.729C252.684 241.249 252.044 240.705 251.468 240.097C250.956 239.585 250.492 239.025 250.076 238.417C249.692 237.809 249.324 237.185 248.972 236.545C248.332 235.265 247.868 233.921 247.58 232.513C247.292 231.073 247.132 229.633 247.1 228.193C247.068 227.553 247.02 226.913 246.956 226.273C246.924 225.633 246.924 224.993 246.956 224.353C247.052 222.625 247.324 220.913 247.772 219.217C248.252 217.489 248.956 215.889 249.884 214.417C250.428 213.617 251.036 212.865 251.708 212.161C252.412 211.457 253.18 210.881 254.012 210.433C254.652 210.081 255.324 209.809 256.028 209.617C256.732 209.425 257.452 209.345 258.188 209.377C258.988 209.377 259.788 209.425 260.588 209.521C261.42 209.617 262.22 209.809 262.988 210.097C264.012 210.481 264.956 211.073 265.82 211.873C266.716 212.641 267.436 213.505 267.98 214.465C268.524 215.489 268.956 216.561 269.276 217.681C269.628 218.769 269.884 219.889 270.044 221.041C270.268 222.961 270.332 224.897 270.236 226.849C270.172 228.769 269.932 230.673 269.516 232.561C269.196 234.001 268.716 235.425 268.076 236.833C267.436 238.209 266.604 239.409 265.58 240.433C264.908 241.105 264.156 241.681 263.324 242.161C262.492 242.641 261.612 242.961 260.684 243.121ZM254.588 233.617C254.876 234.129 255.228 234.609 255.644 235.057C256.092 235.473 256.572 235.809 257.084 236.065C257.596 236.321 258.124 236.465 258.668 236.497C259.212 236.529 259.756 236.417 260.3 236.161C260.78 235.937 261.18 235.601 261.5 235.153C261.82 234.705 262.092 234.241 262.316 233.761C262.636 233.025 262.876 232.289 263.036 231.553C263.228 230.785 263.404 230.033 263.564 229.297C264.012 226.865 264.14 224.497 263.948 222.193C263.884 221.329 263.74 220.465 263.516 219.601C263.324 218.705 263.02 217.873 262.604 217.105C262.38 216.721 262.124 216.369 261.836 216.049C261.548 215.697 261.228 215.409 260.876 215.185C260.492 214.961 260.076 214.785 259.628 214.657C259.212 214.529 258.78 214.497 258.332 214.561C258.108 214.625 257.756 214.785 257.276 215.041C256.828 215.297 256.524 215.489 256.364 215.617C256.14 215.777 255.884 216.081 255.596 216.529C255.34 216.945 255.084 217.409 254.828 217.921C254.604 218.401 254.38 218.881 254.156 219.361C253.964 219.841 253.836 220.209 253.772 220.465C253.42 221.681 253.196 222.945 253.1 224.257C253.036 225.537 253.052 226.817 253.148 228.097C253.212 229.057 253.356 230.017 253.58 230.977C253.804 231.905 254.14 232.785 254.588 233.617Z" fill="#01432B"/>
<path d="M224.957 276.103C224.463 276.209 223.983 276.169 223.517 275.983C223.357 275.916 223.21 275.823 223.077 275.703C222.943 275.569 222.863 275.423 222.837 275.263C222.81 275.129 222.79 274.923 222.777 274.643C222.777 274.363 222.777 274.049 222.777 273.703C222.79 273.356 222.803 272.989 222.817 272.603C222.843 272.216 222.863 271.849 222.877 271.503C222.903 271.156 222.923 270.843 222.937 270.563C222.963 270.283 222.977 270.076 222.977 269.943C222.857 269.943 222.73 269.936 222.597 269.923C222.463 269.909 222.343 269.876 222.237 269.823C222.117 269.769 222.023 269.683 221.957 269.563C221.89 269.443 221.837 269.309 221.797 269.163C221.757 269.003 221.73 268.843 221.717 268.683C221.717 268.523 221.723 268.383 221.737 268.263C221.75 268.129 221.783 268.003 221.837 267.883C221.89 267.749 221.97 267.649 222.077 267.583C222.197 267.503 222.337 267.476 222.497 267.503C222.657 267.516 222.81 267.536 222.957 267.563C222.957 267.443 222.957 267.243 222.957 266.963C222.957 266.669 222.957 266.336 222.957 265.963C222.957 265.589 222.957 265.196 222.957 264.783C222.957 264.369 222.957 263.976 222.957 263.603C222.957 263.229 222.957 262.903 222.957 262.623C222.957 262.329 222.957 262.123 222.957 262.003C222.97 261.856 223.003 261.709 223.057 261.563C223.123 261.416 223.223 261.309 223.357 261.243C223.463 261.189 223.617 261.143 223.817 261.103C224.03 261.063 224.25 261.036 224.477 261.023C224.703 260.996 224.923 260.983 225.137 260.983C225.35 260.983 225.517 261.003 225.637 261.043C225.823 261.109 225.97 261.229 226.077 261.403C226.17 261.563 226.223 261.816 226.237 262.163C226.263 262.496 226.263 262.856 226.237 263.243C226.223 263.616 226.197 263.983 226.157 264.343C226.117 264.689 226.09 264.956 226.077 265.143C226.077 265.223 226.07 265.376 226.057 265.603C226.043 265.829 226.023 266.076 225.997 266.343C225.983 266.596 225.97 266.836 225.957 267.063C225.943 267.289 225.937 267.443 225.937 267.523C226.03 267.523 226.223 267.529 226.517 267.543C226.81 267.543 227.123 267.549 227.457 267.563C227.803 267.563 228.123 267.569 228.417 267.583C228.71 267.583 228.903 267.583 228.997 267.583C228.997 267.449 229.003 267.236 229.017 266.943C229.03 266.636 229.043 266.296 229.057 265.923C229.07 265.536 229.09 265.129 229.117 264.703C229.143 264.276 229.17 263.876 229.197 263.503C229.223 263.116 229.243 262.776 229.257 262.483C229.283 262.189 229.31 261.976 229.337 261.843C229.363 261.696 229.403 261.543 229.457 261.383C229.523 261.223 229.617 261.089 229.737 260.983C229.857 260.876 230.003 260.803 230.177 260.763C230.35 260.723 230.53 260.709 230.717 260.723C230.917 260.736 231.103 260.769 231.277 260.823C231.463 260.876 231.623 260.943 231.757 261.023C231.943 261.143 232.063 261.269 232.117 261.403C232.17 261.523 232.19 261.723 232.177 262.003C232.177 262.283 232.157 262.583 232.117 262.903C232.09 263.209 232.057 263.503 232.017 263.783C231.977 264.063 231.95 264.269 231.937 264.403C231.883 264.936 231.837 265.469 231.797 266.003C231.77 266.536 231.757 267.069 231.757 267.603C231.877 267.589 232.003 267.583 232.137 267.583C232.27 267.583 232.383 267.623 232.477 267.703C232.53 267.743 232.577 267.816 232.617 267.923C232.67 268.016 232.71 268.123 232.737 268.243C232.763 268.363 232.783 268.483 232.797 268.603C232.81 268.709 232.817 268.796 232.817 268.863C232.817 268.929 232.817 269.023 232.817 269.143C232.83 269.249 232.83 269.363 232.817 269.483C232.817 269.589 232.81 269.696 232.797 269.803C232.783 269.909 232.757 269.983 232.717 270.023C232.61 270.129 232.423 270.189 232.157 270.203C231.89 270.216 231.683 270.223 231.537 270.223C231.563 270.716 231.577 271.209 231.577 271.703C231.59 272.183 231.61 272.676 231.637 273.183C231.637 273.409 231.643 273.643 231.657 273.883C231.683 274.123 231.697 274.356 231.697 274.583C231.697 274.729 231.697 274.869 231.697 275.003C231.697 275.136 231.677 275.269 231.637 275.403C231.597 275.523 231.523 275.623 231.417 275.703C231.323 275.769 231.21 275.823 231.077 275.863C230.943 275.903 230.803 275.923 230.657 275.923C230.51 275.936 230.37 275.936 230.237 275.923C230.05 275.896 229.863 275.856 229.677 275.803C229.49 275.749 229.33 275.663 229.197 275.543C229.09 275.449 229.01 275.303 228.957 275.103C228.903 274.903 228.863 274.689 228.837 274.463C228.823 274.223 228.81 273.989 228.797 273.763C228.797 273.536 228.797 273.356 228.797 273.223C228.797 273.129 228.797 272.929 228.797 272.623C228.81 272.303 228.817 271.963 228.817 271.603C228.817 271.243 228.817 270.909 228.817 270.603C228.83 270.296 228.837 270.089 228.837 269.983C228.343 269.983 227.85 269.976 227.357 269.963C226.877 269.949 226.383 269.929 225.877 269.903C225.85 270.463 225.817 271.023 225.777 271.583C225.75 272.143 225.737 272.703 225.737 273.263C225.723 273.543 225.73 273.823 225.757 274.103C225.783 274.383 225.783 274.663 225.757 274.943C225.743 275.089 225.717 275.236 225.677 275.383C225.65 275.529 225.59 275.663 225.497 275.783C225.39 275.956 225.21 276.063 224.957 276.103ZM242.183 274.783C241.676 275.236 241.11 275.549 240.483 275.723C239.87 275.896 239.25 275.943 238.623 275.863C238.01 275.783 237.416 275.583 236.843 275.263C236.283 274.929 235.803 274.489 235.403 273.943C234.963 273.343 234.65 272.676 234.463 271.943C234.29 271.209 234.19 270.476 234.163 269.743C234.163 269.716 234.156 269.669 234.143 269.603C234.13 269.523 234.123 269.476 234.123 269.463C234.123 269.383 234.123 269.243 234.123 269.043C234.136 268.829 234.15 268.609 234.163 268.383C234.19 268.143 234.21 267.923 234.223 267.723C234.236 267.523 234.25 267.383 234.263 267.303C234.37 266.569 234.53 265.849 234.743 265.143C234.97 264.423 235.29 263.756 235.703 263.143C235.903 262.863 236.123 262.596 236.363 262.343C236.603 262.089 236.863 261.863 237.143 261.663C237.33 261.529 237.536 261.416 237.763 261.323C237.99 261.229 238.216 261.169 238.443 261.143C238.963 261.089 239.49 261.109 240.023 261.203C240.556 261.283 241.056 261.449 241.523 261.703C242.283 262.103 242.896 262.669 243.363 263.403C243.643 263.829 243.856 264.303 244.003 264.823C244.163 265.329 244.276 265.836 244.343 266.343C244.45 267.183 244.47 268.029 244.403 268.883C244.336 269.736 244.21 270.583 244.023 271.423C243.876 272.049 243.65 272.663 243.343 273.263C243.05 273.849 242.663 274.356 242.183 274.783ZM238.243 272.283C238.483 272.443 238.763 272.556 239.083 272.623C239.403 272.676 239.703 272.656 239.983 272.563C240.21 272.496 240.41 272.383 240.583 272.223C240.756 272.063 240.896 271.883 241.003 271.683C241.23 271.309 241.39 270.909 241.483 270.483C241.59 270.043 241.67 269.609 241.723 269.183C241.79 268.583 241.803 267.983 241.763 267.383C241.723 266.783 241.596 266.203 241.383 265.643C241.316 265.429 241.223 265.223 241.103 265.023C240.996 264.809 240.87 264.616 240.723 264.443C240.47 264.136 240.143 263.949 239.743 263.883C239.356 263.803 238.99 263.856 238.643 264.043C238.616 264.056 238.556 264.103 238.463 264.183C238.383 264.263 238.33 264.316 238.303 264.343C238.05 264.596 237.856 264.869 237.723 265.163C237.496 265.656 237.33 266.169 237.223 266.703C237.116 267.236 237.063 267.776 237.063 268.323C237.063 268.749 237.076 269.183 237.103 269.623C237.143 270.063 237.216 270.496 237.323 270.923C237.403 271.189 237.516 271.443 237.663 271.683C237.823 271.923 238.016 272.123 238.243 272.283ZM252.123 275.423C251.629 275.583 251.109 275.656 250.563 275.643C250.029 275.616 249.523 275.509 249.043 275.323C248.536 275.123 248.083 274.809 247.683 274.383C247.296 273.956 246.989 273.489 246.763 272.983C246.536 272.476 246.376 271.956 246.283 271.423C246.203 270.889 246.143 270.349 246.103 269.803C246.089 269.749 246.103 269.703 246.143 269.663C246.103 269.649 246.083 269.609 246.083 269.543C246.056 269.063 246.043 268.589 246.043 268.123C246.043 267.643 246.049 267.163 246.063 266.683C246.063 266.563 246.063 266.329 246.063 265.983C246.076 265.636 246.089 265.263 246.103 264.863C246.116 264.463 246.129 264.089 246.143 263.743C246.156 263.396 246.169 263.163 246.183 263.043C246.196 262.816 246.216 262.596 246.243 262.383C246.269 262.156 246.343 261.949 246.463 261.763C246.609 261.536 246.816 261.389 247.083 261.323C247.176 261.283 247.289 261.256 247.423 261.243C247.569 261.216 247.716 261.209 247.863 261.223C248.009 261.223 248.143 261.243 248.263 261.283C248.396 261.309 248.496 261.356 248.563 261.423C248.629 261.489 248.676 261.569 248.703 261.663C248.743 261.743 248.776 261.829 248.803 261.923C248.856 262.176 248.883 262.449 248.883 262.743C248.896 263.236 248.876 263.729 248.823 264.223C248.769 264.703 248.729 265.189 248.703 265.683C248.676 266.229 248.663 266.776 248.663 267.323C248.663 267.856 248.676 268.396 248.703 268.943C248.729 269.249 248.749 269.556 248.763 269.863C248.789 270.156 248.843 270.443 248.923 270.723C249.016 271.029 249.129 271.329 249.263 271.623C249.409 271.916 249.609 272.163 249.863 272.363C250.169 272.589 250.529 272.703 250.943 272.703C251.369 272.689 251.723 272.556 252.003 272.303C252.189 272.156 252.336 271.969 252.443 271.743C252.549 271.516 252.636 271.283 252.703 271.043C252.769 270.696 252.816 270.349 252.843 270.003C252.869 269.656 252.876 269.309 252.863 268.963C252.849 268.376 252.829 267.796 252.803 267.223C252.789 266.636 252.769 266.049 252.743 265.463C252.716 264.996 252.683 264.529 252.643 264.063C252.616 263.583 252.636 263.109 252.703 262.643C252.716 262.496 252.743 262.349 252.783 262.203C252.823 262.043 252.889 261.903 252.983 261.783C253.089 261.623 253.249 261.509 253.463 261.443C253.676 261.376 253.883 261.336 254.083 261.323C254.269 261.309 254.463 261.309 254.663 261.323C254.863 261.336 255.036 261.396 255.183 261.503C255.289 261.583 255.369 261.689 255.423 261.823C255.489 261.943 255.536 262.069 255.563 262.203C255.616 262.469 255.643 262.736 255.643 263.003C255.643 263.269 255.643 263.536 255.643 263.803C255.603 264.723 255.583 265.643 255.583 266.563C255.583 267.483 255.549 268.403 255.483 269.323C255.456 269.749 255.416 270.183 255.363 270.623C255.323 271.063 255.249 271.496 255.143 271.923C255.076 272.216 254.983 272.503 254.863 272.783C254.756 273.063 254.616 273.336 254.443 273.603C254.176 274.016 253.836 274.389 253.423 274.723C253.023 275.043 252.589 275.276 252.123 275.423ZM259.788 275.843C259.642 275.869 259.468 275.889 259.268 275.903C259.082 275.929 258.888 275.936 258.688 275.923C258.488 275.923 258.302 275.896 258.128 275.843C257.955 275.789 257.822 275.703 257.728 275.583C257.648 275.489 257.595 275.343 257.568 275.143C257.542 274.943 257.522 274.729 257.508 274.503C257.508 274.263 257.508 274.036 257.508 273.823C257.522 273.609 257.535 273.443 257.548 273.323C257.655 271.816 257.742 270.323 257.808 268.843C257.875 267.349 257.922 265.856 257.948 264.363C257.948 264.269 257.935 264.116 257.908 263.903C257.895 263.689 257.875 263.463 257.848 263.223C257.835 262.983 257.828 262.756 257.828 262.543C257.828 262.316 257.842 262.163 257.868 262.083C257.948 261.843 258.102 261.656 258.328 261.523C258.515 261.416 258.708 261.349 258.908 261.323C259.108 261.283 259.315 261.256 259.528 261.243C259.595 261.243 259.735 261.249 259.948 261.263C260.162 261.263 260.388 261.269 260.628 261.283C260.868 261.283 261.088 261.289 261.288 261.303C261.502 261.303 261.648 261.303 261.728 261.303C262.315 261.329 262.902 261.396 263.488 261.503C264.075 261.609 264.628 261.796 265.148 262.063C265.455 262.223 265.735 262.429 265.988 262.683C266.255 262.936 266.462 263.223 266.608 263.543C266.835 264.049 266.975 264.589 267.028 265.163C267.082 265.736 267.062 266.303 266.968 266.863C266.902 267.276 266.722 267.649 266.428 267.983C266.135 268.316 265.788 268.609 265.388 268.863C264.988 269.103 264.555 269.296 264.088 269.443C263.635 269.589 263.202 269.676 262.788 269.703C263.095 270.076 263.388 270.456 263.668 270.843C263.948 271.229 264.268 271.576 264.628 271.883C264.948 272.163 265.275 272.429 265.608 272.683C265.955 272.923 266.282 273.189 266.588 273.483C266.655 273.563 266.722 273.649 266.788 273.743C266.868 273.823 266.922 273.916 266.948 274.023C266.975 274.169 266.955 274.329 266.888 274.503C266.835 274.676 266.748 274.843 266.628 275.003C266.522 275.163 266.402 275.316 266.268 275.463C266.135 275.596 266.002 275.703 265.868 275.783C265.722 275.876 265.582 275.923 265.448 275.923C265.288 275.923 265.135 275.889 264.988 275.823C264.842 275.756 264.695 275.683 264.548 275.603C264.362 275.496 264.182 275.389 264.008 275.283C263.848 275.176 263.695 275.049 263.548 274.903C263.242 274.623 262.955 274.329 262.688 274.023C262.435 273.703 262.188 273.376 261.948 273.043C261.708 272.709 261.462 272.376 261.208 272.043C260.968 271.709 260.715 271.389 260.448 271.083C260.462 271.243 260.488 271.516 260.528 271.903C260.582 272.276 260.622 272.676 260.648 273.103C260.688 273.516 260.715 273.909 260.728 274.283C260.742 274.656 260.722 274.923 260.668 275.083C260.602 275.269 260.482 275.429 260.308 275.563C260.148 275.696 259.975 275.789 259.788 275.843ZM260.548 267.583C260.988 267.596 261.435 267.596 261.888 267.583C262.355 267.556 262.788 267.436 263.188 267.223C263.375 267.129 263.535 266.996 263.668 266.823C263.802 266.636 263.902 266.436 263.968 266.223C264.048 265.996 264.088 265.763 264.088 265.523C264.102 265.283 264.075 265.063 264.008 264.863C263.968 264.703 263.902 264.549 263.808 264.403C263.728 264.256 263.622 264.129 263.488 264.023C263.328 263.903 263.155 263.809 262.968 263.743C262.782 263.663 262.588 263.603 262.388 263.563C262.095 263.509 261.802 263.483 261.508 263.483C261.215 263.483 260.922 263.489 260.628 263.503C260.628 263.583 260.622 263.729 260.608 263.943C260.608 264.156 260.602 264.403 260.588 264.683C260.588 264.949 260.582 265.236 260.568 265.543C260.568 265.849 260.562 266.143 260.548 266.423C260.548 266.689 260.548 266.929 260.548 267.143C260.548 267.356 260.548 267.503 260.548 267.583ZM275.021 275.703C274.381 275.903 273.721 275.989 273.041 275.963C272.374 275.949 271.727 275.809 271.101 275.543C270.594 275.329 270.121 275.029 269.681 274.643C269.254 274.243 268.921 273.789 268.681 273.283C268.574 273.056 268.487 272.816 268.421 272.563C268.354 272.309 268.354 272.056 268.421 271.803C268.514 271.469 268.707 271.216 269.001 271.043C269.081 270.989 269.187 270.936 269.321 270.883C269.467 270.816 269.614 270.763 269.761 270.723C269.921 270.683 270.067 270.656 270.201 270.643C270.347 270.616 270.467 270.616 270.561 270.643C270.707 270.683 270.821 270.776 270.901 270.923C270.994 271.069 271.067 271.216 271.121 271.363C271.214 271.603 271.307 271.843 271.401 272.083C271.507 272.323 271.641 272.543 271.801 272.743C272.001 272.983 272.227 273.169 272.481 273.303C272.747 273.423 273.014 273.489 273.281 273.503C273.561 273.516 273.821 273.463 274.061 273.343C274.301 273.223 274.494 273.029 274.641 272.763C274.761 272.549 274.827 272.329 274.841 272.103C274.854 271.863 274.821 271.636 274.741 271.423C274.661 271.196 274.541 270.989 274.381 270.803C274.221 270.616 274.034 270.463 273.821 270.343C273.354 270.089 272.887 269.829 272.421 269.563C271.967 269.296 271.527 269.009 271.101 268.703C270.781 268.476 270.474 268.236 270.181 267.983C269.887 267.729 269.621 267.449 269.381 267.143C268.967 266.636 268.701 266.063 268.581 265.423C268.474 264.783 268.527 264.156 268.741 263.543C268.927 262.996 269.227 262.523 269.641 262.123C270.014 261.763 270.461 261.483 270.981 261.283C271.514 261.083 272.054 260.963 272.601 260.923C273.161 260.883 273.707 260.929 274.241 261.063C274.787 261.196 275.267 261.423 275.681 261.743C276.067 262.049 276.381 262.423 276.621 262.863C276.754 263.116 276.854 263.383 276.921 263.663C276.987 263.943 277.027 264.223 277.041 264.503C277.054 264.689 277.067 264.869 277.081 265.043C277.094 265.203 277.087 265.369 277.061 265.543C277.047 265.649 277.021 265.763 276.981 265.883C276.941 265.989 276.881 266.083 276.801 266.163C276.721 266.243 276.607 266.309 276.461 266.363C276.314 266.416 276.154 266.456 275.981 266.483C275.821 266.509 275.661 266.523 275.501 266.523C275.341 266.523 275.207 266.509 275.101 266.483C274.981 266.456 274.861 266.409 274.741 266.343C274.621 266.263 274.534 266.169 274.481 266.063C274.387 265.836 274.334 265.596 274.321 265.343C274.307 265.089 274.267 264.836 274.201 264.583C274.147 264.316 274.027 264.056 273.841 263.803C273.654 263.536 273.427 263.363 273.161 263.283C272.814 263.176 272.494 263.236 272.201 263.463C271.921 263.689 271.754 263.983 271.701 264.343C271.674 264.529 271.681 264.723 271.721 264.923C271.774 265.123 271.841 265.309 271.921 265.483C272.067 265.789 272.247 266.069 272.461 266.323C272.687 266.576 272.934 266.803 273.201 267.003C273.507 267.243 273.827 267.463 274.161 267.663C274.494 267.863 274.821 268.063 275.141 268.263C275.434 268.449 275.707 268.656 275.961 268.883C276.214 269.096 276.441 269.336 276.641 269.603C276.921 269.989 277.127 270.423 277.261 270.903C277.407 271.369 277.481 271.849 277.481 272.343C277.481 272.823 277.394 273.289 277.221 273.743C277.061 274.183 276.814 274.563 276.481 274.883C276.281 275.069 276.054 275.229 275.801 275.363C275.547 275.496 275.287 275.609 275.021 275.703Z" fill="#01432B"/>
<path d="M363.436 243.121C362.604 243.281 361.756 243.345 360.892 243.313C360.028 243.249 359.196 243.089 358.396 242.833C357.596 242.577 356.844 242.209 356.14 241.729C355.436 241.249 354.796 240.705 354.22 240.097C353.708 239.585 353.244 239.025 352.828 238.417C352.444 237.809 352.076 237.185 351.724 236.545C351.084 235.265 350.62 233.921 350.332 232.513C350.044 231.073 349.884 229.633 349.852 228.193C349.82 227.553 349.772 226.913 349.708 226.273C349.676 225.633 349.676 224.993 349.708 224.353C349.804 222.625 350.076 220.913 350.524 219.217C351.004 217.489 351.708 215.889 352.636 214.417C353.18 213.617 353.788 212.865 354.46 212.161C355.164 211.457 355.932 210.881 356.764 210.433C357.404 210.081 358.076 209.809 358.78 209.617C359.484 209.425 360.204 209.345 360.94 209.377C361.74 209.377 362.54 209.425 363.34 209.521C364.172 209.617 364.972 209.809 365.74 210.097C366.764 210.481 367.708 211.073 368.572 211.873C369.468 212.641 370.188 213.505 370.732 214.465C371.276 215.489 371.708 216.561 372.028 217.681C372.38 218.769 372.636 219.889 372.796 221.041C373.02 222.961 373.084 224.897 372.988 226.849C372.924 228.769 372.684 230.673 372.268 232.561C371.948 234.001 371.468 235.425 370.828 236.833C370.188 238.209 369.356 239.409 368.332 240.433C367.66 241.105 366.908 241.681 366.076 242.161C365.244 242.641 364.364 242.961 363.436 243.121ZM357.34 233.617C357.628 234.129 357.98 234.609 358.396 235.057C358.844 235.473 359.324 235.809 359.836 236.065C360.348 236.321 360.876 236.465 361.42 236.497C361.964 236.529 362.508 236.417 363.052 236.161C363.532 235.937 363.932 235.601 364.252 235.153C364.572 234.705 364.844 234.241 365.068 233.761C365.388 233.025 365.628 232.289 365.788 231.553C365.98 230.785 366.156 230.033 366.316 229.297C366.764 226.865 366.892 224.497 366.7 222.193C366.636 221.329 366.492 220.465 366.268 219.601C366.076 218.705 365.772 217.873 365.356 217.105C365.132 216.721 364.876 216.369 364.588 216.049C364.3 215.697 363.98 215.409 363.628 215.185C363.244 214.961 362.828 214.785 362.38 214.657C361.964 214.529 361.532 214.497 361.084 214.561C360.86 214.625 360.508 214.785 360.028 215.041C359.58 215.297 359.276 215.489 359.116 215.617C358.892 215.777 358.636 216.081 358.348 216.529C358.092 216.945 357.836 217.409 357.58 217.921C357.356 218.401 357.132 218.881 356.908 219.361C356.716 219.841 356.588 220.209 356.524 220.465C356.172 221.681 355.948 222.945 355.852 224.257C355.788 225.537 355.804 226.817 355.9 228.097C355.964 229.057 356.108 230.017 356.332 230.977C356.556 231.905 356.892 232.785 357.34 233.617ZM391.092 243.121C390.26 243.281 389.412 243.345 388.548 243.313C387.684 243.249 386.852 243.089 386.052 242.833C385.252 242.577 384.5 242.209 383.796 241.729C383.092 241.249 382.452 240.705 381.876 240.097C381.364 239.585 380.9 239.025 380.484 238.417C380.1 237.809 379.732 237.185 379.38 236.545C378.74 235.265 378.276 233.921 377.988 232.513C377.7 231.073 377.54 229.633 377.508 228.193C377.476 227.553 377.428 226.913 377.364 226.273C377.332 225.633 377.332 224.993 377.364 224.353C377.46 222.625 377.732 220.913 378.18 219.217C378.66 217.489 379.364 215.889 380.292 214.417C380.836 213.617 381.444 212.865 382.116 212.161C382.82 211.457 383.588 210.881 384.42 210.433C385.06 210.081 385.732 209.809 386.436 209.617C387.14 209.425 387.86 209.345 388.596 209.377C389.396 209.377 390.196 209.425 390.996 209.521C391.828 209.617 392.628 209.809 393.396 210.097C394.42 210.481 395.364 211.073 396.228 211.873C397.124 212.641 397.844 213.505 398.388 214.465C398.932 215.489 399.364 216.561 399.684 217.681C400.036 218.769 400.292 219.889 400.452 221.041C400.676 222.961 400.74 224.897 400.644 226.849C400.58 228.769 400.34 230.673 399.924 232.561C399.604 234.001 399.124 235.425 398.484 236.833C397.844 238.209 397.012 239.409 395.988 240.433C395.316 241.105 394.564 241.681 393.732 242.161C392.9 242.641 392.02 242.961 391.092 243.121ZM384.996 233.617C385.284 234.129 385.636 234.609 386.052 235.057C386.5 235.473 386.98 235.809 387.492 236.065C388.004 236.321 388.532 236.465 389.076 236.497C389.62 236.529 390.164 236.417 390.708 236.161C391.188 235.937 391.588 235.601 391.908 235.153C392.228 234.705 392.5 234.241 392.724 233.761C393.044 233.025 393.284 232.289 393.444 231.553C393.636 230.785 393.812 230.033 393.972 229.297C394.42 226.865 394.548 224.497 394.356 222.193C394.292 221.329 394.148 220.465 393.924 219.601C393.732 218.705 393.428 217.873 393.012 217.105C392.788 216.721 392.532 216.369 392.244 216.049C391.956 215.697 391.636 215.409 391.284 215.185C390.9 214.961 390.484 214.785 390.036 214.657C389.62 214.529 389.188 214.497 388.74 214.561C388.516 214.625 388.164 214.785 387.684 215.041C387.236 215.297 386.932 215.489 386.772 215.617C386.548 215.777 386.292 216.081 386.004 216.529C385.748 216.945 385.492 217.409 385.236 217.921C385.012 218.401 384.788 218.881 384.564 219.361C384.372 219.841 384.244 220.209 384.18 220.465C383.828 221.681 383.604 222.945 383.508 224.257C383.444 225.537 383.46 226.817 383.556 228.097C383.62 229.057 383.764 230.017 383.988 230.977C384.212 231.905 384.548 232.785 384.996 233.617Z" fill="#01432B"/>
<path d="M368.079 275.383C368.025 275.516 367.932 275.623 367.799 275.703C367.665 275.769 367.512 275.816 367.339 275.843C367.179 275.883 367.005 275.903 366.819 275.903C366.645 275.903 366.492 275.903 366.359 275.903C366.305 275.903 366.239 275.896 366.159 275.883C366.079 275.883 365.992 275.869 365.899 275.843C365.805 275.829 365.719 275.809 365.639 275.783C365.572 275.756 365.519 275.723 365.479 275.683C365.359 275.563 365.259 275.363 365.179 275.083C365.112 274.803 365.059 274.503 365.019 274.183C364.979 273.849 364.952 273.529 364.939 273.223C364.925 272.903 364.912 272.656 364.899 272.483C364.832 271.523 364.779 270.569 364.739 269.623C364.699 268.663 364.632 267.703 364.539 266.743C364.499 266.863 364.419 267.103 364.299 267.463C364.179 267.809 364.052 268.183 363.919 268.583C363.785 268.983 363.659 269.363 363.539 269.723C363.432 270.069 363.359 270.303 363.319 270.423C363.279 270.529 363.219 270.723 363.139 271.003C363.072 271.283 362.992 271.583 362.899 271.903C362.819 272.209 362.732 272.503 362.639 272.783C362.545 273.049 362.472 273.229 362.419 273.323C362.285 273.549 362.112 273.729 361.899 273.863C361.685 273.983 361.459 274.056 361.219 274.083C360.979 274.109 360.739 274.083 360.499 274.003C360.272 273.923 360.072 273.783 359.899 273.583C359.699 273.356 359.559 273.096 359.479 272.803C359.399 272.496 359.325 272.196 359.259 271.903C359.219 271.756 359.145 271.456 359.039 271.003C358.932 270.536 358.819 270.036 358.699 269.503C358.579 268.969 358.465 268.476 358.359 268.023C358.265 267.556 358.199 267.249 358.159 267.103C357.999 268.369 357.859 269.629 357.739 270.883C357.712 271.083 357.679 271.396 357.639 271.823C357.612 272.236 357.572 272.676 357.519 273.143C357.465 273.609 357.399 274.049 357.319 274.463C357.239 274.876 357.152 275.169 357.059 275.343C356.992 275.449 356.912 275.536 356.819 275.603C356.739 275.656 356.645 275.703 356.539 275.743C356.365 275.809 356.192 275.849 356.019 275.863C355.845 275.876 355.672 275.876 355.499 275.863C355.339 275.849 355.179 275.823 355.019 275.783C354.872 275.756 354.725 275.703 354.579 275.623C354.485 275.569 354.405 275.503 354.339 275.423C354.272 275.343 354.225 275.249 354.199 275.143C354.185 275.063 354.185 274.936 354.199 274.763C354.225 274.589 354.259 274.409 354.299 274.223C354.339 274.036 354.379 273.856 354.419 273.683C354.459 273.509 354.492 273.383 354.519 273.303C354.932 271.516 355.279 269.723 355.559 267.923C355.852 266.109 356.112 264.289 356.339 262.463C356.352 262.329 356.365 262.196 356.379 262.063C356.405 261.929 356.445 261.796 356.499 261.663C356.539 261.583 356.579 261.509 356.619 261.443C356.672 261.363 356.739 261.296 356.819 261.243C356.899 261.189 357.012 261.149 357.159 261.123C357.319 261.096 357.485 261.083 357.659 261.083C357.832 261.069 357.999 261.069 358.159 261.083C358.319 261.096 358.445 261.109 358.539 261.123C358.659 261.149 358.779 261.183 358.899 261.223C359.019 261.249 359.125 261.303 359.219 261.383C359.405 261.529 359.565 261.783 359.699 262.143C359.845 262.503 359.965 262.896 360.059 263.323C360.152 263.749 360.225 264.169 360.279 264.583C360.332 264.983 360.379 265.303 360.419 265.543C360.539 266.396 360.679 267.243 360.839 268.083C361.012 268.923 361.199 269.763 361.399 270.603C361.452 270.429 361.539 270.129 361.659 269.703C361.779 269.276 361.919 268.789 362.079 268.243C362.239 267.683 362.405 267.096 362.579 266.483C362.752 265.856 362.919 265.269 363.079 264.723C363.239 264.163 363.372 263.669 363.479 263.243C363.599 262.816 363.679 262.509 363.719 262.323C363.745 262.176 363.779 262.036 363.819 261.903C363.872 261.756 363.945 261.629 364.039 261.523C364.159 261.363 364.319 261.229 364.519 261.123C364.719 261.016 364.932 260.949 365.159 260.923C365.385 260.883 365.612 260.876 365.839 260.903C366.065 260.929 366.272 260.989 366.459 261.083C366.592 261.149 366.712 261.236 366.819 261.343C366.939 261.449 367.032 261.569 367.099 261.703C367.205 261.916 367.259 262.149 367.259 262.403C367.299 262.843 367.299 263.283 367.259 263.723C367.232 264.163 367.225 264.603 367.239 265.043C367.265 266.296 367.319 267.536 367.399 268.763C367.479 269.989 367.599 271.223 367.759 272.463C367.799 272.769 367.839 273.069 367.879 273.363C367.932 273.643 367.979 273.929 368.019 274.223C368.019 274.276 368.025 274.363 368.039 274.483C368.052 274.589 368.065 274.703 368.079 274.823C368.092 274.943 368.099 275.056 368.099 275.163C368.099 275.269 368.092 275.343 368.079 275.383ZM371.878 275.703C371.771 275.716 371.638 275.723 371.478 275.723C371.318 275.723 371.145 275.716 370.958 275.703C370.785 275.676 370.618 275.643 370.458 275.603C370.311 275.563 370.198 275.509 370.118 275.443C370.038 275.376 369.978 275.289 369.938 275.183C369.911 275.076 369.885 274.969 369.858 274.863C369.831 274.729 369.818 274.489 369.818 274.143C369.818 273.796 369.818 273.429 369.818 273.043C369.831 272.656 369.845 272.289 369.858 271.943C369.871 271.596 369.878 271.356 369.878 271.223C369.905 270.409 369.938 269.603 369.978 268.803C370.018 267.989 370.065 267.176 370.118 266.363C370.118 266.216 370.118 265.929 370.118 265.503C370.131 265.063 370.145 264.596 370.158 264.103C370.171 263.609 370.178 263.149 370.178 262.723C370.191 262.283 370.211 261.989 370.238 261.843C370.265 261.723 370.305 261.596 370.358 261.463C370.425 261.329 370.511 261.229 370.618 261.163C370.738 261.109 370.885 261.069 371.058 261.043C371.245 261.003 371.438 260.983 371.638 260.983C371.838 260.983 372.031 261.003 372.218 261.043C372.405 261.069 372.551 261.109 372.658 261.163C372.831 261.256 372.958 261.376 373.038 261.523C373.118 261.669 373.165 261.896 373.178 262.203C373.191 262.509 373.185 262.843 373.158 263.203C373.145 263.549 373.118 263.883 373.078 264.203C373.051 264.523 373.031 264.763 373.018 264.923C372.911 266.136 372.838 267.349 372.798 268.563C372.758 269.776 372.751 270.989 372.778 272.203C372.778 272.376 372.785 272.616 372.798 272.923C372.811 273.216 372.811 273.529 372.798 273.863C372.798 274.183 372.778 274.483 372.738 274.763C372.698 275.043 372.625 275.249 372.518 275.383C372.451 275.476 372.358 275.549 372.238 275.603C372.118 275.643 371.998 275.676 371.878 275.703ZM377.731 275.683C377.638 275.749 377.504 275.796 377.331 275.823C377.171 275.849 376.991 275.863 376.791 275.863C376.604 275.863 376.424 275.856 376.251 275.843C376.078 275.829 375.938 275.809 375.831 275.783C375.738 275.756 375.644 275.736 375.551 275.723C375.471 275.696 375.398 275.649 375.331 275.583C375.238 275.503 375.171 275.376 375.131 275.203C375.104 275.029 375.084 274.849 375.071 274.663C375.071 274.463 375.071 274.269 375.071 274.083C375.084 273.883 375.091 273.723 375.091 273.603C375.118 272.869 375.151 272.143 375.191 271.423C375.244 270.689 375.284 269.956 375.311 269.223C375.351 268.423 375.378 267.629 375.391 266.843C375.418 266.056 375.438 265.263 375.451 264.463C375.451 264.303 375.451 264.083 375.451 263.803C375.451 263.523 375.464 263.243 375.491 262.963C375.518 262.669 375.558 262.396 375.611 262.143C375.678 261.889 375.771 261.703 375.891 261.583C376.011 261.476 376.164 261.383 376.351 261.303C376.551 261.223 376.751 261.169 376.951 261.143C377.164 261.103 377.371 261.089 377.571 261.103C377.784 261.116 377.964 261.156 378.111 261.223C378.258 261.289 378.378 261.396 378.471 261.543C378.564 261.676 378.638 261.816 378.691 261.963C378.784 262.189 378.858 262.416 378.911 262.643C378.964 262.856 379.031 263.069 379.111 263.283C379.418 264.029 379.698 264.776 379.951 265.523C380.204 266.269 380.471 267.016 380.751 267.763C380.991 268.416 381.244 269.063 381.511 269.703C381.791 270.329 382.071 270.963 382.351 271.603C382.351 271.403 382.351 271.056 382.351 270.563C382.351 270.069 382.351 269.503 382.351 268.863C382.351 268.223 382.351 267.549 382.351 266.843C382.351 266.136 382.351 265.463 382.351 264.823C382.364 264.183 382.371 263.616 382.371 263.123C382.384 262.629 382.398 262.283 382.411 262.083C382.424 261.989 382.431 261.896 382.431 261.803C382.444 261.696 382.471 261.603 382.511 261.523C382.604 261.363 382.744 261.249 382.931 261.183C383.051 261.143 383.191 261.123 383.351 261.123C383.511 261.109 383.671 261.116 383.831 261.143C383.991 261.169 384.144 261.216 384.291 261.283C384.438 261.336 384.551 261.403 384.631 261.483C384.764 261.603 384.858 261.756 384.911 261.943C384.978 262.116 385.018 262.296 385.031 262.483C385.058 262.749 385.071 263.016 385.071 263.283C385.071 263.536 385.071 263.796 385.071 264.063C385.044 265.023 385.004 265.983 384.951 266.943C384.924 267.649 384.904 268.356 384.891 269.063C384.891 269.756 384.898 270.463 384.911 271.183C384.924 271.689 384.944 272.196 384.971 272.703C384.998 273.196 384.984 273.696 384.931 274.203C384.918 274.323 384.904 274.443 384.891 274.563C384.878 274.669 384.858 274.776 384.831 274.883C384.764 275.136 384.631 275.329 384.431 275.463C384.244 275.596 384.031 275.683 383.791 275.723C383.564 275.763 383.338 275.789 383.111 275.803C382.844 275.829 382.571 275.829 382.291 275.803C382.024 275.776 381.784 275.689 381.571 275.543C381.424 275.449 381.271 275.269 381.111 275.003C380.964 274.736 380.818 274.449 380.671 274.143C380.538 273.836 380.411 273.536 380.291 273.243C380.184 272.936 380.104 272.703 380.051 272.543C379.944 272.236 379.838 271.943 379.731 271.663C379.624 271.369 379.518 271.076 379.411 270.783C379.198 270.156 378.984 269.536 378.771 268.923C378.571 268.296 378.324 267.683 378.031 267.083C378.058 267.989 378.084 268.889 378.111 269.783C378.138 270.676 378.151 271.576 378.151 272.483C378.151 272.616 378.151 272.823 378.151 273.103C378.151 273.369 378.144 273.656 378.131 273.963C378.118 274.256 378.098 274.543 378.071 274.823C378.044 275.089 378.004 275.283 377.951 275.403C377.911 275.509 377.838 275.603 377.731 275.683ZM393.462 275.703C392.822 275.903 392.162 275.989 391.482 275.963C390.815 275.949 390.169 275.809 389.542 275.543C389.035 275.329 388.562 275.029 388.122 274.643C387.695 274.243 387.362 273.789 387.122 273.283C387.015 273.056 386.929 272.816 386.862 272.563C386.795 272.309 386.795 272.056 386.862 271.803C386.955 271.469 387.149 271.216 387.442 271.043C387.522 270.989 387.629 270.936 387.762 270.883C387.909 270.816 388.055 270.763 388.202 270.723C388.362 270.683 388.509 270.656 388.642 270.643C388.789 270.616 388.909 270.616 389.002 270.643C389.149 270.683 389.262 270.776 389.342 270.923C389.435 271.069 389.509 271.216 389.562 271.363C389.655 271.603 389.749 271.843 389.842 272.083C389.949 272.323 390.082 272.543 390.242 272.743C390.442 272.983 390.669 273.169 390.922 273.303C391.189 273.423 391.455 273.489 391.722 273.503C392.002 273.516 392.262 273.463 392.502 273.343C392.742 273.223 392.935 273.029 393.082 272.763C393.202 272.549 393.269 272.329 393.282 272.103C393.295 271.863 393.262 271.636 393.182 271.423C393.102 271.196 392.982 270.989 392.822 270.803C392.662 270.616 392.475 270.463 392.262 270.343C391.795 270.089 391.329 269.829 390.862 269.563C390.409 269.296 389.969 269.009 389.542 268.703C389.222 268.476 388.915 268.236 388.622 267.983C388.329 267.729 388.062 267.449 387.822 267.143C387.409 266.636 387.142 266.063 387.022 265.423C386.915 264.783 386.969 264.156 387.182 263.543C387.369 262.996 387.669 262.523 388.082 262.123C388.455 261.763 388.902 261.483 389.422 261.283C389.955 261.083 390.495 260.963 391.042 260.923C391.602 260.883 392.149 260.929 392.682 261.063C393.229 261.196 393.709 261.423 394.122 261.743C394.509 262.049 394.822 262.423 395.062 262.863C395.195 263.116 395.295 263.383 395.362 263.663C395.429 263.943 395.469 264.223 395.482 264.503C395.495 264.689 395.509 264.869 395.522 265.043C395.535 265.203 395.529 265.369 395.502 265.543C395.489 265.649 395.462 265.763 395.422 265.883C395.382 265.989 395.322 266.083 395.242 266.163C395.162 266.243 395.049 266.309 394.902 266.363C394.755 266.416 394.595 266.456 394.422 266.483C394.262 266.509 394.102 266.523 393.942 266.523C393.782 266.523 393.649 266.509 393.542 266.483C393.422 266.456 393.302 266.409 393.182 266.343C393.062 266.263 392.975 266.169 392.922 266.063C392.829 265.836 392.775 265.596 392.762 265.343C392.749 265.089 392.709 264.836 392.642 264.583C392.589 264.316 392.469 264.056 392.282 263.803C392.095 263.536 391.869 263.363 391.602 263.283C391.255 263.176 390.935 263.236 390.642 263.463C390.362 263.689 390.195 263.983 390.142 264.343C390.115 264.529 390.122 264.723 390.162 264.923C390.215 265.123 390.282 265.309 390.362 265.483C390.509 265.789 390.689 266.069 390.902 266.323C391.129 266.576 391.375 266.803 391.642 267.003C391.949 267.243 392.269 267.463 392.602 267.663C392.935 267.863 393.262 268.063 393.582 268.263C393.875 268.449 394.149 268.656 394.402 268.883C394.655 269.096 394.882 269.336 395.082 269.603C395.362 269.989 395.569 270.423 395.702 270.903C395.849 271.369 395.922 271.849 395.922 272.343C395.922 272.823 395.835 273.289 395.662 273.743C395.502 274.183 395.255 274.563 394.922 274.883C394.722 275.069 394.495 275.229 394.242 275.363C393.989 275.496 393.729 275.609 393.462 275.703Z" fill="#01432B"/>
<path d="M493.845 243.121C493.013 243.281 492.165 243.345 491.301 243.313C490.437 243.249 489.605 243.089 488.805 242.833C488.005 242.577 487.253 242.209 486.549 241.729C485.845 241.249 485.205 240.705 484.629 240.097C484.117 239.585 483.653 239.025 483.237 238.417C482.853 237.809 482.485 237.185 482.133 236.545C481.493 235.265 481.029 233.921 480.741 232.513C480.453 231.073 480.293 229.633 480.261 228.193C480.229 227.553 480.181 226.913 480.117 226.273C480.085 225.633 480.085 224.993 480.117 224.353C480.213 222.625 480.485 220.913 480.933 219.217C481.413 217.489 482.117 215.889 483.045 214.417C483.589 213.617 484.197 212.865 484.869 212.161C485.573 211.457 486.341 210.881 487.173 210.433C487.813 210.081 488.485 209.809 489.189 209.617C489.893 209.425 490.613 209.345 491.349 209.377C492.149 209.377 492.949 209.425 493.749 209.521C494.581 209.617 495.381 209.809 496.149 210.097C497.173 210.481 498.117 211.073 498.981 211.873C499.877 212.641 500.597 213.505 501.141 214.465C501.685 215.489 502.117 216.561 502.437 217.681C502.789 218.769 503.045 219.889 503.205 221.041C503.429 222.961 503.493 224.897 503.397 226.849C503.333 228.769 503.093 230.673 502.677 232.561C502.357 234.001 501.877 235.425 501.237 236.833C500.597 238.209 499.765 239.409 498.741 240.433C498.069 241.105 497.317 241.681 496.485 242.161C495.653 242.641 494.773 242.961 493.845 243.121ZM487.749 233.617C488.037 234.129 488.389 234.609 488.805 235.057C489.253 235.473 489.733 235.809 490.245 236.065C490.757 236.321 491.285 236.465 491.829 236.497C492.373 236.529 492.917 236.417 493.461 236.161C493.941 235.937 494.341 235.601 494.661 235.153C494.981 234.705 495.253 234.241 495.477 233.761C495.797 233.025 496.037 232.289 496.197 231.553C496.389 230.785 496.565 230.033 496.725 229.297C497.173 226.865 497.301 224.497 497.109 222.193C497.045 221.329 496.901 220.465 496.677 219.601C496.485 218.705 496.181 217.873 495.765 217.105C495.541 216.721 495.285 216.369 494.997 216.049C494.709 215.697 494.389 215.409 494.037 215.185C493.653 214.961 493.237 214.785 492.789 214.657C492.373 214.529 491.941 214.497 491.493 214.561C491.269 214.625 490.917 214.785 490.437 215.041C489.989 215.297 489.685 215.489 489.525 215.617C489.301 215.777 489.045 216.081 488.757 216.529C488.501 216.945 488.245 217.409 487.989 217.921C487.765 218.401 487.541 218.881 487.317 219.361C487.125 219.841 486.997 220.209 486.933 220.465C486.581 221.681 486.357 222.945 486.261 224.257C486.197 225.537 486.213 226.817 486.309 228.097C486.373 229.057 486.517 230.017 486.741 230.977C486.965 231.905 487.301 232.785 487.749 233.617ZM521.501 243.121C520.669 243.281 519.821 243.345 518.957 243.313C518.093 243.249 517.261 243.089 516.461 242.833C515.661 242.577 514.909 242.209 514.205 241.729C513.501 241.249 512.861 240.705 512.285 240.097C511.773 239.585 511.309 239.025 510.893 238.417C510.509 237.809 510.141 237.185 509.789 236.545C509.149 235.265 508.685 233.921 508.397 232.513C508.109 231.073 507.949 229.633 507.917 228.193C507.885 227.553 507.837 226.913 507.773 226.273C507.741 225.633 507.741 224.993 507.773 224.353C507.869 222.625 508.141 220.913 508.589 219.217C509.069 217.489 509.773 215.889 510.701 214.417C511.245 213.617 511.853 212.865 512.525 212.161C513.229 211.457 513.997 210.881 514.829 210.433C515.469 210.081 516.141 209.809 516.845 209.617C517.549 209.425 518.269 209.345 519.005 209.377C519.805 209.377 520.605 209.425 521.405 209.521C522.237 209.617 523.037 209.809 523.805 210.097C524.829 210.481 525.773 211.073 526.637 211.873C527.533 212.641 528.253 213.505 528.797 214.465C529.341 215.489 529.773 216.561 530.093 217.681C530.445 218.769 530.701 219.889 530.861 221.041C531.085 222.961 531.149 224.897 531.053 226.849C530.989 228.769 530.749 230.673 530.333 232.561C530.013 234.001 529.533 235.425 528.893 236.833C528.253 238.209 527.421 239.409 526.397 240.433C525.725 241.105 524.973 241.681 524.141 242.161C523.309 242.641 522.429 242.961 521.501 243.121ZM515.405 233.617C515.693 234.129 516.045 234.609 516.461 235.057C516.909 235.473 517.389 235.809 517.901 236.065C518.413 236.321 518.941 236.465 519.485 236.497C520.029 236.529 520.573 236.417 521.117 236.161C521.597 235.937 521.997 235.601 522.317 235.153C522.637 234.705 522.909 234.241 523.133 233.761C523.453 233.025 523.693 232.289 523.853 231.553C524.045 230.785 524.221 230.033 524.381 229.297C524.829 226.865 524.957 224.497 524.765 222.193C524.701 221.329 524.557 220.465 524.333 219.601C524.141 218.705 523.837 217.873 523.421 217.105C523.197 216.721 522.941 216.369 522.653 216.049C522.365 215.697 522.045 215.409 521.693 215.185C521.309 214.961 520.893 214.785 520.445 214.657C520.029 214.529 519.597 214.497 519.149 214.561C518.925 214.625 518.573 214.785 518.093 215.041C517.645 215.297 517.341 215.489 517.181 215.617C516.957 215.777 516.701 216.081 516.413 216.529C516.157 216.945 515.901 217.409 515.645 217.921C515.421 218.401 515.197 218.881 514.973 219.361C514.781 219.841 514.653 220.209 514.589 220.465C514.237 221.681 514.013 222.945 513.917 224.257C513.853 225.537 513.869 226.817 513.965 228.097C514.029 229.057 514.173 230.017 514.397 230.977C514.621 231.905 514.957 232.785 515.405 233.617Z" fill="#01432B"/>
<path d="M491.957 275.703C491.317 275.903 490.657 275.989 489.977 275.963C489.31 275.949 488.663 275.809 488.037 275.543C487.53 275.329 487.057 275.029 486.617 274.643C486.19 274.243 485.857 273.789 485.617 273.283C485.51 273.056 485.423 272.816 485.357 272.563C485.29 272.309 485.29 272.056 485.357 271.803C485.45 271.469 485.643 271.216 485.937 271.043C486.017 270.989 486.123 270.936 486.257 270.883C486.403 270.816 486.55 270.763 486.697 270.723C486.857 270.683 487.003 270.656 487.137 270.643C487.283 270.616 487.403 270.616 487.497 270.643C487.643 270.683 487.757 270.776 487.837 270.923C487.93 271.069 488.003 271.216 488.057 271.363C488.15 271.603 488.243 271.843 488.337 272.083C488.443 272.323 488.577 272.543 488.737 272.743C488.937 272.983 489.163 273.169 489.417 273.303C489.683 273.423 489.95 273.489 490.217 273.503C490.497 273.516 490.757 273.463 490.997 273.343C491.237 273.223 491.43 273.029 491.577 272.763C491.697 272.549 491.763 272.329 491.777 272.103C491.79 271.863 491.757 271.636 491.677 271.423C491.597 271.196 491.477 270.989 491.317 270.803C491.157 270.616 490.97 270.463 490.757 270.343C490.29 270.089 489.823 269.829 489.357 269.563C488.903 269.296 488.463 269.009 488.037 268.703C487.717 268.476 487.41 268.236 487.117 267.983C486.823 267.729 486.557 267.449 486.317 267.143C485.903 266.636 485.637 266.063 485.517 265.423C485.41 264.783 485.463 264.156 485.677 263.543C485.863 262.996 486.163 262.523 486.577 262.123C486.95 261.763 487.397 261.483 487.917 261.283C488.45 261.083 488.99 260.963 489.537 260.923C490.097 260.883 490.643 260.929 491.177 261.063C491.723 261.196 492.203 261.423 492.617 261.743C493.003 262.049 493.317 262.423 493.557 262.863C493.69 263.116 493.79 263.383 493.857 263.663C493.923 263.943 493.963 264.223 493.977 264.503C493.99 264.689 494.003 264.869 494.017 265.043C494.03 265.203 494.023 265.369 493.997 265.543C493.983 265.649 493.957 265.763 493.917 265.883C493.877 265.989 493.817 266.083 493.737 266.163C493.657 266.243 493.543 266.309 493.397 266.363C493.25 266.416 493.09 266.456 492.917 266.483C492.757 266.509 492.597 266.523 492.437 266.523C492.277 266.523 492.143 266.509 492.037 266.483C491.917 266.456 491.797 266.409 491.677 266.343C491.557 266.263 491.47 266.169 491.417 266.063C491.323 265.836 491.27 265.596 491.257 265.343C491.243 265.089 491.203 264.836 491.137 264.583C491.083 264.316 490.963 264.056 490.777 263.803C490.59 263.536 490.363 263.363 490.097 263.283C489.75 263.176 489.43 263.236 489.137 263.463C488.857 263.689 488.69 263.983 488.637 264.343C488.61 264.529 488.617 264.723 488.657 264.923C488.71 265.123 488.777 265.309 488.857 265.483C489.003 265.789 489.183 266.069 489.397 266.323C489.623 266.576 489.87 266.803 490.137 267.003C490.443 267.243 490.763 267.463 491.097 267.663C491.43 267.863 491.757 268.063 492.077 268.263C492.37 268.449 492.643 268.656 492.897 268.883C493.15 269.096 493.377 269.336 493.577 269.603C493.857 269.989 494.063 270.423 494.197 270.903C494.343 271.369 494.417 271.849 494.417 272.343C494.417 272.823 494.33 273.289 494.157 273.743C493.997 274.183 493.75 274.563 493.417 274.883C493.217 275.069 492.99 275.229 492.737 275.363C492.483 275.496 492.223 275.609 491.957 275.703ZM502.345 276.223C501.998 276.236 501.658 276.223 501.325 276.183C500.992 276.143 500.652 276.109 500.305 276.083C499.812 276.029 499.318 275.996 498.825 275.983C498.332 275.983 497.838 275.976 497.345 275.963C497.198 275.963 497.058 275.943 496.925 275.903C496.792 275.876 496.672 275.823 496.565 275.743C496.418 275.636 496.325 275.489 496.285 275.303C496.258 275.116 496.232 274.936 496.205 274.763C496.138 274.096 496.118 273.436 496.145 272.783C496.172 272.129 496.192 271.476 496.205 270.823C496.205 270.156 496.212 269.496 496.225 268.843C496.238 268.189 496.258 267.536 496.285 266.883C496.312 266.216 496.345 265.556 496.385 264.903C496.425 264.249 496.518 263.603 496.665 262.963C496.705 262.803 496.745 262.643 496.785 262.483C496.825 262.323 496.878 262.169 496.945 262.023C497.012 261.876 497.085 261.736 497.165 261.603C497.258 261.469 497.372 261.363 497.505 261.283C497.692 261.176 497.892 261.116 498.105 261.103C498.318 261.089 498.525 261.089 498.725 261.103C498.898 261.116 499.205 261.136 499.645 261.163C500.098 261.176 500.572 261.203 501.065 261.243C501.572 261.269 502.045 261.303 502.485 261.343C502.938 261.369 503.245 261.403 503.405 261.443C503.618 261.483 503.792 261.549 503.925 261.643C504.178 261.829 504.312 262.109 504.325 262.483C504.352 262.843 504.312 263.169 504.205 263.463C504.138 263.609 504.032 263.729 503.885 263.823C503.738 263.903 503.592 263.956 503.445 263.983C503.258 264.009 502.978 264.003 502.605 263.963C502.232 263.923 501.838 263.889 501.425 263.863C501.025 263.836 500.645 263.823 500.285 263.823C499.925 263.823 499.672 263.876 499.525 263.983C499.458 264.023 499.405 264.083 499.365 264.163C499.325 264.229 499.292 264.303 499.265 264.383C499.198 264.583 499.152 264.809 499.125 265.063C499.098 265.249 499.078 265.443 499.065 265.643C499.052 265.829 499.052 266.016 499.065 266.203C499.065 266.256 499.065 266.309 499.065 266.363C499.078 266.416 499.105 266.456 499.145 266.483C499.198 266.536 499.278 266.563 499.385 266.563C499.665 266.576 500.012 266.556 500.425 266.503C500.852 266.449 501.278 266.416 501.705 266.403C502.132 266.376 502.518 266.396 502.865 266.463C503.225 266.529 503.478 266.683 503.625 266.923C503.745 267.123 503.805 267.343 503.805 267.583C503.805 267.823 503.785 268.056 503.745 268.283C503.718 268.429 503.685 268.569 503.645 268.703C503.605 268.823 503.538 268.936 503.445 269.043C503.392 269.109 503.332 269.163 503.265 269.203C503.198 269.229 503.132 269.256 503.065 269.283C502.878 269.349 502.685 269.383 502.485 269.383C502.285 269.383 502.092 269.383 501.905 269.383C501.598 269.356 501.298 269.329 501.005 269.303C500.712 269.276 500.412 269.256 500.105 269.243C500.012 269.243 499.878 269.249 499.705 269.263C499.545 269.263 499.432 269.303 499.365 269.383C499.312 269.449 499.272 269.583 499.245 269.783C499.218 269.983 499.198 270.123 499.185 270.203C499.132 270.523 499.092 270.849 499.065 271.183C499.052 271.516 499.058 271.843 499.085 272.163C499.098 272.349 499.118 272.536 499.145 272.723C499.185 272.909 499.272 273.063 499.405 273.183C499.498 273.276 499.672 273.329 499.925 273.343C500.192 273.356 500.392 273.363 500.525 273.363C500.818 273.349 501.105 273.329 501.385 273.303C501.665 273.276 501.952 273.249 502.245 273.223C502.325 273.209 502.432 273.196 502.565 273.183C502.698 273.169 502.832 273.163 502.965 273.163C503.112 273.149 503.245 273.149 503.365 273.163C503.485 273.176 503.578 273.209 503.645 273.263C503.725 273.316 503.785 273.409 503.825 273.543C503.865 273.676 503.892 273.823 503.905 273.983C503.932 274.129 503.945 274.283 503.945 274.443C503.958 274.589 503.965 274.709 503.965 274.803C503.992 275.016 503.985 275.203 503.945 275.363C503.865 275.629 503.705 275.836 503.465 275.983C503.292 276.076 503.105 276.136 502.905 276.163C502.718 276.203 502.532 276.223 502.345 276.223ZM514.109 274.643C513.682 275.003 513.182 275.296 512.609 275.523C512.049 275.736 511.482 275.843 510.909 275.843C510.255 275.843 509.609 275.716 508.969 275.463C508.329 275.196 507.775 274.836 507.309 274.383C507.015 274.089 506.769 273.763 506.569 273.403C506.382 273.043 506.229 272.669 506.109 272.283C505.922 271.709 505.795 271.123 505.729 270.523C505.675 269.923 505.655 269.323 505.669 268.723C505.695 268.083 505.755 267.449 505.849 266.823C505.942 266.183 506.082 265.563 506.269 264.963C506.455 264.389 506.729 263.849 507.089 263.343C507.462 262.836 507.895 262.416 508.389 262.083C508.829 261.776 509.322 261.543 509.869 261.383C510.415 261.209 510.962 261.143 511.509 261.183C511.935 261.223 512.355 261.329 512.769 261.503C513.195 261.676 513.569 261.909 513.889 262.203C514.342 262.629 514.695 263.149 514.949 263.763C515.215 264.363 515.362 264.976 515.389 265.603C515.389 265.683 515.382 265.789 515.369 265.923C515.369 266.056 515.355 266.196 515.329 266.343C515.315 266.476 515.289 266.603 515.249 266.723C515.222 266.843 515.175 266.929 515.109 266.983C515.002 267.076 514.862 267.143 514.689 267.183C514.529 267.223 514.362 267.243 514.189 267.243C514.015 267.243 513.842 267.223 513.669 267.183C513.509 267.143 513.369 267.083 513.249 267.003C513.075 266.883 512.942 266.703 512.849 266.463C512.755 266.223 512.695 265.976 512.669 265.723C512.655 265.469 512.615 265.216 512.549 264.963C512.509 264.816 512.462 264.683 512.409 264.563C512.355 264.429 512.289 264.309 512.209 264.203C512.049 264.016 511.829 263.883 511.549 263.803C511.282 263.723 511.029 263.709 510.789 263.763C510.522 263.816 510.262 263.923 510.009 264.083C509.769 264.243 509.569 264.436 509.409 264.663C509.169 265.009 508.989 265.389 508.869 265.803C508.762 266.216 508.682 266.636 508.629 267.063C508.549 267.636 508.515 268.216 508.529 268.803C508.542 269.376 508.609 269.943 508.729 270.503C508.835 271.076 509.015 271.596 509.269 272.063C509.429 272.343 509.635 272.549 509.889 272.683C510.155 272.803 510.435 272.863 510.729 272.863C511.022 272.863 511.315 272.803 511.609 272.683C511.902 272.563 512.162 272.389 512.389 272.163C512.575 271.989 512.735 271.796 512.869 271.583C513.002 271.369 513.162 271.189 513.349 271.043C513.509 270.909 513.675 270.823 513.849 270.783C514.035 270.729 514.215 270.723 514.389 270.763C514.575 270.789 514.742 270.856 514.889 270.963C515.049 271.069 515.169 271.209 515.249 271.383C515.395 271.703 515.435 272.056 515.369 272.443C515.315 272.829 515.209 273.183 515.049 273.503C514.942 273.729 514.802 273.936 514.629 274.123C514.469 274.309 514.295 274.483 514.109 274.643ZM523.421 275.703C522.781 275.903 522.121 275.989 521.441 275.963C520.775 275.949 520.128 275.809 519.501 275.543C518.995 275.329 518.521 275.029 518.081 274.643C517.655 274.243 517.321 273.789 517.081 273.283C516.975 273.056 516.888 272.816 516.821 272.563C516.755 272.309 516.755 272.056 516.821 271.803C516.915 271.469 517.108 271.216 517.401 271.043C517.481 270.989 517.588 270.936 517.721 270.883C517.868 270.816 518.015 270.763 518.161 270.723C518.321 270.683 518.468 270.656 518.601 270.643C518.748 270.616 518.868 270.616 518.961 270.643C519.108 270.683 519.221 270.776 519.301 270.923C519.395 271.069 519.468 271.216 519.521 271.363C519.615 271.603 519.708 271.843 519.801 272.083C519.908 272.323 520.041 272.543 520.201 272.743C520.401 272.983 520.628 273.169 520.881 273.303C521.148 273.423 521.415 273.489 521.681 273.503C521.961 273.516 522.221 273.463 522.461 273.343C522.701 273.223 522.895 273.029 523.041 272.763C523.161 272.549 523.228 272.329 523.241 272.103C523.255 271.863 523.221 271.636 523.141 271.423C523.061 271.196 522.941 270.989 522.781 270.803C522.621 270.616 522.435 270.463 522.221 270.343C521.755 270.089 521.288 269.829 520.821 269.563C520.368 269.296 519.928 269.009 519.501 268.703C519.181 268.476 518.875 268.236 518.581 267.983C518.288 267.729 518.021 267.449 517.781 267.143C517.368 266.636 517.101 266.063 516.981 265.423C516.875 264.783 516.928 264.156 517.141 263.543C517.328 262.996 517.628 262.523 518.041 262.123C518.415 261.763 518.861 261.483 519.381 261.283C519.915 261.083 520.455 260.963 521.001 260.923C521.561 260.883 522.108 260.929 522.641 261.063C523.188 261.196 523.668 261.423 524.081 261.743C524.468 262.049 524.781 262.423 525.021 262.863C525.155 263.116 525.255 263.383 525.321 263.663C525.388 263.943 525.428 264.223 525.441 264.503C525.455 264.689 525.468 264.869 525.481 265.043C525.495 265.203 525.488 265.369 525.461 265.543C525.448 265.649 525.421 265.763 525.381 265.883C525.341 265.989 525.281 266.083 525.201 266.163C525.121 266.243 525.008 266.309 524.861 266.363C524.715 266.416 524.555 266.456 524.381 266.483C524.221 266.509 524.061 266.523 523.901 266.523C523.741 266.523 523.608 266.509 523.501 266.483C523.381 266.456 523.261 266.409 523.141 266.343C523.021 266.263 522.935 266.169 522.881 266.063C522.788 265.836 522.735 265.596 522.721 265.343C522.708 265.089 522.668 264.836 522.601 264.583C522.548 264.316 522.428 264.056 522.241 263.803C522.055 263.536 521.828 263.363 521.561 263.283C521.215 263.176 520.895 263.236 520.601 263.463C520.321 263.689 520.155 263.983 520.101 264.343C520.075 264.529 520.081 264.723 520.121 264.923C520.175 265.123 520.241 265.309 520.321 265.483C520.468 265.789 520.648 266.069 520.861 266.323C521.088 266.576 521.335 266.803 521.601 267.003C521.908 267.243 522.228 267.463 522.561 267.663C522.895 267.863 523.221 268.063 523.541 268.263C523.835 268.449 524.108 268.656 524.361 268.883C524.615 269.096 524.841 269.336 525.041 269.603C525.321 269.989 525.528 270.423 525.661 270.903C525.808 271.369 525.881 271.849 525.881 272.343C525.881 272.823 525.795 273.289 525.621 273.743C525.461 274.183 525.215 274.563 524.881 274.883C524.681 275.069 524.455 275.229 524.201 275.363C523.948 275.496 523.688 275.609 523.421 275.703Z" fill="#01432B"/>
</svg>
