<svg width="33" height="33" viewBox="0 0 33 33" fill="none" xmlns="http://www.w3.org/2000/svg">
<mask id="mask0_367_3342" style="mask-type:alpha" maskUnits="userSpaceOnUse" x="0" y="0" width="33" height="33">
<rect x="0.209961" y="0.285156" width="32.548" height="32.548" fill="#D9D9D9"/>
</mask>
<g mask="url(#mask0_367_3342)">
<path d="M30.0086 31.8151C26.574 31.8151 23.1806 31.0195 19.8284 29.4284C16.4762 27.8373 13.4262 25.5821 10.6785 22.6626C7.9308 19.7432 5.8082 16.5026 4.3107 12.9409C2.8132 9.3792 2.06445 5.7737 2.06445 2.1244C2.06445 1.5989 2.22932 1.16099 2.55904 0.810655C2.88876 0.460322 3.30092 0.285156 3.79551 0.285156H10.4724C10.8571 0.285156 11.2006 0.423829 11.5028 0.701176C11.8051 0.978522 11.9837 1.30696 12.0386 1.68649L13.1102 7.8173C13.1652 8.28441 13.1514 8.67854 13.069 8.99967C12.9866 9.32081 12.8355 9.59816 12.6156 9.83171L8.61773 14.1233C9.16727 15.2035 9.81985 16.2472 10.5755 17.2544C11.3311 18.2616 12.1623 19.2323 13.069 20.1665C13.9208 21.0715 14.8138 21.9109 15.748 22.6845C16.6822 23.4582 17.6714 24.1661 18.7155 24.8084L22.5898 20.692C22.8371 20.4293 23.16 20.2322 23.5584 20.1008C23.9568 19.9695 24.3483 19.933 24.733 19.9914L30.4208 21.2175C30.8054 21.3343 31.1214 21.546 31.3687 21.8525C31.616 22.159 31.7397 22.5021 31.7397 22.8816V29.9758C31.7397 30.5013 31.5748 30.9392 31.2451 31.2896C30.9154 31.6399 30.5032 31.8151 30.0086 31.8151ZM7.05154 10.7951L9.77177 7.90489L9.0711 3.78848H5.40291C5.5403 4.98545 5.73264 6.16782 5.97993 7.3356C6.22723 8.50337 6.58443 9.65655 7.05154 10.7951ZM21.8067 26.4725C22.8783 26.9688 23.9705 27.3629 25.0834 27.6549C26.1962 27.9468 27.3159 28.1366 28.4424 28.2242V24.3705L24.5682 23.5385L21.8067 26.4725Z" fill="#FFE4BB"/>
</g>
</svg>
