<svg width="160" height="160" viewBox="0 0 160 160" fill="none" xmlns="http://www.w3.org/2000/svg">
<g filter="url(#filter0_d_367_3340)">
<circle cx="79.9019" cy="70.0513" r="69.5513" fill="#01432B"/>
</g>
<mask id="mask0_367_3340" style="mask-type:alpha" maskUnits="userSpaceOnUse" x="63" y="54" width="33" height="33">
<rect x="63.21" y="54.2852" width="32.548" height="32.548" fill="#D9D9D9"/>
</mask>
<g mask="url(#mask0_367_3340)">
<path d="M93.0086 85.8151C89.574 85.8151 86.1806 85.0195 82.8284 83.4284C79.4762 81.8373 76.4262 79.5821 73.6785 76.6626C70.9308 73.7432 68.8082 70.5026 67.3107 66.9409C65.8132 63.3792 65.0645 59.7737 65.0645 56.1244C65.0645 55.5989 65.2293 55.161 65.559 54.8107C65.8888 54.4603 66.3009 54.2852 66.7955 54.2852H73.4724C73.8571 54.2852 74.2006 54.4238 74.5028 54.7012C74.8051 54.9785 74.9837 55.307 75.0386 55.6865L76.1102 61.8173C76.1652 62.2844 76.1514 62.6785 76.069 62.9997C75.9866 63.3208 75.8355 63.5982 75.6156 63.8317L71.6177 68.1233C72.1673 69.2035 72.8199 70.2472 73.5755 71.2544C74.3311 72.2616 75.1623 73.2323 76.069 74.1665C76.9208 75.0715 77.8138 75.9109 78.748 76.6845C79.6822 77.4582 80.6714 78.1661 81.7155 78.8084L85.5898 74.692C85.8371 74.4293 86.16 74.2322 86.5584 74.1008C86.9568 73.9695 87.3483 73.933 87.733 73.9914L93.4208 75.2175C93.8054 75.3343 94.1214 75.546 94.3687 75.8525C94.616 76.159 94.7397 76.5021 94.7397 76.8816V83.9758C94.7397 84.5013 94.5748 84.9392 94.2451 85.2896C93.9154 85.6399 93.5032 85.8151 93.0086 85.8151ZM70.0515 64.7951L72.7718 61.9049L72.0711 57.7885H68.4029C68.5403 58.9854 68.7326 60.1678 68.9799 61.3356C69.2272 62.5034 69.5844 63.6565 70.0515 64.7951ZM84.8067 80.4725C85.8783 80.9688 86.9705 81.3629 88.0834 81.6549C89.1962 81.9468 90.3159 82.1366 91.4424 82.2242V78.3705L87.5682 77.5385L84.8067 80.4725Z" fill="#FFE4BB"/>
</g>
<defs>
<filter id="filter0_d_367_3340" x="0.234036" y="0.5" width="159.336" height="159.337" filterUnits="userSpaceOnUse" color-interpolation-filters="sRGB">
<feFlood flood-opacity="0" result="BackgroundImageFix"/>
<feColorMatrix in="SourceAlpha" type="matrix" values="0 0 0 0 0 0 0 0 0 0 0 0 0 0 0 0 0 0 127 0" result="hardAlpha"/>
<feOffset dy="10.1165"/>
<feGaussianBlur stdDeviation="5.05827"/>
<feComposite in2="hardAlpha" operator="out"/>
<feColorMatrix type="matrix" values="0 0 0 0 0 0 0 0 0 0 0 0 0 0 0 0 0 0 0.25 0"/>
<feBlend mode="normal" in2="BackgroundImageFix" result="effect1_dropShadow_367_3340"/>
<feBlend mode="normal" in="SourceGraphic" in2="effect1_dropShadow_367_3340" result="shape"/>
</filter>
</defs>
</svg>
