<svg width="160" height="160" viewBox="0 0 160 160" fill="none" xmlns="http://www.w3.org/2000/svg">
<g filter="url(#filter0_d_367_3347)">
<circle cx="80.0044" cy="70.0513" r="69.5513" fill="#01432B"/>
</g>
<mask id="mask0_367_3347" style="mask-type:alpha" maskUnits="userSpaceOnUse" x="55" y="48" width="46" height="45">
<rect x="55.9775" y="48.5508" width="44.3837" height="44.3837" fill="#D9D9D9"/>
</mask>
<g mask="url(#mask0_367_3347)">
<path d="M70.6522 80.1695L78.0957 76.7945L85.5393 80.1695L86.2328 79.476L78.0957 59.827L69.9587 79.476L70.6522 80.1695ZM78.0957 89.4161C75.5375 89.4161 73.1334 88.9307 70.8834 87.9598C68.6334 86.9889 66.6762 85.6712 65.0118 84.0068C63.3474 82.3425 62.0298 80.3853 61.0589 78.1352C60.088 75.8852 59.6025 73.4811 59.6025 70.9229C59.6025 68.3647 60.088 65.9606 61.0589 63.7105C62.0298 61.4605 63.3474 59.5033 65.0118 57.839C66.6762 56.1746 68.6334 54.8569 70.8834 53.886C73.1334 52.9151 75.5375 52.4297 78.0957 52.4297C80.654 52.4297 83.0581 52.9151 85.3081 53.886C87.5581 54.8569 89.5153 56.1746 91.1797 57.839C92.8441 59.5033 94.1617 61.4605 95.1326 63.7105C96.1035 65.9606 96.589 68.3647 96.589 70.9229C96.589 73.4811 96.1035 75.8852 95.1326 78.1352C94.1617 80.3853 92.8441 82.3425 91.1797 84.0068C89.5153 85.6712 87.5581 86.9889 85.3081 87.9598C83.0581 88.9307 80.654 89.4161 78.0957 89.4161ZM78.0957 85.7175C82.2259 85.7175 85.7242 84.2842 88.5906 81.4178C91.4571 78.5513 92.8903 75.053 92.8903 70.9229C92.8903 66.7927 91.4571 63.2944 88.5906 60.428C85.7242 57.5616 82.2259 56.1283 78.0957 56.1283C73.9656 56.1283 70.4673 57.5616 67.6009 60.428C64.7344 63.2944 63.3012 66.7927 63.3012 70.9229C63.3012 75.053 64.7344 78.5513 67.6009 81.4178C70.4673 84.2842 73.9656 85.7175 78.0957 85.7175Z" fill="#FFE4BB"/>
</g>
<defs>
<filter id="filter0_d_367_3347" x="0.336576" y="0.5" width="159.336" height="159.337" filterUnits="userSpaceOnUse" color-interpolation-filters="sRGB">
<feFlood flood-opacity="0" result="BackgroundImageFix"/>
<feColorMatrix in="SourceAlpha" type="matrix" values="0 0 0 0 0 0 0 0 0 0 0 0 0 0 0 0 0 0 127 0" result="hardAlpha"/>
<feOffset dy="10.1165"/>
<feGaussianBlur stdDeviation="5.05827"/>
<feComposite in2="hardAlpha" operator="out"/>
<feColorMatrix type="matrix" values="0 0 0 0 0 0 0 0 0 0 0 0 0 0 0 0 0 0 0.25 0"/>
<feBlend mode="normal" in2="BackgroundImageFix" result="effect1_dropShadow_367_3347"/>
<feBlend mode="normal" in="SourceGraphic" in2="effect1_dropShadow_367_3347" result="shape"/>
</filter>
</defs>
</svg>
