<svg width="46" height="45" viewBox="0 0 46 45" fill="none" xmlns="http://www.w3.org/2000/svg">
<mask id="mask0_367_3349" style="mask-type:alpha" maskUnits="userSpaceOnUse" x="0" y="0" width="46" height="45">
<rect x="0.977539" y="0.550781" width="44.3837" height="44.3837" fill="#D9D9D9"/>
</mask>
<g mask="url(#mask0_367_3349)">
<path d="M15.6522 32.1695L23.0957 28.7945L30.5393 32.1695L31.2328 31.476L23.0957 11.827L14.9587 31.476L15.6522 32.1695ZM23.0957 41.4161C20.5375 41.4161 18.1334 40.9307 15.8834 39.9598C13.6334 38.9889 11.6762 37.6712 10.0118 36.0068C8.34741 34.3425 7.02977 32.3853 6.05888 30.1352C5.08799 27.8852 4.60254 25.4811 4.60254 22.9229C4.60254 20.3647 5.08799 17.9606 6.05888 15.7105C7.02977 13.4605 8.34741 11.5033 10.0118 9.83895C11.6762 8.17456 13.6334 6.85692 15.8834 5.88603C18.1334 4.91513 20.5375 4.42969 23.0957 4.42969C25.654 4.42969 28.0581 4.91513 30.3081 5.88603C32.5581 6.85692 34.5153 8.17456 36.1797 9.83895C37.8441 11.5033 39.1617 13.4605 40.1326 15.7105C41.1035 17.9606 41.589 20.3647 41.589 22.9229C41.589 25.4811 41.1035 27.8852 40.1326 30.1352C39.1617 32.3853 37.8441 34.3425 36.1797 36.0068C34.5153 37.6712 32.5581 38.9889 30.3081 39.9598C28.0581 40.9307 25.654 41.4161 23.0957 41.4161ZM23.0957 37.7175C27.2259 37.7175 30.7242 36.2842 33.5906 33.4178C36.4571 30.5513 37.8903 27.053 37.8903 22.9229C37.8903 18.7927 36.4571 15.2944 33.5906 12.428C30.7242 9.56155 27.2259 8.12833 23.0957 8.12833C18.9656 8.12833 15.4673 9.56155 12.6009 12.428C9.7344 15.2944 8.30118 18.7927 8.30118 22.9229C8.30118 27.053 9.7344 30.5513 12.6009 33.4178C15.4673 36.2842 18.9656 37.7175 23.0957 37.7175Z" fill="#FFE4BB"/>
</g>
</svg>
