<svg width="160" height="160" viewBox="0 0 160 160" fill="none" xmlns="http://www.w3.org/2000/svg">
<g filter="url(#filter0_d_367_3354)">
<circle cx="80.1069" cy="70.0513" r="69.5513" fill="#01432B"/>
</g>
<mask id="mask0_367_3354" style="mask-type:alpha" maskUnits="userSpaceOnUse" x="56" y="48" width="45" height="45">
<rect x="56.0801" y="48.5508" width="44.3837" height="44.3837" fill="#D9D9D9"/>
</mask>
<g mask="url(#mask0_367_3354)">
<path d="M63.4037 61.6721H89.2942V57.9735H63.4037V61.6721ZM63.4037 87.5626C62.3866 87.5626 61.5159 87.2004 60.7916 86.4761C60.0672 85.7518 59.7051 84.8811 59.7051 83.8639V57.9735C59.7051 56.9563 60.0672 56.0856 60.7916 55.3613C61.5159 54.637 62.3866 54.2748 63.4037 54.2748H65.253V50.5762H68.9517V54.2748H83.7462V50.5762H87.4449V54.2748H89.2942C90.3113 54.2748 91.1821 54.637 91.9064 55.3613C92.6307 56.0856 92.9929 56.9563 92.9929 57.9735V68.4684C92.4072 68.191 91.8062 67.9598 91.1898 67.7749C90.5733 67.5899 89.9415 67.4512 89.2942 67.3588V65.3707H63.4037V83.8639H75.0544C75.2702 84.542 75.5245 85.1893 75.8173 85.8057C76.1101 86.4222 76.4568 87.0078 76.8575 87.5626H63.4037ZM87.4449 89.4119C84.8867 89.4119 82.706 88.5104 80.9029 86.7073C79.0998 84.9042 78.1983 82.7235 78.1983 80.1653C78.1983 77.6071 79.0998 75.4264 80.9029 73.6233C82.706 71.8202 84.8867 70.9187 87.4449 70.9187C90.0031 70.9187 92.1838 71.8202 93.9869 73.6233C95.79 75.4264 96.6915 77.6071 96.6915 80.1653C96.6915 82.7235 95.79 84.9042 93.9869 86.7073C92.1838 88.5104 90.0031 89.4119 87.4449 89.4119ZM90.5425 84.5574L91.837 83.2629L88.3696 79.7954V74.6173H86.5202V80.5352L90.5425 84.5574Z" fill="#FFE4BB"/>
</g>
<defs>
<filter id="filter0_d_367_3354" x="0.439115" y="0.5" width="159.336" height="159.337" filterUnits="userSpaceOnUse" color-interpolation-filters="sRGB">
<feFlood flood-opacity="0" result="BackgroundImageFix"/>
<feColorMatrix in="SourceAlpha" type="matrix" values="0 0 0 0 0 0 0 0 0 0 0 0 0 0 0 0 0 0 127 0" result="hardAlpha"/>
<feOffset dy="10.1165"/>
<feGaussianBlur stdDeviation="5.05827"/>
<feComposite in2="hardAlpha" operator="out"/>
<feColorMatrix type="matrix" values="0 0 0 0 0 0 0 0 0 0 0 0 0 0 0 0 0 0 0.25 0"/>
<feBlend mode="normal" in2="BackgroundImageFix" result="effect1_dropShadow_367_3354"/>
<feBlend mode="normal" in="SourceGraphic" in2="effect1_dropShadow_367_3354" result="shape"/>
</filter>
</defs>
</svg>
