<svg width="45" height="45" viewBox="0 0 45 45" fill="none" xmlns="http://www.w3.org/2000/svg">
<mask id="mask0_367_3358" style="mask-type:alpha" maskUnits="userSpaceOnUse" x="0" y="0" width="45" height="45">
<rect x="0.0800781" y="0.550781" width="44.3837" height="44.3837" fill="#D9D9D9"/>
</mask>
<g mask="url(#mask0_367_3358)">
<path d="M7.40372 13.6721H33.2942V9.97346H7.40372V13.6721ZM7.40372 39.5626C6.38659 39.5626 5.51587 39.2004 4.79155 38.4761C4.06724 37.7518 3.70508 36.8811 3.70508 35.8639V9.97346C3.70508 8.95633 4.06724 8.08561 4.79155 7.36129C5.51587 6.63697 6.38659 6.27481 7.40372 6.27481H9.25304V2.57617H12.9517V6.27481H27.7462V2.57617H31.4449V6.27481H33.2942C34.3113 6.27481 35.1821 6.63697 35.9064 7.36129C36.6307 8.08561 36.9929 8.95633 36.9929 9.97346V20.4684C36.4072 20.191 35.8062 19.9598 35.1898 19.7749C34.5733 19.5899 33.9415 19.4512 33.2942 19.3588V17.3707H7.40372V35.8639H19.0544C19.2702 36.542 19.5245 37.1893 19.8173 37.8057C20.1101 38.4222 20.4568 39.0078 20.8575 39.5626H7.40372ZM31.4449 41.4119C28.8867 41.4119 26.706 40.5104 24.9029 38.7073C23.0998 36.9042 22.1983 34.7235 22.1983 32.1653C22.1983 29.6071 23.0998 27.4264 24.9029 25.6233C26.706 23.8202 28.8867 22.9187 31.4449 22.9187C34.0031 22.9187 36.1838 23.8202 37.9869 25.6233C39.79 27.4264 40.6915 29.6071 40.6915 32.1653C40.6915 34.7235 39.79 36.9042 37.9869 38.7073C36.1838 40.5104 34.0031 41.4119 31.4449 41.4119ZM34.5425 36.5574L35.837 35.2629L32.3696 31.7954V26.6173H30.5202V32.5352L34.5425 36.5574Z" fill="#FFE4BB"/>
</g>
</svg>
