<svg width="536" height="34" viewBox="0 0 536 34" fill="none" xmlns="http://www.w3.org/2000/svg">
<path d="M7.76182 8.98441C7.68894 8.82043 7.68894 8.65645 7.76182 8.49247C7.85292 8.32849 7.97135 8.22828 8.11711 8.19184C8.26288 8.13717 8.38131 8.10984 8.47241 8.10984C8.78215 8.10984 8.99169 8.23739 9.10101 8.49247L11.3148 13.8219L13.5559 8.46514C13.6652 8.22828 13.82 8.10984 14.0205 8.10984C14.2209 8.10984 14.394 8.13717 14.5397 8.19184C14.6855 8.2465 14.7948 8.36493 14.8677 8.54713C14.9406 8.71111 14.9406 8.87509 14.8677 9.03907L12.1073 15.5437L15.141 22.9776L21.181 8.46514C21.2903 8.22828 21.4452 8.10984 21.6456 8.10984C22.0829 8.10984 22.3653 8.25561 22.4929 8.54713C22.5293 8.62001 22.5475 8.702 22.5475 8.7931C22.5475 8.8842 22.5293 8.96619 22.4929 9.03907L15.8516 24.8087C15.7423 25.1184 15.5054 25.2733 15.141 25.2733C14.7766 25.2733 14.5397 25.1184 14.4304 24.8087L11.3148 17.3748L8.19911 24.8087C8.08978 25.1184 7.85292 25.2733 7.48852 25.2733C7.14233 25.2733 6.91458 25.1184 6.80526 24.8087L0.109321 8.98441C0.0728809 8.91153 0.0546607 8.82954 0.0546607 8.73844C0.0546607 8.44692 0.209533 8.25561 0.519277 8.1645C0.628598 8.12806 0.728809 8.10984 0.819911 8.10984C1.12965 8.10984 1.33919 8.23739 1.44851 8.49247L7.54318 22.9502L10.5495 15.5437L7.76182 8.98441ZM32.0892 18.9873C32.0346 18.0034 31.7431 17.22 31.2147 16.6369C30.7045 16.0539 29.9575 15.7623 28.9736 15.7623C28.0079 15.7623 27.1971 16.063 26.5412 16.6642C25.8853 17.2473 25.4753 18.0217 25.3113 18.9873H32.0892ZM32.1439 22.3763C32.2714 22.1576 32.4172 22.0483 32.5812 22.0483C32.7452 22.0483 32.9092 22.0939 33.0731 22.185C33.2371 22.2579 33.3464 22.3854 33.4011 22.5676C33.474 22.7316 33.4649 22.8865 33.3738 23.0322C32.4445 24.5263 30.9687 25.2733 28.9463 25.2733C27.3429 25.2733 26.0766 24.7631 25.1473 23.7428C24.2363 22.7043 23.7808 21.4015 23.7808 19.8346C23.7808 18.2676 24.2545 16.9922 25.202 16.0083C26.1495 15.0062 27.3975 14.5051 28.9463 14.5051C30.495 14.5051 31.6429 14.9698 32.3899 15.899C33.1551 16.8282 33.5378 18.0672 33.5378 19.6159C33.5378 20.035 33.3009 20.2445 32.8272 20.2445L25.2567 20.2718C25.3295 21.4015 25.6939 22.3125 26.3499 23.0049C27.024 23.679 27.8895 24.0161 28.9463 24.0161C30.3674 24.0161 31.4333 23.4695 32.1439 22.3763ZM40.6827 15.7623C39.6442 15.7623 38.8151 16.1359 38.1957 16.8829C37.5762 17.6299 37.2664 18.6411 37.2664 19.9166C37.2664 21.192 37.5671 22.1941 38.1683 22.9229C38.7878 23.6517 39.6259 24.0161 40.6827 24.0161C42.2132 24.0161 43.434 23.1506 44.345 21.4197V17.4022C43.8713 16.9467 43.2973 16.564 42.6232 16.2543C41.9672 15.9263 41.3204 15.7623 40.6827 15.7623ZM44.345 5.78676H42.5412C42.359 5.78676 42.2041 5.7321 42.0766 5.62278C41.9672 5.49524 41.9126 5.34037 41.9126 5.15817C41.9126 4.97596 41.9672 4.82109 42.0766 4.69355C42.2041 4.56601 42.359 4.50224 42.5412 4.50224H45.0829C45.2833 4.50224 45.4564 4.56601 45.6022 4.69355C45.7479 4.82109 45.8208 4.97596 45.8208 5.15817V23.1962C45.8208 23.5424 46.003 23.7155 46.3674 23.7155H47.6246C47.8068 23.7155 47.9526 23.7792 48.0619 23.9068C48.1895 24.0161 48.2532 24.1619 48.2532 24.3441C48.2532 24.5263 48.1895 24.6811 48.0619 24.8087C47.9526 24.9362 47.8068 25 47.6246 25H46.1761C44.9918 25 44.4179 24.3532 44.4543 23.0595C44.0535 23.679 43.5251 24.2074 42.8691 24.6447C42.2314 25.0638 41.5026 25.2733 40.6827 25.2733C39.0611 25.2733 37.8404 24.754 37.0205 23.7155C36.2188 22.6769 35.8179 21.3924 35.8179 19.8619C35.8179 18.3314 36.237 17.056 37.0751 16.0356C37.9315 15.0153 39.0976 14.5051 40.5734 14.5051C42.0492 14.5051 43.3064 14.988 44.345 15.9537V5.78676ZM54.508 15.7623C53.4695 15.7623 52.6405 16.1359 52.021 16.8829C51.4015 17.6299 51.0917 18.6411 51.0917 19.9166C51.0917 21.192 51.3924 22.1941 51.9936 22.9229C52.6131 23.6517 53.4513 24.0161 54.508 24.0161C56.0385 24.0161 57.2593 23.1506 58.1703 21.4197V17.4022C57.6966 16.9467 57.1226 16.564 56.4485 16.2543C55.7926 15.9263 55.1457 15.7623 54.508 15.7623ZM58.1703 5.78676H56.3665C56.1843 5.78676 56.0294 5.7321 55.9019 5.62278C55.7926 5.49524 55.7379 5.34037 55.7379 5.15817C55.7379 4.97596 55.7926 4.82109 55.9019 4.69355C56.0294 4.56601 56.1843 4.50224 56.3665 4.50224H58.9082C59.1086 4.50224 59.2817 4.56601 59.4275 4.69355C59.5733 4.82109 59.6461 4.97596 59.6461 5.15817V23.1962C59.6461 23.5424 59.8283 23.7155 60.1927 23.7155H61.4499C61.6321 23.7155 61.7779 23.7792 61.8872 23.9068C62.0148 24.0161 62.0785 24.1619 62.0785 24.3441C62.0785 24.5263 62.0148 24.6811 61.8872 24.8087C61.7779 24.9362 61.6321 25 61.4499 25H60.0014C58.8171 25 58.2432 24.3532 58.2796 23.0595C57.8788 23.679 57.3504 24.2074 56.6945 24.6447C56.0568 25.0638 55.3279 25.2733 54.508 25.2733C52.8864 25.2733 51.6657 24.754 50.8458 23.7155C50.0441 22.6769 49.6432 21.3924 49.6432 19.8619C49.6432 18.3314 50.0623 17.056 50.9004 16.0356C51.7568 15.0153 52.9229 14.5051 54.3987 14.5051C55.8746 14.5051 57.1317 14.988 58.1703 15.9537V5.78676ZM66.3929 24.6447C66.3929 24.8269 66.32 24.9727 66.1743 25.082C66.0285 25.2095 65.8554 25.2733 65.655 25.2733C65.4546 25.2733 65.2815 25.2095 65.1357 25.082C64.9899 24.9727 64.9171 24.8269 64.9171 24.6447V16.063H63.1133C62.931 16.063 62.7762 16.0083 62.6486 15.899C62.5393 15.7715 62.4847 15.6166 62.4847 15.4344C62.4847 15.2522 62.5393 15.0973 62.6486 14.9698C62.7762 14.8422 62.931 14.7784 63.1133 14.7784H65.7643C66.1834 14.7784 66.3929 14.988 66.3929 15.407V24.6447ZM64.8624 10.6789C64.6984 10.4967 64.6164 10.2781 64.6164 10.023C64.6164 9.76788 64.6984 9.54924 64.8624 9.36704C65.0264 9.18484 65.2541 9.09374 65.5457 9.09374C65.8372 9.09374 66.0649 9.18484 66.2289 9.36704C66.4111 9.54924 66.5022 9.76788 66.5022 10.023C66.5022 10.2781 66.4111 10.4967 66.2289 10.6789C66.0649 10.8611 65.8372 10.9522 65.5457 10.9522C65.2541 10.9522 65.0264 10.8611 64.8624 10.6789ZM70.2962 16.063H69.0117C68.8295 16.063 68.6746 16.0083 68.5471 15.899C68.4378 15.7715 68.3831 15.6166 68.3831 15.4344C68.3831 15.2522 68.4378 15.0973 68.5471 14.9698C68.6746 14.8422 68.8295 14.7784 69.0117 14.7784H70.4875C71.6172 14.7784 72.182 15.3979 72.182 16.6369C73.2752 15.2157 74.6509 14.5051 76.3089 14.5051C77.2928 14.5051 78.0945 14.7602 78.714 15.2704C79.3517 15.7623 79.6705 16.4912 79.6705 17.4568V23.1962C79.6705 23.5424 79.9165 23.7155 80.4085 23.7155H81.4743C81.6565 23.7155 81.8023 23.7792 81.9116 23.9068C82.0392 24.0343 82.1029 24.1892 82.1029 24.3714C82.1029 24.5536 82.0392 24.7085 81.9116 24.836C81.8023 24.9453 81.6565 25 81.4743 25H80.4085C78.9326 25 78.1947 24.4078 78.1947 23.2235V17.4568C78.1947 16.9102 78.0216 16.4912 77.6754 16.1996C77.3475 15.9081 76.8828 15.7623 76.2816 15.7623C74.6053 15.7623 73.2752 16.6369 72.2913 18.3861V24.6447C72.2913 24.8269 72.2185 24.9727 72.0727 25.082C71.9269 25.2095 71.7538 25.2733 71.5534 25.2733C71.353 25.2733 71.1799 25.2095 71.0341 25.082C70.8884 24.9727 70.8155 24.8269 70.8155 24.6447V16.5823C70.8155 16.2361 70.6424 16.063 70.2962 16.063ZM85.0215 25.3006C84.3291 25.7015 83.983 26.2936 83.983 27.0771C83.983 27.8788 84.3109 28.5074 84.9669 28.9629C85.641 29.4184 86.5611 29.6462 87.7272 29.6462C88.8933 29.6462 89.941 29.4457 90.8702 29.0449C91.7994 28.644 92.2641 28.0974 92.2641 27.4051C92.2641 26.658 91.6081 26.2116 90.2963 26.0659C89.8408 26.0294 88.3923 25.8472 85.9507 25.5193C85.5499 25.4464 85.2402 25.3735 85.0215 25.3006ZM90.8429 18.4134C90.8429 17.6117 90.5696 16.9649 90.023 16.4729C89.4946 15.9628 88.8022 15.7077 87.9459 15.7077C87.1077 15.7077 86.4154 15.9628 85.8688 16.4729C85.3404 16.9649 85.0762 17.6117 85.0762 18.4134C85.0762 19.2151 85.3404 19.871 85.8688 20.3812C86.4154 20.8731 87.1077 21.1191 87.9459 21.1191C88.8022 21.1191 89.4946 20.8731 90.023 20.3812C90.5696 19.871 90.8429 19.2151 90.8429 18.4134ZM91.6628 10.9522C91.9543 10.9522 92.1547 11.1071 92.2641 11.4168C92.5191 12.0545 92.6467 12.6285 92.6467 13.1386C92.6467 14.1954 92.2094 15.0882 91.3348 15.817C91.9908 16.4912 92.3187 17.3931 92.3187 18.5227C92.3187 19.6524 91.8905 20.5816 91.0342 21.3104C90.1961 22.021 89.1666 22.3763 87.9459 22.3763C87.3993 22.3763 86.88 22.3034 86.388 22.1576C85.969 22.2852 85.5955 22.4856 85.2675 22.7589C84.9577 23.014 84.8029 23.2691 84.8029 23.5242C84.8029 23.8703 85.2584 24.1254 86.1694 24.2894C86.5702 24.3441 88.0187 24.5172 90.5149 24.8087C92.6649 25.082 93.7399 25.9475 93.7399 27.4051C93.7399 28.5347 93.0931 29.4002 91.7994 30.0015C90.524 30.6027 89.1575 30.9034 87.6999 30.9034C86.2605 30.9034 85.0306 30.5845 84.0103 29.9468C83.0082 29.3273 82.5071 28.4527 82.5071 27.3231C82.5071 26.1934 82.99 25.3371 83.9556 24.754C83.5548 24.5172 83.3544 24.1072 83.3544 23.5242C83.3544 22.7225 83.983 22.0757 85.2402 21.5837C84.1652 20.7638 83.6277 19.7435 83.6277 18.5227C83.6277 17.2837 84.0285 16.2998 84.8302 15.571C85.6319 14.824 86.5976 14.4505 87.7272 14.4505C88.8751 14.4505 89.777 14.66 90.4329 15.0791C90.9249 14.5871 91.1708 13.9585 91.1708 13.1933C91.1708 12.8107 91.1071 12.4554 90.9795 12.1274C90.7609 11.5808 90.8702 11.2164 91.3075 11.0342C91.435 10.9795 91.5535 10.9522 91.6628 10.9522ZM102.534 23.7155V9.66767H100.921C100.739 9.66767 100.584 9.61301 100.457 9.50369C100.347 9.37615 100.293 9.22128 100.293 9.03907C100.293 8.85687 100.347 8.702 100.457 8.57446C100.584 8.44692 100.739 8.38315 100.921 8.38315H105.622C105.804 8.38315 105.95 8.44692 106.059 8.57446C106.187 8.702 106.251 8.85687 106.251 9.03907C106.251 9.22128 106.187 9.37615 106.059 9.50369C105.95 9.61301 105.804 9.66767 105.622 9.66767H104.01V23.7155H105.622C105.804 23.7155 105.95 23.7792 106.059 23.9068C106.187 24.0161 106.251 24.1619 106.251 24.3441C106.251 24.5263 106.187 24.6811 106.059 24.8087C105.95 24.9362 105.804 25 105.622 25H100.921C100.739 25 100.584 24.9362 100.457 24.8087C100.347 24.6811 100.293 24.5263 100.293 24.3441C100.293 24.1619 100.347 24.0161 100.457 23.9068C100.584 23.7792 100.739 23.7155 100.921 23.7155H102.534ZM109.157 16.063H107.872C107.69 16.063 107.535 16.0083 107.407 15.899C107.298 15.7715 107.243 15.6166 107.243 15.4344C107.243 15.2522 107.298 15.0973 107.407 14.9698C107.535 14.8422 107.69 14.7784 107.872 14.7784H109.348C110.478 14.7784 111.042 15.3979 111.042 16.6369C112.136 15.2157 113.511 14.5051 115.169 14.5051C116.153 14.5051 116.955 14.7602 117.574 15.2704C118.212 15.7623 118.531 16.4912 118.531 17.4568V23.1962C118.531 23.5424 118.777 23.7155 119.269 23.7155H120.335C120.517 23.7155 120.663 23.7792 120.772 23.9068C120.899 24.0343 120.963 24.1892 120.963 24.3714C120.963 24.5536 120.899 24.7085 120.772 24.836C120.663 24.9453 120.517 25 120.335 25H119.269C117.793 25 117.055 24.4078 117.055 23.2235V17.4568C117.055 16.9102 116.882 16.4912 116.536 16.1996C116.208 15.9081 115.743 15.7623 115.142 15.7623C113.466 15.7623 112.136 16.6369 111.152 18.3861V24.6447C111.152 24.8269 111.079 24.9727 110.933 25.082C110.787 25.2095 110.614 25.2733 110.414 25.2733C110.213 25.2733 110.04 25.2095 109.894 25.082C109.749 24.9727 109.676 24.8269 109.676 24.6447V16.5823C109.676 16.2361 109.503 16.063 109.157 16.063ZM130.34 14.8878C130.468 14.6145 130.613 14.4778 130.777 14.4778C131.215 14.4778 131.515 14.6418 131.679 14.9698C131.716 15.0609 131.734 15.152 131.734 15.2431C131.734 15.3159 131.716 15.3888 131.679 15.4617L127.197 24.836C127.051 25.1275 126.815 25.2733 126.487 25.2733C126.177 25.2733 125.949 25.1275 125.803 24.836L121.294 15.4617C121.257 15.3888 121.239 15.3068 121.239 15.2157C121.239 14.9424 121.403 14.7329 121.731 14.5871C121.877 14.5143 122.032 14.4778 122.196 14.4778C122.378 14.4778 122.533 14.6145 122.66 14.8878L126.514 23.1962L130.34 14.8878ZM136.4 24.6447C136.4 24.8269 136.327 24.9727 136.182 25.082C136.036 25.2095 135.863 25.2733 135.662 25.2733C135.462 25.2733 135.289 25.2095 135.143 25.082C134.997 24.9727 134.924 24.8269 134.924 24.6447V16.063H133.121C132.938 16.063 132.784 16.0083 132.656 15.899C132.547 15.7715 132.492 15.6166 132.492 15.4344C132.492 15.2522 132.547 15.0973 132.656 14.9698C132.784 14.8422 132.938 14.7784 133.121 14.7784H135.772C136.191 14.7784 136.4 14.988 136.4 15.407V24.6447ZM134.87 10.6789C134.706 10.4967 134.624 10.2781 134.624 10.023C134.624 9.76788 134.706 9.54924 134.87 9.36704C135.034 9.18484 135.261 9.09374 135.553 9.09374C135.845 9.09374 136.072 9.18484 136.236 9.36704C136.418 9.54924 136.51 9.76788 136.51 10.023C136.51 10.2781 136.418 10.4967 136.236 10.6789C136.072 10.8611 135.845 10.9522 135.553 10.9522C135.261 10.9522 135.034 10.8611 134.87 10.6789ZM147.273 23.2509C147.419 23.1598 147.583 23.1324 147.765 23.1689C147.965 23.2053 148.102 23.2873 148.175 23.4148C148.248 23.5242 148.284 23.6244 148.284 23.7155C148.284 23.9888 148.184 24.1892 147.983 24.3167C146.89 24.9544 145.715 25.2733 144.458 25.2733C143.201 25.2733 142.299 25.0182 141.752 24.5081C141.205 23.9797 140.932 23.1142 140.932 21.9117V16.063H139.402C139.219 16.063 139.065 16.0083 138.937 15.899C138.828 15.7715 138.773 15.6166 138.773 15.4344C138.773 15.2522 138.828 15.0973 138.937 14.9698C139.065 14.8422 139.219 14.7784 139.402 14.7784H140.932V10.8702C140.932 10.688 141.005 10.5422 141.151 10.4329C141.297 10.3054 141.47 10.2416 141.67 10.2416C141.87 10.2416 142.044 10.3054 142.189 10.4329C142.335 10.5422 142.408 10.688 142.408 10.8702V14.7784H146.999C147.182 14.7784 147.327 14.8422 147.437 14.9698C147.564 15.0973 147.628 15.2522 147.628 15.4344C147.628 15.6166 147.564 15.7715 147.437 15.899C147.327 16.0083 147.182 16.063 146.999 16.063H142.408V21.9117C142.408 22.6769 142.563 23.2235 142.873 23.5515C143.201 23.8612 143.793 24.0161 144.649 24.0161C145.524 24.0161 146.398 23.761 147.273 23.2509ZM157.164 20.7638C155.961 20.4358 154.932 20.2718 154.075 20.2718C153.237 20.2718 152.545 20.4358 151.998 20.7638C151.47 21.0918 151.206 21.5564 151.206 22.1576C151.206 22.7407 151.379 23.1962 151.725 23.5242C152.071 23.8521 152.545 24.0161 153.146 24.0161C154.823 24.0161 156.162 23.1051 157.164 21.2831V20.7638ZM159.35 23.7155H160.416C160.598 23.7155 160.744 23.7792 160.853 23.9068C160.981 24.0343 161.045 24.1892 161.045 24.3714C161.045 24.5536 160.981 24.7085 160.853 24.836C160.744 24.9453 160.598 25 160.416 25H159.214C158.558 25 158.047 24.8542 157.683 24.5627C157.337 24.2712 157.164 23.8612 157.164 23.3328C157.164 23.2417 157.173 23.1415 157.191 23.0322C156.225 24.5263 154.823 25.2733 152.982 25.2733C151.962 25.2733 151.16 25 150.577 24.4534C150.012 23.9068 149.73 23.1506 149.73 22.185C149.73 21.2011 150.113 20.4358 150.878 19.8892C151.661 19.3244 152.627 19.042 153.775 19.042C154.941 19.042 156.071 19.2333 157.164 19.6159V17.7301C157.164 16.8556 156.845 16.2907 156.207 16.0356C155.715 15.8534 155.032 15.7623 154.157 15.7623C153.301 15.7623 152.509 15.9081 151.78 16.1996V17.9214C151.78 18.1036 151.707 18.2585 151.561 18.3861C151.415 18.4954 151.242 18.55 151.042 18.55C150.841 18.55 150.668 18.4954 150.523 18.3861C150.377 18.2585 150.304 18.1036 150.304 17.9214V15.8443C150.304 15.6075 150.422 15.4253 150.659 15.2977C151.552 14.7693 152.736 14.5051 154.212 14.5051C155.688 14.5051 156.79 14.7511 157.519 15.2431C158.248 15.7168 158.612 16.5458 158.612 17.7301V23.1962C158.612 23.5424 158.858 23.7155 159.35 23.7155ZM169.932 23.2509C170.078 23.1598 170.242 23.1324 170.424 23.1689C170.625 23.2053 170.761 23.2873 170.834 23.4148C170.907 23.5242 170.944 23.6244 170.944 23.7155C170.944 23.9888 170.843 24.1892 170.643 24.3167C169.55 24.9544 168.375 25.2733 167.117 25.2733C165.86 25.2733 164.958 25.0182 164.412 24.5081C163.865 23.9797 163.592 23.1142 163.592 21.9117V16.063H162.061C161.879 16.063 161.724 16.0083 161.597 15.899C161.487 15.7715 161.433 15.6166 161.433 15.4344C161.433 15.2522 161.487 15.0973 161.597 14.9698C161.724 14.8422 161.879 14.7784 162.061 14.7784H163.592V10.8702C163.592 10.688 163.665 10.5422 163.81 10.4329C163.956 10.3054 164.129 10.2416 164.33 10.2416C164.53 10.2416 164.703 10.3054 164.849 10.4329C164.995 10.5422 165.068 10.688 165.068 10.8702V14.7784H169.659C169.841 14.7784 169.987 14.8422 170.096 14.9698C170.224 15.0973 170.288 15.2522 170.288 15.4344C170.288 15.6166 170.224 15.7715 170.096 15.899C169.987 16.0083 169.841 16.063 169.659 16.063H165.068V21.9117C165.068 22.6769 165.222 23.2235 165.532 23.5515C165.86 23.8612 166.452 24.0161 167.309 24.0161C168.183 24.0161 169.058 23.761 169.932 23.2509ZM175.314 24.6447C175.314 24.8269 175.241 24.9727 175.095 25.082C174.95 25.2095 174.776 25.2733 174.576 25.2733C174.376 25.2733 174.203 25.2095 174.057 25.082C173.911 24.9727 173.838 24.8269 173.838 24.6447V16.063H172.034C171.852 16.063 171.697 16.0083 171.57 15.899C171.46 15.7715 171.406 15.6166 171.406 15.4344C171.406 15.2522 171.46 15.0973 171.57 14.9698C171.697 14.8422 171.852 14.7784 172.034 14.7784H174.685C175.104 14.7784 175.314 14.988 175.314 15.407V24.6447ZM173.783 10.6789C173.619 10.4967 173.537 10.2781 173.537 10.023C173.537 9.76788 173.619 9.54924 173.783 9.36704C173.947 9.18484 174.175 9.09374 174.467 9.09374C174.758 9.09374 174.986 9.18484 175.15 9.36704C175.332 9.54924 175.423 9.76788 175.423 10.023C175.423 10.2781 175.332 10.4967 175.15 10.6789C174.986 10.8611 174.758 10.9522 174.467 10.9522C174.175 10.9522 173.947 10.8611 173.783 10.6789ZM183.508 24.0161C184.62 24.0161 185.521 23.6335 186.214 22.8682C186.924 22.103 187.28 21.1191 187.28 19.9166C187.28 18.6958 186.924 17.7028 186.214 16.9375C185.521 16.1541 184.62 15.7623 183.508 15.7623C182.397 15.7623 181.486 16.1541 180.775 16.9375C180.083 17.7028 179.737 18.6958 179.737 19.9166C179.737 21.1191 180.083 22.103 180.775 22.8682C181.486 23.6335 182.397 24.0161 183.508 24.0161ZM179.709 23.7701C178.744 22.7498 178.261 21.4562 178.261 19.8892C178.261 18.3223 178.753 17.0378 179.737 16.0356C180.72 15.0153 181.978 14.5051 183.508 14.5051C185.039 14.5051 186.287 15.0153 187.252 16.0356C188.236 17.0378 188.728 18.3314 188.728 19.9166C188.728 21.4835 188.236 22.768 187.252 23.7701C186.287 24.7722 185.03 25.2733 183.481 25.2733C181.95 25.2733 180.693 24.7722 179.709 23.7701ZM191.922 16.063H190.637C190.455 16.063 190.3 16.0083 190.172 15.899C190.063 15.7715 190.008 15.6166 190.008 15.4344C190.008 15.2522 190.063 15.0973 190.172 14.9698C190.3 14.8422 190.455 14.7784 190.637 14.7784H192.113C193.243 14.7784 193.807 15.3979 193.807 16.6369C194.901 15.2157 196.276 14.5051 197.934 14.5051C198.918 14.5051 199.72 14.7602 200.339 15.2704C200.977 15.7623 201.296 16.4912 201.296 17.4568V23.1962C201.296 23.5424 201.542 23.7155 202.034 23.7155H203.1C203.282 23.7155 203.428 23.7792 203.537 23.9068C203.665 24.0343 203.728 24.1892 203.728 24.3714C203.728 24.5536 203.665 24.7085 203.537 24.836C203.428 24.9453 203.282 25 203.1 25H202.034C200.558 25 199.82 24.4078 199.82 23.2235V17.4568C199.82 16.9102 199.647 16.4912 199.301 16.1996C198.973 15.9081 198.508 15.7623 197.907 15.7623C196.231 15.7623 194.901 16.6369 193.917 18.3861V24.6447C193.917 24.8269 193.844 24.9727 193.698 25.082C193.552 25.2095 193.379 25.2733 193.179 25.2733C192.978 25.2733 192.805 25.2095 192.66 25.082C192.514 24.9727 192.441 24.8269 192.441 24.6447V16.5823C192.441 16.2361 192.268 16.063 191.922 16.063ZM221.999 24.754C221.872 25.1002 221.626 25.2733 221.261 25.2733C220.915 25.2733 220.696 25.1093 220.605 24.7814L218.064 17.2382L215.522 24.7814C215.431 25.1093 215.203 25.2733 214.839 25.2733C214.492 25.2733 214.255 25.1093 214.128 24.7814L210.548 15.4617C210.511 15.3706 210.493 15.2795 210.493 15.1884C210.493 14.9151 210.657 14.7147 210.985 14.5871C211.094 14.5325 211.213 14.5051 211.34 14.5051C211.632 14.5416 211.823 14.6691 211.914 14.8878L214.784 22.5403L217.353 14.9424C217.444 14.6509 217.672 14.5051 218.036 14.5051C218.419 14.5051 218.656 14.6509 218.747 14.9424L221.343 22.5676L224.213 14.8878C224.322 14.6145 224.459 14.4778 224.623 14.4778C224.805 14.4778 224.969 14.5143 225.115 14.5871C225.443 14.7147 225.607 14.9151 225.607 15.1884C225.607 15.2795 225.588 15.3706 225.552 15.4617L221.999 24.754ZM235.812 18.9873C235.758 18.0034 235.466 17.22 234.938 16.6369C234.428 16.0539 233.681 15.7623 232.697 15.7623C231.731 15.7623 230.92 16.063 230.264 16.6642C229.608 17.2473 229.198 18.0217 229.035 18.9873H235.812ZM235.867 22.3763C235.995 22.1576 236.14 22.0483 236.304 22.0483C236.468 22.0483 236.632 22.0939 236.796 22.185C236.96 22.2579 237.07 22.3854 237.124 22.5676C237.197 22.7316 237.188 22.8865 237.097 23.0322C236.168 24.5263 234.692 25.2733 232.669 25.2733C231.066 25.2733 229.8 24.7631 228.871 23.7428C227.96 22.7043 227.504 21.4015 227.504 19.8346C227.504 18.2676 227.978 16.9922 228.925 16.0083C229.873 15.0062 231.121 14.5051 232.669 14.5051C234.218 14.5051 235.366 14.9698 236.113 15.899C236.878 16.8282 237.261 18.0672 237.261 19.6159C237.261 20.035 237.024 20.2445 236.55 20.2445L228.98 20.2718C229.053 21.4015 229.417 22.3125 230.073 23.0049C230.747 23.679 231.613 24.0161 232.669 24.0161C234.091 24.0161 235.157 23.4695 235.867 22.3763ZM241.7 22.3763C242.903 23.4695 244.069 24.0161 245.198 24.0161C246.346 24.0161 247.23 23.6335 247.85 22.8682C248.469 22.103 248.779 21.0918 248.779 19.8346C248.779 18.5774 248.469 17.5844 247.85 16.8556C247.248 16.1267 246.419 15.7623 245.362 15.7623C243.868 15.7623 242.648 16.6096 241.7 18.3041V22.3763ZM240.224 5.78676H238.421C238.238 5.78676 238.093 5.7321 237.983 5.62278C237.856 5.49524 237.792 5.34037 237.792 5.15817C237.792 4.97596 237.856 4.82109 237.983 4.69355C238.093 4.56601 238.238 4.50224 238.421 4.50224H240.962C241.144 4.50224 241.308 4.56601 241.454 4.69355C241.618 4.82109 241.7 4.97596 241.7 5.15817V16.5823C242.629 15.1975 243.868 14.5051 245.417 14.5051C246.966 14.5051 248.15 14.9971 248.97 15.981C249.808 16.9649 250.227 18.2585 250.227 19.8619C250.227 21.4653 249.799 22.768 248.943 23.7701C248.086 24.7722 246.948 25.2733 245.526 25.2733C244.105 25.2733 242.83 24.754 241.7 23.7155V24.6447C241.7 24.8269 241.627 24.9727 241.482 25.082C241.336 25.2095 241.163 25.2733 240.962 25.2733C240.762 25.2733 240.589 25.2095 240.443 25.082C240.297 24.9727 240.224 24.8269 240.224 24.6447V5.78676ZM252.648 23.9341V21.7204C252.648 21.5382 252.721 21.3924 252.867 21.2831C253.013 21.1555 253.186 21.0918 253.386 21.0918C253.587 21.0918 253.76 21.1555 253.906 21.2831C254.051 21.3924 254.124 21.5382 254.124 21.7204V23.5788C254.999 23.8703 255.91 24.0161 256.857 24.0161C258.934 24.0161 259.973 23.4331 259.973 22.267C259.973 21.3924 258.998 20.7456 257.049 20.3265C256.957 20.3083 256.757 20.2627 256.447 20.1899C256.138 20.117 255.882 20.0623 255.682 20.0259C255.482 19.9712 255.145 19.8619 254.671 19.6979C254.215 19.5157 253.887 19.3335 253.687 19.1513C253.14 18.6594 252.867 18.0581 252.867 17.3475C252.867 16.6187 253.104 16.0356 253.578 15.5984C254.07 15.1429 254.607 14.8513 255.19 14.7238C255.773 14.578 256.411 14.5051 257.103 14.5051C258.379 14.5051 259.554 14.7511 260.629 15.2431C260.957 15.3888 261.121 15.5892 261.121 15.8443V17.9488C261.121 18.131 261.048 18.2858 260.902 18.4134C260.756 18.5227 260.583 18.5774 260.383 18.5774C260.182 18.5774 260.009 18.5227 259.864 18.4134C259.718 18.2858 259.645 18.131 259.645 17.9488V16.1996C258.916 15.9081 258.069 15.7623 257.103 15.7623C255.245 15.7623 254.316 16.2907 254.316 17.3475C254.316 17.7301 254.434 17.9943 254.671 18.1401C254.926 18.2858 255.108 18.3952 255.217 18.468C255.345 18.5409 255.564 18.6138 255.873 18.6867C256.311 18.796 256.757 18.8962 257.213 18.9873C257.668 19.0784 258.042 19.1604 258.333 19.2333C258.625 19.3062 258.989 19.4337 259.426 19.6159C259.882 19.7799 260.237 19.9712 260.492 20.1899C261.13 20.7 261.449 21.3651 261.449 22.185C261.449 23.0049 261.175 23.6608 260.629 24.1528C260.1 24.6265 259.517 24.9271 258.88 25.0547C258.26 25.2004 257.586 25.2733 256.857 25.2733C255.418 25.2733 254.179 25.0364 253.14 24.5627C252.812 24.417 252.648 24.2074 252.648 23.9341ZM266.726 24.6447C266.726 24.8269 266.654 24.9727 266.508 25.082C266.362 25.2095 266.189 25.2733 265.989 25.2733C265.788 25.2733 265.615 25.2095 265.469 25.082C265.324 24.9727 265.251 24.8269 265.251 24.6447V16.063H263.447C263.265 16.063 263.11 16.0083 262.982 15.899C262.873 15.7715 262.818 15.6166 262.818 15.4344C262.818 15.2522 262.873 15.0973 262.982 14.9698C263.11 14.8422 263.265 14.7784 263.447 14.7784H266.098C266.517 14.7784 266.726 14.988 266.726 15.407V24.6447ZM265.196 10.6789C265.032 10.4967 264.95 10.2781 264.95 10.023C264.95 9.76788 265.032 9.54924 265.196 9.36704C265.36 9.18484 265.588 9.09374 265.879 9.09374C266.171 9.09374 266.399 9.18484 266.563 9.36704C266.745 9.54924 266.836 9.76788 266.836 10.023C266.836 10.2781 266.745 10.4967 266.563 10.6789C266.399 10.8611 266.171 10.9522 265.879 10.9522C265.588 10.9522 265.36 10.8611 265.196 10.6789ZM277.599 23.2509C277.745 23.1598 277.909 23.1324 278.091 23.1689C278.291 23.2053 278.428 23.2873 278.501 23.4148C278.574 23.5242 278.61 23.6244 278.61 23.7155C278.61 23.9888 278.51 24.1892 278.31 24.3167C277.216 24.9544 276.041 25.2733 274.784 25.2733C273.527 25.2733 272.625 25.0182 272.078 24.5081C271.532 23.9797 271.258 23.1142 271.258 21.9117V16.063H269.728C269.546 16.063 269.391 16.0083 269.263 15.899C269.154 15.7715 269.099 15.6166 269.099 15.4344C269.099 15.2522 269.154 15.0973 269.263 14.9698C269.391 14.8422 269.546 14.7784 269.728 14.7784H271.258V10.8702C271.258 10.688 271.331 10.5422 271.477 10.4329C271.623 10.3054 271.796 10.2416 271.996 10.2416C272.197 10.2416 272.37 10.3054 272.516 10.4329C272.661 10.5422 272.734 10.688 272.734 10.8702V14.7784H277.326C277.508 14.7784 277.654 14.8422 277.763 14.9698C277.891 15.0973 277.954 15.2522 277.954 15.4344C277.954 15.6166 277.891 15.7715 277.763 15.899C277.654 16.0083 277.508 16.063 277.326 16.063H272.734V21.9117C272.734 22.6769 272.889 23.2235 273.199 23.5515C273.527 23.8612 274.119 24.0161 274.975 24.0161C275.85 24.0161 276.724 23.761 277.599 23.2509ZM288.365 18.9873C288.31 18.0034 288.018 17.22 287.49 16.6369C286.98 16.0539 286.233 15.7623 285.249 15.7623C284.283 15.7623 283.473 16.063 282.817 16.6642C282.161 17.2473 281.751 18.0217 281.587 18.9873H288.365ZM288.419 22.3763C288.547 22.1576 288.693 22.0483 288.857 22.0483C289.021 22.0483 289.185 22.0939 289.349 22.185C289.513 22.2579 289.622 22.3854 289.677 22.5676C289.749 22.7316 289.74 22.8865 289.649 23.0322C288.72 24.5263 287.244 25.2733 285.222 25.2733C283.618 25.2733 282.352 24.7631 281.423 23.7428C280.512 22.7043 280.056 21.4015 280.056 19.8346C280.056 18.2676 280.53 16.9922 281.477 16.0083C282.425 15.0062 283.673 14.5051 285.222 14.5051C286.77 14.5051 287.918 14.9698 288.665 15.899C289.431 16.8282 289.813 18.0672 289.813 19.6159C289.813 20.035 289.576 20.2445 289.103 20.2445L281.532 20.2718C281.605 21.4015 281.969 22.3125 282.625 23.0049C283.299 23.679 284.165 24.0161 285.222 24.0161C286.643 24.0161 287.709 23.4695 288.419 22.3763ZM300.258 22.3763C301.46 23.4695 302.626 24.0161 303.756 24.0161C304.904 24.0161 305.787 23.6335 306.407 22.8682C307.026 22.103 307.336 21.0918 307.336 19.8346C307.336 18.5774 307.026 17.5844 306.407 16.8556C305.806 16.1267 304.977 15.7623 303.92 15.7623C302.426 15.7623 301.205 16.6096 300.258 18.3041V22.3763ZM298.782 5.78676H296.978C296.796 5.78676 296.65 5.7321 296.541 5.62278C296.413 5.49524 296.349 5.34037 296.349 5.15817C296.349 4.97596 296.413 4.82109 296.541 4.69355C296.65 4.56601 296.796 4.50224 296.978 4.50224H299.52C299.702 4.50224 299.866 4.56601 300.012 4.69355C300.176 4.82109 300.258 4.97596 300.258 5.15817V16.5823C301.187 15.1975 302.426 14.5051 303.975 14.5051C305.523 14.5051 306.708 14.9971 307.527 15.981C308.366 16.9649 308.785 18.2585 308.785 19.8619C308.785 21.4653 308.357 22.768 307.5 23.7701C306.644 24.7722 305.505 25.2733 304.084 25.2733C302.663 25.2733 301.387 24.754 300.258 23.7155V24.6447C300.258 24.8269 300.185 24.9727 300.039 25.082C299.893 25.2095 299.72 25.2733 299.52 25.2733C299.319 25.2733 299.146 25.2095 299 25.082C298.855 24.9727 298.782 24.8269 298.782 24.6447V5.78676ZM309.382 29.9195L310.256 30.0015C311.149 30.0015 311.878 29.6279 312.443 28.8809C312.88 28.3161 313.363 27.4871 313.891 26.3938L314.82 24.4807L310.366 15.4617C310.293 15.2977 310.293 15.1337 310.366 14.9698C310.457 14.8058 310.584 14.6873 310.748 14.6145C310.93 14.5234 311.104 14.4778 311.267 14.4778C311.45 14.4778 311.605 14.6145 311.732 14.8878L315.586 22.9776L319.439 14.8878C319.567 14.6145 319.713 14.4778 319.877 14.4778C320.314 14.4778 320.614 14.6418 320.778 14.9698C320.815 15.0609 320.833 15.152 320.833 15.2431C320.833 15.3159 320.815 15.3888 320.778 15.4617L315.203 26.9405C314.857 27.6693 314.574 28.2068 314.356 28.5529C314.155 28.9174 313.855 29.3546 313.454 29.8648C312.67 30.794 311.595 31.2587 310.229 31.2587C309.846 31.2587 309.555 31.2313 309.354 31.1767C308.954 31.0856 308.78 30.8487 308.835 30.4661C308.89 30.1017 309.072 29.9195 309.382 29.9195Z" fill="black"/>
<path d="M338.468 4.20692H341.924V27H338.468V4.20692ZM345.621 8.62408H348.223L348.53 10.5858V10.5991C348.797 10.181 349.082 9.83401 349.384 9.55822C349.695 9.27353 350.016 9.04667 350.345 8.87763C350.674 8.70859 351.008 8.58849 351.346 8.51732C351.693 8.44614 352.035 8.41056 352.373 8.41056C353.45 8.41056 354.277 8.78866 354.855 9.54487C355.443 10.2922 355.736 11.4176 355.736 12.9211V27H352.36V13.0412C352.36 12.2316 352.235 11.6712 351.986 11.3598C351.737 11.0395 351.372 10.8794 350.892 10.8794C350.554 10.8794 350.216 10.9906 349.878 11.213C349.549 11.4354 349.255 11.7423 348.997 12.1338V27H345.621V8.62408ZM357.711 8.62408H361.074L362.849 18.3925L363.289 22.3026H363.396L363.903 18.3925L365.665 8.62408H368.921L364.731 27H361.848L357.711 8.62408ZM372.698 5.99513C372.075 5.99513 371.581 5.8083 371.216 5.43465C370.86 5.06099 370.682 4.51385 370.682 3.79322C370.682 3.39288 370.727 3.05925 370.816 2.79236C370.914 2.51656 371.047 2.2986 371.216 2.13846C371.394 1.96942 371.608 1.84932 371.857 1.77814C372.106 1.69808 372.391 1.65804 372.711 1.65804C373.378 1.65804 373.885 1.82708 374.232 2.16515C374.579 2.50322 374.753 3.04591 374.753 3.79322C374.753 4.48716 374.575 5.02985 374.219 5.4213C373.872 5.80386 373.365 5.99513 372.698 5.99513ZM370.949 8.62408H374.326V27H370.949V8.62408ZM378.249 11.0262H376.821V8.62408H378.543L379.223 3.85995H381.625V8.62408H384.561V11.0262H381.625V22.7163C381.625 23.1166 381.661 23.4414 381.732 23.6905C381.812 23.9307 381.919 24.122 382.052 24.2643C382.186 24.3977 382.341 24.4867 382.519 24.5312C382.697 24.5757 382.884 24.5979 383.08 24.5979C383.409 24.5979 383.698 24.5579 383.947 24.4778C384.205 24.3977 384.45 24.2865 384.681 24.1442V26.0125C384.486 26.2527 384.272 26.4484 384.041 26.5997C383.818 26.7509 383.587 26.8754 383.347 26.9733C383.107 27.0623 382.862 27.1246 382.613 27.1601C382.364 27.1957 382.119 27.2135 381.879 27.2135C381.407 27.2135 380.954 27.1512 380.518 27.0267C380.082 26.9021 379.695 26.6664 379.357 26.3194C379.019 25.9635 378.747 25.4742 378.543 24.8515C378.347 24.2287 378.249 23.4191 378.249 22.4227V11.0262ZM389.419 27.2002C388.849 27.2002 388.342 27.089 387.897 26.8666C387.461 26.6352 387.092 26.3239 386.79 25.9324C386.487 25.541 386.256 25.0783 386.096 24.5445C385.945 24.0018 385.869 23.4147 385.869 22.783C385.869 22.0268 385.962 21.3551 386.149 20.7679C386.336 20.1808 386.607 19.6514 386.963 19.1799C387.328 18.7084 387.777 18.2813 388.311 17.8988C388.845 17.5073 389.463 17.1381 390.166 16.7912C390.504 16.6221 390.882 16.4531 391.3 16.284C391.727 16.1061 392.105 15.9549 392.435 15.8303V13.4016C392.435 13.0457 392.421 12.7165 392.395 12.414C392.368 12.1026 392.301 11.8357 392.194 11.6133C392.097 11.382 391.945 11.2041 391.741 11.0795C391.536 10.9461 391.256 10.8794 390.9 10.8794C390.66 10.8794 390.424 10.9238 390.193 11.0128C389.97 11.1018 389.77 11.253 389.592 11.4665C389.423 11.6801 389.285 11.9647 389.178 12.3206C389.081 12.6765 389.032 13.1169 389.032 13.6418V14.4425H386.456C386.376 14.0955 386.314 13.7797 386.269 13.495C386.234 13.2014 386.216 12.9122 386.216 12.6275C386.216 11.9425 386.332 11.3375 386.563 10.8126C386.803 10.2877 387.132 9.84736 387.55 9.4915C387.977 9.13563 388.485 8.86873 389.072 8.6908C389.659 8.50397 390.304 8.41056 391.007 8.41056C391.923 8.41056 392.684 8.51287 393.289 8.71749C393.894 8.91322 394.374 9.21125 394.73 9.6116C395.095 10.0119 395.348 10.5146 395.491 11.1196C395.642 11.7245 395.717 12.4318 395.717 13.2414V27H393.209L392.968 25.4253C392.604 25.9502 392.114 26.3772 391.501 26.7064C390.896 27.0356 390.202 27.2002 389.419 27.2002ZM390.913 24.5979C391.198 24.5979 391.474 24.5267 391.741 24.3844C392.017 24.2332 392.248 24.0508 392.435 23.8373V18.0856C392.257 18.1568 392.057 18.2413 391.834 18.3392C391.612 18.437 391.372 18.566 391.114 18.7262C390.873 18.8774 390.638 19.0598 390.406 19.2733C390.175 19.4868 389.966 19.7404 389.779 20.034C389.601 20.3276 389.454 20.6612 389.339 21.0348C389.232 21.3996 389.178 21.8088 389.178 22.2626C389.178 22.9654 389.316 23.5303 389.592 23.9574C389.868 24.3844 390.308 24.5979 390.913 24.5979ZM399.601 11.0262H398.173V8.62408H399.894L400.575 3.85995H402.977V8.62408H405.913V11.0262H402.977V22.7163C402.977 23.1166 403.013 23.4414 403.084 23.6905C403.164 23.9307 403.271 24.122 403.404 24.2643C403.538 24.3977 403.693 24.4867 403.871 24.5312C404.049 24.5757 404.236 24.5979 404.432 24.5979C404.761 24.5979 405.05 24.5579 405.299 24.4778C405.557 24.3977 405.802 24.2865 406.033 24.1442V26.0125C405.837 26.2527 405.624 26.4484 405.393 26.5997C405.17 26.7509 404.939 26.8754 404.699 26.9733C404.458 27.0623 404.214 27.1246 403.965 27.1601C403.716 27.1957 403.471 27.2135 403.231 27.2135C402.759 27.2135 402.305 27.1512 401.869 27.0267C401.434 26.9021 401.047 26.6664 400.708 26.3194C400.37 25.9635 400.099 25.4742 399.894 24.8515C399.699 24.2287 399.601 23.4191 399.601 22.4227V11.0262ZM410.037 5.99513C409.414 5.99513 408.92 5.8083 408.555 5.43465C408.199 5.06099 408.021 4.51385 408.021 3.79322C408.021 3.39288 408.066 3.05925 408.155 2.79236C408.253 2.51656 408.386 2.2986 408.555 2.13846C408.733 1.96942 408.947 1.84932 409.196 1.77814C409.445 1.69808 409.73 1.65804 410.05 1.65804C410.717 1.65804 411.224 1.82708 411.571 2.16515C411.918 2.50322 412.092 3.04591 412.092 3.79322C412.092 4.48716 411.914 5.02985 411.558 5.4213C411.211 5.80386 410.704 5.99513 410.037 5.99513ZM408.288 8.62408H411.665V27H408.288V8.62408ZM419.832 27.2002C419.44 27.2002 419.04 27.169 418.631 27.1068C418.23 27.0445 417.839 26.9155 417.456 26.7198C417.083 26.524 416.727 26.2438 416.389 25.879C416.06 25.5143 415.77 25.0339 415.521 24.4378C415.272 23.8417 415.076 23.1077 414.934 22.2359C414.792 21.364 414.721 20.3231 414.721 19.1132V16.2307C414.721 15.0385 414.792 14.0199 414.934 13.1747C415.085 12.3206 415.286 11.6044 415.535 11.0262C415.793 10.4479 416.091 9.9897 416.429 9.65163C416.767 9.30467 417.123 9.04222 417.496 8.86429C417.879 8.67746 418.27 8.55735 418.671 8.50397C419.071 8.4417 419.463 8.41056 419.845 8.41056C420.21 8.41056 420.588 8.43725 420.979 8.49063C421.371 8.54401 421.753 8.65966 422.127 8.8376C422.501 9.00663 422.852 9.26463 423.181 9.6116C423.519 9.94967 423.813 10.4078 424.062 10.9861C424.32 11.5644 424.52 12.285 424.663 13.148C424.814 14.0021 424.889 15.0296 424.889 16.2307V19.1132C424.889 20.3053 424.814 21.3329 424.663 22.1958C424.511 23.0588 424.307 23.7883 424.049 24.3844C423.791 24.9805 423.493 25.4653 423.155 25.839C422.817 26.2038 422.461 26.4884 422.087 26.6931C421.713 26.8977 421.331 27.0311 420.939 27.0934C420.557 27.1646 420.188 27.2002 419.832 27.2002ZM419.858 24.5979C420.161 24.5979 420.414 24.5223 420.619 24.3711C420.833 24.2109 421.002 23.9529 421.126 23.5971C421.26 23.2412 421.353 22.7741 421.406 22.1958C421.469 21.6087 421.5 20.8836 421.5 20.0206V15.4967C421.5 14.6337 421.469 13.9087 421.406 13.3215C421.353 12.7343 421.26 12.2628 421.126 11.9069C421.002 11.5422 420.833 11.2797 420.619 11.1196C420.414 10.9594 420.161 10.8794 419.858 10.8794C419.538 10.8794 419.267 10.9594 419.044 11.1196C418.831 11.2797 418.653 11.5422 418.511 11.9069C418.368 12.2628 418.266 12.7343 418.204 13.3215C418.141 13.9087 418.11 14.6337 418.11 15.4967V20.0206C418.11 20.8836 418.141 21.6087 418.204 22.1958C418.266 22.7741 418.368 23.2412 418.511 23.5971C418.653 23.9529 418.831 24.2109 419.044 24.3711C419.267 24.5223 419.538 24.5979 419.858 24.5979ZM427.879 8.62408H430.481L430.788 10.5858V10.5991C431.055 10.181 431.339 9.83401 431.642 9.55822C431.953 9.27353 432.274 9.04667 432.603 8.87763C432.932 8.70859 433.266 8.58849 433.604 8.51732C433.951 8.44614 434.293 8.41056 434.631 8.41056C435.708 8.41056 436.535 8.78866 437.113 9.54487C437.701 10.2922 437.994 11.4176 437.994 12.9211V27H434.618V13.0412C434.618 12.2316 434.493 11.6712 434.244 11.3598C433.995 11.0395 433.63 10.8794 433.15 10.8794C432.812 10.8794 432.474 10.9906 432.136 11.213C431.807 11.4354 431.513 11.7423 431.255 12.1338V27H427.879V8.62408ZM441.49 8.62408H444.093L444.4 10.5858V10.5991C444.667 10.181 444.951 9.83401 445.254 9.55822C445.565 9.27353 445.885 9.04667 446.215 8.87763C446.544 8.70859 446.877 8.58849 447.215 8.51732C447.562 8.44614 447.905 8.41056 448.243 8.41056C449.319 8.41056 450.147 8.78866 450.725 9.54487C451.312 10.2922 451.606 11.4176 451.606 12.9211V27H448.23V13.0412C448.23 12.2316 448.105 11.6712 447.856 11.3598C447.607 11.0395 447.242 10.8794 446.762 10.8794C446.424 10.8794 446.086 10.9906 445.748 11.213C445.418 11.4354 445.125 11.7423 444.867 12.1338V27H441.49V8.62408ZM457.638 27.2002C457.068 27.2002 456.561 27.089 456.116 26.8666C455.681 26.6352 455.311 26.3239 455.009 25.9324C454.706 25.541 454.475 25.0783 454.315 24.5445C454.164 24.0018 454.088 23.4147 454.088 22.783C454.088 22.0268 454.181 21.3551 454.368 20.7679C454.555 20.1808 454.826 19.6514 455.182 19.1799C455.547 18.7084 455.996 18.2813 456.53 17.8988C457.064 17.5073 457.682 17.1381 458.385 16.7912C458.723 16.6221 459.101 16.4531 459.519 16.284C459.946 16.1061 460.325 15.9549 460.654 15.8303V13.4016C460.654 13.0457 460.64 12.7165 460.614 12.414C460.587 12.1026 460.52 11.8357 460.414 11.6133C460.316 11.382 460.164 11.2041 459.96 11.0795C459.755 10.9461 459.475 10.8794 459.119 10.8794C458.879 10.8794 458.643 10.9238 458.412 11.0128C458.189 11.1018 457.989 11.253 457.811 11.4665C457.642 11.6801 457.504 11.9647 457.398 12.3206C457.3 12.6765 457.251 13.1169 457.251 13.6418V14.4425H454.675C454.595 14.0955 454.533 13.7797 454.488 13.495C454.453 13.2014 454.435 12.9122 454.435 12.6275C454.435 11.9425 454.551 11.3375 454.782 10.8126C455.022 10.2877 455.351 9.84736 455.77 9.4915C456.197 9.13563 456.704 8.86873 457.291 8.6908C457.878 8.50397 458.523 8.41056 459.226 8.41056C460.142 8.41056 460.903 8.51287 461.508 8.71749C462.113 8.91322 462.593 9.21125 462.949 9.6116C463.314 10.0119 463.567 10.5146 463.71 11.1196C463.861 11.7245 463.937 12.4318 463.937 13.2414V27H461.428L461.188 25.4253C460.823 25.9502 460.333 26.3772 459.72 26.7064C459.115 27.0356 458.421 27.2002 457.638 27.2002ZM459.132 24.5979C459.417 24.5979 459.693 24.5267 459.96 24.3844C460.236 24.2332 460.467 24.0508 460.654 23.8373V18.0856C460.476 18.1568 460.276 18.2413 460.053 18.3392C459.831 18.437 459.591 18.566 459.333 18.7262C459.092 18.8774 458.857 19.0598 458.625 19.2733C458.394 19.4868 458.185 19.7404 457.998 20.034C457.82 20.3276 457.673 20.6612 457.558 21.0348C457.451 21.3996 457.398 21.8088 457.398 22.2626C457.398 22.9654 457.536 23.5303 457.811 23.9574C458.087 24.3844 458.527 24.5979 459.132 24.5979ZM467.82 11.0262H466.392V8.62408H468.114L468.794 3.85995H471.196V8.62408H474.132V11.0262H471.196V22.7163C471.196 23.1166 471.232 23.4414 471.303 23.6905C471.383 23.9307 471.49 24.122 471.623 24.2643C471.757 24.3977 471.912 24.4867 472.09 24.5312C472.268 24.5757 472.455 24.5979 472.651 24.5979C472.98 24.5979 473.269 24.5579 473.518 24.4778C473.776 24.3977 474.021 24.2865 474.252 24.1442V26.0125C474.056 26.2527 473.843 26.4484 473.612 26.5997C473.389 26.7509 473.158 26.8754 472.918 26.9733C472.678 27.0623 472.433 27.1246 472.184 27.1601C471.935 27.1957 471.69 27.2135 471.45 27.2135C470.978 27.2135 470.525 27.1512 470.089 27.0267C469.653 26.9021 469.266 26.6664 468.928 26.3194C468.59 25.9635 468.318 25.4742 468.114 24.8515C467.918 24.2287 467.82 23.4191 467.82 22.4227V11.0262ZM478.256 5.99513C477.633 5.99513 477.139 5.8083 476.774 5.43465C476.419 5.06099 476.241 4.51385 476.241 3.79322C476.241 3.39288 476.285 3.05925 476.374 2.79236C476.472 2.51656 476.605 2.2986 476.774 2.13846C476.952 1.96942 477.166 1.84932 477.415 1.77814C477.664 1.69808 477.949 1.65804 478.269 1.65804C478.936 1.65804 479.443 1.82708 479.79 2.16515C480.137 2.50322 480.311 3.04591 480.311 3.79322C480.311 4.48716 480.133 5.02985 479.777 5.4213C479.43 5.80386 478.923 5.99513 478.256 5.99513ZM476.508 8.62408H479.884V27H476.508V8.62408ZM488.051 27.2002C487.659 27.2002 487.259 27.169 486.85 27.1068C486.449 27.0445 486.058 26.9155 485.675 26.7198C485.302 26.524 484.946 26.2438 484.608 25.879C484.279 25.5143 483.99 25.0339 483.74 24.4378C483.491 23.8417 483.296 23.1077 483.153 22.2359C483.011 21.364 482.94 20.3231 482.94 19.1132V16.2307C482.94 15.0385 483.011 14.0199 483.153 13.1747C483.304 12.3206 483.505 11.6044 483.754 11.0262C484.012 10.4479 484.31 9.9897 484.648 9.65163C484.986 9.30467 485.342 9.04222 485.715 8.86429C486.098 8.67746 486.489 8.55735 486.89 8.50397C487.29 8.4417 487.682 8.41056 488.064 8.41056C488.429 8.41056 488.807 8.43725 489.198 8.49063C489.59 8.54401 489.972 8.65966 490.346 8.8376C490.72 9.00663 491.071 9.26463 491.4 9.6116C491.738 9.94967 492.032 10.4078 492.281 10.9861C492.539 11.5644 492.739 12.285 492.882 13.148C493.033 14.0021 493.109 15.0296 493.109 16.2307V19.1132C493.109 20.3053 493.033 21.3329 492.882 22.1958C492.73 23.0588 492.526 23.7883 492.268 24.3844C492.01 24.9805 491.712 25.4653 491.374 25.839C491.036 26.2038 490.68 26.4884 490.306 26.6931C489.932 26.8977 489.55 27.0311 489.158 27.0934C488.776 27.1646 488.407 27.2002 488.051 27.2002ZM488.078 24.5979C488.38 24.5979 488.634 24.5223 488.838 24.3711C489.052 24.2109 489.221 23.9529 489.345 23.5971C489.479 23.2412 489.572 22.7741 489.626 22.1958C489.688 21.6087 489.719 20.8836 489.719 20.0206V15.4967C489.719 14.6337 489.688 13.9087 489.626 13.3215C489.572 12.7343 489.479 12.2628 489.345 11.9069C489.221 11.5422 489.052 11.2797 488.838 11.1196C488.634 10.9594 488.38 10.8794 488.078 10.8794C487.757 10.8794 487.486 10.9594 487.263 11.1196C487.05 11.2797 486.872 11.5422 486.73 11.9069C486.587 12.2628 486.485 12.7343 486.423 13.3215C486.36 13.9087 486.329 14.6337 486.329 15.4967V20.0206C486.329 20.8836 486.36 21.6087 486.423 22.1958C486.485 22.7741 486.587 23.2412 486.73 23.5971C486.872 23.9529 487.05 24.2109 487.263 24.3711C487.486 24.5223 487.757 24.5979 488.078 24.5979ZM496.098 8.62408H498.7L499.007 10.5858V10.5991C499.274 10.181 499.559 9.83401 499.861 9.55822C500.172 9.27353 500.493 9.04667 500.822 8.87763C501.151 8.70859 501.485 8.58849 501.823 8.51732C502.17 8.44614 502.512 8.41056 502.85 8.41056C503.927 8.41056 504.754 8.78866 505.332 9.54487C505.92 10.2922 506.213 11.4176 506.213 12.9211V27H502.837V13.0412C502.837 12.2316 502.712 11.6712 502.463 11.3598C502.214 11.0395 501.849 10.8794 501.369 10.8794C501.031 10.8794 500.693 10.9906 500.355 11.213C500.026 11.4354 499.732 11.7423 499.474 12.1338V27H496.098V8.62408ZM509.189 24.6113C509.189 23.6682 509.376 22.9921 509.75 22.5828C510.123 22.1736 510.63 21.969 511.271 21.969C511.938 21.969 512.454 22.1869 512.819 22.6229C513.184 23.0588 513.366 23.7216 513.366 24.6113C513.366 25.4298 513.179 26.0659 512.806 26.5196C512.441 26.9644 511.925 27.1868 511.258 27.1868C510.626 27.1868 510.123 26.9689 509.75 26.5329C509.376 26.097 509.189 25.4564 509.189 24.6113ZM518.21 5.99513C517.588 5.99513 517.094 5.8083 516.729 5.43465C516.373 5.06099 516.195 4.51385 516.195 3.79322C516.195 3.39288 516.24 3.05925 516.329 2.79236C516.427 2.51656 516.56 2.2986 516.729 2.13846C516.907 1.96942 517.12 1.84932 517.37 1.77814C517.619 1.69808 517.903 1.65804 518.224 1.65804C518.891 1.65804 519.398 1.82708 519.745 2.16515C520.092 2.50322 520.265 3.04591 520.265 3.79322C520.265 4.48716 520.087 5.02985 519.732 5.4213C519.385 5.80386 518.878 5.99513 518.21 5.99513ZM516.462 8.62408H519.838V27H516.462V8.62408ZM523.375 8.62408H525.977L526.284 10.5858V10.5991C526.551 10.181 526.836 9.83401 527.138 9.55822C527.449 9.27353 527.77 9.04667 528.099 8.87763C528.428 8.70859 528.762 8.58849 529.1 8.51732C529.447 8.44614 529.789 8.41056 530.127 8.41056C531.204 8.41056 532.031 8.78866 532.609 9.54487C533.197 10.2922 533.49 11.4176 533.49 12.9211V27H530.114V13.0412C530.114 12.2316 529.989 11.6712 529.74 11.3598C529.491 11.0395 529.126 10.8794 528.646 10.8794C528.308 10.8794 527.97 10.9906 527.632 11.213C527.303 11.4354 527.009 11.7423 526.751 12.1338V27H523.375V8.62408Z" fill="#A60035"/>
<path d="M338.468 4.20692H341.924V27H338.468V4.20692ZM345.621 8.62408H348.223L348.53 10.5858V10.5991C348.797 10.181 349.082 9.83401 349.384 9.55822C349.695 9.27353 350.016 9.04667 350.345 8.87763C350.674 8.70859 351.008 8.58849 351.346 8.51732C351.693 8.44614 352.035 8.41056 352.373 8.41056C353.45 8.41056 354.277 8.78866 354.855 9.54487C355.443 10.2922 355.736 11.4176 355.736 12.9211V27H352.36V13.0412C352.36 12.2316 352.235 11.6712 351.986 11.3598C351.737 11.0395 351.372 10.8794 350.892 10.8794C350.554 10.8794 350.216 10.9906 349.878 11.213C349.549 11.4354 349.255 11.7423 348.997 12.1338V27H345.621V8.62408ZM357.711 8.62408H361.074L362.849 18.3925L363.289 22.3026H363.396L363.903 18.3925L365.665 8.62408H368.921L364.731 27H361.848L357.711 8.62408ZM372.698 5.99513C372.075 5.99513 371.581 5.8083 371.216 5.43465C370.86 5.06099 370.682 4.51385 370.682 3.79322C370.682 3.39288 370.727 3.05925 370.816 2.79236C370.914 2.51656 371.047 2.2986 371.216 2.13846C371.394 1.96942 371.608 1.84932 371.857 1.77814C372.106 1.69808 372.391 1.65804 372.711 1.65804C373.378 1.65804 373.885 1.82708 374.232 2.16515C374.579 2.50322 374.753 3.04591 374.753 3.79322C374.753 4.48716 374.575 5.02985 374.219 5.4213C373.872 5.80386 373.365 5.99513 372.698 5.99513ZM370.949 8.62408H374.326V27H370.949V8.62408ZM378.249 11.0262H376.821V8.62408H378.543L379.223 3.85995H381.625V8.62408H384.561V11.0262H381.625V22.7163C381.625 23.1166 381.661 23.4414 381.732 23.6905C381.812 23.9307 381.919 24.122 382.052 24.2643C382.186 24.3977 382.341 24.4867 382.519 24.5312C382.697 24.5757 382.884 24.5979 383.08 24.5979C383.409 24.5979 383.698 24.5579 383.947 24.4778C384.205 24.3977 384.45 24.2865 384.681 24.1442V26.0125C384.486 26.2527 384.272 26.4484 384.041 26.5997C383.818 26.7509 383.587 26.8754 383.347 26.9733C383.107 27.0623 382.862 27.1246 382.613 27.1601C382.364 27.1957 382.119 27.2135 381.879 27.2135C381.407 27.2135 380.954 27.1512 380.518 27.0267C380.082 26.9021 379.695 26.6664 379.357 26.3194C379.019 25.9635 378.747 25.4742 378.543 24.8515C378.347 24.2287 378.249 23.4191 378.249 22.4227V11.0262ZM389.419 27.2002C388.849 27.2002 388.342 27.089 387.897 26.8666C387.461 26.6352 387.092 26.3239 386.79 25.9324C386.487 25.541 386.256 25.0783 386.096 24.5445C385.945 24.0018 385.869 23.4147 385.869 22.783C385.869 22.0268 385.962 21.3551 386.149 20.7679C386.336 20.1808 386.607 19.6514 386.963 19.1799C387.328 18.7084 387.777 18.2813 388.311 17.8988C388.845 17.5073 389.463 17.1381 390.166 16.7912C390.504 16.6221 390.882 16.4531 391.3 16.284C391.727 16.1061 392.105 15.9549 392.435 15.8303V13.4016C392.435 13.0457 392.421 12.7165 392.395 12.414C392.368 12.1026 392.301 11.8357 392.194 11.6133C392.097 11.382 391.945 11.2041 391.741 11.0795C391.536 10.9461 391.256 10.8794 390.9 10.8794C390.66 10.8794 390.424 10.9238 390.193 11.0128C389.97 11.1018 389.77 11.253 389.592 11.4665C389.423 11.6801 389.285 11.9647 389.178 12.3206C389.081 12.6765 389.032 13.1169 389.032 13.6418V14.4425H386.456C386.376 14.0955 386.314 13.7797 386.269 13.495C386.234 13.2014 386.216 12.9122 386.216 12.6275C386.216 11.9425 386.332 11.3375 386.563 10.8126C386.803 10.2877 387.132 9.84736 387.55 9.4915C387.977 9.13563 388.485 8.86873 389.072 8.6908C389.659 8.50397 390.304 8.41056 391.007 8.41056C391.923 8.41056 392.684 8.51287 393.289 8.71749C393.894 8.91322 394.374 9.21125 394.73 9.6116C395.095 10.0119 395.348 10.5146 395.491 11.1196C395.642 11.7245 395.717 12.4318 395.717 13.2414V27H393.209L392.968 25.4253C392.604 25.9502 392.114 26.3772 391.501 26.7064C390.896 27.0356 390.202 27.2002 389.419 27.2002ZM390.913 24.5979C391.198 24.5979 391.474 24.5267 391.741 24.3844C392.017 24.2332 392.248 24.0508 392.435 23.8373V18.0856C392.257 18.1568 392.057 18.2413 391.834 18.3392C391.612 18.437 391.372 18.566 391.114 18.7262C390.873 18.8774 390.638 19.0598 390.406 19.2733C390.175 19.4868 389.966 19.7404 389.779 20.034C389.601 20.3276 389.454 20.6612 389.339 21.0348C389.232 21.3996 389.178 21.8088 389.178 22.2626C389.178 22.9654 389.316 23.5303 389.592 23.9574C389.868 24.3844 390.308 24.5979 390.913 24.5979ZM399.601 11.0262H398.173V8.62408H399.894L400.575 3.85995H402.977V8.62408H405.913V11.0262H402.977V22.7163C402.977 23.1166 403.013 23.4414 403.084 23.6905C403.164 23.9307 403.271 24.122 403.404 24.2643C403.538 24.3977 403.693 24.4867 403.871 24.5312C404.049 24.5757 404.236 24.5979 404.432 24.5979C404.761 24.5979 405.05 24.5579 405.299 24.4778C405.557 24.3977 405.802 24.2865 406.033 24.1442V26.0125C405.837 26.2527 405.624 26.4484 405.393 26.5997C405.17 26.7509 404.939 26.8754 404.699 26.9733C404.458 27.0623 404.214 27.1246 403.965 27.1601C403.716 27.1957 403.471 27.2135 403.231 27.2135C402.759 27.2135 402.305 27.1512 401.869 27.0267C401.434 26.9021 401.047 26.6664 400.708 26.3194C400.37 25.9635 400.099 25.4742 399.894 24.8515C399.699 24.2287 399.601 23.4191 399.601 22.4227V11.0262ZM410.037 5.99513C409.414 5.99513 408.92 5.8083 408.555 5.43465C408.199 5.06099 408.021 4.51385 408.021 3.79322C408.021 3.39288 408.066 3.05925 408.155 2.79236C408.253 2.51656 408.386 2.2986 408.555 2.13846C408.733 1.96942 408.947 1.84932 409.196 1.77814C409.445 1.69808 409.73 1.65804 410.05 1.65804C410.717 1.65804 411.224 1.82708 411.571 2.16515C411.918 2.50322 412.092 3.04591 412.092 3.79322C412.092 4.48716 411.914 5.02985 411.558 5.4213C411.211 5.80386 410.704 5.99513 410.037 5.99513ZM408.288 8.62408H411.665V27H408.288V8.62408ZM419.832 27.2002C419.44 27.2002 419.04 27.169 418.631 27.1068C418.23 27.0445 417.839 26.9155 417.456 26.7198C417.083 26.524 416.727 26.2438 416.389 25.879C416.06 25.5143 415.77 25.0339 415.521 24.4378C415.272 23.8417 415.076 23.1077 414.934 22.2359C414.792 21.364 414.721 20.3231 414.721 19.1132V16.2307C414.721 15.0385 414.792 14.0199 414.934 13.1747C415.085 12.3206 415.286 11.6044 415.535 11.0262C415.793 10.4479 416.091 9.9897 416.429 9.65163C416.767 9.30467 417.123 9.04222 417.496 8.86429C417.879 8.67746 418.27 8.55735 418.671 8.50397C419.071 8.4417 419.463 8.41056 419.845 8.41056C420.21 8.41056 420.588 8.43725 420.979 8.49063C421.371 8.54401 421.753 8.65966 422.127 8.8376C422.501 9.00663 422.852 9.26463 423.181 9.6116C423.519 9.94967 423.813 10.4078 424.062 10.9861C424.32 11.5644 424.52 12.285 424.663 13.148C424.814 14.0021 424.889 15.0296 424.889 16.2307V19.1132C424.889 20.3053 424.814 21.3329 424.663 22.1958C424.511 23.0588 424.307 23.7883 424.049 24.3844C423.791 24.9805 423.493 25.4653 423.155 25.839C422.817 26.2038 422.461 26.4884 422.087 26.6931C421.713 26.8977 421.331 27.0311 420.939 27.0934C420.557 27.1646 420.188 27.2002 419.832 27.2002ZM419.858 24.5979C420.161 24.5979 420.414 24.5223 420.619 24.3711C420.833 24.2109 421.002 23.9529 421.126 23.5971C421.26 23.2412 421.353 22.7741 421.406 22.1958C421.469 21.6087 421.5 20.8836 421.5 20.0206V15.4967C421.5 14.6337 421.469 13.9087 421.406 13.3215C421.353 12.7343 421.26 12.2628 421.126 11.9069C421.002 11.5422 420.833 11.2797 420.619 11.1196C420.414 10.9594 420.161 10.8794 419.858 10.8794C419.538 10.8794 419.267 10.9594 419.044 11.1196C418.831 11.2797 418.653 11.5422 418.511 11.9069C418.368 12.2628 418.266 12.7343 418.204 13.3215C418.141 13.9087 418.11 14.6337 418.11 15.4967V20.0206C418.11 20.8836 418.141 21.6087 418.204 22.1958C418.266 22.7741 418.368 23.2412 418.511 23.5971C418.653 23.9529 418.831 24.2109 419.044 24.3711C419.267 24.5223 419.538 24.5979 419.858 24.5979ZM427.879 8.62408H430.481L430.788 10.5858V10.5991C431.055 10.181 431.339 9.83401 431.642 9.55822C431.953 9.27353 432.274 9.04667 432.603 8.87763C432.932 8.70859 433.266 8.58849 433.604 8.51732C433.951 8.44614 434.293 8.41056 434.631 8.41056C435.708 8.41056 436.535 8.78866 437.113 9.54487C437.701 10.2922 437.994 11.4176 437.994 12.9211V27H434.618V13.0412C434.618 12.2316 434.493 11.6712 434.244 11.3598C433.995 11.0395 433.63 10.8794 433.15 10.8794C432.812 10.8794 432.474 10.9906 432.136 11.213C431.807 11.4354 431.513 11.7423 431.255 12.1338V27H427.879V8.62408ZM441.49 8.62408H444.093L444.4 10.5858V10.5991C444.667 10.181 444.951 9.83401 445.254 9.55822C445.565 9.27353 445.885 9.04667 446.215 8.87763C446.544 8.70859 446.877 8.58849 447.215 8.51732C447.562 8.44614 447.905 8.41056 448.243 8.41056C449.319 8.41056 450.147 8.78866 450.725 9.54487C451.312 10.2922 451.606 11.4176 451.606 12.9211V27H448.23V13.0412C448.23 12.2316 448.105 11.6712 447.856 11.3598C447.607 11.0395 447.242 10.8794 446.762 10.8794C446.424 10.8794 446.086 10.9906 445.748 11.213C445.418 11.4354 445.125 11.7423 444.867 12.1338V27H441.49V8.62408ZM457.638 27.2002C457.068 27.2002 456.561 27.089 456.116 26.8666C455.681 26.6352 455.311 26.3239 455.009 25.9324C454.706 25.541 454.475 25.0783 454.315 24.5445C454.164 24.0018 454.088 23.4147 454.088 22.783C454.088 22.0268 454.181 21.3551 454.368 20.7679C454.555 20.1808 454.826 19.6514 455.182 19.1799C455.547 18.7084 455.996 18.2813 456.53 17.8988C457.064 17.5073 457.682 17.1381 458.385 16.7912C458.723 16.6221 459.101 16.4531 459.519 16.284C459.946 16.1061 460.325 15.9549 460.654 15.8303V13.4016C460.654 13.0457 460.64 12.7165 460.614 12.414C460.587 12.1026 460.52 11.8357 460.414 11.6133C460.316 11.382 460.164 11.2041 459.96 11.0795C459.755 10.9461 459.475 10.8794 459.119 10.8794C458.879 10.8794 458.643 10.9238 458.412 11.0128C458.189 11.1018 457.989 11.253 457.811 11.4665C457.642 11.6801 457.504 11.9647 457.398 12.3206C457.3 12.6765 457.251 13.1169 457.251 13.6418V14.4425H454.675C454.595 14.0955 454.533 13.7797 454.488 13.495C454.453 13.2014 454.435 12.9122 454.435 12.6275C454.435 11.9425 454.551 11.3375 454.782 10.8126C455.022 10.2877 455.351 9.84736 455.77 9.4915C456.197 9.13563 456.704 8.86873 457.291 8.6908C457.878 8.50397 458.523 8.41056 459.226 8.41056C460.142 8.41056 460.903 8.51287 461.508 8.71749C462.113 8.91322 462.593 9.21125 462.949 9.6116C463.314 10.0119 463.567 10.5146 463.71 11.1196C463.861 11.7245 463.937 12.4318 463.937 13.2414V27H461.428L461.188 25.4253C460.823 25.9502 460.333 26.3772 459.72 26.7064C459.115 27.0356 458.421 27.2002 457.638 27.2002ZM459.132 24.5979C459.417 24.5979 459.693 24.5267 459.96 24.3844C460.236 24.2332 460.467 24.0508 460.654 23.8373V18.0856C460.476 18.1568 460.276 18.2413 460.053 18.3392C459.831 18.437 459.591 18.566 459.333 18.7262C459.092 18.8774 458.857 19.0598 458.625 19.2733C458.394 19.4868 458.185 19.7404 457.998 20.034C457.82 20.3276 457.673 20.6612 457.558 21.0348C457.451 21.3996 457.398 21.8088 457.398 22.2626C457.398 22.9654 457.536 23.5303 457.811 23.9574C458.087 24.3844 458.527 24.5979 459.132 24.5979ZM467.82 11.0262H466.392V8.62408H468.114L468.794 3.85995H471.196V8.62408H474.132V11.0262H471.196V22.7163C471.196 23.1166 471.232 23.4414 471.303 23.6905C471.383 23.9307 471.49 24.122 471.623 24.2643C471.757 24.3977 471.912 24.4867 472.09 24.5312C472.268 24.5757 472.455 24.5979 472.651 24.5979C472.98 24.5979 473.269 24.5579 473.518 24.4778C473.776 24.3977 474.021 24.2865 474.252 24.1442V26.0125C474.056 26.2527 473.843 26.4484 473.612 26.5997C473.389 26.7509 473.158 26.8754 472.918 26.9733C472.678 27.0623 472.433 27.1246 472.184 27.1601C471.935 27.1957 471.69 27.2135 471.45 27.2135C470.978 27.2135 470.525 27.1512 470.089 27.0267C469.653 26.9021 469.266 26.6664 468.928 26.3194C468.59 25.9635 468.318 25.4742 468.114 24.8515C467.918 24.2287 467.82 23.4191 467.82 22.4227V11.0262ZM478.256 5.99513C477.633 5.99513 477.139 5.8083 476.774 5.43465C476.419 5.06099 476.241 4.51385 476.241 3.79322C476.241 3.39288 476.285 3.05925 476.374 2.79236C476.472 2.51656 476.605 2.2986 476.774 2.13846C476.952 1.96942 477.166 1.84932 477.415 1.77814C477.664 1.69808 477.949 1.65804 478.269 1.65804C478.936 1.65804 479.443 1.82708 479.79 2.16515C480.137 2.50322 480.311 3.04591 480.311 3.79322C480.311 4.48716 480.133 5.02985 479.777 5.4213C479.43 5.80386 478.923 5.99513 478.256 5.99513ZM476.508 8.62408H479.884V27H476.508V8.62408ZM488.051 27.2002C487.659 27.2002 487.259 27.169 486.85 27.1068C486.449 27.0445 486.058 26.9155 485.675 26.7198C485.302 26.524 484.946 26.2438 484.608 25.879C484.279 25.5143 483.99 25.0339 483.74 24.4378C483.491 23.8417 483.296 23.1077 483.153 22.2359C483.011 21.364 482.94 20.3231 482.94 19.1132V16.2307C482.94 15.0385 483.011 14.0199 483.153 13.1747C483.304 12.3206 483.505 11.6044 483.754 11.0262C484.012 10.4479 484.31 9.9897 484.648 9.65163C484.986 9.30467 485.342 9.04222 485.715 8.86429C486.098 8.67746 486.489 8.55735 486.89 8.50397C487.29 8.4417 487.682 8.41056 488.064 8.41056C488.429 8.41056 488.807 8.43725 489.198 8.49063C489.59 8.54401 489.972 8.65966 490.346 8.8376C490.72 9.00663 491.071 9.26463 491.4 9.6116C491.738 9.94967 492.032 10.4078 492.281 10.9861C492.539 11.5644 492.739 12.285 492.882 13.148C493.033 14.0021 493.109 15.0296 493.109 16.2307V19.1132C493.109 20.3053 493.033 21.3329 492.882 22.1958C492.73 23.0588 492.526 23.7883 492.268 24.3844C492.01 24.9805 491.712 25.4653 491.374 25.839C491.036 26.2038 490.68 26.4884 490.306 26.6931C489.932 26.8977 489.55 27.0311 489.158 27.0934C488.776 27.1646 488.407 27.2002 488.051 27.2002ZM488.078 24.5979C488.38 24.5979 488.634 24.5223 488.838 24.3711C489.052 24.2109 489.221 23.9529 489.345 23.5971C489.479 23.2412 489.572 22.7741 489.626 22.1958C489.688 21.6087 489.719 20.8836 489.719 20.0206V15.4967C489.719 14.6337 489.688 13.9087 489.626 13.3215C489.572 12.7343 489.479 12.2628 489.345 11.9069C489.221 11.5422 489.052 11.2797 488.838 11.1196C488.634 10.9594 488.38 10.8794 488.078 10.8794C487.757 10.8794 487.486 10.9594 487.263 11.1196C487.05 11.2797 486.872 11.5422 486.73 11.9069C486.587 12.2628 486.485 12.7343 486.423 13.3215C486.36 13.9087 486.329 14.6337 486.329 15.4967V20.0206C486.329 20.8836 486.36 21.6087 486.423 22.1958C486.485 22.7741 486.587 23.2412 486.73 23.5971C486.872 23.9529 487.05 24.2109 487.263 24.3711C487.486 24.5223 487.757 24.5979 488.078 24.5979ZM496.098 8.62408H498.7L499.007 10.5858V10.5991C499.274 10.181 499.559 9.83401 499.861 9.55822C500.172 9.27353 500.493 9.04667 500.822 8.87763C501.151 8.70859 501.485 8.58849 501.823 8.51732C502.17 8.44614 502.512 8.41056 502.85 8.41056C503.927 8.41056 504.754 8.78866 505.332 9.54487C505.92 10.2922 506.213 11.4176 506.213 12.9211V27H502.837V13.0412C502.837 12.2316 502.712 11.6712 502.463 11.3598C502.214 11.0395 501.849 10.8794 501.369 10.8794C501.031 10.8794 500.693 10.9906 500.355 11.213C500.026 11.4354 499.732 11.7423 499.474 12.1338V27H496.098V8.62408ZM509.189 24.6113C509.189 23.6682 509.376 22.9921 509.75 22.5828C510.123 22.1736 510.63 21.969 511.271 21.969C511.938 21.969 512.454 22.1869 512.819 22.6229C513.184 23.0588 513.366 23.7216 513.366 24.6113C513.366 25.4298 513.179 26.0659 512.806 26.5196C512.441 26.9644 511.925 27.1868 511.258 27.1868C510.626 27.1868 510.123 26.9689 509.75 26.5329C509.376 26.097 509.189 25.4564 509.189 24.6113ZM518.21 5.99513C517.588 5.99513 517.094 5.8083 516.729 5.43465C516.373 5.06099 516.195 4.51385 516.195 3.79322C516.195 3.39288 516.24 3.05925 516.329 2.79236C516.427 2.51656 516.56 2.2986 516.729 2.13846C516.907 1.96942 517.12 1.84932 517.37 1.77814C517.619 1.69808 517.903 1.65804 518.224 1.65804C518.891 1.65804 519.398 1.82708 519.745 2.16515C520.092 2.50322 520.265 3.04591 520.265 3.79322C520.265 4.48716 520.087 5.02985 519.732 5.4213C519.385 5.80386 518.878 5.99513 518.21 5.99513ZM516.462 8.62408H519.838V27H516.462V8.62408ZM523.375 8.62408H525.977L526.284 10.5858V10.5991C526.551 10.181 526.836 9.83401 527.138 9.55822C527.449 9.27353 527.77 9.04667 528.099 8.87763C528.428 8.70859 528.762 8.58849 529.1 8.51732C529.447 8.44614 529.789 8.41056 530.127 8.41056C531.204 8.41056 532.031 8.78866 532.609 9.54487C533.197 10.2922 533.49 11.4176 533.49 12.9211V27H530.114V13.0412C530.114 12.2316 529.989 11.6712 529.74 11.3598C529.491 11.0395 529.126 10.8794 528.646 10.8794C528.308 10.8794 527.97 10.9906 527.632 11.213C527.303 11.4354 527.009 11.7423 526.751 12.1338V27H523.375V8.62408Z" fill="black" fill-opacity="0.2"/>
</svg>
