<svg width="128" height="349" viewBox="0 0 128 349" fill="none" xmlns="http://www.w3.org/2000/svg">
<path d="M-15.9599 193.946C-17.1086 184.905 -16.0163 176.04 -15.1318 168.86L-15.013 167.902L-13.3575 168.079L-13.475 169.038C-14.8398 180.119 -16.7106 195.297 -9.84114 208.608C-5.39765 217.211 -0.822922 224.864 2.8519 231.014C5.16251 234.876 7.15707 238.214 8.66993 241.018C12.7069 248.504 17.4725 264.818 17.3384 273.841C17.2065 282.625 16.3219 289.216 16.3136 289.282L14.6591 289.084C14.6687 289.019 15.54 282.515 15.6707 273.83C15.7996 265.268 11.1138 249.049 7.18963 241.772C5.69358 238.998 3.70744 235.676 1.40701 231.829C-2.28022 225.661 -6.86866 217.985 -11.3334 209.336C-13.9138 204.34 -15.3039 199.113 -15.9599 193.946Z" fill="#3A593B"/>
<path d="M40.9822 282.31C29.482 274.392 27.2985 270.345 23.939 264.066C21.2925 259.129 11.8139 250.72 11.8139 250.72L11.314 249.331L11.0297 248.517L10.751 247.749C10.751 247.749 11.6253 247.705 13.0722 247.688C18.6002 247.615 32.4003 247.969 36.1101 252.929C40.7857 259.175 43.5415 264.68 48.4786 272.982C53.417 281.296 60.0707 285.19 60.0707 285.19C60.0707 285.19 59.7565 285.365 59.179 285.606L59.1661 285.607C56.7766 286.557 49.8012 288.379 40.9822 282.31Z" fill="#8DA68E"/>
<path d="M40.982 282.309C29.4817 274.391 27.2983 270.344 23.9388 264.066C21.2922 259.128 11.8137 250.719 11.8137 250.719L11.3137 249.33L11.0295 248.516C17.7267 250.205 26.0537 255.151 28.9583 259.274C32.2555 263.941 40.0955 274.009 40.0955 274.009C40.0955 274.009 50.0139 284.05 59.1658 285.606C56.7764 286.556 49.801 288.378 40.982 282.309Z" fill="#718C73"/>
<path d="M39.477 259.655C40.4265 261.993 44.7595 270.225 46.211 271.767C47.6621 273.308 47.6621 273.308 47.6621 273.308L45.2078 271.992C45.2078 271.992 48.8518 276.312 51.5742 279.122C54.2956 281.932 55.248 282.693 55.248 282.693L48.2702 278.308L51.5327 280.852C51.5327 280.852 47.035 279.376 44.6552 277.041C42.274 274.704 41.4781 273.154 41.4781 273.154L45.5296 276.732L40.7134 271.18L43.1639 272.94C43.1639 272.94 37.1501 266.949 35.4196 264.112C33.6891 261.275 33.6891 261.275 33.6891 261.275L42.175 270.552C42.175 270.552 34.7012 260.704 31.3088 258.718C27.9177 256.731 26.9933 256.719 26.9933 256.719C26.9933 256.719 30.1117 254.679 35.6366 260.88C41.1624 267.083 41.1624 267.083 41.1624 267.083C41.1624 267.083 37.4712 257.346 35.5394 255.618C35.5394 255.618 38.257 256.651 39.477 259.655Z" fill="#A2BFA3"/>
<path d="M41.8927 275.772L44.4828 280.171L42.7849 279.401L45.1659 282.402L42.1347 281.011L45.0252 283.992C45.0252 283.992 37.8499 279.64 34.9025 276.657C31.955 273.673 30.4225 271.501 30.4225 271.501L33.6765 274.195C33.6765 274.195 33.6751 272.962 30.019 269.285C26.3624 265.608 26.3624 265.608 26.3624 265.608C26.3624 265.608 30.243 266.94 33.0079 270.286C35.7742 273.633 38.38 275.275 38.38 275.275C38.38 275.275 35.1999 268.777 30.6965 265.403C26.1941 262.031 25.3158 260.959 25.3158 260.959C25.3158 260.959 29.4887 262.353 30.7972 263.666C32.1057 264.978 34.6123 266.732 34.6123 266.732L39.7625 273.129L41.8927 275.772Z" fill="#8DA68E"/>
<path d="M52.0801 283.098C49.8893 282.045 47.93 280.684 46.0429 279.27C42.2855 276.383 38.8964 273.125 36.2124 269.419C34.9131 267.539 33.783 265.671 32.256 263.943C26.7896 257.685 19.4726 252.747 11.3142 249.332L10.7512 247.75C10.7512 247.75 11.6255 247.707 13.0724 247.69C21.0499 251.519 28.1222 256.769 33.3093 263.273C34.752 265.057 35.8642 267.085 37.0352 268.97C39.5035 272.712 42.699 276.073 46.2623 279.064C48.0685 280.544 49.9569 281.969 52.0801 283.098Z" fill="#517352"/>
<path d="M-24.0454 263.003C-24.0454 263.003 -23.1039 249.532 -18.1198 241.617C-15.9964 238.265 -12.4178 235.678 -8.80399 233.567C-7.1533 232.61 -5.43881 231.745 -3.6769 230.941C-2.68796 230.48 -1.66444 230.183 -0.708593 229.761C-0.169794 229.525 0.338424 229.248 0.82072 228.874C1.21319 229.205 1.44855 229.633 1.5733 230.109C1.99074 231.664 1.29449 233.82 1.14951 235.122C0.866256 237.472 0.491721 239.82 -0.0683986 242.137C-0.788128 245.122 -2.04829 250.89 -6.15969 251.935C-12.3405 253.488 -21.0036 260.462 -23.4039 262.452C-23.8109 262.805 -24.0454 263.003 -24.0454 263.003Z" fill="#8DA68E"/>
<path d="M-24.0452 263.004C-24.0452 263.004 -23.1037 249.534 -18.1196 241.618C-15.9962 238.267 -12.4177 235.679 -8.80384 233.568C-7.15314 232.611 -5.43866 231.746 -3.67674 230.942C-2.68781 230.481 -1.66428 230.184 -0.708437 229.762C-0.169638 229.526 0.338579 229.25 0.820876 228.875C-2.77376 237.14 -3.07449 240.877 -9.35914 247.124C-14.9881 252.719 -18.2022 252.779 -23.4038 262.454C-23.8107 262.807 -24.0452 263.004 -24.0452 263.004Z" fill="#718C73"/>
<path d="M-18.9287 255.516L-15.5764 252.466C-9.76153 246.814 -4.37761 240.402 -1.6828 233.201C-1.30088 232.135 -0.937141 230.927 -0.709373 229.759C-0.170573 229.523 0.337644 229.246 0.81994 228.872C1.21241 229.203 1.44777 229.631 1.57252 230.107C0.359818 234.819 -2.54677 239.131 -5.73258 243.076C-9.36618 247.579 -14.2187 251.847 -18.9287 255.516Z" fill="#517352"/>
<path d="M-12.8532 312.287C-12.8532 312.287 -21.5614 292.328 -15.824 279.034C-10.1008 265.729 -1.99277 263.854 2.43934 261.059C5.29141 259.267 8.29729 257.669 11.3704 256.196C11.382 256.183 11.407 256.18 11.4186 256.167C11.5533 256.106 11.6858 256.034 11.8206 255.972C12.2832 255.745 12.7604 255.529 13.2239 255.303C13.4297 255.802 13.5885 256.34 13.6823 256.876C13.7739 257.389 13.8122 257.899 13.8388 258.409C13.8877 259.308 13.8208 260.209 13.691 261.12C13.3467 263.599 12.4849 266.089 11.6455 268.44C10.0795 272.817 7.70088 277.922 3.02753 280.558C-5.80143 285.507 -13.2988 300.534 -12.8842 311.631L-12.8773 311.686C-12.878 311.888 -12.8654 312.087 -12.8532 312.287Z" fill="#8DA68E"/>
<path d="M-12.8528 312.289C-12.8528 312.289 -21.561 292.33 -15.8236 279.035C-10.1004 265.73 -1.99239 263.856 2.43973 261.06C5.29179 259.268 8.29768 257.67 11.3708 256.197C11.3824 256.185 11.4074 256.181 11.419 256.169C11.5537 256.108 11.6862 256.035 11.8209 255.973C11.7333 256.196 11.6439 256.409 11.5666 256.62C8.78345 263.732 6.72155 269.914 3.69441 272.465C0.400122 275.249 -7.53559 281.941 -9.31948 285.005C-11.118 288.059 -14.2495 300.89 -12.8838 311.633L-12.8769 311.688C-12.8776 311.889 -12.865 312.089 -12.8528 312.289Z" fill="#718C73"/>
<path d="M8.2443 266.323C8.2443 266.323 8.49461 269.642 7.13148 271.491C5.76792 273.34 4.73654 274.209 4.73654 274.209L7.42259 272.884C7.42259 272.884 6.9867 276.192 3.65214 277.798C0.316244 279.402 -2.78548 283.738 -2.78548 283.738C-2.78548 283.738 -2.34655 281.809 -1.59514 280.532C-1.59514 280.532 -3.88904 283.139 -5.10959 285.215C-6.33015 287.293 -7.37623 289.396 -7.37623 289.396L-6.96484 286.337C-6.96484 286.337 -9.49976 290.206 -9.65525 292.568C-9.81207 294.929 -9.81207 294.929 -9.81207 294.929C-9.81207 294.929 -11.4161 290.844 -10.7938 288.104C-10.7938 288.104 -8.91962 283.086 -5.3386 279.822C-1.75758 276.56 0.725406 275.358 0.725406 275.358L5.2495 270.153L8.2443 266.323Z" fill="#A2BFA3"/>
<path d="M9.22393 261.909C8.08099 262.349 4.21457 264.49 3.5895 265.185C2.96443 265.881 2.71948 266.873 2.71948 266.873L2.43871 262.867L0.379149 266.43L0.538735 264.536L-1.24924 266.637L-1.21681 265.548C-1.21681 265.548 -3.63804 265.804 -5.94638 269.202C-8.25472 272.599 -9.84568 276.251 -9.84568 276.251L-9.44052 272.7C-9.44052 272.7 -12.5472 275.213 -12.6343 279.462C-12.7227 283.713 -12.3664 287.414 -12.3664 287.414L-13.9672 285.152C-13.9672 285.152 -14.8814 291.429 -14.5419 294.097C-14.2038 296.766 -12.5725 299.221 -12.5725 299.221C-12.5725 299.221 -12.7655 296.564 -12.4311 295.456C-12.0953 294.347 -11.4781 288.182 -8.61774 283.841C-5.75781 279.501 -0.265421 275.729 -0.265421 275.729L1.96992 273.923L7.10744 266.81L9.22393 261.909Z" fill="#8DA68E"/>
<path d="M-12.6011 298.98C-13.1566 290.537 -9.92141 281.178 -1.36673 276.096C5.11315 270.784 8.35624 263.312 11.42 256.165C12.016 255.867 12.6271 255.588 13.2254 255.301C13.4311 255.8 13.5899 256.338 13.6837 256.874C10.1658 264.112 6.48922 271.638 -0.562382 276.932C-9.22663 281.649 -12.6972 290.59 -12.6011 298.98Z" fill="#517352"/>
<path d="M55.1367 331.689C55.1367 331.689 54.243 331.68 52.7709 331.397C52.7593 331.41 52.7593 331.41 52.7562 331.388C49.2166 330.719 42.308 328.488 36.4343 321.053C28.1342 310.516 23.0517 294.759 22.533 290.679C22.1818 287.909 20.6219 285.201 19.2979 282.732C18.6716 281.572 17.3749 279.814 16.6108 278.078C16.2071 277.146 15.9481 276.229 16.0513 275.412C16.0504 275.4 16.0504 275.4 16.0504 275.4C16.0696 275.142 16.1284 274.899 16.2299 274.674C16.2483 274.615 16.2668 274.558 16.2999 274.509C19.0912 274.993 21.9539 276.541 24.3054 277.841C27.5618 279.642 30.5235 281.87 32.9375 284.48L34.6787 286.572C34.9886 286.969 35.2722 287.369 35.5445 287.781C36.922 289.864 37.9559 292.102 38.6417 294.439C43.1212 309.837 50.0906 327.927 55.1367 331.689Z" fill="#8DA68E"/>
<path d="M52.7559 331.389C49.2162 330.719 42.3076 328.488 36.4339 321.054C28.1339 310.517 23.0513 294.76 22.5326 290.68C22.1814 287.91 20.6215 285.202 19.2976 282.733C18.6712 281.572 17.3745 279.814 16.6104 278.079C16.2067 277.147 15.9478 276.229 16.0509 275.413C20.3068 279.477 29.9888 289.379 32.4223 297.328C35.1026 306.106 42.385 326.646 52.7559 331.389Z" fill="#718C73"/>
<path d="M37.3828 293.933C35.3677 289.752 34.7408 287.514 31.7483 285.526C28.7554 283.54 28.7554 283.54 28.7554 283.54C28.7554 283.54 31.6537 288.052 32.6876 290.288C33.7216 292.523 33.7216 292.523 33.7216 292.523L30.7056 289.898C30.7056 289.898 31.507 292.163 32.9184 295.188C34.3303 298.213 36.3572 304.315 36.3572 304.315L36.7339 301.852C36.7339 301.852 37.9926 302.777 39.4079 308.069C40.8227 313.361 44.4071 320.005 44.4071 320.005L43.2161 315.128L46.6781 319.916C46.6781 319.916 43.2973 311.273 41.3267 306.101C39.3562 300.928 38.4246 298.088 38.4246 298.088L40.044 300.496L37.3828 293.933Z" fill="#A2BFA3"/>
<path d="M30.8819 295.791C31.1105 297.586 34.8201 307.073 34.8201 307.073L33.1732 305.359C33.1732 305.359 36.2149 312.227 37.608 314.167C39.001 316.106 38.7711 315.642 39.3558 316.653C39.9413 317.663 41.484 320.82 41.484 320.82L37.5096 316.492C37.5096 316.492 40.8683 323.608 43.1749 325.141C45.4814 326.672 45.4814 326.672 45.4814 326.672C45.4814 326.672 40.4972 324.394 37.699 320.509C34.9004 316.626 33.6195 313.731 33.6195 313.731L37.5313 318.017L33.3694 309.968L36.0547 312.684L32.2532 306.577L28.9628 302.244L31.021 307.209C31.021 307.209 27.3019 302.208 25.5575 296.564C23.8131 290.919 23.9682 291.245 23.9682 291.245L31.191 301.815L28.6487 291.687L30.8819 295.791Z" fill="#8DA68E"/>
<path d="M49.1406 329.408C46.9377 327.554 45.2041 325.315 43.5829 323.051C38.8531 316.164 35.0161 308.784 32.3753 301.029C30.6302 295.955 27.8986 291.161 24.5848 286.765C22.235 283.654 19.5745 280.74 16.6098 278.076C16.0794 276.859 15.8103 275.653 16.2289 274.672C24.3926 281.896 30.5494 290.837 33.6007 300.695C35.9169 308.435 39.4444 315.932 43.863 322.904C45.3857 325.214 47.0203 327.487 49.1406 329.408Z" fill="#517352"/>
<path d="M8.34908 347.977C8.34908 347.977 8.34908 347.977 8.11911 347.292C7.8628 346.497 7.30835 344.779 6.1028 341.1C3.85567 334.212 7.11375 309.645 7.86811 299.293C8.41023 291.85 12.2488 288.661 14.36 287.454C14.4318 287.412 14.5063 287.381 14.567 287.35C15.2818 286.97 15.7543 286.82 15.7543 286.82C16.1392 287.911 16.5067 288.97 16.8317 290.002C25.2217 316.313 15.0986 325.336 14.066 332.584C12.8946 340.676 8.34908 347.977 8.34908 347.977Z" fill="#8DA68E"/>
<path d="M8.11834 347.296C7.86203 346.501 7.30758 344.784 6.10204 341.104C3.8549 334.216 7.11298 309.649 7.86734 299.297C8.40946 291.854 12.2481 288.665 14.3592 287.458C14.4311 287.417 14.5055 287.385 14.5662 287.354L14.1314 306.637L8.11834 347.296Z" fill="#718C73"/>
<path d="M16.9618 302.135C17.7449 305.402 17.992 310.237 17.992 310.237L17.3602 309.33L17.0771 316.069L16.4511 313.832C16.4511 313.832 16.1152 316.585 15.4347 320.664C14.7542 324.743 13.9255 328.544 13.9255 328.544L14.1372 324.82L13.0846 326.877L14.3118 320.362L12.8328 321.979L13.6843 319.505L12.0594 320.598L14.0005 308.03L15.2553 299.936C15.2553 299.936 16.6306 300.75 16.9618 302.135Z" fill="#A2BFA3"/>
<path d="M14.5103 297.668C14.5536 298.007 13.4837 307.558 13.4837 307.558L12.2961 304.947L11.3625 316.599L10.3499 315.101L9.88817 327.778L9.01664 326.311L9.99422 333.184C9.99422 333.184 7.17788 328.909 7.17119 325.707C7.16317 322.503 7.39385 318.926 7.39385 318.926L7.79831 323.459L8.55533 314.588L8.9997 317.194C8.9997 317.194 8.77337 314.512 9.37838 310.739C9.98384 306.965 10.0031 302.625 10.0031 302.625L8.83305 304.646L9.11872 301.504L8.12877 303.602C8.12877 303.602 9.72979 297.78 10.1067 296.254C10.4827 294.727 10.6208 294.463 10.6208 294.463L10.9491 299.745L15.4491 294.296L14.5103 297.668Z" fill="#8DA68E"/>
<path d="M9.25096 338.893L12.804 311.563C13.6333 304.754 14.5255 297.926 14.5786 291.116C14.5411 289.903 14.5625 288.649 14.3593 287.455C15.1933 286.994 15.7537 286.821 15.7537 286.821C16.1385 287.913 16.5061 288.971 16.831 290.003C16.8261 290.373 16.8204 290.731 16.8249 291.077C16.4477 297.985 15.2349 304.831 14.0715 311.658L9.25096 338.893Z" fill="#517352"/>
<path d="M23.3382 207.209C16.132 206.602 8.80609 205.975 1.92743 204.075C-1.27747 203.196 -4.34994 202.021 -7.17522 200.467C-9.98536 198.912 -12.7134 197.303 -14.4212 194.859C-14.6561 194.543 -14.8535 194.21 -15.0415 193.855C-15.1445 193.655 -15.2462 193.456 -15.3377 193.244C-15.4295 193.033 -15.5244 192.799 -15.4221 192.585C-15.4015 192.548 -15.3912 192.525 -15.3567 192.487C-15.2686 192.364 -15.1244 192.278 -14.9807 192.193C-14.7634 192.065 -14.5349 191.924 -14.3042 191.806C-5.15947 186.594 7.73198 184.895 16.2094 191.229C29.1634 200.919 41.3367 201.512 41.3367 201.512C41.3367 201.512 41.2311 201.793 40.924 202.235C39.7238 203.984 35.4998 208.216 23.3382 207.209Z" fill="#8DA68E"/>
<path d="M23.3382 207.21C16.132 206.603 8.80607 205.977 1.9274 204.077C-1.2775 203.198 -4.34997 202.022 -7.17525 200.469C-9.98538 198.914 -12.7134 197.304 -14.4213 194.861C-14.6561 194.544 -14.8535 194.212 -15.0415 193.857C-15.1446 193.657 -15.2463 193.458 -15.3377 193.246C-15.4295 193.034 -15.5244 192.801 -15.4221 192.586C-15.4015 192.55 -15.3912 192.526 -15.3568 192.488C-5.41005 195.922 8.44011 200.649 20.8913 202.615C24.4575 203.191 27.916 203.524 31.1401 203.541C31.9309 203.552 32.704 203.533 33.4626 203.493C36.191 203.372 38.7152 202.974 40.924 202.236C39.7238 203.985 35.4998 208.217 23.3382 207.21Z" fill="#718C73"/>
<path d="M18.1954 201.569C15.7997 201.146 13.4148 200.71 11.0906 200.133C10.1909 199.565 8.95432 198.795 8.69932 198.626C8.2755 198.344 12.7482 198.113 12.7482 198.113L9.53709 196.867L12.2426 196.066C12.2426 196.066 9.59224 195.776 8.97029 195.362C8.34922 194.95 12.4872 194.325 12.4872 194.325L10.1514 192.13L12.5681 192.516L11.0106 189.73C11.2996 189.862 15.9863 192.028 19.0022 194.685C22.0048 197.332 27.2804 199.949 27.2804 199.949C23.8633 199.746 17.2447 198.461 16.8344 198.39L20.9636 200.548L16.8276 200.882L18.1954 201.569Z" fill="#A2BFA3"/>
<path d="M23.1943 205.463C23.1943 205.463 23.1943 205.463 17.0976 205.441C11.0145 205.429 7.92238 203.91 7.92238 203.91L11.896 203.407L7.12397 201.184L10.1313 200.926C13.4027 201.619 16.7266 202.114 20.0641 202.518L20.2442 202.607C20.2442 202.607 16.2381 202.857 15.6581 202.774C15.0773 202.681 18.0309 204.34 18.0309 204.34L23.1943 205.463Z" fill="#8DA68E"/>
<path d="M33.9827 203.506C33.0326 203.571 32.0898 203.579 31.1405 203.542C29.8558 203.515 28.5884 203.418 27.32 203.311C25.1695 203.091 23.0328 202.87 20.8917 202.616C20.6157 202.583 20.3402 202.551 20.0642 202.519C16.7267 202.115 13.4028 201.62 10.1313 200.928C9.30767 200.752 8.47964 200.556 7.65295 200.359C3.40309 199.298 -0.784402 198.108 -4.9629 196.895C-8.33706 195.902 -11.6862 194.896 -15.0411 193.858C-15.1441 193.658 -15.2458 193.459 -15.3372 193.246C-15.4291 193.035 -15.524 192.801 -15.4217 192.587C-15.4011 192.551 -15.3908 192.527 -15.3563 192.489C-15.2682 192.367 -15.124 192.28 -14.9803 192.195C-14.763 192.068 -14.5345 191.927 -14.3038 191.808C-6.91789 194.437 0.515783 197.039 8.07493 199.3C9.07132 199.609 10.0772 199.884 11.0921 200.135C13.4163 200.713 15.8012 201.149 18.1968 201.571C19.0834 201.727 19.9569 201.885 20.8448 202.04C25.0057 202.71 29.1924 203.486 33.463 203.494C33.6326 203.506 33.8139 203.505 33.9827 203.506Z" fill="#517352"/>
<path d="M24.2239 236.681C18.1391 233.697 12.0303 230.727 6.06331 227.56C2.24714 225.529 -2.67697 223.74 -4.6781 220.004C-4.7152 219.919 -4.76304 219.847 -4.79795 219.773C-4.89969 219.586 -4.9997 219.408 -5.08548 219.241C-5.32692 218.768 -5.44174 218.38 -5.16901 218.078C-5.02147 217.914 -4.77918 217.783 -4.39356 217.667C-4.36727 217.663 -4.34362 217.649 -4.31823 217.647C-2.61807 217.174 -0.654816 216.847 1.11525 216.623C3.14104 216.367 5.17846 216.22 7.22199 216.107C12.0016 215.849 16.6285 216.715 21.1468 218.166C24.7075 219.302 27.9032 221.132 30.3522 223.905C34.9004 229.05 38.7959 235.372 44.1401 238.841C44.1401 238.841 44.116 238.855 44.0523 238.864C43.1201 239.16 34.3534 241.655 24.2239 236.681Z" fill="#8DA68E"/>
<path d="M24.2237 236.681C18.139 233.697 12.0301 230.727 6.06314 227.56C2.24696 225.53 -2.67715 223.74 -4.67827 220.004C-4.71538 219.92 -4.76321 219.848 -4.79812 219.773C-4.89987 219.586 -4.99987 219.408 -5.08566 219.241C-0.590398 219.8 9.01442 221.356 17.4494 225.114C28.9166 230.232 33.5243 233.805 37.3125 236.331C39.9136 238.058 42.6167 238.665 44.0521 238.864C43.1199 239.161 34.3532 241.655 24.2237 236.681Z" fill="#718C73"/>
<path d="M19.3759 224.719L15.0242 221.299L18.3614 222.405L16.5172 220.469L19.7417 221.589L18.2885 219.654C18.2885 219.654 24.4195 219.321 27.6349 222.611C30.8502 225.9 33.2424 229 33.2424 229L27.8945 224.205L30.1657 228.255L27.897 226.473C27.897 226.473 28.8434 228.299 31.2428 229.893C33.6436 231.486 33.6436 231.486 33.6436 231.486L29.5108 230.048C29.5108 230.048 22.2899 225.89 19.3759 224.719Z" fill="#A2BFA3"/>
<path d="M25.103 229.671L29.0527 233.204L25.3844 231.888L28.5125 234.677L21.9189 232.139L25.3896 234.886L23.4458 234.897C23.4458 234.897 28.4428 237.591 31.6465 237.936C31.6465 237.936 23.4103 236.823 16.9735 232.437C10.538 228.051 10.538 228.051 10.538 228.051L17.3919 231.259L14.1385 228.626L19.6424 229.944L14.9996 226.963C14.9996 226.963 18.8276 226.317 21.3114 227.352C23.7939 228.388 25.103 229.671 25.103 229.671Z" fill="#8DA68E"/>
<path d="M36.1221 235.311C25.4883 226.064 9.82899 222.271 -4.79874 219.775C-5.20094 219.055 -5.53157 218.494 -5.16981 218.079C-5.02226 217.916 -4.77998 217.785 -4.39436 217.668C-4.36807 217.665 -4.34442 217.65 -4.31902 217.648C10.2808 220.838 26.0204 225.472 36.1221 235.311Z" fill="#517352"/>
<path d="M78.2538 200.014C66.5665 190.503 66.5665 190.503 66.5665 190.503L72.1956 192.258C72.1956 192.258 62.3217 175.221 49.3591 166.29C36.3835 157.365 36.3835 157.365 36.3835 157.365L42.334 158.815C42.2062 158.432 29.8353 121.435 8.34092 106.322L14.588 107.772C13.9138 107.148 -8.12125 87.2286 -32.7208 76.526C-33.433 76.2122 -34.14 75.9113 -34.8608 75.6143L-34.9416 78.1278L-35.2436 87.6503L-36.3095 121.625C-16.7899 173.036 9.46156 200.69 40.38 210.813C67.862 219.82 97.4834 232.366 103.713 235.037C103.946 235.142 104.145 235.232 104.31 235.304C104.31 235.304 104.323 235.3 104.328 235.312L104.344 235.321C104.704 235.469 104.903 235.559 104.903 235.559C104.903 235.559 89.946 209.536 78.2538 200.014Z" fill="#7DA66A"/>
<path d="M78.2538 200.014C66.5665 190.503 66.5665 190.503 66.5665 190.503L72.1956 192.258C72.1956 192.258 62.3217 175.221 49.3591 166.29C36.3835 157.365 36.3835 157.365 36.3835 157.365L42.334 158.815C42.2062 158.432 29.8353 121.435 8.34092 106.322L14.588 107.772C13.9138 107.148 -8.12125 87.2286 -32.7208 76.526C-33.433 76.2122 -34.14 75.9113 -34.8608 75.6143L-34.9416 78.1278C-31.2471 88.7059 -24.0696 108.591 -20.0861 115.456C-14.5575 124.971 5.48998 151.811 5.48998 151.811L32.9364 176.566L60.078 198.923L73.9185 212.01L91.3389 223.721L104.328 235.312L104.344 235.321C104.704 235.469 104.903 235.559 104.903 235.559C104.903 235.559 89.946 209.536 78.2538 200.014Z" fill="#648754"/>
<path d="M88.3767 216.681C86.1155 216.52 83.5126 215.903 81.0847 215.175C83.0841 216.803 84.9675 218.355 86.7124 219.811L86.7204 219.814L86.7226 219.819C95.6492 227.27 101.308 232.452 104.312 235.303C104.147 235.231 103.947 235.142 103.714 235.036C100.277 232.088 94.4043 227.224 87.5151 222.2L89.0063 226.675L85.141 220.492C81.6036 217.982 77.8528 215.48 74.0638 213.205C69.3496 210.375 62.9857 205.786 55.7137 199.972L57.163 212.608C57.163 212.608 54.4711 201.851 50.9387 196.083C43.2062 189.682 34.7038 182.14 26.1969 174.002C29.245 187.948 25.3812 195.03 25.3812 195.03C26.8776 186.855 22.1377 173.543 20.7484 168.704C10.6889 158.883 2.6729 150.206 -5.80559 139.866C-9.04127 135.918 -11.8314 132.287 -14.2703 128.912C-13.4598 138.032 -16.8694 151.278 -16.8694 151.278C-15.9667 144.992 -17.8011 129.859 -18.3034 123.094C-29.5967 106.433 -30.7939 97.9988 -35.2423 87.6496C-36.1183 85.5681 -37.1153 83.4706 -38.276 81.3013L-41.0127 74.5711L-34.2111 72.304C-34.2111 72.304 -33.6775 73.8632 -32.7194 76.5252C-31.2441 80.587 -28.744 87.2206 -25.5472 94.7914C-16.6007 102.436 5.34449 110.971 5.34449 110.971C-4.88504 110.137 -15.4024 106.517 -21.4483 104.116C-16.3053 115.325 -10.0551 127.113 -3.55962 135.121C-1.75609 137.343 0.398745 139.825 2.80722 142.484C15.0926 151.15 39.2934 164.22 39.2934 164.22C29.0672 161.471 18.9825 156.419 12.5762 152.833C21.4662 161.937 32.0383 172.095 42.461 181.712C47.064 184.014 70.626 196.904 70.626 196.904L50.4127 188.968C59.8658 197.501 68.7733 205.202 75.7027 210.821C81.8208 213.705 88.3767 216.681 88.3767 216.681Z" fill="#50753D"/>
<path d="M51.8145 211.523C50.5819 205.952 50.5819 205.952 50.5819 205.952L49.6464 207.635L48.4501 199.558L47.3656 203.41C47.3656 203.41 47.777 197.165 46.32 195.033C44.8617 192.901 29.9044 180.561 29.9044 180.561C29.9044 180.561 32.5968 194.621 27.6221 201.389C27.6221 201.389 33.0822 196.827 32.933 193.013L33.0816 199.818L34.8029 193.013L36.4468 202.436L37.6817 193.799C37.6817 193.799 43.1774 200.194 43.4764 205.204C43.7754 210.214 51.8145 211.523 51.8145 211.523Z" fill="#96C77F"/>
<path d="M61.5383 214.14L60.3415 206.811L69.7268 214.777L69.1664 213.094L84.4961 223.191C84.4961 223.191 70.624 220.834 61.5383 214.14Z" fill="#96C77F"/>
<path d="M19.2851 196.189C20.5934 191.889 19.5104 180.784 19.5104 180.784L18.0698 184.504C18.0698 184.504 18.1273 173.641 16.9307 170.052C15.7338 166.462 -11.597 137.555 -11.597 137.555L-14.815 156.326L-11.4931 148.489C-11.4931 148.489 -8.2703 153.896 -12.0859 164.516C-12.0859 164.516 -7.18627 160.889 -6.77495 154.644L-6.77622 164.366L-3.93265 154.569C-3.93265 154.569 1.22574 168.181 -1.54194 175.585L2.27354 166.835C2.27354 166.835 1.93657 175.921 4.02959 182.203C6.1226 188.486 10.1615 190.506 10.1615 190.506L9.97542 171.622C9.97542 171.622 12.2923 187.925 13.4888 191.515C14.6853 195.105 19.2851 196.189 19.2851 196.189Z" fill="#96C77F"/>
<path d="M-26.9991 83.8582C-24.1954 90.402 -24.2329 92.5336 -22.4759 94.0665C-20.718 95.6003 -11.371 101.958 -11.371 101.958L0.108605 106.109L-4.71489 102.107L0.221079 103.08L6.72778 103.903C6.72778 103.903 -0.00256308 98.6677 -6.77081 93.6931C-13.5382 88.7202 -18.038 88.6822 -18.038 88.6822L-13.801 93.5434C-13.801 93.5434 -20.6058 88.8314 -21.8398 87.3734C-23.0735 85.9155 -26.9991 83.8582 -26.9991 83.8582Z" fill="#77A164"/>
<path d="M23.0637 160.967C33.8699 167.586 44.7504 181.161 44.7504 181.161L55.6315 187.256L53.1634 184.713L64.6426 188.117L57.4267 182.545L61.0911 183.443L52.7531 177.123L56.1553 177.983C56.1553 177.983 51.1455 173.046 46.0977 169.868C41.0495 166.689 23.0637 160.967 23.0637 160.967Z" fill="#77A164"/>
<path d="M88.1604 218.482L99.3027 228.354L85.879 217.995L88.1604 218.482Z" fill="#77A164"/>
<path d="M83.8241 210.705L87.9365 214.07L75.5604 208.722L66.5862 200.87L68.1344 201.17L66.6986 199.71L62.9867 196.547L59.3516 193.933L63.5616 196.425L79.3743 204.834L75.635 204.459L85.8804 210.518L83.8241 210.705Z" fill="#77A164"/>
<path d="M27.8558 145.539L36.4943 153.615L21.9206 145.898L20.5566 145.16L30.9584 153.921L4.01775 140.523L10.7418 139.847L1.60796 134.901L7.44935 133.628L-1.46976 128.399L-8.43732 124.85L-2.58135 124.723L-13.3249 112.937L-6.2374 114.607L-11.1606 110.976C-11.1606 110.976 -11.1606 110.976 -4.51084 112.495C-1.60619 113.159 0.57213 114.195 2.89361 115.663L16.3162 121.635L13.2696 121.823L22.4605 126.761L18.9944 126.675C23.9826 130.202 24.0847 131.033 24.0847 131.033L19.4389 131.725L27.537 137.88L24.0711 138.248L31.1895 145.157L27.8558 145.539Z" fill="#77A164"/>
<path d="M117.969 163.163C111.372 162.532 107.365 165.49 106.134 166.572C100.522 164.394 94.5316 161.161 88.5454 157.392C90.9545 157.291 93.3105 156.85 95.3996 155.973C97.0906 156.54 101.35 157.542 103.849 154.331C107.033 150.287 100.99 147.595 97.8012 149.196C94.8639 150.663 94.6798 154.914 94.675 155.616C92.128 156.302 89.3039 156.395 86.4915 156.07C76.0718 149.314 65.7943 141.169 57.9223 134.673C54.6102 130.665 51.3401 126.633 48.0926 122.508C52.0393 123.797 55.9504 124.817 59.8842 125.475C63.1021 125.956 66.3503 126.195 69.4646 125.909C69.6367 125.962 72.7148 126.824 76.3343 126.209C80.0906 125.583 80.7075 121.105 77.5669 120.563C74.91 120.095 70.9152 124.259 69.7714 125.541C67.5683 125.696 65.3171 125.589 63.0359 125.291C66.3543 123.869 69.1871 121.594 70.9919 118.42C72.2775 117.577 78.2174 113.311 75.9505 108.812C73.4095 103.76 70.8927 102.003 69.6728 107.704C68.6838 112.256 69.9649 116.474 70.5156 117.993C67.9972 121.604 63.919 123.818 59.4156 124.653C55.1265 123.731 50.7873 122.238 46.6037 120.6C40.206 112.401 33.9328 104.033 27.7606 95.551C23.616 89.7607 19.541 83.9341 15.4831 78.0368C19.3937 80.5785 23.4352 82.7226 27.537 84.3402C28.39 87.7143 29.7184 91.0434 31.4993 94.1132C31.4868 95.4767 31.7298 98.8438 34.2008 101.836C37.3834 105.667 43.04 107.965 42.3331 102.602C41.7245 97.8654 33.8447 94.3964 31.9548 93.6246C30.5653 90.822 29.6195 87.8466 29.0636 84.9331C29.9299 85.2564 30.7803 85.548 31.6584 85.8246C32.0626 85.9824 32.4689 86.076 32.8781 86.2089L33.2908 86.4847C38.3671 90.0144 41.525 90.5891 44.0191 89.0261C46.5145 87.4627 41.3639 80.5791 36.9929 82.475C33.9649 83.805 32.7554 84.7937 32.2905 85.2649C29.1261 84.036 26.0011 82.4776 22.9728 80.6632C23.2837 79.799 23.7528 78.9969 24.2812 78.3068C25.5088 78.6043 28.404 79.0502 29.3344 77.1614C30.547 74.6916 27.9173 69.5409 24.8282 72.3433C22.4513 74.503 23.0612 76.7714 23.4658 77.7089C22.7942 78.3313 22.1887 79.0416 21.7003 79.8752C18.124 77.6304 14.6711 75.0106 11.4135 72.0837C4.32248 61.6599 -2.66845 51.0192 -9.49212 40.1857C-12.0992 35.4145 -14.6878 30.6126 -17.3238 25.856C-17.4326 25.7496 -17.5431 25.6432 -17.6518 25.5369L-21.5607 27.5997C-20.5303 29.5851 -19.4953 31.546 -18.4288 33.5333C-13.7539 40.9354 -9.08026 48.3374 -4.314 55.6085C2.96685 66.7339 10.3705 77.65 17.9048 88.3751L20.1397 103.089C19.7752 103.651 19.3721 104.173 18.9384 104.669C17.2443 104.063 11.7118 104.638 12.5131 107.813C13.5632 111.866 13.6961 110.459 19.2332 105.397C19.2618 105.382 19.2583 105.344 19.3007 105.321C19.6575 105.051 20.0063 104.764 20.3424 104.422L21.2606 110.352C20.2083 111.977 18.4269 115.569 20.8311 118.433C24.0108 122.224 25.8587 121.907 25.1325 116.573C24.5522 112.398 22.8849 110.421 22.1801 109.764C21.9613 106.61 21.5335 102.991 21.0699 99.6785L23.2543 102.227C23.9322 105.406 25.662 111.997 28.632 113.432C32.57 115.28 31.8438 109.948 28.6527 106.1C26.5279 103.563 24.7133 101.95 23.7289 101.134C22.7125 100.087 21.6215 99.1003 20.8727 98.426C20.3107 94.5889 19.7227 91.4464 19.4011 90.4646C21.1365 92.9415 22.9004 95.4021 24.6458 97.8323C27.3324 101.535 30.0503 105.199 32.7665 108.823C34.9166 112.253 37.0021 115.696 39.0082 119.16C42.9925 126.166 46.7974 133.308 50.1659 140.536C49.8669 143.182 49.4075 145.727 48.8389 148.165C46.8921 148.638 42.525 150.202 39.5303 155.484C35.6179 162.442 38.8563 167.868 43.0573 167.542C47.1068 167.234 52.5223 158.866 50.1111 149.056C50.6965 147.391 51.2406 145.683 51.6883 143.927C54.616 150.524 57.0773 157.181 58.86 163.807C57.9684 165.429 53.0795 175.103 55.9749 181.162C59.1612 187.807 64.8572 187.577 66.6193 183.645C68.0953 180.254 61.4366 167.875 59.511 164.43C58.6648 160.764 57.6339 157.052 56.3899 153.309C58.9217 154.624 61.3715 156.189 63.6476 158.032C64.0513 159.813 65.455 165.075 68.5268 167.175C72.228 169.725 75.2963 167.119 72.1965 163.409C70.1112 160.912 66.9294 159.075 65.0696 158.123C62.2009 155.156 58.9059 152.701 55.5048 150.651C52.0993 140.955 47.5437 131.104 42.4655 121.551C51.6861 133.441 61.1923 144.893 71.2414 155.75C72.0163 156.472 73.3783 157.769 74.7453 159.041C76.2845 165.034 79.4143 175.225 83.4253 179.544C89.2416 185.83 98.8586 182.172 97.3622 175.417C95.9339 169.057 87.5396 161.911 76.0603 155.715C75.2092 154.643 74.4134 153.645 73.9404 153.051C70.9967 149.876 68.0949 146.575 65.243 143.27C66.3822 144.108 67.524 144.985 68.6895 145.809C79.1242 152.968 93.0196 162.555 105.722 166.974C105.722 166.974 117.865 175.883 124.081 173.795C130.282 171.714 126.059 163.95 117.969 163.163Z" fill="#162E25"/>
<path d="M22.9901 42.49C22.9456 42.1025 22.9131 41.726 22.8912 41.3724C22.8807 41.2013 22.8813 41.0419 22.8819 40.882C22.8705 40.8139 22.8708 40.7569 22.871 40.6999L22.872 40.4149C22.8729 40.1753 22.8736 39.9589 22.897 39.7652C22.921 39.5373 22.9556 39.3322 23.0133 39.1498C23.071 38.9447 23.1629 38.774 23.2662 38.6493C23.3919 38.5014 23.5406 38.3995 23.7233 38.3543C23.8142 38.3435 23.9171 38.3323 24.0195 38.3327C24.0881 38.3329 24.1678 38.3448 24.2474 38.3562C24.3044 38.3564 24.3614 38.3682 24.4184 38.3796C24.4754 38.3798 24.5439 38.4032 24.6119 38.4261C25.0905 38.5762 25.7049 38.8745 26.4668 39.3676C31.0621 42.3139 32.9299 58.5432 29.5338 55.1336C25.8875 51.4381 23.8154 50.7011 23.2988 45.4209C23.2436 44.9304 23.1994 44.4515 23.1441 43.9726L23.1442 43.961C23.0779 43.4478 23.0338 42.9689 22.9901 42.49ZM25.0001 91.9513C25.0137 88.2121 35.9297 95.992 36.7161 99.1985C37.5141 102.405 39.9014 107.373 35.1806 104.528C30.0617 101.42 24.9867 95.6791 25.0001 91.9513ZM17.8732 136.58C17.4318 135.758 5.59845 113.656 14.8056 102.14C24.2076 90.4322 30.7802 117.155 28.3389 127.019C25.9093 136.882 22.0427 140.676 52.7813 149.041C52.7813 149.041 45.9231 135.085 56.0893 132.728C66.244 130.359 61.8822 151.172 70.9607 153.336C79.9474 155.489 107.017 153.774 119.475 148.324C119.601 148.279 119.715 148.234 119.829 148.177C119.829 148.177 118.821 133.764 113.208 131.601C107.618 129.449 92.6568 130.728 95.8893 122.726C99.1329 114.734 113.252 119.585 113.252 119.585C113.252 119.585 110.68 96.091 106.682 92.0754C102.706 88.0483 85.034 98.1306 81.8613 89.5801C78.7001 81.0302 84.6078 70.9053 103.555 70.9738C103.555 70.9738 100.472 50.1573 91.372 38.291L88.5447 38.2808L88.1683 38.291C87.2905 38.3217 86.2976 38.6601 86.2976 38.6601C85.487 38.931 84.7786 39.4072 84.7786 39.4072C84.4015 39.6223 84.0127 39.9971 84.0127 39.9971C83.5327 40.3601 82.9138 41.2018 82.9138 41.2018C85.4368 43.4682 87.6037 46.2918 86.8256 47.0643C85.922 47.9615 84.6206 48.4813 83.1713 48.795C80.7415 49.3451 77.8914 49.3459 75.872 49.6806C75.4157 49.7591 74.9367 49.8371 74.4806 49.8809C74.3598 49.8929 74.2458 49.8996 74.1273 49.9081C73.7122 49.9444 73.3028 49.9715 72.9301 49.955C72.8046 49.9545 72.679 49.9429 72.5651 49.9309C72.4627 49.9194 72.3488 49.8959 72.2348 49.8843C72.1209 49.8612 72.0297 49.8377 71.9273 49.8146C71.9157 49.8262 71.9157 49.8262 71.9158 49.8146C71.7676 49.7798 71.6426 49.7339 71.5173 49.6764C71.3923 49.619 71.2785 49.5616 71.176 49.4815C71.1192 49.4243 71.0512 49.3782 70.9944 49.3098C70.449 48.7833 70.3041 47.848 70.8112 46.2993C72.1601 42.2001 74.8421 38.197 77.7834 38.2076C78.3988 38.2098 79.2183 38.5437 80.1057 39.0826L80.2202 38.9347C80.2202 38.9347 80.5526 38.5026 80.7815 38.2527C81.0104 38.0029 81.4221 37.5938 81.4221 37.5938C81.4221 37.5938 81.7995 37.2647 81.9255 37.1511C82.0511 37.0376 82.3712 36.8108 82.4855 36.7315C82.5998 36.6517 83.0225 36.3682 83.0225 36.3682C83.0225 36.3682 83.4225 36.0963 83.9136 35.8584C84.4048 35.6211 85.0439 35.3611 85.3635 35.271C85.6716 35.1696 86.1739 35.0348 86.5505 34.9675C86.9266 34.8892 87.4171 34.8339 87.6452 34.8121C87.8848 34.8014 88.2042 34.7798 88.2042 34.7798C85.534 32.3302 82.4388 30.666 78.8834 30.3001C59.9317 28.3733 47.0788 39.2594 47.0788 39.2594C47.0788 39.2594 39.9039 30.9684 45.2653 20.5682C50.6493 10.1908 76.8134 10.0003 76.8134 10.0003C76.8134 10.0003 74.8156 4.46397 67.3405 0.389903L-6.5659 0.122924L-6.89585 91.4598C-2.2922 117.241 17.2032 135.916 17.8732 136.58Z" fill="#01432B"/>
<path d="M22.9897 42.4924C22.9452 42.1048 22.9127 41.7284 22.8909 41.3748C22.8803 41.2037 22.8809 41.0443 22.8815 40.8844C22.8702 40.8163 22.8704 40.7593 22.8706 40.7023L22.8716 40.4173C22.8725 40.1777 22.8733 39.9613 22.8967 39.7676C22.9206 39.5397 22.9552 39.3346 23.0129 39.1522C23.0706 38.9471 23.1625 38.7764 23.2658 38.6517C23.3915 38.5038 23.5402 38.4019 23.7229 38.3567C23.8138 38.3459 23.9167 38.3347 24.0191 38.3351C24.0877 38.3353 24.1674 38.3472 24.2471 38.3586C24.3041 38.3588 24.361 38.3706 24.418 38.382C24.475 38.3822 24.5435 38.4056 24.6115 38.4285C25.0901 38.5785 25.7045 38.8769 26.4664 39.3699C31.0617 42.3163 32.9296 58.5456 29.5334 55.136C25.8871 51.4405 23.815 50.7035 23.2984 45.4233C23.2432 44.9328 23.199 44.4539 23.1438 43.975L23.1438 43.9634C23.0775 43.4502 23.0334 42.9713 22.9897 42.4924ZM12.9254 51.3936C28.8639 76.2809 39.0278 87.1366 39.0278 87.1366L67.3542 116.457C67.3542 116.457 85.1408 131.581 106.67 142.546L106.682 142.558C106.715 142.603 106.761 142.615 106.796 142.626C110.903 144.716 115.171 146.669 119.475 148.327C119.6 148.281 119.714 148.236 119.829 148.18C119.829 148.18 118.82 133.767 113.208 131.603C107.618 129.451 92.6564 130.731 95.889 122.728C99.1326 114.737 113.251 119.587 113.251 119.587C113.251 119.587 110.68 96.0934 106.682 92.0778C102.706 88.0507 85.0336 98.133 81.8609 89.5825C78.6997 81.0325 84.6074 70.9077 103.554 70.9762C103.554 70.9762 99.1007 44.7275 88.2038 34.7817L85.3765 34.7715L85.0002 34.7817C84.1224 34.8124 83.1294 35.1508 83.1294 35.1508C82.3188 35.4218 81.6104 35.8979 81.6104 35.8979C81.2333 36.113 80.8445 36.4879 80.8445 36.4879C80.3645 36.8508 79.8521 38.9358 79.8521 38.9358C82.3751 41.2022 87.6033 46.2942 86.8253 47.0667C85.9216 47.9639 84.6203 48.4837 83.171 48.7973C80.7411 49.3474 77.891 49.3483 75.8716 49.683C75.4154 49.7615 74.9364 49.8395 74.4802 49.8833C74.3595 49.8953 74.2454 49.902 74.127 49.9105C73.7118 49.9468 73.3024 49.9739 72.9298 49.9574C72.8042 49.9569 72.6786 49.9453 72.5647 49.9333C72.4623 49.9218 72.3484 49.8983 72.2344 49.8867C72.1205 49.8636 72.0293 49.8401 71.927 49.817C71.9153 49.8286 71.9154 49.8286 71.9154 49.817C71.7672 49.7822 71.6423 49.7363 71.5169 49.6788C71.392 49.6214 71.2782 49.564 71.1756 49.4839C71.1188 49.4267 71.0508 49.3806 70.9941 49.3122C70.4487 48.7857 70.3038 47.8504 70.8108 46.3017C72.1598 42.2025 74.8417 38.1994 77.783 38.21C78.3984 38.2122 79.2179 38.5461 80.1053 39.085L80.2198 38.9371C80.2198 38.9371 80.5522 38.505 80.7812 38.2551C81.0101 38.0052 80.5174 36.96 80.5174 36.96C80.5174 36.96 83.8305 39.6853 81.6065 36.9639C84.3095 39.313 81.5659 35.9321 81.6802 35.8528C81.7945 35.773 83.0221 36.3706 83.0221 36.3706C83.0221 36.3706 83.4221 36.0986 83.9133 35.8608C84.4044 35.6235 85.0435 35.3635 85.3631 35.2734C85.6712 35.172 86.1736 35.0371 86.5501 34.9699C86.9262 34.8916 87.4167 34.8363 87.6448 34.8145C87.8844 34.8037 88.2038 34.7822 88.2038 34.7822C85.5336 32.3326 82.4384 30.6684 78.883 30.3024C59.9314 28.3757 47.0784 39.2618 47.0784 39.2618C47.0784 39.2618 39.9036 30.9708 45.2649 20.5706C50.6489 10.1932 76.813 10.0027 76.813 10.0027C76.813 10.0027 74.8153 4.46636 67.3401 0.392304L-6.17843 0.126727C-3.86052 11.7063 1.71366 33.8655 12.9254 51.3936Z" fill="#015738"/>
<path d="M86.5314 54.532L94.5296 57.7712C94.5296 57.7712 87.9479 51.8362 83.1708 48.8015C80.7306 49.3591 77.8828 49.3604 75.8612 49.6938C73.8752 50.0148 71.8773 50.2129 70.9845 49.3239C65.3735 51.154 59.9637 53.7769 59.9637 53.7769L68.1388 45.6611L52.5028 52.4114C57.0468 44.5309 64.9834 39.8174 65.4717 39.5248C65.3472 39.5702 64.3354 39.9745 56.2344 43.2125C46.9869 46.9229 33.6538 59.9453 35.4959 68.234C37.3266 76.5115 43.5261 78.3032 50.6411 87.5069C59.9341 99.5565 71.9352 103.332 71.9352 103.332C66.0844 96.1062 62.9388 81.4135 62.9388 81.4135L71.1874 87.5812C66.4177 79.2935 70.4504 71.559 70.4504 71.559L73.2301 77.8441C73.2711 66.4984 84.6163 66.5393 84.6163 66.5393L81.6615 70.8736C88.3489 66.4277 95.2971 65.25 95.2971 65.25L86.5314 54.532Z" fill="#016C45"/>
<path d="M66.1577 5.06927C66.1577 5.06927 60.445 3.24153 47.2234 0.318783L38.3403 0.286694C30.1245 2.39455 25.8211 10.0011 25.8211 10.0011L24.7871 3.32692L21.0045 11.8531L14.1027 4.88123L14.3361 11.2956L7.94636 7.79765C7.94636 7.79765 14.0536 18.4985 16.1413 29.4511C17.3276 35.623 20.5365 40.701 23.1436 43.9604C23.0813 43.4471 23.0296 42.966 22.989 42.4951C22.9473 42.0991 22.9166 41.7254 22.8965 41.3731C22.8357 40.4323 22.8487 39.6731 23.0114 39.1491C23.0762 38.9463 23.1623 38.7756 23.2697 38.6486C23.3878 38.4985 23.5373 38.4033 23.72 38.3617C23.8159 38.3402 23.913 38.3294 24.019 38.3298C24.084 38.33 24.1694 38.3415 24.2433 38.352C24.3185 38.3638 24.404 38.3846 24.4791 38.4067C24.5214 38.4171 24.5646 38.4284 24.6068 38.4388L24.6069 38.4285C23.5985 30.7187 26.8536 20.159 26.8536 20.159C26.8536 20.159 26.8536 20.159 28.2918 27.2287C29.7416 34.3101 38.8032 37.8176 38.8032 37.8176C38.8032 37.8176 38.8032 37.8176 35.4611 28.1849C32.1181 18.5637 38.8891 14.045 38.8891 14.045L37.5412 20.4323C37.8417 19.964 42.7974 12.3812 56.3705 6.6482C60.7494 4.79323 66.1577 5.06927 66.1577 5.06927Z" fill="#016C45"/>
<path d="M24.1828 94.885C19.9934 90.6656 10.5731 93.6344 10.5731 93.6344L11.2056 84.8278L8.58945 88.6227C8.58945 88.6227 8.22149 79.4109 7.04769 71.9992C5.87299 64.5871 -3.86872 45.331 -3.86872 45.331C-3.86872 45.331 -3.28896 51.1392 -0.521158 60.9604C2.24665 70.7799 2.01805 78.5882 2.01805 78.5882L-1.3561 70.5674C-1.38624 78.9099 1.23576 91.8657 1.23576 91.8657L-2.22737 89.9846C-2.22737 89.9846 3.0609 103.886 4.63569 111.365C4.63569 111.365 7.53921 102.233 11.1521 99.6434C14.765 97.0536 24.1828 94.885 24.1828 94.885Z" fill="#015738"/>
<path d="M48.0259 145.427C48.0259 145.427 34.4277 140.973 31.8376 137.56C29.2457 134.147 29.2457 134.147 29.2457 134.147L33.248 134.963L31.4649 129.551L36.5941 132.372L32.0791 125.949L36.6093 128.167L32.6986 120.745L35.1175 122.355L36.6585 114.553C36.6585 114.553 37.5021 121.163 41.8977 123.782C46.292 126.4 58.094 129.446 58.094 129.446L50.4867 129.418L52.2815 131.228L48.678 131.214L50.869 134.426L45.2606 134.806C45.2606 134.806 44.8725 142.251 48.0259 145.427Z" fill="#015738"/>
<path d="M74.439 149.353C79.1895 152.227 90.0562 149.383 95.8622 149.404C101.668 149.425 109.878 149.455 109.878 149.455L104.278 147.632L110.487 147.054L103.89 144.228L98.0857 143.606L98.6792 145.61L90.688 140.776L91.079 143.38C91.079 143.38 79.4861 137.932 75.5067 130.911C75.5067 130.911 76.0879 136.318 83.077 141.55C83.077 141.55 74.8769 139.318 68.9005 130.887C68.9005 130.887 70.5811 136.799 73.0743 139.312C73.0743 139.312 69.6703 139.299 66.6813 135.484C66.6813 135.484 67.9475 145.425 74.439 149.353Z" fill="#015738"/>
<path d="M91.4757 119.475C93.3797 117.19 102.407 113.656 107.791 115.378L106.08 112.049L110.835 113.494L106.123 108.092L109.313 107.802C109.313 107.802 107.591 99.917 104.329 97.1977C101.066 94.4783 96.2808 94.9135 93.0549 97.0153C89.8277 99.1185 86.1478 100.659 82.124 98.4111C82.124 98.4111 87.5799 103.143 92.8006 100.859C92.8006 100.859 85.386 105.553 82.0153 103.848C82.0153 103.848 84.4768 108.824 88.8201 107.941C93.162 107.058 93.162 107.058 93.162 107.058C93.162 107.058 83.9337 113.091 79.9819 111.64C76.03 110.19 74.3836 110.573 74.3836 110.573C74.3836 110.573 79.332 114.145 84.0983 115.722C88.866 117.3 91.4757 119.475 91.4757 119.475Z" fill="#016C45"/>
<path d="M100.72 134.603C107.204 141.134 115.505 143.266 115.505 143.266L112.715 139.652L115.918 139.864L112.722 137.65L115.525 137.66C115.525 137.66 113.939 133.45 110.536 133.437C107.132 133.425 100.72 134.603 100.72 134.603Z" fill="#016C45"/>
<path d="M71.1123 118.52C43.6137 94.0283 23.3232 62.348 9.5497 28.5003C5.8415 19.263 2.47716 9.7589 -0.127986 0.150638L-3.53775 0.138321C-1.32013 7.55422 1.21836 14.9063 4.07881 22.1316C4.45949 23.1372 4.86295 24.1228 5.26504 25.1182C5.71034 26.2314 6.16545 27.3445 6.64286 28.4475C21.1522 62.7356 42.7683 94.2074 71.1123 118.52Z" fill="#017B4F"/>
<path d="M119.833 148.184C111.915 144.681 104.061 141.029 96.6806 136.535C87.6352 131.265 79.1056 125.216 71.1132 118.517C46.1766 97.6806 26.4687 70.6511 12.4323 41.4093C10.4059 37.1488 8.45508 32.8119 6.64371 28.4448C6.16631 27.3418 5.71121 26.2286 5.2659 25.1155C4.86381 24.1201 4.46035 23.1345 4.07967 22.1289C1.27306 14.9148 -1.20178 7.57326 -3.23719 0.136648L-6.56145 0.12464L-6.59887 10.4826C11.9815 62.7852 47.2433 110.479 96.2607 137.271C99.6529 139.186 103.131 140.94 106.674 142.546L106.685 142.557C106.717 142.599 106.759 142.61 106.791 142.621C111.082 144.593 115.457 146.415 119.833 148.184Z" fill="#013321"/>
</svg>
