<svg width="520" height="264" viewBox="0 0 520 264" fill="none" xmlns="http://www.w3.org/2000/svg">
<path d="M241.213 39.9304C255.373 38.0793 269.27 39.7406 280.524 41.0859L282.027 41.2666L281.759 43.8615L280.255 43.6829C262.885 41.6071 239.093 38.7617 218.276 49.6005C204.821 56.6115 192.856 63.8228 183.241 69.6155C177.202 73.2578 171.984 76.4018 167.598 78.7881C155.892 85.1558 130.357 92.7152 116.219 92.5561C102.454 92.3991 92.1228 91.0504 92.0195 91.0378L92.3196 88.4443C92.4214 88.4589 102.617 89.7875 116.227 89.9431C129.643 90.0966 155.029 82.6627 166.409 76.473C170.746 74.1132 175.94 70.9824 181.955 67.3562C191.598 61.5439 203.6 54.3111 217.125 47.2666C224.94 43.1952 233.121 40.9875 241.213 39.9304Z" fill="#3A593B"/>
<path d="M103.08 129.649C115.421 111.585 121.75 108.141 131.569 102.842C139.291 98.6669 152.412 83.7679 152.412 83.7679L154.586 82.9766L155.859 82.5266L157.062 82.0856C157.062 82.0856 157.135 83.4553 157.169 85.7223C157.315 94.3834 156.838 116.008 149.088 121.849C139.328 129.21 130.718 133.559 117.738 141.342C104.739 149.127 98.6752 159.574 98.6752 159.574C98.6752 159.574 98.3996 159.083 98.0193 158.179L98.0172 158.159C96.5157 154.421 93.6214 143.502 103.08 129.649Z" fill="#8DA68E"/>
<path d="M103.08 129.652C115.421 111.588 121.75 108.144 131.569 102.844C139.291 98.6698 152.412 83.7708 152.412 83.7708L154.586 82.9795L155.859 82.5295C153.252 93.0327 145.549 106.108 139.105 110.682C131.811 115.875 116.08 128.216 116.08 128.216C116.08 128.216 100.404 143.814 98.0172 158.162C96.5157 154.424 93.6214 143.504 103.08 129.652Z" fill="#718C73"/>
<path d="M138.566 127.165C134.908 128.665 122.035 135.501 119.627 137.784C117.221 140.067 117.221 140.067 117.221 140.067L119.268 136.214C119.268 136.214 112.519 141.948 108.133 146.229C103.745 150.509 102.558 152.006 102.558 152.006L109.39 141.048L105.421 146.174C105.421 146.174 107.709 139.118 111.355 135.376C115.003 131.632 117.426 130.376 117.426 130.376L111.843 136.745L120.515 129.167L117.771 133.017C117.771 133.017 127.124 123.56 131.559 120.832C135.994 118.105 135.994 118.105 135.994 118.105L121.508 131.454C121.508 131.454 136.896 119.687 139.988 114.361C143.082 109.036 143.096 107.588 143.096 107.588C143.096 107.588 146.31 112.462 136.625 121.154C126.938 129.847 126.938 129.847 126.938 129.847C126.938 129.847 142.173 124.009 144.868 120.972C144.868 120.972 143.266 125.236 138.566 127.165Z" fill="#A2BFA3"/>
<path d="M113.332 131.039L106.455 135.122L107.651 132.457L102.962 136.205L105.125 131.448L100.471 135.994C100.471 135.994 107.248 124.726 111.906 120.091C116.565 115.456 119.959 113.043 119.959 113.043L115.757 118.156C115.757 118.156 117.688 118.147 123.429 112.398C129.17 106.648 129.17 106.648 129.17 106.648C129.17 106.648 127.105 112.736 121.877 117.087C116.649 121.44 114.091 125.532 114.091 125.532C114.091 125.532 124.254 120.513 129.515 113.437C134.773 106.364 136.449 104.981 136.449 104.981C136.449 104.981 134.288 111.528 132.237 113.585C130.189 115.643 127.455 119.58 127.455 119.58L117.462 127.686L113.332 131.039Z" fill="#8DA68E"/>
<path d="M101.91 147.045C103.546 143.606 105.669 140.529 107.873 137.564C112.376 131.66 117.462 126.332 123.252 122.105C126.19 120.059 129.111 118.277 131.81 115.875C141.584 107.275 149.281 95.7819 154.585 82.9796L157.06 82.0886C157.06 82.0886 157.134 83.4583 157.168 85.7253C151.214 98.2464 143.028 109.357 132.866 117.522C130.079 119.792 126.908 121.546 123.961 123.392C118.111 127.28 112.863 132.306 108.198 137.906C105.888 140.745 103.666 143.712 101.91 147.045Z" fill="#517352"/>
<path d="M132.966 27.6512C132.966 27.6512 154.078 29.0502 166.508 36.8147C171.772 40.1228 175.847 45.7152 179.174 51.3656C180.684 53.9466 182.048 56.628 183.318 59.3841C184.045 60.9311 184.517 62.5331 185.183 64.0284C185.557 64.8713 185.993 65.666 186.582 66.4196C186.066 67.0364 185.396 67.4076 184.651 67.6057C182.216 68.2686 178.835 67.1899 176.794 66.9701C173.11 66.5396 169.429 65.966 165.796 65.1015C161.115 63.9907 152.07 62.0489 150.409 55.6128C147.94 45.9371 136.965 32.4029 133.832 28.6531C133.277 28.0175 132.966 27.6512 132.966 27.6512Z" fill="#8DA68E"/>
<path d="M132.966 27.6515C132.966 27.6515 154.078 29.0505 166.508 36.8151C171.772 40.1231 175.847 45.7156 179.174 51.366C180.684 53.9469 182.048 56.6284 183.318 59.3845C184.045 60.9314 184.517 62.5335 185.183 64.0287C185.557 64.8716 185.993 65.6664 186.582 66.4199C173.612 60.8344 167.755 60.3844 157.931 50.5726C149.133 41.7845 149.021 36.7488 133.832 28.6535C133.277 28.0179 132.966 27.6515 132.966 27.6515Z" fill="#718C73"/>
<path d="M181.45 64.2877L169.209 58.1036L165.366 55.2958L170.389 55.3063L164.77 50.7193L168.378 51.1337L160.948 46.8823L165.264 46.8112L160.86 44.4298L164.386 43.612L155.356 40.1393L159.308 39.6216L157.391 37.9567C157.391 37.9567 163.275 38.3426 166.64 41.3471C170.007 44.353 170.007 44.353 170.007 44.353L168.942 41.2257L171.876 45.9467L171.544 43.3922C171.544 43.3922 175.237 46.8447 175.902 51.948C176.566 57.0514 176.566 57.0514 176.566 57.0514L178.026 52.8342L183.02 65.0664L181.45 64.2877Z" fill="#8DA68E"/>
<path d="M144.723 35.6269L149.521 40.8621C158.409 49.9412 168.487 58.3407 179.785 62.5224C181.457 63.1147 183.352 63.6778 185.183 64.0281C185.556 64.871 185.992 65.6657 186.581 66.4193C186.066 67.0361 185.396 67.4073 184.651 67.6055C177.261 65.732 170.489 61.2022 164.29 56.2328C157.212 50.565 150.498 42.9861 144.723 35.6269Z" fill="#517352"/>
<path d="M55.8066 45.4676C55.8066 45.4676 87.0296 31.71 107.893 40.6245C128.772 49.5166 131.755 62.2101 136.16 69.1387C138.985 73.5974 141.505 78.2981 143.831 83.1049C143.85 83.123 143.856 83.1621 143.875 83.1803C143.972 83.391 144.086 83.5982 144.184 83.8089C144.542 84.5325 144.883 85.2791 145.24 86.0041C144.459 86.3292 143.616 86.5811 142.778 86.7311C141.975 86.8776 141.176 86.9404 140.376 86.9851C138.969 87.0667 137.556 86.967 136.128 86.7688C132.242 86.2434 128.336 84.9072 124.647 83.6052C117.78 81.1763 109.769 77.4782 105.612 70.1707C97.8063 56.365 74.2189 44.7028 56.8337 45.4152L56.7479 45.4264C56.4318 45.4264 56.1192 45.4473 55.8066 45.4676Z" fill="#8DA68E"/>
<path d="M55.8066 45.4692C55.8066 45.4692 87.0296 31.7117 107.893 40.6261C128.772 49.5182 131.755 62.2117 136.16 69.1404C138.985 73.599 141.505 78.2997 143.831 83.1065C143.85 83.1247 143.856 83.1637 143.875 83.1819C143.972 83.3926 144.086 83.5998 144.184 83.8105C143.834 83.6745 143.5 83.5356 143.17 83.4156C132.011 79.0952 122.312 75.8995 118.298 71.1708C113.917 66.0249 103.386 53.6287 98.5759 50.8509C93.7803 48.0502 73.6579 43.2162 56.8337 45.4169L56.7479 45.428C56.4318 45.428 56.1192 45.449 55.8066 45.4692Z" fill="#718C73"/>
<path d="M127.946 78.263C127.946 78.263 122.747 78.6739 119.842 76.5486C116.938 74.4225 115.57 72.8114 115.57 72.8114L117.661 77.0126C117.661 77.0126 112.476 76.3483 109.941 71.1327C107.408 65.9149 100.597 61.0795 100.597 61.0795C100.597 61.0795 103.621 61.7563 105.627 62.9264C105.627 62.9264 101.53 59.347 98.2697 57.4463C95.0077 55.5456 91.7053 53.9185 91.7053 53.9185L96.5016 54.5457C96.5016 54.5457 90.4242 50.5958 86.7233 50.3655C83.0225 50.1332 83.0225 50.1332 83.0225 50.1332C83.0225 50.1332 89.4139 47.5968 93.7113 48.5563C93.7113 48.5563 101.585 51.4645 106.719 57.0569C111.851 62.6494 113.747 66.5331 113.747 66.5331L121.928 73.5922L127.946 78.263Z" fill="#A2BFA3"/>
<path d="M134.866 79.7734C134.17 77.9851 130.794 71.9391 129.701 70.9636C128.608 69.9882 127.052 69.61 127.052 69.61L133.327 69.1474L127.733 65.9405L130.701 66.1799L127.4 63.3903L129.106 63.4349C129.106 63.4349 128.69 59.6427 123.353 56.0451C118.017 52.4475 112.287 49.9753 112.287 49.9753L117.852 50.59C117.852 50.59 113.898 45.7365 107.239 45.6242C100.578 45.5097 94.7814 46.0889 94.7814 46.0889L98.3169 43.5679C98.3169 43.5679 88.4765 42.171 84.2984 42.718C80.1182 43.263 76.2812 45.8328 76.2812 45.8328C76.2812 45.8328 80.4419 45.5153 82.18 46.033C83.9195 46.5529 93.5834 47.4851 100.401 51.9423C107.217 56.3988 113.159 64.9832 113.159 64.9832L116.001 68.4755L127.175 76.4849L134.866 79.7734Z" fill="#8DA68E"/>
<path d="M76.6562 45.7864C89.8814 44.8681 104.564 49.8842 112.576 63.2594C120.935 73.3824 132.66 78.4215 143.876 83.1816C144.348 84.1138 144.787 85.0697 145.241 86.0054C144.46 86.3305 143.617 86.5824 142.779 86.7324C131.418 81.2614 119.605 75.5433 111.27 64.5244C103.83 50.9755 89.8012 45.5882 76.6562 45.7864Z" fill="#517352"/>
<path d="M25.79 152.105C25.79 152.105 25.7991 150.705 26.2345 148.397C26.215 148.379 26.215 148.379 26.2492 148.374C27.2776 142.824 30.7343 131.987 42.3504 122.741C58.8125 109.677 83.473 101.624 89.8623 100.788C94.2009 100.222 98.4349 97.7626 102.296 95.6742C104.111 94.6862 106.858 92.6446 109.574 91.4375C111.031 90.7998 112.467 90.3888 113.748 90.5458C113.766 90.5444 113.766 90.5444 113.766 90.5444C114.171 90.573 114.552 90.6637 114.905 90.8214C114.997 90.85 115.087 90.8786 115.164 90.9302C114.422 95.3065 112.012 99.8007 109.988 103.493C107.185 108.605 103.711 113.258 99.635 117.055L96.3661 119.795C95.7465 120.283 95.1213 120.73 94.4765 121.159C91.2215 123.329 87.7209 124.962 84.0626 126.049C59.9609 133.155 31.6574 144.178 25.79 152.105Z" fill="#8DA68E"/>
<path d="M26.249 148.375C27.2775 142.825 30.7342 131.988 42.3503 122.742C58.8123 109.678 83.4729 101.625 89.8622 100.789C94.2008 100.223 98.4347 97.7637 102.296 95.6753C104.111 94.6873 106.858 92.6457 109.574 91.4386C111.031 90.8009 112.467 90.3899 113.748 90.5469C107.403 97.2383 91.9429 112.465 79.502 116.322C65.764 120.572 33.6208 132.099 26.249 148.375Z" fill="#718C73"/>
<path d="M84.8473 124.08C91.3866 120.899 94.8893 119.904 97.9873 115.204C101.083 110.503 101.083 110.503 101.083 110.503C101.083 110.503 94.0289 115.07 90.5311 116.702C87.0354 118.335 87.0354 118.335 87.0354 118.335L91.1312 113.595C91.1312 113.595 87.5873 114.863 82.8559 117.092C78.1237 119.321 68.575 122.531 68.575 122.531L72.435 123.108C72.435 123.108 70.9934 125.085 62.709 127.333C54.426 129.579 44.0352 135.233 44.0352 135.233L51.6699 133.339L44.1887 138.791C44.1887 138.791 57.7111 133.445 65.8043 130.328C73.8975 127.211 78.3421 125.735 78.3421 125.735L74.5785 128.286L84.8473 124.08Z" fill="#A2BFA3"/>
<path d="M81.9018 113.903C79.0905 114.271 64.2466 120.137 64.2466 120.137L66.9225 117.547C66.9225 117.547 56.1785 122.352 53.1468 124.546C50.1179 126.739 50.8428 126.377 49.2617 127.298C47.6827 128.221 42.7454 130.657 42.7454 130.657L49.5031 124.405C49.5031 124.405 38.3733 129.708 35.9849 133.33C33.5986 136.953 33.5986 136.953 33.5986 136.953C33.5986 136.953 37.139 129.131 43.2101 124.724C49.2799 120.317 53.8076 118.294 53.8076 118.294L47.1147 124.447L59.7022 117.881L55.4619 122.104L65.0092 116.113L71.7795 110.933L64.0129 114.186C64.0129 114.186 71.8277 108.33 80.6605 105.565C89.4954 102.8 88.986 103.045 88.986 103.045L72.4654 114.421L88.3197 110.381L81.9018 113.903Z" fill="#8DA68E"/>
<path d="M29.3291 142.701C32.2227 139.239 35.7205 136.51 39.2588 133.957C50.023 126.507 61.5638 120.453 73.6997 116.272C81.6408 113.509 89.136 109.201 96.0061 103.984C100.867 100.285 105.418 96.0998 109.575 91.4396C111.479 90.6016 113.367 90.1732 114.906 90.8235C103.633 103.656 89.6594 113.353 74.23 118.19C62.1157 121.863 50.3893 127.432 39.4911 134.395C35.8796 136.794 32.3266 139.368 29.3291 142.701Z" fill="#517352"/>
<path d="M0 78.8876C0 78.8876 -8.51746e-08 78.8876 1.07314 78.5234C2.31653 78.1173 5.00496 77.2388 10.7635 75.3291C21.5437 71.7691 60.0546 76.735 76.2794 77.8584C87.9437 78.6657 92.9626 84.6622 94.8654 87.9632C94.931 88.0756 94.9812 88.1921 95.0294 88.287C95.6294 89.4048 95.8674 90.1444 95.8674 90.1444C94.1593 90.7535 92.5021 91.3354 90.8875 91.8504C49.7091 105.145 35.5141 89.335 24.1512 87.7581C11.4654 85.9684 0 78.8876 0 78.8876Z" fill="#8DA68E"/>
<path d="M1.07324 78.5274C2.31663 78.1213 5.00506 77.2428 10.7636 75.3331C21.5438 71.7732 60.0548 76.7391 76.2795 77.8624C87.9438 78.6697 92.9627 84.6662 94.8655 87.9673C94.9311 88.0796 94.9813 88.1961 95.0295 88.291L64.8134 87.7189L1.07324 78.5274Z" fill="#718C73"/>
<path d="M71.8785 92.1272C66.7647 93.3726 59.1907 93.7871 59.1907 93.7871L60.6071 92.7921L50.0473 92.3867L53.5479 91.3931C53.5479 91.3931 49.2324 90.8824 42.8382 89.8392C36.4433 88.7961 30.4824 87.5192 30.4824 87.5192L36.3184 87.8297L33.0906 86.1921L43.3043 88.0781L40.7624 85.77L44.644 87.0901L42.9219 84.5503L62.6257 87.5206L75.315 89.4408C75.315 89.4408 74.0471 91.6004 71.8785 92.1272Z" fill="#A2BFA3"/>
<path d="M78.8688 88.2589C78.3385 88.3287 63.3676 86.7064 63.3676 86.7064L67.4508 84.8309L49.1886 83.434L51.5302 81.8389L31.6653 81.1872L33.9588 79.8134L23.1953 81.384C23.1953 81.384 29.8777 76.947 34.8952 76.9184C39.9141 76.8877 45.5212 77.2289 45.5212 77.2289L38.4209 77.8883L52.3236 79.0242L48.2438 79.7352C48.2438 79.7352 52.445 79.3654 58.3605 80.292C64.2767 81.2193 71.077 81.2249 71.077 81.2249L67.9029 79.4031L72.8277 79.8329L69.5357 78.2937C69.5357 78.2937 78.6671 80.7693 81.0604 81.3512C83.4537 81.9317 83.8682 82.1466 83.8682 82.1466L75.5942 82.6909L84.1577 89.7109L78.8688 88.2589Z" fill="#8DA68E"/>
<path d="M14.2422 80.2515L57.0854 85.6639C67.7582 86.9247 78.4617 88.284 89.1324 88.3286C91.0331 88.263 92.9979 88.2895 94.8665 87.9644C95.595 89.2685 95.8685 90.1456 95.8685 90.1456C94.1604 90.7547 92.5032 91.3366 90.8886 91.8516C90.3095 91.846 89.7485 91.839 89.2057 91.8481C78.3808 91.2962 67.6473 89.4346 56.9424 87.6504L14.2422 80.2515Z" fill="#517352"/>
<path d="M220.653 101.579C221.563 90.2847 222.503 78.8025 225.441 68.0139C226.8 62.9873 228.624 58.1666 231.043 53.731C233.463 49.3191 235.97 45.0356 239.788 42.3458C240.283 41.976 240.803 41.6648 241.358 41.3682C241.671 41.2057 241.982 41.0452 242.314 40.9007C242.645 40.7556 243.011 40.6056 243.347 40.7647C243.404 40.7968 243.441 40.8128 243.5 40.8666C243.693 41.004 243.829 41.2294 243.963 41.4541C244.165 41.7939 244.386 42.1511 244.573 42.5118C252.792 56.8108 255.527 77.0002 245.651 90.3189C230.541 110.671 229.68 129.748 229.68 129.748C229.68 129.748 229.239 129.584 228.545 129.105C225.798 127.235 219.143 120.64 220.653 101.579Z" fill="#8DA68E"/>
<path d="M220.653 101.579C221.563 90.2848 222.503 78.8026 225.441 68.014C226.8 62.9874 228.624 58.1666 231.043 53.731C233.463 49.3192 235.97 45.0357 239.788 42.3458C240.283 41.976 240.803 41.6648 241.358 41.3683C241.671 41.2057 241.982 41.0452 242.314 40.9008C242.645 40.7557 243.011 40.6057 243.347 40.7647C243.404 40.7968 243.441 40.8129 243.5 40.8666C238.177 56.4711 230.848 78.199 227.839 97.7193C226.956 103.31 226.454 108.731 226.445 113.783C226.433 115.022 226.467 116.233 226.535 117.422C226.74 121.696 227.377 125.649 228.545 129.105C225.798 127.235 219.143 120.64 220.653 101.579Z" fill="#718C73"/>
<path d="M229.459 93.4911C230.107 89.7351 230.777 85.9958 231.669 82.3508C232.553 80.9379 233.753 78.996 234.016 78.5955C234.456 77.9299 234.843 84.9367 234.843 84.9367L236.778 79.8982L238.048 84.1328C238.048 84.1328 238.486 79.9784 239.132 79.0016C239.775 78.0261 240.776 84.5061 240.776 84.5061L244.202 80.8339L243.611 84.6227L247.968 82.1666C247.763 82.6201 244.396 89.9758 240.25 94.7163C236.118 99.4359 232.048 107.717 232.048 107.717C232.348 102.362 234.323 91.9839 234.432 91.3406L231.074 97.8227L230.527 91.3441L229.459 93.4911Z" fill="#A2BFA3"/>
<path d="M223.389 101.344C223.389 101.344 223.389 101.344 223.389 91.7909C223.373 82.2596 225.736 77.406 225.736 77.406L226.547 83.6293L230.001 76.1396L230.423 80.8501C229.357 85.98 228.599 91.1908 227.985 96.4225L227.847 96.7051C227.847 96.7051 227.433 90.4295 227.559 89.5204C227.702 88.6098 225.119 93.2471 225.119 93.2471L223.389 101.344Z" fill="#8DA68E"/>
<path d="M226.519 118.238C226.412 116.75 226.394 115.273 226.446 113.785C226.481 111.772 226.626 109.786 226.787 107.798C227.119 104.427 227.453 101.078 227.839 97.7216C227.889 97.289 227.938 96.8571 227.986 96.4245C228.6 91.1928 229.358 85.982 230.424 80.8521C230.694 79.5606 230.997 78.2621 231.301 76.9657C232.939 70.3008 234.781 63.7328 236.657 57.1789C238.194 51.8864 239.751 46.6331 241.359 41.3706C241.672 41.2081 241.983 41.0476 242.315 40.9032C242.646 40.758 243.011 40.608 243.348 40.7671C243.405 40.7992 243.442 40.8152 243.501 40.869C243.694 41.0064 243.83 41.2318 243.964 41.4565C244.165 41.7963 244.387 42.1535 244.574 42.5143C240.496 54.1018 236.463 65.764 232.962 77.6209C232.484 79.1838 232.058 80.7614 231.671 82.353C230.779 85.998 230.109 89.7373 229.461 93.4933C229.222 94.8832 228.979 96.2529 228.742 97.6449C227.716 104.168 226.523 110.733 226.535 117.424C226.517 117.69 226.519 117.974 226.519 118.238Z" fill="#517352"/>
<path d="M174.479 103.134C179.119 93.5827 183.738 83.9943 188.667 74.627C191.827 68.6361 194.602 60.9106 200.445 57.754C200.577 57.6954 200.69 57.62 200.806 57.5649C201.099 57.4044 201.377 57.2467 201.638 57.1113C202.377 56.7304 202.985 56.5483 203.46 56.9739C203.717 57.2041 203.924 57.583 204.108 58.1866C204.114 58.2277 204.137 58.2647 204.141 58.3045C204.891 60.9657 205.414 64.04 205.775 66.8122C206.188 69.9848 206.429 73.1763 206.618 76.3776C207.05 83.8652 205.718 91.1197 203.471 98.2074C201.712 103.793 198.862 108.81 194.53 112.663C186.494 119.819 176.611 125.958 171.206 134.352C171.206 134.352 171.184 134.314 171.17 134.214C170.7 132.755 166.742 119.033 174.479 103.134Z" fill="#8DA68E"/>
<path d="M174.479 103.134C179.119 93.5835 183.738 83.995 188.667 74.6277C191.827 68.6368 194.602 60.9113 200.445 57.7547C200.577 57.6961 200.69 57.6207 200.806 57.5656C201.099 57.4051 201.377 57.2474 201.638 57.1121C200.788 64.1586 198.405 79.2168 192.564 92.4545C184.61 110.451 179.037 117.691 175.1 123.64C172.41 127.726 171.474 131.965 171.17 134.215C170.7 132.756 166.742 119.034 174.479 103.134Z" fill="#718C73"/>
<path d="M193.195 95.4716L198.528 88.6337L196.815 93.8689L199.837 90.9684L198.101 96.0271L201.125 93.7391C201.125 93.7391 201.681 103.344 196.544 108.4C191.408 113.457 186.565 117.223 186.565 117.223L194.048 108.816L187.716 112.398L190.495 108.833C190.495 108.833 187.639 110.326 185.154 114.095C182.672 117.865 182.672 117.865 182.672 117.865L184.903 111.382C184.903 111.382 191.376 100.044 193.195 95.4716Z" fill="#A2BFA3"/>
<path d="M185.466 104.47L179.952 110.679L181.994 104.924L177.641 109.841L181.581 99.4951L177.296 104.949L177.268 101.903C177.268 101.903 173.075 109.748 172.554 114.77C172.554 114.77 174.251 101.858 181.086 91.748C187.922 81.6397 187.922 81.6397 187.922 81.6397L182.933 92.3969L187.042 87.2845L185.007 95.9156L189.651 88.6241C189.651 88.6241 190.685 94.6185 189.078 98.5161C187.469 102.412 185.466 104.47 185.466 104.47Z" fill="#8DA68E"/>
<path d="M176.694 121.77C191.122 105.056 196.977 80.4983 200.805 57.5647C201.93 56.9304 202.807 56.4092 203.459 56.9737C203.716 57.2039 203.923 57.5828 204.108 58.1864C204.113 58.2275 204.136 58.2645 204.14 58.3043C199.224 81.1982 192.053 105.886 176.694 121.77Z" fill="#517352"/>
<path d="M232.237 187.586C247.074 169.22 247.074 169.22 247.074 169.22L244.355 178.05C244.355 178.05 270.993 162.482 284.913 142.121C298.825 121.74 298.825 121.74 298.825 121.74L296.587 131.072C297.185 130.869 355.084 111.276 378.643 77.5123L376.406 87.3087C377.38 86.2488 408.466 51.6104 425.096 13.006C425.584 11.8882 426.051 10.7788 426.513 9.64775L422.574 9.53542L407.652 9.11606L354.413 7.63823C273.969 38.5137 230.789 79.8023 215.102 128.304C201.144 171.416 181.655 217.899 177.505 227.674C177.341 228.041 177.202 228.353 177.091 228.612C177.091 228.612 177.096 228.632 177.077 228.639L177.064 228.666C176.833 229.23 176.694 229.543 176.694 229.543C176.694 229.543 217.383 205.96 232.237 187.586Z" fill="#7DA66A"/>
<path d="M232.237 187.586C247.074 169.22 247.074 169.22 247.074 169.22L244.355 178.05C244.355 178.05 270.993 162.482 284.913 142.121C298.825 121.74 298.825 121.74 298.825 121.74L296.587 131.072C297.185 130.869 355.084 111.276 378.643 77.5123L376.406 87.3087C377.38 86.2489 408.466 51.6104 425.096 13.006C425.584 11.8882 426.051 10.7788 426.513 9.64777L422.574 9.53543C406.02 15.384 374.904 26.7426 364.171 33.0231C349.293 41.7394 307.352 73.3028 307.352 73.3028L268.719 116.447L233.843 159.101L213.416 180.861L195.166 208.223L177.077 228.639L177.064 228.666C176.833 229.23 176.694 229.543 176.694 229.543C176.694 229.543 217.383 205.96 232.237 187.586Z" fill="#648754"/>
<path d="M206.18 203.538C206.419 199.995 207.372 195.913 208.499 192.104C205.959 195.246 203.538 198.206 201.266 200.948L201.262 200.961L201.254 200.964C189.631 214.993 181.542 223.889 177.093 228.611C177.204 228.352 177.343 228.04 177.507 227.674C182.107 222.272 189.695 213.042 197.528 202.22L190.525 204.582L200.19 198.49C204.104 192.933 208.002 187.042 211.546 181.092C215.953 173.69 223.107 163.693 232.175 152.266L212.386 154.608C212.386 154.608 229.224 150.329 238.241 144.762C248.228 132.61 259.997 119.245 272.7 105.87C250.867 110.725 239.747 104.711 239.747 104.711C252.565 107.01 273.396 99.5074 280.97 97.3032C296.301 81.4859 309.852 68.8768 326.004 55.5338C332.173 50.4416 337.845 46.0492 343.12 42.2088C328.836 43.5304 308.062 38.263 308.062 38.263C317.916 39.6418 341.616 36.6819 352.214 35.8565C378.255 18.0674 391.463 16.1437 407.654 9.11523C410.91 7.73091 414.191 6.15678 417.583 4.32588L428.113 -0.000167847L431.704 10.644C431.704 10.644 429.264 11.489 425.098 13.0052C418.742 15.3399 408.363 19.2947 396.518 24.3464C384.592 38.4075 371.343 72.8407 371.343 72.8407C372.591 56.8078 378.204 40.3082 381.932 30.8215C364.398 38.9434 345.962 48.8033 333.453 59.026C329.981 61.8644 326.104 65.2548 321.951 69.0436C308.442 88.3419 288.101 126.335 288.101 126.335C292.35 110.297 300.209 94.4668 305.791 84.4087C291.577 98.3896 275.72 115.012 260.712 131.397C257.131 138.623 237.068 175.614 237.068 175.614L249.387 143.898C236.071 158.757 224.055 172.758 215.29 183.647C210.807 193.249 206.18 203.538 206.18 203.538Z" fill="#50753D"/>
<path d="M214.055 146.225C222.777 144.262 222.777 144.262 222.777 144.262L220.135 142.806L232.784 140.885L226.743 139.208C226.743 139.208 236.529 139.817 239.861 137.522C243.193 135.225 262.444 111.719 262.444 111.719C262.444 111.719 240.43 116.018 229.797 108.261C229.797 108.261 236.976 116.791 242.951 116.535L232.289 116.807L242.962 119.465L228.206 122.094L241.747 123.98C241.747 123.98 231.758 132.628 223.91 133.124C216.061 133.621 214.055 146.225 214.055 146.225Z" fill="#96C77F"/>
<path d="M210.007 161.473L221.484 159.557L209.055 174.307L211.69 173.42L195.955 197.496C195.955 197.496 199.57 175.747 210.007 161.473Z" fill="#96C77F"/>
<path d="M237.896 95.1678C244.64 97.1934 262.034 95.4337 262.034 95.4337L256.197 93.1974C256.197 93.1974 273.218 93.226 278.836 91.3309C284.454 89.4351 329.592 46.4481 329.592 46.4481L300.162 41.5122L312.46 46.6728C312.46 46.6728 304.007 51.7531 287.346 45.8348C287.346 45.8348 293.056 53.4912 302.843 54.1004L287.609 54.1534L302.977 58.5534C302.977 58.5534 281.678 66.7129 270.062 62.4182L283.793 68.347C283.793 68.347 269.555 67.8705 259.723 71.1855C249.891 74.5005 246.749 80.8402 246.749 80.8402L276.337 80.4418C276.337 80.4418 250.805 84.1643 245.186 86.0594C239.569 87.9545 237.896 95.1678 237.896 95.1678Z" fill="#96C77F"/>
<path d="M413.64 22.0122C403.403 26.4422 400.062 26.3954 397.671 29.1571C395.277 31.9202 385.369 46.6016 385.369 46.6016L378.93 64.6119L385.172 57.0315L383.676 64.771L382.423 74.9707C382.423 74.9707 390.588 64.3956 398.345 53.7626C406.098 43.131 406.132 36.0802 406.132 36.0802L398.539 42.7465C398.539 42.7465 405.884 32.0577 408.161 30.1158C410.439 28.1747 413.64 22.0122 413.64 22.0122Z" fill="#77A164"/>
<path d="M293.105 100.888C282.794 117.857 261.586 134.982 261.586 134.982L252.098 152.066L256.069 148.184L250.8 166.189L259.49 154.852L258.103 160.598L267.96 147.498L266.631 152.834C266.631 152.834 274.337 144.956 279.288 137.029C284.242 129.101 293.105 100.888 293.105 100.888Z" fill="#77A164"/>
<path d="M203.356 203.212L187.952 220.727L204.107 199.635L203.356 203.212Z" fill="#77A164"/>
<path d="M215.519 196.371L210.27 202.834L218.579 183.412L230.832 169.306L230.37 171.734L232.651 169.476L237.584 163.642L241.661 157.932L237.779 164.542L224.693 189.366L225.259 183.505L215.824 199.592L215.519 196.371Z" fill="#77A164"/>
<path d="M317.305 108.31L304.7 121.891L316.708 99.0121L317.857 96.8707L304.188 113.218L325.029 70.9304L326.127 81.4623L333.824 67.1228L335.852 76.2682L343.995 62.2637L349.516 51.3265L349.749 60.5012L368.154 43.601L365.578 54.7154L371.239 46.9809C371.239 46.9809 371.239 46.9809 368.897 57.4088C367.874 61.9637 366.262 65.3826 363.974 69.0284L354.694 90.0935L354.382 85.3208L346.696 99.7496L346.812 94.3183C341.314 102.154 340.012 102.319 340.012 102.319L338.902 95.0433L329.303 107.767L328.707 102.338L317.923 113.531L317.305 108.31Z" fill="#77A164"/>
<path d="M290.201 249.604C291.151 239.263 286.494 233.002 284.792 231.079C288.173 222.274 293.205 212.869 299.077 203.469C299.248 207.243 299.952 210.932 301.338 214.2C300.459 216.853 298.914 223.532 303.958 227.429C310.314 232.395 314.497 222.911 311.971 217.925C309.655 213.331 302.994 213.066 301.894 213.063C300.804 209.076 300.643 204.651 301.136 200.243C311.662 183.879 324.366 167.729 334.499 155.358C340.762 150.146 347.06 144.999 353.505 139.887C351.508 146.079 349.932 152.213 348.923 158.38C348.187 163.425 347.832 168.515 348.298 173.393C348.216 173.663 346.882 178.491 347.865 184.159C348.868 190.041 355.888 190.982 356.72 186.058C357.439 181.893 350.892 175.657 348.875 173.872C348.62 170.421 348.775 166.893 349.229 163.317C351.476 168.508 355.057 172.934 360.041 175.744C361.368 177.754 368.086 187.037 375.122 183.459C383.024 179.449 385.762 175.496 376.823 173.617C369.685 172.093 363.083 174.124 360.707 174.995C355.034 171.07 351.542 164.692 350.208 157.641C351.629 150.915 353.944 144.108 356.486 137.544C369.297 127.473 382.373 117.596 395.628 107.877C404.677 101.351 413.783 94.9328 423.001 88.5414C419.04 94.683 415.704 101.028 413.192 107.464C407.91 108.819 402.702 110.92 397.902 113.727C395.765 113.716 390.491 114.115 385.816 118.004C379.832 123.012 376.263 131.888 384.662 130.75C392.08 129.77 397.471 117.404 398.67 114.438C403.053 112.245 407.71 110.747 412.272 109.859C411.77 111.218 411.318 112.552 410.89 113.93C410.645 114.564 410.5 115.201 410.295 115.843L409.865 116.491C404.363 124.465 403.48 129.416 405.943 133.315C408.407 137.216 419.164 129.107 416.168 122.269C414.067 117.532 412.511 115.643 411.77 114.917C413.678 109.952 416.102 105.047 418.928 100.292C420.284 100.774 421.543 101.504 422.627 102.328C422.168 104.253 421.486 108.792 424.451 110.239C428.327 112.125 436.383 107.976 431.974 103.152C428.577 99.4396 425.026 100.408 423.559 101.047C422.581 99.9985 421.464 99.0537 420.155 98.2932C423.652 92.677 427.738 87.252 432.305 82.1312C448.598 70.9616 465.231 59.9476 482.166 49.1946C489.627 45.0828 497.137 40.9995 504.575 36.8423C504.741 36.6714 504.907 36.4977 505.073 36.3267L501.818 30.2137C498.713 31.8395 495.647 33.4722 492.539 35.1545C480.968 42.5213 469.396 49.8861 458.03 57.3953C440.64 68.8663 423.578 80.5285 406.816 92.3944L383.773 95.9795C382.89 95.4115 382.071 94.7828 381.292 94.106C382.231 91.4483 381.299 82.7829 376.328 84.0563C369.985 85.7246 372.189 85.9249 380.152 94.5721C380.175 94.6167 380.236 94.6112 380.272 94.6775C380.697 95.235 381.149 95.7799 381.687 96.3046L372.4 97.7769C369.847 96.1371 364.21 93.3664 359.736 97.1496C353.814 102.153 354.321 105.047 362.674 103.879C369.213 102.946 372.301 100.322 373.327 99.2142C378.268 98.8535 383.936 98.1627 389.123 97.4175L385.141 100.855C380.164 101.935 369.847 104.682 367.616 109.344C364.742 115.525 373.093 114.357 379.104 109.335C383.067 105.991 385.584 103.139 386.858 101.592C388.492 99.9936 390.032 98.2785 391.084 97.1014C397.093 96.1992 402.014 95.2601 403.55 94.7507C399.679 97.4838 395.834 100.262 392.036 103.01C386.25 107.24 380.524 111.52 374.861 115.796C369.499 119.185 364.115 122.472 358.699 125.635C347.744 131.917 336.577 137.919 325.27 143.238C321.122 142.785 317.132 142.079 313.309 141.202C312.557 138.154 310.082 131.32 301.788 126.658C290.863 120.567 282.38 125.672 282.915 132.253C283.42 138.596 296.563 147.034 311.919 143.2C314.533 144.108 317.211 144.951 319.965 145.643C309.646 150.267 299.228 154.161 288.857 156.992C286.31 155.604 271.126 147.999 261.647 152.57C251.254 157.6 251.646 166.523 257.818 169.262C263.139 171.556 282.497 161.052 287.884 158.016C293.623 156.669 299.434 155.033 305.292 153.062C303.246 157.037 300.807 160.884 297.933 164.461C295.145 165.103 286.907 167.333 283.634 172.158C279.66 177.971 283.761 182.764 289.556 177.886C293.457 174.605 296.316 169.609 297.798 166.689C302.431 162.178 306.259 157.001 309.451 151.661C324.625 146.27 340.033 139.076 354.973 131.065C336.394 145.58 318.506 160.539 301.55 176.346C300.423 177.565 298.399 179.706 296.415 181.855C287.032 184.301 271.082 189.262 264.338 195.571C254.523 204.72 260.308 219.768 270.884 217.385C280.841 215.111 291.99 201.918 301.633 183.897C303.308 182.557 304.867 181.305 305.795 180.56C310.753 175.93 315.909 171.364 321.072 166.877C319.765 168.667 318.397 170.461 317.112 172.292C305.955 188.682 291.011 210.508 284.159 230.435C284.159 230.435 270.27 249.512 273.576 259.24C276.871 268.945 289.013 262.284 290.201 249.604Z" fill="#162E25"/>
<path d="M478.739 100.101C479.346 100.029 479.935 99.9761 480.489 99.9398C480.757 99.9223 481.007 99.9223 481.258 99.9223C481.364 99.9042 481.454 99.9042 481.543 99.9042H481.99C482.365 99.9042 482.704 99.9042 483.008 99.9398C483.365 99.9761 483.687 100.029 483.973 100.118C484.294 100.208 484.562 100.351 484.758 100.512C484.991 100.708 485.151 100.94 485.223 101.226C485.24 101.369 485.259 101.53 485.259 101.69C485.259 101.798 485.24 101.923 485.223 102.048C485.223 102.137 485.205 102.226 485.187 102.316C485.187 102.405 485.151 102.512 485.116 102.619C484.883 103.37 484.419 104.334 483.651 105.531C479.061 112.748 453.642 115.766 458.965 110.426C464.735 104.691 465.878 101.441 474.148 100.601C474.917 100.512 475.667 100.44 476.417 100.351H476.435C477.239 100.244 477.989 100.172 478.739 100.101ZM401.252 103.53C407.111 103.53 394.982 120.678 389.963 121.929C384.943 123.197 377.173 126.966 381.603 119.553C386.444 111.515 395.411 103.53 401.252 103.53ZM331.285 92.6162C332.571 91.9199 367.134 73.2536 385.229 87.6147C403.627 102.28 361.794 112.73 346.325 108.96C330.856 105.209 324.89 99.1723 311.958 147.383C311.958 147.383 333.785 136.558 337.537 152.473C341.306 168.371 308.671 161.654 305.33 175.891C302.009 189.984 304.848 232.389 313.458 251.878C313.53 252.074 313.601 252.253 313.69 252.432C313.69 252.432 336.268 250.77 339.626 241.964C342.966 233.193 340.877 209.758 353.434 214.778C365.973 219.815 358.454 241.964 358.454 241.964C358.454 241.964 395.25 237.802 401.52 231.514C407.807 225.263 391.909 197.63 405.289 192.61C418.667 187.609 434.565 196.808 434.565 226.495C434.565 226.495 467.164 221.547 485.705 207.222V202.792L485.687 202.202C485.634 200.827 485.098 199.273 485.098 199.273C484.669 198.004 483.919 196.897 483.919 196.897C483.58 196.307 482.99 195.7 482.99 195.7C482.419 194.95 481.097 193.985 481.097 193.985C477.56 197.951 473.148 201.363 471.933 200.148C470.522 198.737 469.7 196.701 469.201 194.432C468.325 190.628 468.307 186.162 467.772 183C467.646 182.285 467.521 181.535 467.45 180.821C467.43 180.632 467.419 180.453 467.405 180.268C467.346 179.617 467.301 178.976 467.325 178.392C467.325 178.195 467.342 177.998 467.361 177.82C467.378 177.659 467.414 177.481 467.432 177.302C467.467 177.123 467.504 176.98 467.539 176.82C467.521 176.802 467.521 176.802 467.539 176.802C467.593 176.569 467.664 176.373 467.753 176.177C467.843 175.981 467.932 175.802 468.057 175.641C468.146 175.551 468.218 175.445 468.325 175.355C469.147 174.498 470.611 174.266 473.041 175.051C479.471 177.142 485.759 181.321 485.759 185.93C485.759 186.894 485.24 188.18 484.401 189.573L484.633 189.752C484.633 189.752 485.312 190.27 485.705 190.628C486.098 190.985 486.741 191.628 486.741 191.628C486.741 191.628 487.259 192.217 487.438 192.414C487.616 192.61 487.974 193.11 488.098 193.289C488.224 193.468 488.671 194.128 488.671 194.128C488.671 194.128 489.099 194.754 489.474 195.522C489.849 196.29 490.26 197.29 490.403 197.79C490.564 198.272 490.778 199.059 490.885 199.648C491.01 200.237 491.099 201.005 491.135 201.363C491.153 201.738 491.189 202.238 491.189 202.238C495.012 198.041 497.602 193.182 498.155 187.609C501.067 157.903 483.937 137.826 483.937 137.826C483.937 137.826 496.887 126.537 513.213 134.879C529.504 143.256 529.95 184.25 529.95 184.25C529.95 184.25 538.613 181.089 544.955 169.353V53.5513L401.841 53.5513C361.472 60.9105 332.321 91.5626 331.285 92.6162Z" fill="#01432B"/>
<path d="M478.739 100.101C479.346 100.029 479.936 99.9761 480.49 99.9398C480.758 99.9223 481.007 99.9223 481.258 99.9223C481.365 99.9042 481.454 99.9042 481.543 99.9042H481.99C482.365 99.9042 482.704 99.9042 483.008 99.9398C483.365 99.9761 483.687 100.029 483.973 100.118C484.294 100.208 484.562 100.351 484.758 100.512C484.991 100.708 485.151 100.94 485.223 101.226C485.241 101.369 485.259 101.53 485.259 101.69C485.259 101.798 485.241 101.923 485.223 102.048C485.223 102.137 485.205 102.226 485.188 102.316C485.188 102.405 485.151 102.512 485.116 102.619C484.883 103.37 484.419 104.334 483.651 105.531C479.061 112.748 453.642 115.766 458.965 110.426C464.735 104.691 465.878 101.441 474.148 100.601C474.917 100.512 475.667 100.44 476.417 100.351H476.435C477.239 100.244 477.989 100.172 478.739 100.101ZM464.735 84.382C425.831 109.496 408.879 125.483 408.879 125.483L363.098 170.032C363.098 170.032 339.502 197.987 322.443 231.782L322.425 231.801C322.354 231.854 322.335 231.925 322.318 231.979C319.067 238.427 316.031 245.125 313.458 251.878C313.53 252.074 313.601 252.253 313.69 252.432C313.69 252.432 336.268 250.77 339.626 241.964C342.967 233.193 340.877 209.758 353.434 214.778C365.973 219.815 358.454 241.964 358.454 241.964C358.454 241.964 395.25 237.802 401.52 231.514C407.807 225.263 391.91 197.63 405.289 192.61C418.668 187.609 434.565 196.808 434.565 226.495C434.565 226.495 475.668 219.368 491.19 202.238V197.808L491.171 197.219C491.118 195.843 490.583 194.29 490.583 194.29C490.153 193.021 489.403 191.914 489.403 191.914C489.064 191.324 488.475 190.717 488.475 190.717C487.903 189.967 484.634 189.176 484.634 189.176C481.097 193.142 473.148 201.363 471.933 200.148C470.522 198.737 469.7 196.701 469.201 194.432C468.325 190.628 468.308 186.162 467.772 183C467.646 182.285 467.521 181.535 467.45 180.821C467.43 180.632 467.419 180.453 467.405 180.268C467.346 179.617 467.301 178.976 467.325 178.392C467.325 178.195 467.343 177.998 467.361 177.82C467.378 177.659 467.414 177.481 467.432 177.302C467.467 177.123 467.504 176.98 467.539 176.82C467.521 176.802 467.521 176.802 467.539 176.802C467.593 176.569 467.664 176.373 467.754 176.177C467.843 175.981 467.932 175.802 468.057 175.641C468.146 175.551 468.218 175.445 468.325 175.355C469.147 174.498 470.612 174.265 473.041 175.051C479.472 177.142 485.759 181.321 485.759 185.93C485.759 186.894 485.241 188.18 484.401 189.573L484.634 189.752C484.634 189.752 485.312 190.27 485.705 190.628C486.098 190.985 487.733 190.207 487.733 190.207C487.733 190.207 483.482 195.414 487.733 191.914C484.068 196.162 489.35 191.844 489.475 192.023C489.6 192.201 488.671 194.128 488.671 194.128C488.671 194.128 489.099 194.754 489.475 195.522C489.849 196.29 490.26 197.29 490.403 197.79C490.564 198.272 490.778 199.059 490.885 199.648C491.01 200.237 491.1 201.005 491.135 201.363C491.153 201.738 491.189 202.238 491.189 202.238C495.012 198.041 497.602 193.181 498.155 187.609C501.067 157.903 483.937 137.826 483.937 137.826C483.937 137.826 496.887 126.537 513.213 134.879C529.504 143.256 529.95 184.25 529.95 184.25C529.95 184.25 538.614 181.089 544.955 169.353V54.159C526.824 57.8564 492.136 66.7157 464.735 84.382Z" fill="#015738"/>
<path d="M460.234 199.732L455.204 212.283C455.204 212.283 464.466 201.936 469.194 194.434C468.306 190.614 468.288 186.152 467.754 182.986C467.24 179.876 466.918 176.747 468.306 175.343C465.407 166.562 461.266 158.1 461.266 158.1L474.029 170.863L463.364 146.402C475.737 153.478 483.167 165.886 483.629 166.65C483.557 166.455 482.918 164.872 477.798 152.197C471.932 137.729 451.453 116.911 438.476 119.845C425.516 122.76 422.744 132.484 408.364 143.684C389.536 158.313 383.688 177.138 383.688 177.138C394.977 167.93 417.981 162.918 417.981 162.918L408.364 175.877C421.322 168.357 433.464 174.632 433.464 174.632L423.632 179.023C441.409 179.023 441.409 196.799 441.409 196.799L434.601 192.194C441.605 202.647 443.49 213.527 443.49 213.527L460.234 199.732Z" fill="#016C45"/>
<path d="M537.619 167.527C537.619 167.527 540.45 158.566 544.955 137.833V123.914C541.606 111.054 529.663 104.354 529.663 104.354L540.114 102.696L526.734 96.8174L537.619 85.9639L527.57 86.3658L533.014 76.3342C533.014 76.3342 516.282 85.9639 499.133 89.297C489.469 91.1907 481.531 96.2473 476.438 100.351C477.242 100.25 477.996 100.167 478.733 100.1C479.354 100.033 479.939 99.9823 480.491 99.9489C481.965 99.8484 483.154 99.8644 483.976 100.116C484.294 100.217 484.562 100.351 484.762 100.518C484.998 100.702 485.148 100.936 485.214 101.222C485.248 101.372 485.266 101.524 485.266 101.69C485.266 101.792 485.248 101.926 485.232 102.042C485.214 102.16 485.182 102.294 485.148 102.412C485.132 102.478 485.114 102.546 485.098 102.612H485.114C497.189 100.989 513.753 106.029 513.753 106.029C513.753 106.029 513.753 106.029 502.684 108.323C491.596 110.634 486.152 124.852 486.152 124.852C486.152 124.852 486.152 124.852 501.226 119.561C516.282 114.269 523.401 124.852 523.401 124.852L513.385 122.776C514.12 123.245 526.03 130.967 535.089 152.201C538.02 159.052 537.619 167.527 537.619 167.527Z" fill="#016C45"/>
<path d="M396.65 102.268C403.238 95.6794 398.533 80.936 398.533 80.936L412.335 81.8772L406.374 77.7996C406.374 77.7996 420.806 77.1709 432.412 75.2898C444.019 73.4072 474.135 58.0344 474.135 58.0344C474.135 58.0344 465.038 58.9757 449.665 63.368C434.295 67.7604 422.06 67.4464 422.06 67.4464L434.608 62.1142C421.536 62.1142 401.251 66.2958 401.251 66.2958L404.179 60.8589C404.179 60.8589 382.428 69.2235 370.718 71.7333C370.718 71.7333 385.043 76.231 389.121 81.8772C393.199 87.5234 396.65 102.268 396.65 102.268Z" fill="#015738"/>
<path d="M317.597 139.913C317.597 139.913 324.499 118.581 329.83 114.504C335.164 110.423 335.164 110.423 335.164 110.423L333.909 116.699L342.379 113.874L337.986 121.927L348.025 114.816L344.576 121.927L356.183 115.758L353.673 119.557L365.907 121.927C365.907 121.927 355.554 123.286 351.476 130.188C347.398 137.088 342.693 155.598 342.693 155.598V143.678L339.869 146.5V140.854L334.85 144.305L334.223 135.52C334.223 135.52 322.555 134.954 317.597 139.913Z" fill="#015738"/>
<path d="M311.594 181.32C307.118 188.78 311.635 205.79 311.635 214.888C311.635 223.985 311.635 236.848 311.635 236.848L314.459 228.063L315.4 237.789L319.791 227.436L320.732 218.339L317.596 219.28L325.125 206.732L321.047 207.359C321.047 207.359 329.517 189.164 340.495 182.889C340.495 182.889 332.027 183.83 323.869 194.81C323.869 194.81 327.32 181.95 340.495 172.538C340.495 172.538 331.243 175.204 327.32 179.125C327.32 179.125 327.32 173.791 333.281 169.087C333.281 169.087 317.712 171.127 311.594 181.32Z" fill="#015738"/>
<path d="M358.506 207.845C362.096 210.815 367.685 224.939 365.017 233.384L370.224 230.686L367.988 238.145L376.424 230.73L376.897 235.728C376.897 235.728 389.242 232.984 393.484 227.858C397.726 222.729 397.017 215.235 393.706 210.192C390.392 205.147 387.958 199.39 391.457 193.073C391.457 193.073 384.074 201.648 387.682 209.815C387.682 209.815 380.285 198.224 382.937 192.933C382.937 192.933 375.156 196.818 376.563 203.618C377.971 210.417 377.971 210.417 377.971 210.417C377.971 210.417 368.466 195.991 370.717 189.791C372.966 183.591 372.357 181.013 372.357 181.013C372.357 181.013 366.789 188.787 364.345 196.264C361.9 203.743 358.506 207.845 358.506 207.845Z" fill="#016C45"/>
<path d="M334.85 222.416C324.654 232.613 321.36 245.631 321.36 245.631L327.008 241.238L326.694 246.258L330.145 241.238V245.631C330.145 245.631 336.732 243.121 336.732 237.789C336.732 232.456 334.85 222.416 334.85 222.416Z" fill="#016C45"/>
<path d="M359.89 175.934C398.108 132.709 447.632 100.737 500.588 78.9645C515.041 73.102 529.913 67.7768 544.953 63.6405V58.2978C533.346 61.8145 521.841 65.8335 510.536 70.3563C508.963 70.9585 507.421 71.5962 505.863 72.2319C504.122 72.9359 502.38 73.6553 500.654 74.4096C447.012 97.3376 397.823 131.385 359.89 175.934Z" fill="#017B4F"/>
<path d="M313.684 252.439C319.126 240.013 324.804 227.686 331.805 216.097C340.011 201.894 349.44 188.496 359.891 175.935C392.397 136.745 434.637 105.712 480.375 83.554C487.04 80.3548 493.824 77.2735 500.656 74.4106C502.382 73.6564 504.123 72.937 505.865 72.233C507.422 71.5973 508.964 70.9596 510.538 70.3574C521.825 65.919 533.314 61.9998 544.955 58.7685V53.5598H528.725C446.88 82.9686 372.35 138.489 330.649 215.443C327.668 220.769 324.938 226.228 322.443 231.789L322.425 231.807C322.359 231.857 322.343 231.923 322.325 231.973C319.26 238.707 316.431 245.574 313.684 252.439Z" fill="#013321"/>
</svg>
