<svg width="38" height="38" viewBox="0 0 38 38" fill="none" xmlns="http://www.w3.org/2000/svg">
<path d="M18.884 3.36133C15.6247 3.36133 12.4988 4.65609 10.1942 6.96077C7.88948 9.26545 6.59473 12.3913 6.59473 15.6506C6.59473 23.9458 17.4246 33.3164 17.8855 33.7158C18.1637 33.9538 18.5178 34.0846 18.884 34.0846C19.2501 34.0846 19.6042 33.9538 19.8825 33.7158C20.4201 33.3164 31.1732 23.9458 31.1732 15.6506C31.1732 12.3913 29.8785 9.26545 27.5738 6.96077C25.2691 4.65609 22.1433 3.36133 18.884 3.36133ZM18.884 30.4745C15.612 27.4022 9.66704 20.7813 9.66704 15.6506C9.66704 13.2061 10.6381 10.8617 12.3666 9.13322C14.0951 7.40471 16.4395 6.43364 18.884 6.43364C21.3285 6.43364 23.6728 7.40471 25.4013 9.13322C27.1299 10.8617 28.1009 13.2061 28.1009 15.6506C28.1009 20.7813 22.156 27.4175 18.884 30.4745ZM18.884 9.50596C17.6687 9.50596 16.4807 9.86633 15.4702 10.5415C14.4597 11.2167 13.6722 12.1764 13.2071 13.2991C12.742 14.4219 12.6203 15.6574 12.8574 16.8493C13.0945 18.0413 13.6797 19.1361 14.5391 19.9955C15.3984 20.8548 16.4933 21.4401 17.6852 21.6771C18.8772 21.9142 20.1126 21.7926 21.2354 21.3275C22.3582 20.8624 23.3179 20.0748 23.9931 19.0644C24.6682 18.0539 25.0286 16.8659 25.0286 15.6506C25.0286 14.0209 24.3812 12.458 23.2289 11.3057C22.0765 10.1533 20.5136 9.50596 18.884 9.50596ZM18.884 18.7229C18.2763 18.7229 17.6823 18.5427 17.1771 18.2051C16.6719 17.8675 16.2781 17.3877 16.0455 16.8263C15.813 16.2649 15.7522 15.6472 15.8707 15.0512C15.9892 14.4552 16.2819 13.9078 16.7115 13.4781C17.1412 13.0485 17.6886 12.7558 18.2846 12.6373C18.8806 12.5188 19.4983 12.5796 20.0597 12.8121C20.6211 13.0447 21.1009 13.4385 21.4385 13.9437C21.7761 14.4489 21.9563 15.0429 21.9563 15.6506C21.9563 16.4654 21.6326 17.2469 21.0564 17.823C20.4803 18.3992 19.6988 18.7229 18.884 18.7229Z" fill="#FFF7EB"/>
</svg>
