<svg width="250" height="280" viewBox="0 0 250 280" fill="none" xmlns="http://www.w3.org/2000/svg">
<path fill-rule="evenodd" clip-rule="evenodd" d="M55.2508 39.0456C54.8264 40.2618 59.49 51.8372 57.9581 53.1801C56.427 54.5204 46.0921 50.9163 44.3327 50.7727C42.3825 50.6158 34.3339 57.7043 32.3695 56.6176C30.4051 55.5326 31.0694 44.4314 29.9859 42.7029C28.9489 41.0444 19.4049 36.4263 20.2128 34.4612C21.4353 31.4962 30.4871 29.0205 31.6008 27.924C32.966 26.5873 34.4695 16.8865 36.9395 16.0631C39.7529 15.1306 45.6935 24.8331 47.1309 25.5396C47.7141 25.8232 50.6273 25.8073 53.6591 25.8383C57.0904 25.8729 60.6707 25.9615 61.1896 26.5962C62.8999 28.6889 55.8679 37.2843 55.2508 39.0456Z" fill="#FFD44E"/>
<path fill-rule="evenodd" clip-rule="evenodd" d="M32.4826 56.668C32.4425 56.6529 32.405 56.6378 32.3694 56.6175C30.4049 55.5325 31.0693 44.4313 29.9858 42.7028C28.9523 41.0532 19.4797 36.4625 20.2037 34.4841C20.2082 34.477 20.21 34.4681 20.2127 34.4611L20.3455 34.2297C21.5404 34.8289 22.7594 35.3554 23.9953 35.8075C35.4413 39.9869 48.5976 37.9809 59.7333 31.8701C58.3717 34.2341 56.5544 36.7559 55.6975 38.1848C55.6912 38.1963 55.6841 38.2079 55.6787 38.2167C55.6761 38.2167 55.6752 38.2194 55.6743 38.2212C55.6734 38.2256 55.6689 38.2309 55.6671 38.2353C55.6662 38.2371 55.6645 38.2371 55.6627 38.2415C55.6627 38.2442 55.66 38.2486 55.6573 38.2486C55.6564 38.2557 55.6511 38.2602 55.6502 38.2646C55.6493 38.2673 55.6493 38.2673 55.6493 38.2673C55.6448 38.2717 55.6422 38.2779 55.6386 38.2823C55.6386 38.285 55.6368 38.285 55.6359 38.2876C55.6324 38.2938 55.6306 38.2965 55.6261 38.3036C55.6261 38.3054 55.6243 38.3054 55.6243 38.308C55.6199 38.3142 55.619 38.3169 55.6145 38.324C55.6136 38.324 55.6136 38.324 55.6127 38.3258C55.6065 38.339 55.5967 38.3532 55.5896 38.3648C55.5869 38.3736 55.5833 38.3781 55.5789 38.3825C55.578 38.3851 55.578 38.3851 55.578 38.3851C55.5762 38.3913 55.5717 38.3958 55.569 38.4055C55.569 38.4055 55.569 38.4055 55.5655 38.4055C55.5155 38.4942 55.4701 38.5775 55.4282 38.6573C55.4219 38.6688 55.4175 38.6777 55.4112 38.6892C55.4121 38.6892 55.4112 38.6909 55.4112 38.6909C55.3943 38.7255 55.3773 38.7548 55.3622 38.784L55.3631 38.7867C55.3426 38.8275 55.3238 38.8656 55.3078 38.9019C55.3087 38.9019 55.3078 38.9046 55.3078 38.9046C55.3069 38.909 55.3051 38.9117 55.3024 38.9161C55.3042 38.9161 55.3024 38.9179 55.3024 38.9179C55.3015 38.9223 55.2998 38.925 55.2962 38.9294C55.2953 38.932 55.2953 38.932 55.2953 38.932C55.2908 38.9453 55.2855 38.9569 55.2801 38.9702C55.281 38.9702 55.2801 38.9702 55.2792 38.9728C55.2783 38.9773 55.2775 38.979 55.2739 38.9817C55.2739 38.9843 55.2739 38.9843 55.273 38.9861C55.2721 38.9888 55.2703 38.9906 55.2694 38.995C55.2694 38.995 55.2694 38.995 55.2685 38.9976C55.2676 38.9994 55.2668 39.0047 55.265 39.0065L55.2641 39.0092C55.2623 39.0136 55.2623 39.0154 55.2605 39.018L55.2596 39.0198C55.2578 39.0251 55.2578 39.0269 55.2561 39.0313L55.2552 39.034C55.2543 39.0358 55.2525 39.0411 55.2507 39.0455C54.8485 40.1961 58.995 50.6015 58.155 52.8715C58.1077 53.0018 58.0418 53.1056 57.9579 53.18C56.4269 54.5202 46.0919 50.9161 44.3326 50.7726C42.4172 50.6192 34.6218 57.4489 32.4826 56.668Z" fill="#FFC229"/>
<path fill-rule="evenodd" clip-rule="evenodd" d="M46.9025 30.5628C45.9288 30.2065 46.1954 28.5321 47.3778 28.6411C49.5482 28.8406 51.971 28.8911 54.1182 28.478C54.3171 28.4417 54.4892 28.4532 54.6381 28.5073C55.4469 28.8042 55.4977 30.2384 54.4286 30.4449C52.1315 30.8899 49.5019 30.8376 47.178 30.6222C47.0764 30.6134 46.9845 30.593 46.9025 30.5628Z" fill="#FFE975"/>
<path fill-rule="evenodd" clip-rule="evenodd" d="M43.5159 28.6277C43.366 28.5727 43.2216 28.4752 43.0932 28.3281C42.1444 27.2254 41.1903 26.1218 40.2406 25.0174C39.5254 24.193 40.5491 23.1719 41.3873 23.4786C41.5371 23.5327 41.6807 23.6311 41.8091 23.7782C42.7615 24.8809 43.712 25.9862 44.6644 27.0862C45.3778 27.915 44.355 28.9362 43.5159 28.6277Z" fill="#FFE975"/>
<path fill-rule="evenodd" clip-rule="evenodd" d="M164.237 34.2116C164.569 35.1639 160.917 44.2285 162.117 45.28C163.316 46.3296 171.409 43.5073 172.787 43.3948C174.314 43.272 180.616 48.8228 182.155 47.9718C183.693 47.1222 183.173 38.4291 184.021 37.0755C184.833 35.7768 192.307 32.1605 191.674 30.6216C190.717 28.2998 183.629 26.3611 182.757 25.5025C181.688 24.4557 180.51 16.8593 178.576 16.2144C176.373 15.4842 171.721 23.0821 170.595 23.6353C170.139 23.8574 167.857 23.8449 165.483 23.8692C162.796 23.8963 159.993 23.9657 159.586 24.4627C158.247 26.1015 163.754 32.8324 164.237 34.2116Z" fill="#FFD44E"/>
<path fill-rule="evenodd" clip-rule="evenodd" d="M182.066 48.0115C182.097 47.9997 182.127 47.9879 182.155 47.9719C183.693 47.1223 183.173 38.4292 184.021 37.0756C184.83 35.7839 192.248 32.189 191.681 30.6397C191.678 30.6342 191.676 30.6272 191.674 30.6217L191.57 30.4405C190.635 30.9097 189.68 31.3221 188.712 31.6761C179.749 34.9488 169.447 33.378 160.726 28.5928C161.793 30.444 163.216 32.4188 163.887 33.5377C163.892 33.5467 163.897 33.5557 163.902 33.5627C163.904 33.5627 163.904 33.5648 163.905 33.5661C163.906 33.5696 163.909 33.5738 163.911 33.5773C163.911 33.5786 163.913 33.5786 163.914 33.5821C163.914 33.5842 163.916 33.5877 163.918 33.5877C163.919 33.5932 163.923 33.5967 163.924 33.6002C163.925 33.6022 163.925 33.6022 163.925 33.6022C163.928 33.6057 163.93 33.6106 163.933 33.614C163.933 33.6161 163.934 33.6161 163.935 33.6182C163.938 33.6231 163.939 33.6251 163.943 33.6307C163.943 33.6321 163.944 33.6321 163.944 33.6342C163.948 33.639 163.948 33.6411 163.952 33.6467C163.953 33.6467 163.953 33.6467 163.953 33.6481C163.958 33.6585 163.966 33.6696 163.971 33.6786C163.973 33.6855 163.976 33.689 163.98 33.6925C163.98 33.6946 163.98 33.6946 163.98 33.6946C163.982 33.6994 163.985 33.7029 163.987 33.7105C163.987 33.7105 163.987 33.7105 163.99 33.7105C164.029 33.7799 164.065 33.8452 164.098 33.9077C164.103 33.9167 164.106 33.9236 164.111 33.9326C164.11 33.9326 164.111 33.934 164.111 33.934C164.124 33.9611 164.138 33.984 164.149 34.0069L164.149 34.009C164.165 34.0409 164.179 34.0708 164.192 34.0992C164.191 34.0992 164.192 34.1013 164.192 34.1013C164.193 34.1048 164.194 34.1069 164.196 34.1103C164.195 34.1103 164.196 34.1117 164.196 34.1117C164.197 34.1152 164.198 34.1173 164.201 34.1207C164.202 34.1228 164.202 34.1228 164.202 34.1228C164.205 34.1332 164.209 34.1423 164.214 34.1527C164.213 34.1527 164.214 34.1527 164.214 34.1548C164.215 34.1582 164.216 34.1596 164.219 34.1617C164.219 34.1638 164.219 34.1638 164.219 34.1652C164.22 34.1673 164.221 34.1686 164.222 34.1721C164.222 34.1721 164.222 34.1721 164.223 34.1742C164.223 34.1756 164.224 34.1797 164.226 34.1811L164.226 34.1832C164.228 34.1867 164.228 34.1881 164.229 34.1902L164.23 34.1915C164.231 34.1957 164.231 34.1971 164.233 34.2006L164.233 34.2027C164.234 34.204 164.235 34.2082 164.237 34.2117C164.552 35.1126 161.305 43.2609 161.962 45.0386C161.999 45.1406 162.051 45.2218 162.117 45.2801C163.316 46.3296 171.409 43.5073 172.786 43.3949C174.286 43.2748 180.391 48.623 182.066 48.0115Z" fill="#FFC229"/>
<path fill-rule="evenodd" clip-rule="evenodd" d="M170.774 27.5689C171.537 27.2899 171.328 25.9787 170.402 26.0641C168.702 26.2203 166.805 26.2598 165.124 25.9364C164.968 25.9079 164.833 25.9169 164.716 25.9593C164.083 26.1918 164.043 27.3149 164.881 27.4766C166.679 27.8251 168.739 27.7841 170.558 27.6154C170.638 27.6085 170.71 27.5925 170.774 27.5689Z" fill="#FFE975"/>
<path fill-rule="evenodd" clip-rule="evenodd" d="M173.426 26.0533C173.543 26.0103 173.657 25.9339 173.757 25.8187C174.5 24.9552 175.247 24.0911 175.991 23.2262C176.551 22.5807 175.749 21.781 175.093 22.0212C174.976 22.0635 174.863 22.1406 174.763 22.2558C174.017 23.1193 173.272 23.9849 172.527 24.8463C171.968 25.4953 172.769 26.2949 173.426 26.0533Z" fill="#FFE975"/>
<path fill-rule="evenodd" clip-rule="evenodd" d="M28.8071 145.371C24.8289 144.607 13.7477 142.873 14.5235 135.711C15.2993 128.548 26.9171 125.946 25.9955 121.194C25.0751 116.442 14.4241 112.534 15.6326 107.39C16.8438 102.246 26.9519 96.0315 25.989 91.3788C25.0261 86.7262 21.157 79.0377 25.703 74.2246C30.2479 69.4154 39.359 75.9157 39.0768 77.9883C38.933 79.0451 36.7094 78.1991 34.3535 77.4126C32.0975 76.6619 29.7206 75.9628 28.9306 77.0455C27.3171 79.2616 35.2303 83.4312 34.5993 91.4615C33.9694 99.4878 19.9183 106.271 19.3064 107.746C18.6944 109.22 30.9126 111.588 31.2589 119.673C31.6064 127.756 18.6421 133.601 18.6974 135.698C18.7539 137.79 27.4993 137.928 31.2587 139.471C35.0168 141.012 31.974 145.982 28.8071 145.371Z" fill="#2ABBC5"/>
<path fill-rule="evenodd" clip-rule="evenodd" d="M30.6924 145.116C30.6899 145.116 30.6886 145.116 30.6874 145.12C30.1202 145.379 29.4916 145.493 28.8574 145.38C28.8536 145.38 28.8523 145.38 28.8497 145.38C28.8419 145.377 28.8329 145.377 28.8251 145.375C28.82 145.375 28.8135 145.371 28.8071 145.371C25.4748 144.729 17.1544 143.409 15.0014 138.785C14.5847 137.892 14.3989 136.872 14.5234 135.711L14.5247 135.711C14.5257 135.697 14.5266 135.684 14.5289 135.671C14.5288 135.668 14.53 135.665 14.5299 135.661C14.5299 135.659 14.5311 135.655 14.531 135.652C14.6003 135.07 14.7607 134.531 14.9587 134.006C18.0426 133.122 21.0625 132.094 23.9769 130.854C21.2521 133.06 18.786 134.698 18.7009 135.635C18.6997 135.635 18.6997 135.635 18.6997 135.635C18.6998 135.639 18.6998 135.642 18.6986 135.646C18.6999 135.646 18.6987 135.648 18.6987 135.648C18.6988 135.652 18.6976 135.655 18.6989 135.658C18.6977 135.659 18.699 135.662 18.699 135.662C18.6978 135.665 18.6979 135.669 18.698 135.671C18.698 135.671 18.698 135.671 18.6981 135.675C18.6994 135.678 18.6981 135.678 18.6982 135.682C18.6983 135.685 18.697 135.685 18.697 135.685C18.6971 135.688 18.6973 135.694 18.6973 135.698C18.7013 135.805 18.7269 135.907 18.7717 136.003C19.6287 137.809 27.6901 138.006 31.2586 139.471C34.2373 140.694 32.9454 144.067 30.7051 145.109C30.7001 145.113 30.6962 145.113 30.6924 145.116Z" fill="#35BCC3"/>
<path fill-rule="evenodd" clip-rule="evenodd" d="M38.7807 78.4013C38.0763 78.7265 36.2581 78.0509 34.3534 77.4132C32.4461 76.7781 30.4537 76.1822 29.4072 76.6652C29.3093 76.7098 29.2232 76.7643 29.1436 76.825C28.1996 75.7716 27.2004 74.7757 26.1375 73.8555C26.5291 73.515 26.9482 73.2491 27.3869 73.0493C31.8195 71.0014 38.2789 75.4031 39.0151 77.5251C39.0747 77.6975 39.0952 77.8543 39.0767 77.9889C39.0767 77.9915 39.0755 77.9954 39.0756 77.9979C39.047 78.1955 38.9435 78.3258 38.7807 78.4013Z" fill="#35BCC3"/>
<path fill-rule="evenodd" clip-rule="evenodd" d="M23.7054 117.643C22.6459 116.599 21.3577 115.566 20.1195 114.527C17.5392 112.351 15.1816 110.13 15.6035 107.62C16.8973 107.938 18.2049 108.139 19.5141 108.248C19.7405 108.461 20.1192 108.695 20.6091 108.958C22.5576 110.014 26.2528 111.56 28.7409 114.17C27.1273 115.492 25.4465 116.642 23.7054 117.643Z" fill="#35BCC3"/>
<path fill-rule="evenodd" clip-rule="evenodd" d="M31.182 93.1671C30.686 93.3939 30.0107 93.2313 29.936 92.5429C29.6906 90.2479 29.1797 88.0309 28.3641 85.8725C28.162 85.3367 28.471 84.8805 28.8778 84.6917C29.2847 84.5041 29.7921 84.5838 29.993 85.1222C30.8662 87.4276 31.4463 89.7924 31.7072 92.2468C31.7568 92.6981 31.5087 93.0148 31.182 93.1671Z" fill="#72CCD7"/>
<path fill-rule="evenodd" clip-rule="evenodd" d="M28.1583 83.8845C27.7514 84.0721 27.2198 83.9993 26.9705 83.4826C26.6221 82.7509 26.3503 81.9982 26.1267 81.2213C26.0015 80.7833 26.2049 80.4741 26.5176 80.3285C26.9919 80.1073 27.7095 80.2663 27.8993 80.9265C28.0779 81.551 28.3214 82.1434 28.5993 82.7285C28.8475 83.2504 28.5652 83.6957 28.1583 83.8845Z" fill="#72CCD7"/>
<path fill-rule="evenodd" clip-rule="evenodd" d="M23.4598 129.482C22.5227 129.914 21.8587 128.378 22.8041 127.809C23.8964 127.151 24.8007 126.272 25.53 125.23C25.6307 125.087 25.7518 124.99 25.8827 124.926C26.5947 124.598 27.5634 125.452 27.0044 126.252C26.0875 127.56 24.9325 128.602 23.5601 129.427C23.5259 129.447 23.4928 129.465 23.4598 129.482Z" fill="#72CCD7"/>
<path fill-rule="evenodd" clip-rule="evenodd" d="M28.1105 124.274C27.4862 124.56 26.5505 124.004 26.8541 123.169C26.9698 122.855 27.036 122.565 27.0703 122.235C27.1054 121.884 27.2979 121.657 27.5445 121.542C28.1027 121.283 28.9375 121.607 28.858 122.4C28.8092 122.877 28.706 123.334 28.5421 123.783C28.4531 124.031 28.2949 124.188 28.1105 124.274Z" fill="#72CCD7"/>
<path fill-rule="evenodd" clip-rule="evenodd" d="M81.4699 21.2662C78.9352 17.3555 72.0967 20.5496 74.2768 25.6472C76.4557 30.7473 83.1419 41.4294 85.9194 43.1987C88.6981 44.9668 91.6767 43.8746 90.0631 40.5844C88.4483 37.2943 83.0699 23.7322 81.4699 21.2662Z" fill="#EC357F"/>
<path fill-rule="evenodd" clip-rule="evenodd" d="M78.0106 24.3954C78.3261 23.4685 79.8287 23.0526 80.3954 24.1915C81.0968 25.6022 81.7983 27.0116 82.4997 28.421C82.6662 28.7575 82.6755 29.0756 82.5827 29.3477C82.2672 30.2759 80.7634 30.6918 80.1979 29.5516C79.4965 28.1435 78.795 26.7328 78.0936 25.3234C77.9259 24.9869 77.9178 24.6701 78.0106 24.3954Z" fill="#EF5AA0"/>
<path fill-rule="evenodd" clip-rule="evenodd" d="M110.086 21.6209C108.765 17.6048 102.705 16.685 102.537 21.4415C102.369 26.2005 106.457 40.2358 106.917 42.5621C107.374 44.8898 110.236 44.3512 111.106 41.2891C111.975 38.2296 111.873 27.0405 110.086 21.6209Z" fill="#6344C0"/>
<path fill-rule="evenodd" clip-rule="evenodd" d="M105.811 22.9634C106.113 22.0814 107.749 21.9756 108.115 23.1453C108.62 24.7464 108.945 26.3754 109.094 28.0451C109.111 28.2341 109.088 28.4056 109.036 28.5584C108.677 29.6149 106.915 29.8131 106.801 28.5162C106.651 26.8452 106.325 25.2136 105.823 23.6137C105.743 23.3656 105.748 23.147 105.811 22.9634Z" fill="#8C79B7"/>
<path fill-rule="evenodd" clip-rule="evenodd" d="M141.482 26.1084C142.779 22.2969 134.989 19.4955 133.637 23.4675C132.284 27.4382 129.171 39.6728 129.061 42.6137C128.951 45.5546 132.314 47.0888 134.583 44.471C136.85 41.8532 140.277 29.6452 141.482 26.1084Z" fill="#3FC0CA"/>
<path fill-rule="evenodd" clip-rule="evenodd" d="M136.482 27.8732C136.86 26.7653 138.6 27.3661 138.247 28.4992C137.479 30.9682 136.711 33.4334 135.942 35.9011C135.939 35.9114 135.935 35.9204 135.932 35.9307C135.554 37.0386 133.814 36.4378 134.168 35.3046C134.936 32.8382 135.704 30.3717 136.472 27.9027C136.476 27.8924 136.479 27.8834 136.482 27.8732Z" fill="#72CCD7"/>
<path fill-rule="evenodd" clip-rule="evenodd" d="M13.4739 233.242C9.66889 235.951 13.2139 242.583 18.2288 240.169C23.2464 237.755 33.6515 230.593 35.293 227.748C36.9332 224.903 35.6896 221.999 32.4629 223.762C29.2362 225.527 15.8732 231.533 13.4739 233.242Z" fill="#EC357F"/>
<path fill-rule="evenodd" clip-rule="evenodd" d="M16.7878 236.523C15.841 236.255 15.3494 234.784 16.466 234.165C17.849 233.4 19.2307 232.634 20.6124 231.868C20.9423 231.687 21.2615 231.662 21.5395 231.74C22.4876 232.008 22.9793 233.481 21.8614 234.098C20.4809 234.864 19.0979 235.629 17.7162 236.395C17.3864 236.578 17.0684 236.602 16.7878 236.523Z" fill="#EF5AA0"/>
<path fill-rule="evenodd" clip-rule="evenodd" d="M12.4264 204.813C8.45594 206.322 7.82911 212.384 12.6166 212.317C17.4066 212.251 31.3084 207.502 33.6234 206.932C35.9397 206.364 35.2581 203.549 32.1387 202.835C29.0219 202.123 17.7843 202.773 12.4264 204.813Z" fill="#6344C0"/>
<path fill-rule="evenodd" clip-rule="evenodd" d="M13.9844 208.991C13.0834 208.735 12.8968 207.116 14.0541 206.695C15.6381 206.115 17.259 205.713 18.9293 205.482C19.1183 205.456 19.2919 205.471 19.4479 205.515C20.5271 205.82 20.8127 207.559 19.5152 207.737C17.8436 207.967 16.2202 208.371 14.6373 208.948C14.3918 209.039 14.1719 209.045 13.9844 208.991Z" fill="#8C79B7"/>
<path fill-rule="evenodd" clip-rule="evenodd" d="M15.3947 173.422C11.5014 172.321 9.06888 180.193 13.1262 181.341C17.1823 182.489 29.6281 184.979 32.5885 184.944C35.5489 184.909 36.9254 181.495 34.1837 179.37C31.4422 177.248 19.0076 174.445 15.3947 173.422Z" fill="#3FC0CA"/>
<path fill-rule="evenodd" clip-rule="evenodd" d="M17.4128 178.299C16.2811 177.978 16.7994 176.222 17.9553 176.516C20.4738 177.158 22.9885 177.799 25.5057 178.441C25.5162 178.444 25.5254 178.447 25.5358 178.449C26.6676 178.771 26.1493 180.528 24.9934 180.232C22.4774 179.59 19.9615 178.949 17.443 178.307C17.4324 178.304 17.4233 178.302 17.4128 178.299Z" fill="#72CCD7"/>
<path fill-rule="evenodd" clip-rule="evenodd" d="M209.616 45.733C208.022 50.5061 215.734 53.1986 218.226 48.4806C220.036 45.0532 224.449 31.6785 222.523 30.5374C219.998 29.0422 211.646 39.6412 209.616 45.733Z" fill="#6344C0"/>
<path fill-rule="evenodd" clip-rule="evenodd" d="M212.485 47.8782C211.966 47.7083 211.564 47.2086 211.804 46.5466C212.584 44.401 213.466 42.3014 214.447 40.2427C214.747 39.6114 215.424 39.4683 215.945 39.6408C216.464 39.8107 216.833 40.2951 216.53 40.9302C215.549 42.9876 214.667 45.0885 213.888 47.2342C213.648 47.8948 213.009 48.052 212.485 47.8782Z" fill="#8C79B7"/>
</svg>
